<svg version="1.1" viewBox="0.0 0.0 693.0 371.0" fill="none" stroke="none" stroke-linecap="square" stroke-miterlimit="10" width="693" height="371" xmlns:xlink="http://www.w3.org/1999/xlink" xmlns="http://www.w3.org/2000/svg"><path fill="#ffffff" d="M0 0L693.0 0L693.0 371.0L0 371.0L0 0Z" fill-rule="nonzero"/><path stroke="#cccccc" stroke-width="1.0" stroke-linecap="butt" d="M87.5 25.5L87.5 332.5" fill-rule="nonzero"/><path stroke="#cccccc" stroke-width="1.0" stroke-linecap="butt" d="M202.5 25.5L202.5 332.5" fill-rule="nonzero"/><path stroke="#cccccc" stroke-width="1.0" stroke-linecap="butt" d="M318.5 25.5L318.5 332.5" fill-rule="nonzero"/><path stroke="#cccccc" stroke-width="1.0" stroke-linecap="butt" d="M433.5 25.5L433.5 332.5" fill-rule="nonzero"/><path stroke="#cccccc" stroke-width="1.0" stroke-linecap="butt" d="M549.5 25.5L549.5 332.5" fill-rule="nonzero"/><path stroke="#cccccc" stroke-width="1.0" stroke-linecap="butt" d="M664.5 25.5L664.5 332.5" fill-rule="nonzero"/><path stroke="#cccccc" stroke-width="1.0" stroke-linecap="butt" d="M77.5 262.5L674.5 262.5" fill-rule="nonzero"/><path stroke="#cccccc" stroke-width="1.0" stroke-linecap="butt" d="M77.5 182.5L674.5 182.5" fill-rule="nonzero"/><path stroke="#cccccc" stroke-width="1.0" stroke-linecap="butt" d="M77.5 136.5L674.5 136.5" fill-rule="nonzero"/><path stroke="#cccccc" stroke-width="1.0" stroke-linecap="butt" d="M77.5 103.5L674.5 103.5" fill-rule="nonzero"/><path stroke="#cccccc" stroke-width="1.0" stroke-linecap="butt" d="M77.5 77.5L674.5 77.5" fill-rule="nonzero"/><clipPath id="id_0"><path d="M77.55 25.55L674.45 25.55L674.45 332.45L77.55 332.45L77.55 25.55Z" clip-rule="nonzero"/></clipPath><path stroke="#fbbc04" stroke-width="2.0" stroke-linecap="butt" clip-path="url(#id_0)" d="M87.2258 302.85535L376.0 172.01778L549.2645 157.55095L653.2232 147.62407L664.77423 25.55" fill-rule="nonzero"/><path stroke="#34a853" stroke-width="2.0" stroke-linecap="butt" clip-path="url(#id_0)" d="M87.2258 272.87964L376.0 249.63731L549.2645 228.1637L653.2232 168.67015L664.77423 69.20804" fill-rule="nonzero"/><path stroke="#4285f4" stroke-width="2.0" stroke-linecap="butt" clip-path="url(#id_0)" d="M87.2258 332.45L376.0 307.85483L549.2645 295.74152L653.2232 285.48264L664.77423 282.02982" fill-rule="nonzero"/><path fill="#fbbc04" clip-path="url(#id_0)" d="M93.2258 302.85535C93.2258 306.16904 90.539505 308.85535 87.2258 308.85535C83.91209 308.85535 81.2258 306.16904 81.2258 302.85535C81.2258 299.54163 83.91209 296.85535 87.2258 296.85535C90.539505 296.85535 93.2258 299.54163 93.2258 302.85535Z" fill-rule="nonzero"/><path fill="#fbbc04" clip-path="url(#id_0)" d="M382.0 172.01778C382.0 175.33148 379.31372 178.01778 376.0 178.01778C372.68628 178.01778 370.0 175.33148 370.0 172.01778C370.0 168.70407 372.68628 166.01778 376.0 166.01778C379.31372 166.01778 382.0 168.70407 382.0 172.01778Z" fill-rule="nonzero"/><path fill="#fbbc04" clip-path="url(#id_0)" d="M555.2645 157.55095C555.2645 160.86465 552.57825 163.55095 549.2645 163.55095C545.9508 163.55095 543.2645 160.86465 543.2645 157.55095C543.2645 154.23723 545.9508 151.55095 549.2645 151.55095C552.57825 151.55095 555.2645 154.23723 555.2645 157.55095Z" fill-rule="nonzero"/><path fill="#fbbc04" clip-path="url(#id_0)" d="M659.2232 147.62407C659.2232 150.93777 656.5369 153.62407 653.2232 153.62407C649.90955 153.62407 647.2232 150.93777 647.2232 147.62407C647.2232 144.31036 649.90955 141.62407 653.2232 141.62407C656.5369 141.62407 659.2232 144.31036 659.2232 147.62407Z" fill-rule="nonzero"/><path fill="#fbbc04" clip-path="url(#id_0)" d="M670.77423 25.55C670.77423 28.863708 668.0879 31.55 664.77423 31.55C661.4605 31.55 658.77423 28.863708 658.77423 25.55C658.77423 22.236292 661.4605 19.55 664.77423 19.55C668.0879 19.55 670.77423 22.236292 670.77423 25.55Z" fill-rule="nonzero"/><path fill="#34a853" clip-path="url(#id_0)" d="M93.2258 272.87964C93.2258 276.19336 90.539505 278.87964 87.2258 278.87964C83.91209 278.87964 81.2258 276.19336 81.2258 272.87964C81.2258 269.56595 83.91209 266.87964 87.2258 266.87964C90.539505 266.87964 93.2258 269.56595 93.2258 272.87964Z" fill-rule="nonzero"/><path fill="#34a853" clip-path="url(#id_0)" d="M382.0 249.63731C382.0 252.95103 379.31372 255.63731 376.0 255.63731C372.68628 255.63731 370.0 252.95103 370.0 249.63731C370.0 246.32361 372.68628 243.63731 376.0 243.63731C379.31372 243.63731 382.0 246.32361 382.0 249.63731Z" fill-rule="nonzero"/><path fill="#34a853" clip-path="url(#id_0)" d="M555.2645 228.1637C555.2645 231.4774 552.57825 234.1637 549.2645 234.1637C545.9508 234.1637 543.2645 231.4774 543.2645 228.1637C543.2645 224.84999 545.9508 222.1637 549.2645 222.1637C552.57825 222.1637 555.2645 224.84999 555.2645 228.1637Z" fill-rule="nonzero"/><path fill="#34a853" clip-path="url(#id_0)" d="M659.2232 168.67015C659.2232 171.98386 656.5369 174.67015 653.2232 174.67015C649.90955 174.67015 647.2232 171.98386 647.2232 168.67015C647.2232 165.35645 649.90955 162.67015 653.2232 162.67015C656.5369 162.67015 659.2232 165.35645 659.2232 168.67015Z" fill-rule="nonzero"/><path fill="#34a853" clip-path="url(#id_0)" d="M670.77423 69.20804C670.77423 72.52174 668.0879 75.20804 664.77423 75.20804C661.4605 75.20804 658.77423 72.52174 658.77423 69.20804C658.77423 65.894325 661.4605 63.20804 664.77423 63.20804C668.0879 63.20804 670.77423 65.894325 670.77423 69.20804Z" fill-rule="nonzero"/><path fill="#4285f4" clip-path="url(#id_0)" d="M93.2258 332.45C93.2258 335.7637 90.539505 338.45 87.2258 338.45C83.91209 338.45 81.2258 335.7637 81.2258 332.45C81.2258 329.1363 83.91209 326.45 87.2258 326.45C90.539505 326.45 93.2258 329.1363 93.2258 332.45Z" fill-rule="nonzero"/><path fill="#4285f4" clip-path="url(#id_0)" d="M382.0 307.85483C382.0 311.16852 379.31372 313.85483 376.0 313.85483C372.68628 313.85483 370.0 311.16852 370.0 307.85483C370.0 304.5411 372.68628 301.85483 376.0 301.85483C379.31372 301.85483 382.0 304.5411 382.0 307.85483Z" fill-rule="nonzero"/><path fill="#4285f4" clip-path="url(#id_0)" d="M555.2645 295.74152C555.2645 299.05524 552.57825 301.74152 549.2645 301.74152C545.9508 301.74152 543.2645 299.05524 543.2645 295.74152C543.2645 292.42783 545.9508 289.74152 549.2645 289.74152C552.57825 289.74152 555.2645 292.42783 555.2645 295.74152Z" fill-rule="nonzero"/><path fill="#4285f4" clip-path="url(#id_0)" d="M659.2232 285.48264C659.2232 288.79633 656.5369 291.48264 653.2232 291.48264C649.90955 291.48264 647.2232 288.79633 647.2232 285.48264C647.2232 282.1689 649.90955 279.48264 653.2232 279.48264C656.5369 279.48264 659.2232 282.1689 659.2232 285.48264Z" fill-rule="nonzero"/><path fill="#4285f4" clip-path="url(#id_0)" d="M670.77423 282.02982C670.77423 285.3435 668.0879 288.02982 664.77423 288.02982C661.4605 288.02982 658.77423 285.3435 658.77423 282.02982C658.77423 278.7161 661.4605 276.02982 664.77423 276.02982C668.0879 276.02982 670.77423 278.7161 670.77423 282.02982Z" fill-rule="nonzero"/><path fill="#000000" d="M29.550013 227.73438L20.956263 227.73438L20.956263 226.67188L29.550013 226.67188L29.550013 227.73438ZM26.440638 225.09375Q24.706263 225.09375 23.878138 224.14062Q23.190638 223.34375 23.190638 222.1875Q23.190638 220.90625 24.034388 220.09375Q24.862513 219.26562 26.346888 219.26562Q27.550013 219.26562 28.237513 219.625Q28.925013 219.98438 29.315638 220.6875Q29.690638 221.375 29.690638 222.1875Q29.690638 223.48438 28.862513 224.29688Q28.018763 225.09375 26.440638 225.09375ZM26.440638 224.01562Q27.628138 224.01562 28.221888 223.5Q28.815638 222.96875 28.815638 222.1875Q28.815638 221.39062 28.221888 220.875Q27.628138 220.35938 26.409388 220.35938Q25.253138 220.35938 24.659388 220.89062Q24.065638 221.40625 24.065638 222.1875Q24.065638 222.96875 24.659388 223.5Q25.237513 224.01562 26.440638 224.01562ZM30.065638 217.90625L30.221888 216.875Q30.690638 216.8125 30.909388 216.51562Q31.206263 216.125 31.206263 215.45312Q31.206263 214.71875 30.909388 214.32812Q30.612513 213.92188 30.096888 213.78125Q29.768763 213.6875 28.737513 213.70312Q29.550013 214.39062 29.550013 215.42188Q29.550013 216.70312 28.628138 217.40625Q27.690638 218.10938 26.409388 218.10938Q25.518763 218.10938 24.768763 217.79688Q24.003138 217.46875 23.596888 216.85938Q23.190638 216.25 23.190638 215.42188Q23.190638 214.3125 24.081263 213.59375L23.331263 213.59375L23.331263 212.625L28.706263 212.625Q30.159388 212.625 30.768763 212.92188Q31.378138 213.21875 31.721888 213.85938Q32.08126 214.5 32.08126 215.4375Q32.08126 216.54688 31.581263 217.23438Q31.081263 217.92188 30.065638 217.90625ZM26.331263 217.03125Q27.550013 217.03125 28.112513 216.54688Q28.675013 216.0625 28.675013 215.32812Q28.675013 214.59375 28.112513 214.10938Q27.550013 213.60938 26.362513 213.60938Q25.221888 213.60938 24.643763 214.125Q24.065638 214.625 24.065638 215.34375Q24.065638 216.04688 24.643763 216.54688Q25.206263 217.03125 26.331263 217.03125ZM29.550013 207.73438L20.956263 207.73438L20.956263 206.67188L29.550013 206.67188L29.550013 207.73438ZM28.784388 200.64062Q29.284388 201.23438 29.487513 201.78125Q29.690638 202.3125 29.690638 202.9375Q29.690638 203.96875 29.190638 204.51562Q28.690638 205.0625 27.909388 205.0625Q27.456263 205.0625 27.081263 204.85938Q26.690638 204.65625 26.471888 204.3125Q26.237513 203.96875 26.128138 203.54688Q26.034388 203.25 25.956263 202.60938Q25.815638 201.34375 25.596888 200.73438Q25.378138 200.73438 25.331263 200.73438Q24.675013 200.73438 24.409388 201.03125Q24.065638 201.4375 24.065638 202.23438Q24.065638 202.96875 24.331263 203.32812Q24.581263 203.6875 25.237513 203.85938L25.096888 204.89062Q24.440638 204.75 24.034388 204.42188Q23.628138 204.09375 23.409388 203.48438Q23.190638 202.875 23.190638 202.07812Q23.190638 201.28125 23.378138 200.78125Q23.565638 200.28125 23.846888 200.04688Q24.128138 199.8125 24.565638 199.71875Q24.831263 199.67188 25.534388 199.67188L26.940638 199.67188Q28.409388 199.67188 28.800013 199.60938Q29.190638 199.53125 29.550013 199.32812L29.550013 200.4375Q29.221888 200.59375 28.784388 200.64062ZM26.425013 200.73438Q26.659388 201.3125 26.831263 202.45312Q26.925013 203.10938 27.050013 203.375Q27.159388 203.64062 27.378138 203.79688Q27.596888 203.9375 27.878138 203.9375Q28.300013 203.9375 28.581263 203.625Q28.862513 203.29688 28.862513 202.6875Q28.862513 202.07812 28.596888 201.60938Q28.331263 201.125 27.862513 200.90625Q27.503138 200.73438 26.815638 200.73438L26.425013 200.73438ZM28.612513 195.40625L29.534388 195.25Q29.628138 195.70312 29.628138 196.04688Q29.628138 196.625 29.456263 196.9375Q29.268763 197.25 28.971888 197.39062Q28.675013 197.51562 27.721888 197.51562L24.143763 197.51562L24.143763 198.28125L23.331263 198.28125L23.331263 197.51562L21.784388 197.51562L21.159388 196.46875L23.331263 196.46875L23.331263 195.40625L24.143763 195.40625L24.143763 196.46875L27.784388 196.46875Q28.237513 196.46875 28.362513 196.42188Q28.487513 196.35938 28.565638 196.23438Q28.643763 196.10938 28.643763 195.875Q28.643763 195.6875 28.612513 195.40625ZM27.550013 190.45312L27.675013 189.35938Q28.628138 189.60938 29.159388 190.3125Q29.690638 191.01562 29.690638 192.09375Q29.690638 193.45312 28.846888 194.26562Q28.003138 195.0625 26.487513 195.0625Q24.925013 195.0625 24.065638 194.25Q23.190638 193.4375 23.190638 192.15625Q23.190638 190.90625 24.034388 190.125Q24.878138 189.32812 26.425013 189.32812Q26.518763 189.32812 26.706263 189.32812L26.706263 193.96875Q27.737513 193.90625 28.284388 193.39062Q28.815638 192.875 28.815638 192.09375Q28.815638 191.51562 28.518763 191.10938Q28.206263 190.6875 27.550013 190.45312ZM25.846888 193.90625L25.846888 190.4375Q25.050013 190.5 24.659388 190.82812Q24.050013 191.34375 24.050013 192.14062Q24.050013 192.875 24.534388 193.375Q25.018763 193.85938 25.846888 193.90625ZM29.550013 187.70312L23.331263 187.70312L23.331263 186.76562L24.206263 186.76562Q23.190638 186.07812 23.190638 184.78125Q23.190638 184.21875 23.393763 183.75Q23.596888 183.26562 23.925013 183.03125Q24.253138 182.79688 24.690638 182.70312Q24.987513 182.65625 25.721888 182.65625L29.550013 182.65625L29.550013 183.70312L25.768763 183.70312Q25.112513 183.70312 24.800013 183.82812Q24.487513 183.95312 24.300013 184.26562Q24.096888 184.57812 24.096888 185.0Q24.096888 185.67188 24.534388 186.17188Q24.956263 186.65625 26.143763 186.65625L29.550013 186.65625L29.550013 187.70312ZM27.268763 176.64062L27.409388 175.60938Q28.471888 175.78125 29.081263 176.48438Q29.690638 177.1875 29.690638 178.20312Q29.690638 179.48438 28.862513 180.26562Q28.018763 181.03125 26.456263 181.03125Q25.456263 181.03125 24.706263 180.70312Q23.940638 180.35938 23.565638 179.6875Q23.190638 179.0 23.190638 178.1875Q23.190638 177.1875 23.706263 176.54688Q24.206263 175.89062 25.159388 175.70312L25.315638 176.73438Q24.690638 176.875 24.378138 177.25Q24.050013 177.625 24.050013 178.15625Q24.050013 178.95312 24.628138 179.45312Q25.190638 179.95312 26.425013 179.95312Q27.690638 179.95312 28.253138 179.46875Q28.815638 178.98438 28.815638 178.21875Q28.815638 177.59375 28.440638 177.1875Q28.065638 176.76562 27.268763 176.64062ZM31.940638 174.75L30.956263 174.875Q31.050013 174.53125 31.050013 174.26562Q31.050013 173.92188 30.925013 173.71875Q30.815638 173.5 30.612513 173.35938Q30.440638 173.26562 29.815638 173.03125Q29.737513 173.01562 29.565638 172.9375L23.331263 175.3125L23.331263 174.17188L26.925013 172.875Q27.612513 172.625 28.378138 172.42188Q27.643763 172.23438 26.956263 171.98438L23.331263 170.65625L23.331263 169.60938L29.659388 171.96875Q30.675013 172.35938 31.065638 172.5625Q31.596888 172.84375 31.831263 173.21875Q32.08126 173.57812 32.08126 174.07812Q32.08126 174.375 31.940638 174.75ZM32.08126 163.6875Q30.971888 164.5625 29.503138 165.17188Q28.018763 165.76562 26.440638 165.76562Q25.050013 165.76562 23.768763 165.32812Q22.284388 164.79688 20.815638 163.6875L20.815638 162.9375Q22.034388 163.64062 22.550013 163.875Q23.362513 164.23438 24.237513 164.4375Q25.331263 164.6875 26.440638 164.6875Q29.268763 164.6875 32.08126 162.9375L32.08126 163.6875ZM29.550013 161.70312L23.331263 161.70312L23.331263 160.76562L24.206263 160.76562Q23.737513 160.46875 23.471888 159.98438Q23.190638 159.5 23.190638 158.875Q23.190638 158.1875 23.471888 157.75Q23.753138 157.29688 24.268763 157.125Q23.190638 156.375 23.190638 155.20312Q23.190638 154.26562 23.706263 153.78125Q24.206263 153.28125 25.284388 153.28125L29.550013 153.28125L29.550013 154.32812L25.628138 154.32812Q25.003138 154.32812 24.721888 154.4375Q24.440638 154.53125 24.268763 154.79688Q24.096888 155.0625 24.096888 155.4375Q24.096888 156.09375 24.534388 156.53125Q24.971888 156.95312 25.940638 156.95312L29.550013 156.95312L29.550013 158.01562L25.503138 158.01562Q24.800013 158.01562 24.456263 158.28125Q24.096888 158.53125 24.096888 159.10938Q24.096888 159.5625 24.331263 159.9375Q24.565638 160.3125 25.018763 160.48438Q25.471888 160.65625 26.315638 160.65625L29.550013 160.65625L29.550013 161.70312ZM27.690638 152.125L27.534388 151.09375Q28.159388 151.0 28.487513 150.60938Q28.815638 150.20312 28.815638 149.46875Q28.815638 148.75 28.534388 148.40625Q28.237513 148.04688 27.831263 148.04688Q27.471888 148.04688 27.268763 148.35938Q27.128138 148.57812 26.909388 149.4375Q26.612513 150.59375 26.409388 151.04688Q26.190638 151.48438 25.815638 151.71875Q25.440638 151.95312 24.971888 151.95312Q24.565638 151.95312 24.206263 151.76562Q23.846888 151.57812 23.612513 151.25Q23.440638 151.0 23.315638 150.57812Q23.190638 150.15625 23.190638 149.65625Q23.190638 148.9375 23.409388 148.39062Q23.612513 147.82812 23.971888 147.5625Q24.331263 147.29688 24.925013 147.20312L25.065638 148.23438Q24.596888 148.29688 24.331263 148.64062Q24.050013 148.96875 24.050013 149.59375Q24.050013 150.3125 24.300013 150.625Q24.534388 150.9375 24.862513 150.9375Q25.065638 150.9375 25.221888 150.8125Q25.393763 150.67188 25.503138 150.40625Q25.565638 150.25 25.768763 149.46875Q26.081263 148.34375 26.268763 147.90625Q26.456263 147.46875 26.815638 147.21875Q27.175013 146.96875 27.721888 146.96875Q28.253138 146.96875 28.721888 147.28125Q29.175013 147.57812 29.440638 148.15625Q29.690638 148.73438 29.690638 149.46875Q29.690638 150.6875 29.190638 151.32812Q28.675013 151.95312 27.690638 152.125ZM32.08126 145.01562L32.08126 145.76562Q29.268763 144.01562 26.440638 144.01562Q25.346888 144.01562 24.253138 144.26562Q23.378138 144.46875 22.565638 144.82812Q22.050013 145.0625 20.815638 145.76562L20.815638 145.01562Q22.284388 143.92188 23.768763 143.39062Q25.050013 142.9375 26.440638 142.9375Q28.018763 142.9375 29.503138 143.54688Q30.971888 144.15625 32.08126 145.01562Z" fill-rule="nonzero"/><path fill="#000000" d="M70.59688 265.6511L70.59688 266.66672L64.90938 266.66672Q64.90938 266.29172 65.03438 265.93234Q65.25313 265.35422 65.72188 264.79172Q66.20625 264.22922 67.1125 263.49484Q68.51875 262.3386 69.00313 261.66672Q69.50313 260.99484 69.50313 260.4011Q69.50313 259.7761 69.05 259.35422Q68.59688 258.91672 67.87813 258.91672Q67.1125 258.91672 66.65938 259.36984Q66.20625 259.82297 66.19063 260.63547L65.1125 260.5261Q65.22188 259.30734 65.94063 258.68234Q66.675 258.04172 67.90938 258.04172Q69.14375 258.04172 69.8625 258.72922Q70.58125 259.41672 70.58125 260.43234Q70.58125 260.94797 70.3625 261.44797Q70.15938 261.93234 69.65938 262.49484Q69.175 263.04172 68.05 263.99484Q67.09688 264.79172 66.81563 265.0886Q66.55 265.36984 66.37813 265.6511L70.59688 265.6511Z" fill-rule="nonzero"/><path fill="#000000" d="M68.425 186.97559L68.425 184.91309L64.70625 184.91309L64.70625 183.94434L68.62813 178.38184L69.4875 178.38184L69.4875 183.94434L70.64375 183.94434L70.64375 184.91309L69.4875 184.91309L69.4875 186.97559L68.425 186.97559ZM68.425 183.94434L68.425 180.08496L65.7375 183.94434L68.425 183.94434Z" fill-rule="nonzero"/><path fill="#000000" d="M70.51875 133.8749L69.47188 133.95302Q69.33125 133.32802 69.08125 133.04677Q68.64375 132.59364 68.01875 132.59364Q67.51875 132.59364 67.12813 132.8749Q66.64375 133.2499 66.34688 133.95302Q66.06563 134.64052 66.05 135.92177Q66.425 135.34364 66.97188 135.0624Q67.53438 134.78114 68.14375 134.78114Q69.19063 134.78114 69.925 135.5624Q70.675 136.34364 70.675 137.5624Q70.675 138.3749 70.31563 139.07802Q69.97188 139.76552 69.3625 140.14052Q68.75313 140.4999 67.9875 140.4999Q66.65938 140.4999 65.83125 139.53114Q65.00313 138.5624 65.00313 136.34364Q65.00313 133.84364 65.925 132.71864Q66.72188 131.73427 68.08125 131.73427Q69.09688 131.73427 69.7375 132.3124Q70.39375 132.8749 70.51875 133.8749ZM66.22188 137.57802Q66.22188 138.1249 66.44063 138.6249Q66.675 139.10927 67.08125 139.3749Q67.50313 139.64052 67.97188 139.64052Q68.62813 139.64052 69.1125 139.10927Q69.59688 138.5624 69.59688 137.64052Q69.59688 136.7499 69.1125 136.23427Q68.64375 135.71864 67.925 135.71864Q67.20625 135.71864 66.70625 136.23427Q66.22188 136.7499 66.22188 137.57802Z" fill-rule="nonzero"/><path fill="#000000" d="M66.675 102.628204Q66.01875 102.378204 65.69063 101.940704Q65.37813 101.48758 65.37813 100.878204Q65.37813 99.940704 66.05 99.30008Q66.7375 98.659454 67.84688 98.659454Q68.97188 98.659454 69.65938 99.315704Q70.34688 99.971954 70.34688 100.909454Q70.34688 101.503204 70.03438 101.940704Q69.72188 102.378204 69.08125 102.628204Q69.87813 102.878204 70.28438 103.45633Q70.69063 104.034454 70.69063 104.83133Q70.69063 105.92508 69.90938 106.67508Q69.14375 107.42508 67.8625 107.42508Q66.59688 107.42508 65.81563 106.67508Q65.03438 105.92508 65.03438 104.80008Q65.03438 103.95633 65.45625 103.39383Q65.89375 102.83133 66.675 102.628204ZM66.45625 100.83133Q66.45625 101.440704 66.84688 101.83133Q67.25313 102.221954 67.87813 102.221954Q68.4875 102.221954 68.87813 101.846954Q69.26875 101.45633 69.26875 100.89383Q69.26875 100.315704 68.8625 99.92508Q68.45625 99.51883 67.8625 99.51883Q67.25313 99.51883 66.84688 99.909454Q66.45625 100.30008 66.45625 100.83133ZM66.12813 104.80008Q66.12813 105.253204 66.33125 105.67508Q66.55 106.096954 66.97188 106.33133Q67.39375 106.565704 67.87813 106.565704Q68.62813 106.565704 69.1125 106.08133Q69.6125 105.596954 69.6125 104.846954Q69.6125 104.08133 69.1125 103.58133Q68.6125 103.08133 67.84688 103.08133Q67.09688 103.08133 66.6125 103.58133Q66.12813 104.065704 66.12813 104.80008Z" fill-rule="nonzero"/><path fill="#000000" d="M62.01875 81.62964L60.971874 81.62964L60.971874 74.91089Q60.58125 75.27026 59.95625 75.64526Q59.346874 76.00464 58.8625 76.17651L58.8625 75.16089Q59.7375 74.73901 60.39375 74.16089Q61.065624 73.56714 61.346874 73.00464L62.01875 73.00464L62.01875 81.62964ZM65.05 77.39526Q65.05 75.86401 65.3625 74.94214Q65.675 74.00464 66.28438 73.50464Q66.90938 73.00464 67.84688 73.00464Q68.53438 73.00464 69.05 73.28589Q69.58125 73.56714 69.925 74.09839Q70.26875 74.61401 70.45625 75.36401Q70.64375 76.11401 70.64375 77.39526Q70.64375 78.91089 70.33125 79.83276Q70.03438 80.75464 69.40938 81.27026Q68.8 81.77026 67.84688 81.77026Q66.6125 81.77026 65.89375 80.87964Q65.05 79.81714 65.05 77.39526ZM66.12813 77.39526Q66.12813 79.50464 66.62813 80.20776Q67.12813 80.91089 67.84688 80.91089Q68.58125 80.91089 69.06563 80.20776Q69.56563 79.50464 69.56563 77.39526Q69.56563 75.27026 69.06563 74.58276Q68.58125 73.87964 67.83125 73.87964Q67.1125 73.87964 66.675 74.48901Q66.12813 75.27026 66.12813 77.39526Z" fill-rule="nonzero"/><path fill="#000000" d="M79.2258 345.21564Q79.2258 343.6844 79.5383 342.7625Q79.8508 341.825 80.460175 341.325Q81.085175 340.825 82.022675 340.825Q82.710175 340.825 83.2258 341.10626Q83.75705 341.3875 84.1008 341.91876Q84.44455 342.4344 84.63205 343.1844Q84.81955 343.9344 84.81955 345.21564Q84.81955 346.73126 84.50705 347.65314Q84.210175 348.575 83.585175 349.09064Q82.9758 349.59064 82.022675 349.59064Q80.7883 349.59064 80.06955 348.7Q79.2258 347.6375 79.2258 345.21564ZM80.303925 345.21564Q80.303925 347.325 80.803925 348.02814Q81.303925 348.73126 82.022675 348.73126Q82.75705 348.73126 83.241425 348.02814Q83.741425 347.325 83.741425 345.21564Q83.741425 343.09064 83.241425 342.40314Q82.75705 341.7 82.00705 341.7Q81.2883 341.7 80.8508 342.3094Q80.303925 343.09064 80.303925 345.21564ZM86.81955 349.45L86.81955 348.2469L88.022675 348.2469L88.022675 349.45L86.81955 349.45ZM89.2258 347.2L90.335175 347.10626Q90.460175 347.91876 90.897675 348.325Q91.3508 348.73126 91.991425 348.73126Q92.741425 348.73126 93.272675 348.15314Q93.803925 347.575 93.803925 346.6375Q93.803925 345.73126 93.2883 345.21564Q92.7883 344.6844 91.960175 344.6844Q91.460175 344.6844 91.0383 344.91876Q90.63205 345.15314 90.397675 345.5125L89.4133 345.3875L90.241425 340.98126L94.522675 340.98126L94.522675 341.98126L91.085175 341.98126L90.63205 344.29376Q91.397675 343.7469 92.241425 343.7469Q93.366425 343.7469 94.13205 344.52814Q94.9133 345.3094 94.9133 346.54376Q94.9133 347.7 94.241425 348.5594Q93.4133 349.59064 91.991425 349.59064Q90.81955 349.59064 90.06955 348.9344Q89.335175 348.27814 89.2258 347.2Z" fill-rule="nonzero"/><path fill="#000000" d="M194.73547 345.21564Q194.73547 343.6844 195.04797 342.7625Q195.36047 341.825 195.96985 341.325Q196.59485 340.825 197.53235 340.825Q198.21985 340.825 198.73547 341.10626Q199.26672 341.3875 199.61047 341.91876Q199.95422 342.4344 200.14172 343.1844Q200.32922 343.9344 200.32922 345.21564Q200.32922 346.73126 200.01672 347.65314Q199.71985 348.575 199.09485 349.09064Q198.48547 349.59064 197.53235 349.59064Q196.29797 349.59064 195.57922 348.7Q194.73547 347.6375 194.73547 345.21564ZM195.8136 345.21564Q195.8136 347.325 196.3136 348.02814Q196.8136 348.73126 197.53235 348.73126Q198.26672 348.73126 198.7511 348.02814Q199.2511 347.325 199.2511 345.21564Q199.2511 343.09064 198.7511 342.40314Q198.26672 341.7 197.51672 341.7Q196.79797 341.7 196.36047 342.3094Q195.8136 343.09064 195.8136 345.21564ZM202.32922 349.45L202.32922 348.2469L203.53235 348.2469L203.53235 349.45L202.32922 349.45ZM210.20422 342.96564L209.15735 343.04376Q209.01672 342.41876 208.76672 342.1375Q208.32922 341.6844 207.70422 341.6844Q207.20422 341.6844 206.8136 341.96564Q206.32922 342.34064 206.03235 343.04376Q205.7511 343.73126 205.73547 345.0125Q206.11047 344.4344 206.65735 344.15314Q207.21985 343.8719 207.82922 343.8719Q208.8761 343.8719 209.61047 344.65314Q210.36047 345.4344 210.36047 346.65314Q210.36047 347.46564 210.0011 348.16876Q209.65735 348.85626 209.04797 349.23126Q208.4386 349.59064 207.67297 349.59064Q206.34485 349.59064 205.51672 348.6219Q204.6886 347.65314 204.6886 345.4344Q204.6886 342.9344 205.61047 341.8094Q206.40735 340.825 207.76672 340.825Q208.78235 340.825 209.42297 341.40314Q210.07922 341.96564 210.20422 342.96564ZM205.90735 346.66876Q205.90735 347.21564 206.1261 347.71564Q206.36047 348.2 206.76672 348.46564Q207.1886 348.73126 207.65735 348.73126Q208.3136 348.73126 208.79797 348.2Q209.28235 347.65314 209.28235 346.73126Q209.28235 345.84064 208.79797 345.325Q208.32922 344.8094 207.61047 344.8094Q206.89172 344.8094 206.39172 345.325Q205.90735 345.84064 205.90735 346.66876Z" fill-rule="nonzero"/><path fill="#000000" d="M310.24515 345.21564Q310.24515 343.6844 310.55765 342.7625Q310.87015 341.825 311.47952 341.325Q312.10452 340.825 313.04202 340.825Q313.72952 340.825 314.24515 341.10626Q314.7764 341.3875 315.12015 341.91876Q315.4639 342.4344 315.6514 343.1844Q315.8389 343.9344 315.8389 345.21564Q315.8389 346.73126 315.5264 347.65314Q315.22952 348.575 314.60452 349.09064Q313.99515 349.59064 313.04202 349.59064Q311.80765 349.59064 311.0889 348.7Q310.24515 347.6375 310.24515 345.21564ZM311.32327 345.21564Q311.32327 347.325 311.82327 348.02814Q312.32327 348.73126 313.04202 348.73126Q313.7764 348.73126 314.26077 348.02814Q314.76077 347.325 314.76077 345.21564Q314.76077 343.09064 314.26077 342.40314Q313.7764 341.7 313.0264 341.7Q312.30765 341.7 311.87015 342.3094Q311.32327 343.09064 311.32327 345.21564ZM317.8389 349.45L317.8389 348.2469L319.04202 348.2469L319.04202 349.45L317.8389 349.45ZM320.30765 341.98126L320.30765 340.96564L325.87015 340.96564L325.87015 341.79376Q325.05765 342.66876 324.24515 344.1219Q323.44827 345.5594 323.01077 347.09064Q322.68265 348.16876 322.60452 349.45L321.51077 349.45Q321.5264 348.4344 321.9014 346.9969Q322.29202 345.5594 322.99515 344.23126Q323.7139 342.90314 324.5264 341.98126L320.30765 341.98126Z" fill-rule="nonzero"/><path fill="#000000" d="M425.75485 345.21564Q425.75485 343.6844 426.06735 342.7625Q426.37985 341.825 426.98923 341.325Q427.61423 340.825 428.55173 340.825Q429.23923 340.825 429.75485 341.10626Q430.2861 341.3875 430.62985 341.91876Q430.9736 342.4344 431.1611 343.1844Q431.3486 343.9344 431.3486 345.21564Q431.3486 346.73126 431.0361 347.65314Q430.73923 348.575 430.11423 349.09064Q429.50485 349.59064 428.55173 349.59064Q427.31735 349.59064 426.5986 348.7Q425.75485 347.6375 425.75485 345.21564ZM426.83298 345.21564Q426.83298 347.325 427.33298 348.02814Q427.83298 348.73126 428.55173 348.73126Q429.2861 348.73126 429.77048 348.02814Q430.27048 347.325 430.27048 345.21564Q430.27048 343.09064 429.77048 342.40314Q429.2861 341.7 428.5361 341.7Q427.81735 341.7 427.37985 342.3094Q426.83298 343.09064 426.83298 345.21564ZM433.3486 349.45L433.3486 348.2469L434.55173 348.2469L434.55173 349.45L433.3486 349.45ZM437.37985 344.79376Q436.7236 344.54376 436.39548 344.10626Q436.08298 343.65314 436.08298 343.04376Q436.08298 342.10626 436.75485 341.46564Q437.44235 340.825 438.55173 340.825Q439.67673 340.825 440.36423 341.48126Q441.05173 342.1375 441.05173 343.075Q441.05173 343.66876 440.73923 344.10626Q440.42673 344.54376 439.7861 344.79376Q440.58298 345.04376 440.98923 345.6219Q441.39548 346.2 441.39548 346.9969Q441.39548 348.09064 440.61423 348.84064Q439.8486 349.59064 438.56735 349.59064Q437.30173 349.59064 436.52048 348.84064Q435.73923 348.09064 435.73923 346.96564Q435.73923 346.1219 436.1611 345.5594Q436.5986 344.9969 437.37985 344.79376ZM437.1611 342.9969Q437.1611 343.60626 437.55173 343.9969Q437.95798 344.3875 438.58298 344.3875Q439.19235 344.3875 439.58298 344.0125Q439.9736 343.6219 439.9736 343.0594Q439.9736 342.48126 439.56735 342.09064Q439.1611 341.6844 438.56735 341.6844Q437.95798 341.6844 437.55173 342.075Q437.1611 342.46564 437.1611 342.9969ZM436.83298 346.96564Q436.83298 347.41876 437.0361 347.84064Q437.25485 348.2625 437.67673 348.4969Q438.0986 348.73126 438.58298 348.73126Q439.33298 348.73126 439.81735 348.2469Q440.31735 347.7625 440.31735 347.0125Q440.31735 346.2469 439.81735 345.7469Q439.31735 345.2469 438.55173 345.2469Q437.80173 345.2469 437.31735 345.7469Q436.83298 346.23126 436.83298 346.96564Z" fill-rule="nonzero"/><path fill="#000000" d="M541.2645 345.21564Q541.2645 343.6844 541.577 342.7625Q541.8895 341.825 542.4989 341.325Q543.1239 340.825 544.0614 340.825Q544.7489 340.825 545.2645 341.10626Q545.7958 341.3875 546.1395 341.91876Q546.4833 342.4344 546.6708 343.1844Q546.8583 343.9344 546.8583 345.21564Q546.8583 346.73126 546.5458 347.65314Q546.2489 348.575 545.6239 349.09064Q545.0145 349.59064 544.0614 349.59064Q542.827 349.59064 542.1083 348.7Q541.2645 347.6375 541.2645 345.21564ZM542.34265 345.21564Q542.34265 347.325 542.84265 348.02814Q543.34265 348.73126 544.0614 348.73126Q544.7958 348.73126 545.28015 348.02814Q545.78015 347.325 545.78015 345.21564Q545.78015 343.09064 545.28015 342.40314Q544.7958 341.7 544.0458 341.7Q543.327 341.7 542.8895 342.3094Q542.34265 343.09064 542.34265 345.21564ZM548.8583 349.45L548.8583 348.2469L550.0614 348.2469L550.0614 349.45L548.8583 349.45ZM551.4208 347.46564L552.4364 347.3719Q552.5614 348.09064 552.9208 348.41876Q553.2958 348.73126 553.8583 348.73126Q554.34265 348.73126 554.702 348.5125Q555.077 348.27814 555.3114 347.91876Q555.5458 347.54376 555.702 346.91876Q555.8583 346.27814 555.8583 345.6219Q555.8583 345.54376 555.8583 345.40314Q555.5458 345.90314 554.9989 346.23126Q554.452 346.54376 553.8114 346.54376Q552.7333 346.54376 551.9989 345.77814Q551.2645 344.9969 551.2645 343.73126Q551.2645 342.41876 552.03015 341.6219Q552.8114 340.825 553.96765 340.825Q554.7958 340.825 555.4833 341.27814Q556.1864 341.73126 556.5458 342.575Q556.90515 343.40314 556.90515 344.98126Q556.90515 346.6219 556.5458 347.60626Q556.202 348.575 555.4833 349.09064Q554.78015 349.59064 553.84265 349.59064Q552.827 349.59064 552.1864 349.04376Q551.5458 348.48126 551.4208 347.46564ZM555.7333 343.66876Q555.7333 342.7625 555.2489 342.23126Q554.78015 341.7 554.09265 341.7Q553.3895 341.7 552.8583 342.27814Q552.34265 342.84064 552.34265 343.7625Q552.34265 344.575 552.84265 345.09064Q553.34265 345.60626 554.0614 345.60626Q554.7958 345.60626 555.2645 345.09064Q555.7333 344.575 555.7333 343.66876Z" fill-rule="nonzero"/><path fill="#000000" d="M665.743 349.45L664.6961 349.45L664.6961 342.73126Q664.3055 343.09064 663.6805 343.46564Q663.0711 343.825 662.58673 343.9969L662.58673 342.98126Q663.46173 342.5594 664.118 341.98126Q664.78986 341.3875 665.0711 340.825L665.743 340.825L665.743 349.45Z" fill-rule="nonzero"/></svg>