<svg version="1.1" viewBox="0.0 0.0 567.0 251.0" fill="none" stroke="none" stroke-linecap="square" stroke-miterlimit="10" width="567" height="251" xmlns:xlink="http://www.w3.org/1999/xlink" xmlns="http://www.w3.org/2000/svg"><path fill="#ffffff" d="M0 0L567.0 0L567.0 251.0L0 251.0L0 0Z" fill-rule="nonzero"/><path stroke="#333333" stroke-width="1.0" stroke-linecap="butt" d="M53.5 218.5L554.5 218.5" fill-rule="nonzero"/><path stroke="#cccccc" stroke-width="1.0" stroke-linecap="butt" d="M53.5 178.5L554.5 178.5" fill-rule="nonzero"/><path stroke="#cccccc" stroke-width="1.0" stroke-linecap="butt" d="M53.5 138.5L554.5 138.5" fill-rule="nonzero"/><path stroke="#cccccc" stroke-width="1.0" stroke-linecap="butt" d="M53.5 99.5L554.5 99.5" fill-rule="nonzero"/><path stroke="#cccccc" stroke-width="1.0" stroke-linecap="butt" d="M53.5 59.5L554.5 59.5" fill-rule="nonzero"/><path stroke="#cccccc" stroke-width="1.0" stroke-linecap="butt" d="M53.5 19.5L554.5 19.5" fill-rule="nonzero"/><path stroke="#e6e6e6" stroke-width="1.0" stroke-linecap="butt" d="M53.5 210.5L554.5 210.5" fill-rule="nonzero"/><path stroke="#e6e6e6" stroke-width="1.0" stroke-linecap="butt" d="M53.5 202.5L554.5 202.5" fill-rule="nonzero"/><path stroke="#e6e6e6" stroke-width="1.0" stroke-linecap="butt" d="M53.5 194.5L554.5 194.5" fill-rule="nonzero"/><path stroke="#e6e6e6" stroke-width="1.0" stroke-linecap="butt" d="M53.5 186.5L554.5 186.5" fill-rule="nonzero"/><path stroke="#e6e6e6" stroke-width="1.0" stroke-linecap="butt" d="M53.5 170.5L554.5 170.5" fill-rule="nonzero"/><path stroke="#e6e6e6" stroke-width="1.0" stroke-linecap="butt" d="M53.5 162.5L554.5 162.5" fill-rule="nonzero"/><path stroke="#e6e6e6" stroke-width="1.0" stroke-linecap="butt" d="M53.5 154.5L554.5 154.5" fill-rule="nonzero"/><path stroke="#e6e6e6" stroke-width="1.0" stroke-linecap="butt" d="M53.5 146.5L554.5 146.5" fill-rule="nonzero"/><path stroke="#e6e6e6" stroke-width="1.0" stroke-linecap="butt" d="M53.5 130.5L554.5 130.5" fill-rule="nonzero"/><path stroke="#e6e6e6" stroke-width="1.0" stroke-linecap="butt" d="M53.5 122.5L554.5 122.5" fill-rule="nonzero"/><path stroke="#e6e6e6" stroke-width="1.0" stroke-linecap="butt" d="M53.5 115.5L554.5 115.5" fill-rule="nonzero"/><path stroke="#e6e6e6" stroke-width="1.0" stroke-linecap="butt" d="M53.5 107.5L554.5 107.5" fill-rule="nonzero"/><path stroke="#e6e6e6" stroke-width="1.0" stroke-linecap="butt" d="M53.5 91.5L554.5 91.5" fill-rule="nonzero"/><path stroke="#e6e6e6" stroke-width="1.0" stroke-linecap="butt" d="M53.5 83.5L554.5 83.5" fill-rule="nonzero"/><path stroke="#e6e6e6" stroke-width="1.0" stroke-linecap="butt" d="M53.5 75.5L554.5 75.5" fill-rule="nonzero"/><path stroke="#e6e6e6" stroke-width="1.0" stroke-linecap="butt" d="M53.5 67.5L554.5 67.5" fill-rule="nonzero"/><path stroke="#e6e6e6" stroke-width="1.0" stroke-linecap="butt" d="M53.5 51.5L554.5 51.5" fill-rule="nonzero"/><path stroke="#e6e6e6" stroke-width="1.0" stroke-linecap="butt" d="M53.5 43.5L554.5 43.5" fill-rule="nonzero"/><path stroke="#e6e6e6" stroke-width="1.0" stroke-linecap="butt" d="M53.5 35.5L554.5 35.5" fill-rule="nonzero"/><path stroke="#e6e6e6" stroke-width="1.0" stroke-linecap="butt" d="M53.5 27.5L554.5 27.5" fill-rule="nonzero"/><clipPath id="id_0"><path d="M53.55 19.55L554.45 19.55L554.45 218.45L53.55 218.45L53.55 19.55Z" clip-rule="nonzero"/></clipPath><path stroke="#a27903" stroke-width="1.0" stroke-linecap="butt" clip-path="url(#id_0)" d="M137.03334 148.55876L137.03334 133.02739" fill-rule="nonzero"/><path stroke="#a27903" stroke-width="1.0" stroke-linecap="butt" clip-path="url(#id_0)" d="M131.03334 148.55876L143.03334 148.55876" fill-rule="nonzero"/><path stroke="#a27903" stroke-width="1.0" stroke-linecap="butt" clip-path="url(#id_0)" d="M131.03334 133.02739L143.03334 133.02739" fill-rule="nonzero"/><path stroke="#a27903" stroke-width="1.0" stroke-linecap="butt" clip-path="url(#id_0)" d="M304.0 170.62282L304.0 159.99457" fill-rule="nonzero"/><path stroke="#a27903" stroke-width="1.0" stroke-linecap="butt" clip-path="url(#id_0)" d="M298.0 170.62282L310.0 170.62282" fill-rule="nonzero"/><path stroke="#a27903" stroke-width="1.0" stroke-linecap="butt" clip-path="url(#id_0)" d="M298.0 159.99457L310.0 159.99457" fill-rule="nonzero"/><path stroke="#a27903" stroke-width="1.0" stroke-linecap="butt" clip-path="url(#id_0)" d="M470.96667 212.22046L470.96667 210.8361" fill-rule="nonzero"/><path stroke="#a27903" stroke-width="1.0" stroke-linecap="butt" clip-path="url(#id_0)" d="M464.96667 212.22046L476.96667 212.22046" fill-rule="nonzero"/><path stroke="#a27903" stroke-width="1.0" stroke-linecap="butt" clip-path="url(#id_0)" d="M464.96667 210.8361L476.96667 210.8361" fill-rule="nonzero"/><path stroke="#9ad4a9" stroke-width="1.0" stroke-linecap="butt" clip-path="url(#id_0)" d="M137.03334 151.89551L137.03334 137.10562" fill-rule="nonzero"/><path stroke="#9ad4a9" stroke-width="1.0" stroke-linecap="butt" clip-path="url(#id_0)" d="M131.03334 151.89551L143.03334 151.89551" fill-rule="nonzero"/><path stroke="#9ad4a9" stroke-width="1.0" stroke-linecap="butt" clip-path="url(#id_0)" d="M131.03334 137.10562L143.03334 137.10562" fill-rule="nonzero"/><path stroke="#9ad4a9" stroke-width="1.0" stroke-linecap="butt" clip-path="url(#id_0)" d="M304.0 169.18073L304.0 158.232" fill-rule="nonzero"/><path stroke="#9ad4a9" stroke-width="1.0" stroke-linecap="butt" clip-path="url(#id_0)" d="M298.0 169.18073L310.0 169.18073" fill-rule="nonzero"/><path stroke="#9ad4a9" stroke-width="1.0" stroke-linecap="butt" clip-path="url(#id_0)" d="M298.0 158.232L310.0 158.232" fill-rule="nonzero"/><path stroke="#9ad4a9" stroke-width="1.0" stroke-linecap="butt" clip-path="url(#id_0)" d="M470.96667 212.34361L470.96667 210.98663" fill-rule="nonzero"/><path stroke="#9ad4a9" stroke-width="1.0" stroke-linecap="butt" clip-path="url(#id_0)" d="M464.96667 212.34361L476.96667 212.34361" fill-rule="nonzero"/><path stroke="#9ad4a9" stroke-width="1.0" stroke-linecap="butt" clip-path="url(#id_0)" d="M464.96667 210.98663L476.96667 210.98663" fill-rule="nonzero"/><path stroke="#a2c3fa" stroke-width="1.0" stroke-linecap="butt" clip-path="url(#id_0)" d="M137.03334 59.918743L137.03334 24.689575" fill-rule="nonzero"/><path stroke="#a2c3fa" stroke-width="1.0" stroke-linecap="butt" clip-path="url(#id_0)" d="M131.03334 59.918743L143.03334 59.918743" fill-rule="nonzero"/><path stroke="#a2c3fa" stroke-width="1.0" stroke-linecap="butt" clip-path="url(#id_0)" d="M131.03334 24.689575L143.03334 24.689575" fill-rule="nonzero"/><path stroke="#a2c3fa" stroke-width="1.0" stroke-linecap="butt" clip-path="url(#id_0)" d="M304.0 107.15304L304.0 82.42038" fill-rule="nonzero"/><path stroke="#a2c3fa" stroke-width="1.0" stroke-linecap="butt" clip-path="url(#id_0)" d="M298.0 107.15304L310.0 107.15304" fill-rule="nonzero"/><path stroke="#a2c3fa" stroke-width="1.0" stroke-linecap="butt" clip-path="url(#id_0)" d="M298.0 82.42038L310.0 82.42038" fill-rule="nonzero"/><path stroke="#a2c3fa" stroke-width="1.0" stroke-linecap="butt" clip-path="url(#id_0)" d="M470.96667 204.14066L470.96667 200.9608" fill-rule="nonzero"/><path stroke="#a2c3fa" stroke-width="1.0" stroke-linecap="butt" clip-path="url(#id_0)" d="M464.96667 204.14066L476.96667 204.14066" fill-rule="nonzero"/><path stroke="#a2c3fa" stroke-width="1.0" stroke-linecap="butt" clip-path="url(#id_0)" d="M464.96667 200.9608L476.96667 200.9608" fill-rule="nonzero"/><path stroke="#fbbc04" stroke-width="2.0" stroke-linecap="butt" clip-path="url(#id_0)" d="M137.03334 140.79308L304.0 165.3087L470.96667 211.52827" fill-rule="nonzero"/><path stroke="#34a853" stroke-width="2.0" stroke-linecap="butt" clip-path="url(#id_0)" d="M137.03334 144.50056L304.0 163.70636L470.96667 211.66513" fill-rule="nonzero"/><path stroke="#4285f4" stroke-width="2.0" stroke-linecap="butt" clip-path="url(#id_0)" d="M137.03334 42.30416L304.0 94.78671L470.96667 202.55074" fill-rule="nonzero"/><path fill="#fbbc04" clip-path="url(#id_0)" d="M143.03334 140.79308C143.03334 144.10678 140.34705 146.79308 137.03334 146.79308C133.71962 146.79308 131.03334 144.10678 131.03334 140.79308C131.03334 137.47937 133.71962 134.79308 137.03334 134.79308C140.34705 134.79308 143.03334 137.47937 143.03334 140.79308Z" fill-rule="nonzero"/><path fill="#fbbc04" clip-path="url(#id_0)" d="M310.0 165.3087C310.0 168.6224 307.31372 171.3087 304.0 171.3087C300.68628 171.3087 298.0 168.6224 298.0 165.3087C298.0 161.99498 300.68628 159.3087 304.0 159.3087C307.31372 159.3087 310.0 161.99498 310.0 165.3087Z" fill-rule="nonzero"/><path fill="#fbbc04" clip-path="url(#id_0)" d="M476.96667 211.52827C476.96667 214.842 474.28036 217.52827 470.96667 217.52827C467.65295 217.52827 464.96667 214.842 464.96667 211.52827C464.96667 208.21457 467.65295 205.52827 470.96667 205.52827C474.28036 205.52827 476.96667 208.21457 476.96667 211.52827Z" fill-rule="nonzero"/><path fill="#34a853" clip-path="url(#id_0)" d="M143.03334 144.50056C143.03334 147.81429 140.34705 150.50056 137.03334 150.50056C133.71962 150.50056 131.03334 147.81429 131.03334 144.50056C131.03334 141.18686 133.71962 138.50056 137.03334 138.50056C140.34705 138.50056 143.03334 141.18686 143.03334 144.50056Z" fill-rule="nonzero"/><path fill="#34a853" clip-path="url(#id_0)" d="M310.0 163.70636C310.0 167.02007 307.31372 169.70636 304.0 169.70636C300.68628 169.70636 298.0 167.02007 298.0 163.70636C298.0 160.39264 300.68628 157.70636 304.0 157.70636C307.31372 157.70636 310.0 160.39264 310.0 163.70636Z" fill-rule="nonzero"/><path fill="#34a853" clip-path="url(#id_0)" d="M476.96667 211.66513C476.96667 214.97884 474.28036 217.66513 470.96667 217.66513C467.65295 217.66513 464.96667 214.97884 464.96667 211.66513C464.96667 208.35141 467.65295 205.66513 470.96667 205.66513C474.28036 205.66513 476.96667 208.35141 476.96667 211.66513Z" fill-rule="nonzero"/><path fill="#4285f4" clip-path="url(#id_0)" d="M143.03334 42.30416C143.03334 45.61787 140.34705 48.30416 137.03334 48.30416C133.71962 48.30416 131.03334 45.61787 131.03334 42.30416C131.03334 38.99045 133.71962 36.30416 137.03334 36.30416C140.34705 36.30416 143.03334 38.99045 143.03334 42.30416Z" fill-rule="nonzero"/><path fill="#4285f4" clip-path="url(#id_0)" d="M310.0 94.78671C310.0 98.10042 307.31372 100.78671 304.0 100.78671C300.68628 100.78671 298.0 98.10042 298.0 94.78671C298.0 91.473 300.68628 88.78671 304.0 88.78671C307.31372 88.78671 310.0 91.473 310.0 94.78671Z" fill-rule="nonzero"/><path fill="#4285f4" clip-path="url(#id_0)" d="M476.96667 202.55074C476.96667 205.86444 474.28036 208.55074 470.96667 208.55074C467.65295 208.55074 464.96667 205.86444 464.96667 202.55074C464.96667 199.23701 467.65295 196.55074 470.96667 196.55074C474.28036 196.55074 476.96667 199.23701 476.96667 202.55074Z" fill-rule="nonzero"/><path fill="#000000" d="M41.05 218.21562Q41.05 216.68437 41.3625 215.7625Q41.675 214.825 42.284374 214.325Q42.909374 213.825 43.846874 213.825Q44.534374 213.825 45.05 214.10625Q45.58125 214.3875 45.925 214.91875Q46.26875 215.43437 46.45625 216.18437Q46.64375 216.93437 46.64375 218.21562Q46.64375 219.73125 46.33125 220.65312Q46.034374 221.575 45.409374 222.09062Q44.8 222.59062 43.846874 222.59062Q42.6125 222.59062 41.89375 221.7Q41.05 220.6375 41.05 218.21562ZM42.128124 218.21562Q42.128124 220.325 42.628124 221.02812Q43.128124 221.73125 43.846874 221.73125Q44.58125 221.73125 45.065624 221.02812Q45.565624 220.325 45.565624 218.21562Q45.565624 216.09062 45.065624 215.40312Q44.58125 214.7 43.83125 214.7Q43.1125 214.7 42.675 215.30937Q42.128124 216.09062 42.128124 218.21562Z" fill-rule="nonzero"/><path fill="#000000" d="M25.596874 181.65437L25.596874 182.67L19.909374 182.67Q19.909374 182.295 20.034374 181.93562Q20.253124 181.3575 20.721874 180.795Q21.20625 180.2325 22.1125 179.49812Q23.51875 178.34187 24.003124 177.67Q24.503124 176.99812 24.503124 176.40437Q24.503124 175.77937 24.05 175.3575Q23.596874 174.92 22.878124 174.92Q22.1125 174.92 21.659374 175.37312Q21.20625 175.82625 21.190624 176.63875L20.1125 176.52937Q20.221874 175.31062 20.940624 174.68562Q21.675 174.045 22.909374 174.045Q24.14375 174.045 24.8625 174.7325Q25.58125 175.42 25.58125 176.43562Q25.58125 176.95125 25.3625 177.45125Q25.159374 177.93562 24.659374 178.49812Q24.175 179.045 23.05 179.99812Q22.096874 180.795 21.815624 181.09187Q21.55 181.37312 21.378124 181.65437L25.596874 181.65437ZM27.05 180.42L28.159374 180.32625Q28.284374 181.13875 28.721874 181.545Q29.175 181.95125 29.815624 181.95125Q30.565624 181.95125 31.096874 181.37312Q31.628124 180.795 31.628124 179.8575Q31.628124 178.95125 31.1125 178.43562Q30.6125 177.90437 29.784374 177.90437Q29.284374 177.90437 28.8625 178.13875Q28.45625 178.37312 28.221874 178.7325L27.2375 178.6075L28.065624 174.20125L32.346874 174.20125L32.346874 175.20125L28.909374 175.20125L28.45625 177.51375Q29.221874 176.96687 30.065624 176.96687Q31.190624 176.96687 31.95625 177.74812Q32.7375 178.52937 32.7375 179.76375Q32.7375 180.92 32.065624 181.77937Q31.2375 182.81062 29.815624 182.81062Q28.64375 182.81062 27.89375 182.15437Q27.159374 181.49812 27.05 180.42ZM34.05 178.43562Q34.05 176.90437 34.3625 175.9825Q34.675 175.045 35.284374 174.545Q35.909374 174.045 36.846874 174.045Q37.534374 174.045 38.05 174.32625Q38.58125 174.6075 38.925 175.13875Q39.26875 175.65437 39.45625 176.40437Q39.64375 177.15437 39.64375 178.43562Q39.64375 179.95125 39.33125 180.87312Q39.034374 181.795 38.409374 182.31062Q37.8 182.81062 36.846874 182.81062Q35.6125 182.81062 34.89375 181.92Q34.05 180.8575 34.05 178.43562ZM35.128124 178.43562Q35.128124 180.545 35.628124 181.24812Q36.128124 181.95125 36.846874 181.95125Q37.58125 181.95125 38.065624 181.24812Q38.565624 180.545 38.565624 178.43562Q38.565624 176.31062 38.065624 175.62312Q37.58125 174.92 36.83125 174.92Q36.1125 174.92 35.675 175.52937Q35.128124 176.31062 35.128124 178.43562ZM41.05 178.43562Q41.05 176.90437 41.3625 175.9825Q41.675 175.045 42.284374 174.545Q42.909374 174.045 43.846874 174.045Q44.534374 174.045 45.05 174.32625Q45.58125 174.6075 45.925 175.13875Q46.26875 175.65437 46.45625 176.40437Q46.64375 177.15437 46.64375 178.43562Q46.64375 179.95125 46.33125 180.87312Q46.034374 181.795 45.409374 182.31062Q44.8 182.81062 43.846874 182.81062Q42.6125 182.81062 41.89375 181.92Q41.05 180.8575 41.05 178.43562ZM42.128124 178.43562Q42.128124 180.545 42.628124 181.24812Q43.128124 181.95125 43.846874 181.95125Q44.58125 181.95125 45.065624 181.24812Q45.565624 180.545 45.565624 178.43562Q45.565624 176.31062 45.065624 175.62312Q44.58125 174.92 43.83125 174.92Q43.1125 174.92 42.675 175.52937Q42.128124 176.31062 42.128124 178.43562Z" fill-rule="nonzero"/><path fill="#000000" d="M20.05 140.64L21.159374 140.54625Q21.284374 141.35875 21.721874 141.765Q22.175 142.17125 22.815624 142.17125Q23.565624 142.17125 24.096874 141.59312Q24.628124 141.015 24.628124 140.0775Q24.628124 139.17125 24.1125 138.65562Q23.6125 138.12437 22.784374 138.12437Q22.284374 138.12437 21.8625 138.35875Q21.45625 138.59312 21.221874 138.9525L20.2375 138.8275L21.065624 134.42125L25.346874 134.42125L25.346874 135.42125L21.909374 135.42125L21.45625 137.73375Q22.221874 137.18687 23.065624 137.18687Q24.190624 137.18687 24.95625 137.96812Q25.7375 138.74937 25.7375 139.98375Q25.7375 141.14 25.065624 141.99937Q24.2375 143.03062 22.815624 143.03062Q21.64375 143.03062 20.89375 142.37437Q20.159374 141.71812 20.05 140.64ZM27.05 138.65562Q27.05 137.12437 27.3625 136.2025Q27.675 135.265 28.284374 134.765Q28.909374 134.265 29.846874 134.265Q30.534374 134.265 31.05 134.54625Q31.58125 134.8275 31.925 135.35875Q32.26875 135.87437 32.45625 136.62437Q32.64375 137.37437 32.64375 138.65562Q32.64375 140.17125 32.33125 141.09312Q32.034374 142.015 31.409374 142.53062Q30.8 143.03062 29.846874 143.03062Q28.6125 143.03062 27.89375 142.14Q27.05 141.0775 27.05 138.65562ZM28.128124 138.65562Q28.128124 140.765 28.628124 141.46812Q29.128124 142.17125 29.846874 142.17125Q30.58125 142.17125 31.065624 141.46812Q31.565624 140.765 31.565624 138.65562Q31.565624 136.53062 31.065624 135.84312Q30.58125 135.14 29.83125 135.14Q29.1125 135.14 28.675 135.74937Q28.128124 136.53062 28.128124 138.65562ZM34.05 138.65562Q34.05 137.12437 34.3625 136.2025Q34.675 135.265 35.284374 134.765Q35.909374 134.265 36.846874 134.265Q37.534374 134.265 38.05 134.54625Q38.58125 134.8275 38.925 135.35875Q39.26875 135.87437 39.45625 136.62437Q39.64375 137.37437 39.64375 138.65562Q39.64375 140.17125 39.33125 141.09312Q39.034374 142.015 38.409374 142.53062Q37.8 143.03062 36.846874 143.03062Q35.6125 143.03062 34.89375 142.14Q34.05 141.0775 34.05 138.65562ZM35.128124 138.65562Q35.128124 140.765 35.628124 141.46812Q36.128124 142.17125 36.846874 142.17125Q37.58125 142.17125 38.065624 141.46812Q38.565624 140.765 38.565624 138.65562Q38.565624 136.53062 38.065624 135.84312Q37.58125 135.14 36.83125 135.14Q36.1125 135.14 35.675 135.74937Q35.128124 136.53062 35.128124 138.65562ZM41.05 138.65562Q41.05 137.12437 41.3625 136.2025Q41.675 135.265 42.284374 134.765Q42.909374 134.265 43.846874 134.265Q44.534374 134.265 45.05 134.54625Q45.58125 134.8275 45.925 135.35875Q46.26875 135.87437 46.45625 136.62437Q46.64375 137.37437 46.64375 138.65562Q46.64375 140.17125 46.33125 141.09312Q46.034374 142.015 45.409374 142.53062Q44.8 143.03062 43.846874 143.03062Q42.6125 143.03062 41.89375 142.14Q41.05 141.0775 41.05 138.65562ZM42.128124 138.65562Q42.128124 140.765 42.628124 141.46812Q43.128124 142.17125 43.846874 142.17125Q44.58125 142.17125 45.065624 141.46812Q45.565624 140.765 45.565624 138.65562Q45.565624 136.53062 45.065624 135.84312Q44.58125 135.14 43.83125 135.14Q43.1125 135.14 42.675 135.74937Q42.128124 136.53062 42.128124 138.65562Z" fill-rule="nonzero"/><path fill="#000000" d="M20.1125 95.64125L20.1125 94.625626L25.675 94.625626L25.675 95.45375Q24.8625 96.32875 24.05 97.781876Q23.253124 99.219376 22.815624 100.750626Q22.4875 101.82875 22.409374 103.11L21.315624 103.11Q21.33125 102.094376 21.70625 100.656876Q22.096874 99.219376 22.8 97.89125Q23.51875 96.563126 24.33125 95.64125L20.1125 95.64125ZM27.05 100.86L28.159374 100.76625Q28.284374 101.57875 28.721874 101.985Q29.175 102.39125 29.815624 102.39125Q30.565624 102.39125 31.096874 101.813126Q31.628124 101.235 31.628124 100.2975Q31.628124 99.39125 31.1125 98.875626Q30.6125 98.344376 29.784374 98.344376Q29.284374 98.344376 28.8625 98.57875Q28.45625 98.813126 28.221874 99.1725L27.2375 99.0475L28.065624 94.64125L32.346874 94.64125L32.346874 95.64125L28.909374 95.64125L28.45625 97.95375Q29.221874 97.406876 30.065624 97.406876Q31.190624 97.406876 31.95625 98.188126Q32.7375 98.969376 32.7375 100.20375Q32.7375 101.36 32.065624 102.219376Q31.2375 103.250626 29.815624 103.250626Q28.64375 103.250626 27.89375 102.594376Q27.159374 101.938126 27.05 100.86ZM34.05 98.875626Q34.05 97.344376 34.3625 96.4225Q34.675 95.485 35.284374 94.985Q35.909374 94.485 36.846874 94.485Q37.534374 94.485 38.05 94.76625Q38.58125 95.0475 38.925 95.57875Q39.26875 96.094376 39.45625 96.844376Q39.64375 97.594376 39.64375 98.875626Q39.64375 100.39125 39.33125 101.313126Q39.034374 102.235 38.409374 102.750626Q37.8 103.250626 36.846874 103.250626Q35.6125 103.250626 34.89375 102.36Q34.05 101.2975 34.05 98.875626ZM35.128124 98.875626Q35.128124 100.985 35.628124 101.688126Q36.128124 102.39125 36.846874 102.39125Q37.58125 102.39125 38.065624 101.688126Q38.565624 100.985 38.565624 98.875626Q38.565624 96.750626 38.065624 96.063126Q37.58125 95.36 36.83125 95.36Q36.1125 95.36 35.675 95.969376Q35.128124 96.750626 35.128124 98.875626ZM41.05 98.875626Q41.05 97.344376 41.3625 96.4225Q41.675 95.485 42.284374 94.985Q42.909374 94.485 43.846874 94.485Q44.534374 94.485 45.05 94.76625Q45.58125 95.0475 45.925 95.57875Q46.26875 96.094376 46.45625 96.844376Q46.64375 97.594376 46.64375 98.875626Q46.64375 100.39125 46.33125 101.313126Q46.034374 102.235 45.409374 102.750626Q44.8 103.250626 43.846874 103.250626Q42.6125 103.250626 41.89375 102.36Q41.05 101.2975 41.05 98.875626ZM42.128124 98.875626Q42.128124 100.985 42.628124 101.688126Q43.128124 102.39125 43.846874 102.39125Q44.58125 102.39125 45.065624 101.688126Q45.565624 100.985 45.565624 98.875626Q45.565624 96.750626 45.065624 96.063126Q44.58125 95.36 43.83125 95.36Q43.1125 95.36 42.675 95.969376Q42.128124 96.750626 42.128124 98.875626Z" fill-rule="nonzero"/><path fill="#000000" d="M17.01875 63.33L15.971875 63.33L15.971875 56.61125Q15.58125 56.970627 14.95625 57.345627Q14.346875 57.705 13.8625 57.876877L13.8625 56.86125Q14.7375 56.439377 15.39375 55.86125Q16.065624 55.2675 16.346874 54.705L17.01875 54.705L17.01875 63.33ZM20.05 59.095627Q20.05 57.564377 20.3625 56.6425Q20.675 55.705 21.284374 55.205Q21.909374 54.705 22.846874 54.705Q23.534374 54.705 24.05 54.98625Q24.58125 55.2675 24.925 55.79875Q25.26875 56.314377 25.45625 57.064377Q25.64375 57.814377 25.64375 59.095627Q25.64375 60.61125 25.33125 61.533127Q25.034374 62.455 24.409374 62.970627Q23.8 63.470627 22.846874 63.470627Q21.6125 63.470627 20.89375 62.58Q20.05 61.5175 20.05 59.095627ZM21.128124 59.095627Q21.128124 61.205 21.628124 61.908127Q22.128124 62.61125 22.846874 62.61125Q23.58125 62.61125 24.065624 61.908127Q24.565624 61.205 24.565624 59.095627Q24.565624 56.970627 24.065624 56.283127Q23.58125 55.58 22.83125 55.58Q22.1125 55.58 21.675 56.189377Q21.128124 56.970627 21.128124 59.095627ZM27.05 59.095627Q27.05 57.564377 27.3625 56.6425Q27.675 55.705 28.284374 55.205Q28.909374 54.705 29.846874 54.705Q30.534374 54.705 31.05 54.98625Q31.58125 55.2675 31.925 55.79875Q32.26875 56.314377 32.45625 57.064377Q32.64375 57.814377 32.64375 59.095627Q32.64375 60.61125 32.33125 61.533127Q32.034374 62.455 31.409374 62.970627Q30.8 63.470627 29.846874 63.470627Q28.6125 63.470627 27.89375 62.58Q27.05 61.5175 27.05 59.095627ZM28.128124 59.095627Q28.128124 61.205 28.628124 61.908127Q29.128124 62.61125 29.846874 62.61125Q30.58125 62.61125 31.065624 61.908127Q31.565624 61.205 31.565624 59.095627Q31.565624 56.970627 31.065624 56.283127Q30.58125 55.58 29.83125 55.58Q29.1125 55.58 28.675 56.189377Q28.128124 56.970627 28.128124 59.095627ZM34.05 59.095627Q34.05 57.564377 34.3625 56.6425Q34.675 55.705 35.284374 55.205Q35.909374 54.705 36.846874 54.705Q37.534374 54.705 38.05 54.98625Q38.58125 55.2675 38.925 55.79875Q39.26875 56.314377 39.45625 57.064377Q39.64375 57.814377 39.64375 59.095627Q39.64375 60.61125 39.33125 61.533127Q39.034374 62.455 38.409374 62.970627Q37.8 63.470627 36.846874 63.470627Q35.6125 63.470627 34.89375 62.58Q34.05 61.5175 34.05 59.095627ZM35.128124 59.095627Q35.128124 61.205 35.628124 61.908127Q36.128124 62.61125 36.846874 62.61125Q37.58125 62.61125 38.065624 61.908127Q38.565624 61.205 38.565624 59.095627Q38.565624 56.970627 38.065624 56.283127Q37.58125 55.58 36.83125 55.58Q36.1125 55.58 35.675 56.189377Q35.128124 56.970627 35.128124 59.095627ZM41.05 59.095627Q41.05 57.564377 41.3625 56.6425Q41.675 55.705 42.284374 55.205Q42.909374 54.705 43.846874 54.705Q44.534374 54.705 45.05 54.98625Q45.58125 55.2675 45.925 55.79875Q46.26875 56.314377 46.45625 57.064377Q46.64375 57.814377 46.64375 59.095627Q46.64375 60.61125 46.33125 61.533127Q46.034374 62.455 45.409374 62.970627Q44.8 63.470627 43.846874 63.470627Q42.6125 63.470627 41.89375 62.58Q41.05 61.5175 41.05 59.095627ZM42.128124 59.095627Q42.128124 61.205 42.628124 61.908127Q43.128124 62.61125 43.846874 62.61125Q44.58125 62.61125 45.065624 61.908127Q45.565624 61.205 45.565624 59.095627Q45.565624 56.970627 45.065624 56.283127Q44.58125 55.58 43.83125 55.58Q43.1125 55.58 42.675 56.189377Q42.128124 56.970627 42.128124 59.095627Z" fill-rule="nonzero"/><path fill="#000000" d="M17.01875 23.55L15.971875 23.55L15.971875 16.83125Q15.58125 17.190624 14.95625 17.565624Q14.346875 17.925 13.8625 18.096874L13.8625 17.08125Q14.7375 16.659374 15.39375 16.08125Q16.065624 15.487499 16.346874 14.924999L17.01875 14.924999L17.01875 23.55ZM25.596874 22.534374L25.596874 23.55L19.909374 23.55Q19.909374 23.175 20.034374 22.815624Q20.253124 22.2375 20.721874 21.675Q21.20625 21.1125 22.1125 20.378124Q23.51875 19.221874 24.003124 18.55Q24.503124 17.878124 24.503124 17.284374Q24.503124 16.659374 24.05 16.2375Q23.596874 15.799999 22.878124 15.799999Q22.1125 15.799999 21.659374 16.253124Q21.20625 16.70625 21.190624 17.51875L20.1125 17.409374Q20.221874 16.190624 20.940624 15.565624Q21.675 14.924999 22.909374 14.924999Q24.14375 14.924999 24.8625 15.612499Q25.58125 16.3 25.58125 17.315624Q25.58125 17.83125 25.3625 18.33125Q25.159374 18.815624 24.659374 19.378124Q24.175 19.925 23.05 20.878124Q22.096874 21.675 21.815624 21.971874Q21.55 22.253124 21.378124 22.534374L25.596874 22.534374ZM27.05 21.3L28.159374 21.20625Q28.284374 22.01875 28.721874 22.425Q29.175 22.83125 29.815624 22.83125Q30.565624 22.83125 31.096874 22.253124Q31.628124 21.675 31.628124 20.7375Q31.628124 19.83125 31.1125 19.315624Q30.6125 18.784374 29.784374 18.784374Q29.284374 18.784374 28.8625 19.01875Q28.45625 19.253124 28.221874 19.6125L27.2375 19.4875L28.065624 15.081249L32.346874 15.081249L32.346874 16.08125L28.909374 16.08125L28.45625 18.39375Q29.221874 17.846874 30.065624 17.846874Q31.190624 17.846874 31.95625 18.628124Q32.7375 19.409374 32.7375 20.64375Q32.7375 21.8 32.065624 22.659374Q31.2375 23.690624 29.815624 23.690624Q28.64375 23.690624 27.89375 23.034374Q27.159374 22.378124 27.05 21.3ZM34.05 19.315624Q34.05 17.784374 34.3625 16.8625Q34.675 15.924999 35.284374 15.424999Q35.909374 14.924999 36.846874 14.924999Q37.534374 14.924999 38.05 15.206249Q38.58125 15.487499 38.925 16.01875Q39.26875 16.534374 39.45625 17.284374Q39.64375 18.034374 39.64375 19.315624Q39.64375 20.83125 39.33125 21.753124Q39.034374 22.675 38.409374 23.190624Q37.8 23.690624 36.846874 23.690624Q35.6125 23.690624 34.89375 22.8Q34.05 21.7375 34.05 19.315624ZM35.128124 19.315624Q35.128124 21.425 35.628124 22.128124Q36.128124 22.83125 36.846874 22.83125Q37.58125 22.83125 38.065624 22.128124Q38.565624 21.425 38.565624 19.315624Q38.565624 17.190624 38.065624 16.503124Q37.58125 15.799999 36.83125 15.799999Q36.1125 15.799999 35.675 16.409374Q35.128124 17.190624 35.128124 19.315624ZM41.05 19.315624Q41.05 17.784374 41.3625 16.8625Q41.675 15.924999 42.284374 15.424999Q42.909374 14.924999 43.846874 14.924999Q44.534374 14.924999 45.05 15.206249Q45.58125 15.487499 45.925 16.01875Q46.26875 16.534374 46.45625 17.284374Q46.64375 18.034374 46.64375 19.315624Q46.64375 20.83125 46.33125 21.753124Q46.034374 22.675 45.409374 23.190624Q44.8 23.690624 43.846874 23.690624Q42.6125 23.690624 41.89375 22.8Q41.05 21.7375 41.05 19.315624ZM42.128124 19.315624Q42.128124 21.425 42.628124 22.128124Q43.128124 22.83125 43.846874 22.83125Q44.58125 22.83125 45.065624 22.128124Q45.565624 21.425 45.565624 19.315624Q45.565624 17.190624 45.065624 16.503124Q44.58125 15.799999 43.83125 15.799999Q43.1125 15.799999 42.675 16.409374Q42.128124 17.190624 42.128124 19.315624Z" fill-rule="nonzero"/><path fill="#000000" d="M89.83021 237.84062L89.83021 229.23125L90.78333 229.23125L90.78333 230.02812Q91.12708 229.55937 91.54896 229.325Q91.98646 229.09062 92.59583 229.09062Q93.39271 229.09062 94.00208 229.49687Q94.61146 229.90312 94.90833 230.65312Q95.22083 231.40312 95.22083 232.29375Q95.22083 233.24687 94.87708 234.0125Q94.54896 234.77812 93.89271 235.18437Q93.23646 235.59062 92.51771 235.59062Q91.98646 235.59062 91.56458 235.37187Q91.14271 235.1375 90.87708 234.80937L90.87708 237.84062L89.83021 237.84062ZM90.78333 232.37187Q90.78333 233.575 91.26771 234.15312Q91.75208 234.71562 92.43958 234.71562Q93.14271 234.71562 93.64271 234.12187Q94.14271 233.52812 94.14271 232.27812Q94.14271 231.09062 93.65833 230.5125Q93.17396 229.91875 92.48646 229.91875Q91.81458 229.91875 91.29896 230.54375Q90.78333 231.16875 90.78333 232.37187ZM96.81458 235.45L96.81458 229.23125L97.76771 229.23125L97.76771 230.16875Q98.12708 229.5125 98.42396 229.30937Q98.73646 229.09062 99.11146 229.09062Q99.64271 229.09062 100.18958 229.41875L99.83021 230.40312Q99.43958 230.16875 99.06458 230.16875Q98.70521 230.16875 98.42396 230.3875Q98.15833 230.59062 98.04896 230.96562Q97.86146 231.52812 97.86146 232.18437L97.86146 235.45L96.81458 235.45ZM100.43958 232.34062Q100.43958 230.60625 101.39271 229.77812Q102.18958 229.09062 103.34583 229.09062Q104.62708 229.09062 105.43958 229.93437Q106.26771 230.7625 106.26771 232.24687Q106.26771 233.45 105.90833 234.1375Q105.54896 234.825 104.84583 235.21562Q104.15833 235.59062 103.34583 235.59062Q102.04896 235.59062 101.23646 234.7625Q100.43958 233.91875 100.43958 232.34062ZM101.51771 232.34062Q101.51771 233.52812 102.03333 234.12187Q102.56458 234.71562 103.34583 234.71562Q104.14271 234.71562 104.65833 234.12187Q105.17396 233.52812 105.17396 232.30937Q105.17396 231.15312 104.64271 230.55937Q104.12708 229.96562 103.34583 229.96562Q102.56458 229.96562 102.03333 230.55937Q101.51771 231.1375 101.51771 232.34062ZM111.89271 233.16875L112.92396 233.30937Q112.75208 234.37187 112.04896 234.98125Q111.34583 235.59062 110.33021 235.59062Q109.04896 235.59062 108.26771 234.7625Q107.50208 233.91875 107.50208 232.35625Q107.50208 231.35625 107.83021 230.60625Q108.17396 229.84062 108.84583 229.46562Q109.53333 229.09062 110.34583 229.09062Q111.34583 229.09062 111.98646 229.60625Q112.64271 230.10625 112.83021 231.05937L111.79896 231.21562Q111.65833 230.59062 111.28333 230.27812Q110.90833 229.95 110.37708 229.95Q109.58021 229.95 109.08021 230.52812Q108.58021 231.09062 108.58021 232.325Q108.58021 233.59062 109.06458 234.15312Q109.54896 234.71562 110.31458 234.71562Q110.93958 234.71562 111.34583 234.34062Q111.76771 233.96562 111.89271 233.16875ZM117.89271 233.16875L118.92396 233.30937Q118.75208 234.37187 118.04896 234.98125Q117.34583 235.59062 116.33021 235.59062Q115.04896 235.59062 114.26771 234.7625Q113.50208 233.91875 113.50208 232.35625Q113.50208 231.35625 113.83021 230.60625Q114.17396 229.84062 114.84583 229.46562Q115.53333 229.09062 116.34583 229.09062Q117.34583 229.09062 117.98646 229.60625Q118.64271 230.10625 118.83021 231.05937L117.79896 231.21562Q117.65833 230.59062 117.28333 230.27812Q116.90833 229.95 116.37708 229.95Q115.58021 229.95 115.08021 230.52812Q114.58021 231.09062 114.58021 232.325Q114.58021 233.59062 115.06458 234.15312Q115.54896 234.71562 116.31458 234.71562Q116.93958 234.71562 117.34583 234.34062Q117.76771 233.96562 117.89271 233.16875ZM124.08021 233.45L125.17396 233.575Q124.92396 234.52812 124.22083 235.05937Q123.51771 235.59062 122.43958 235.59062Q121.08021 235.59062 120.26771 234.74687Q119.47083 233.90312 119.47083 232.3875Q119.47083 230.825 120.28333 229.96562Q121.09583 229.09062 122.37708 229.09062Q123.62708 229.09062 124.40833 229.93437Q125.20521 230.77812 125.20521 232.325Q125.20521 232.41875 125.20521 232.60625L120.56458 232.60625Q120.62708 233.6375 121.14271 234.18437Q121.65833 234.71562 122.43958 234.71562Q123.01771 234.71562 123.42396 234.41875Q123.84583 234.10625 124.08021 233.45ZM120.62708 231.74687L124.09583 231.74687Q124.03333 230.95 123.70521 230.55937Q123.18958 229.95 122.39271 229.95Q121.65833 229.95 121.15833 230.43437Q120.67396 230.91875 120.62708 231.74687ZM126.40833 233.59062L127.43958 233.43437Q127.53333 234.05937 127.92396 234.3875Q128.3302 234.71562 129.06458 234.71562Q129.78333 234.71562 130.12708 234.43437Q130.48645 234.1375 130.48645 233.73125Q130.48645 233.37187 130.17395 233.16875Q129.9552 233.02812 129.09583 232.80937Q127.93958 232.5125 127.48646 232.30937Q127.04896 232.09062 126.81458 231.71562Q126.58021 231.34062 126.58021 230.87187Q126.58021 230.46562 126.76771 230.10625Q126.95521 229.74687 127.28333 229.5125Q127.53333 229.34062 127.95521 229.21562Q128.37708 229.09062 128.87708 229.09062Q129.59583 229.09062 130.1427 229.30937Q130.7052 229.5125 130.97083 229.87187Q131.23645 230.23125 131.3302 230.825L130.29895 230.96562Q130.23645 230.49687 129.8927 230.23125Q129.56458 229.95 128.93958 229.95Q128.22083 229.95 127.90833 230.2Q127.59583 230.43437 127.59583 230.7625Q127.59583 230.96562 127.72083 231.12187Q127.86146 231.29375 128.12708 231.40312Q128.28333 231.46562 129.06458 231.66875Q130.18958 231.98125 130.62708 232.16875Q131.06458 232.35625 131.31458 232.71562Q131.56458 233.075 131.56458 233.62187Q131.56458 234.15312 131.25208 234.62187Q130.9552 235.075 130.37708 235.34062Q129.79895 235.59062 129.06458 235.59062Q127.84583 235.59062 127.20521 235.09062Q126.58021 234.575 126.40833 233.59062ZM132.40833 233.59062L133.43958 233.43437Q133.53333 234.05937 133.92395 234.3875Q134.3302 234.71562 135.06458 234.71562Q135.78333 234.71562 136.12708 234.43437Q136.48645 234.1375 136.48645 233.73125Q136.48645 233.37187 136.17395 233.16875Q135.9552 233.02812 135.09583 232.80937Q133.93958 232.5125 133.48645 232.30937Q133.04895 232.09062 132.81458 231.71562Q132.5802 231.34062 132.5802 230.87187Q132.5802 230.46562 132.7677 230.10625Q132.9552 229.74687 133.28333 229.5125Q133.53333 229.34062 133.9552 229.21562Q134.37708 229.09062 134.87708 229.09062Q135.59583 229.09062 136.1427 229.30937Q136.7052 229.5125 136.97083 229.87187Q137.23645 230.23125 137.3302 230.825L136.29895 230.96562Q136.23645 230.49687 135.8927 230.23125Q135.56458 229.95 134.93958 229.95Q134.22083 229.95 133.90833 230.2Q133.59583 230.43437 133.59583 230.7625Q133.59583 230.96562 133.72083 231.12187Q133.86145 231.29375 134.12708 231.40312Q134.28333 231.46562 135.06458 231.66875Q136.18958 231.98125 136.62708 232.16875Q137.06458 232.35625 137.31458 232.71562Q137.56458 233.075 137.56458 233.62187Q137.56458 234.15312 137.25208 234.62187Q136.9552 235.075 136.37708 235.34062Q135.79895 235.59062 135.06458 235.59062Q133.84583 235.59062 133.2052 235.09062Q132.5802 234.575 132.40833 233.59062ZM145.8927 233.16875L146.92395 233.30937Q146.75208 234.37187 146.04895 234.98125Q145.34583 235.59062 144.3302 235.59062Q143.04895 235.59062 142.2677 234.7625Q141.50208 233.91875 141.50208 232.35625Q141.50208 231.35625 141.8302 230.60625Q142.17395 229.84062 142.84583 229.46562Q143.53333 229.09062 144.34583 229.09062Q145.34583 229.09062 145.98645 229.60625Q146.6427 230.10625 146.8302 231.05937L145.79895 231.21562Q145.65833 230.59062 145.28333 230.27812Q144.90833 229.95 144.37708 229.95Q143.5802 229.95 143.0802 230.52812Q142.5802 231.09062 142.5802 232.325Q142.5802 233.59062 143.06458 234.15312Q143.54895 234.71562 144.31458 234.71562Q144.93958 234.71562 145.34583 234.34062Q145.7677 233.96562 145.8927 233.16875ZM147.81458 235.45L147.81458 229.23125L148.7677 229.23125L148.7677 230.16875Q149.12708 229.5125 149.42395 229.30937Q149.73645 229.09062 150.11145 229.09062Q150.6427 229.09062 151.18958 229.41875L150.8302 230.40312Q150.43958 230.16875 150.06458 230.16875Q149.7052 230.16875 149.42395 230.3875Q149.15833 230.59062 149.04895 230.96562Q148.86145 231.52812 148.86145 232.18437L148.86145 235.45L147.81458 235.45ZM156.0802 233.45L157.17395 233.575Q156.92395 234.52812 156.22083 235.05937Q155.5177 235.59062 154.43958 235.59062Q153.0802 235.59062 152.2677 234.74687Q151.47083 233.90312 151.47083 232.3875Q151.47083 230.825 152.28333 229.96562Q153.09583 229.09062 154.37708 229.09062Q155.62708 229.09062 156.40833 229.93437Q157.2052 230.77812 157.2052 232.325Q157.2052 232.41875 157.2052 232.60625L152.56458 232.60625Q152.62708 233.6375 153.1427 234.18437Q153.65833 234.71562 154.43958 234.71562Q155.0177 234.71562 155.42395 234.41875Q155.84583 234.10625 156.0802 233.45ZM152.62708 231.74687L156.09583 231.74687Q156.03333 230.95 155.7052 230.55937Q155.18958 229.95 154.3927 229.95Q153.65833 229.95 153.15833 230.43437Q152.67395 230.91875 152.62708 231.74687ZM162.8927 234.68437Q162.29895 235.18437 161.75208 235.3875Q161.22083 235.59062 160.59583 235.59062Q159.56458 235.59062 159.0177 235.09062Q158.47083 234.59062 158.47083 233.80937Q158.47083 233.35625 158.67395 232.98125Q158.87708 232.59062 159.22083 232.37187Q159.56458 232.1375 159.98645 232.02812Q160.28333 231.93437 160.92395 231.85625Q162.18958 231.71562 162.79895 231.49687Q162.79895 231.27812 162.79895 231.23125Q162.79895 230.575 162.50208 230.30937Q162.09583 229.96562 161.29895 229.96562Q160.56458 229.96562 160.2052 230.23125Q159.84583 230.48125 159.67395 231.1375L158.6427 230.99687Q158.78333 230.34062 159.11145 229.93437Q159.43958 229.52812 160.04895 229.30937Q160.65833 229.09062 161.4552 229.09062Q162.25208 229.09062 162.75208 229.27812Q163.25208 229.46562 163.48645 229.74687Q163.72083 230.02812 163.81458 230.46562Q163.86145 230.73125 163.86145 231.43437L163.86145 232.84062Q163.86145 234.30937 163.92395 234.7Q164.00208 235.09062 164.2052 235.45L163.09583 235.45Q162.93958 235.12187 162.8927 234.68437ZM162.79895 232.325Q162.22083 232.55937 161.0802 232.73125Q160.42395 232.825 160.15833 232.95Q159.8927 233.05937 159.73645 233.27812Q159.59583 233.49687 159.59583 233.77812Q159.59583 234.2 159.90833 234.48125Q160.23645 234.7625 160.84583 234.7625Q161.4552 234.7625 161.92395 234.49687Q162.40833 234.23125 162.62708 233.7625Q162.79895 233.40312 162.79895 232.71562L162.79895 232.325ZM168.12708 234.5125L168.28333 235.43437Q167.8302 235.52812 167.48645 235.52812Q166.90833 235.52812 166.59583 235.35625Q166.28333 235.16875 166.1427 234.87187Q166.0177 234.575 166.0177 233.62187L166.0177 230.04375L165.25208 230.04375L165.25208 229.23125L166.0177 229.23125L166.0177 227.68437L167.06458 227.05937L167.06458 229.23125L168.12708 229.23125L168.12708 230.04375L167.06458 230.04375L167.06458 233.68437Q167.06458 234.1375 167.11145 234.2625Q167.17395 234.3875 167.29895 234.46562Q167.42395 234.54375 167.65833 234.54375Q167.84583 234.54375 168.12708 234.5125ZM168.8302 228.075L168.8302 226.85625L169.8927 226.85625L169.8927 228.075L168.8302 228.075ZM168.8302 235.45L168.8302 229.23125L169.8927 229.23125L169.8927 235.45L168.8302 235.45ZM171.43958 232.34062Q171.43958 230.60625 172.3927 229.77812Q173.18958 229.09062 174.34583 229.09062Q175.62708 229.09062 176.43958 229.93437Q177.2677 230.7625 177.2677 232.24687Q177.2677 233.45 176.90833 234.1375Q176.54895 234.825 175.84583 235.21562Q175.15833 235.59062 174.34583 235.59062Q173.04895 235.59062 172.23645 234.7625Q171.43958 233.91875 171.43958 232.34062ZM172.5177 232.34062Q172.5177 233.52812 173.03333 234.12187Q173.56458 234.71562 174.34583 234.71562Q175.1427 234.71562 175.65833 234.12187Q176.17395 233.52812 176.17395 232.30937Q176.17395 231.15312 175.6427 230.55937Q175.12708 229.96562 174.34583 229.96562Q173.56458 229.96562 173.03333 230.55937Q172.5177 231.1375 172.5177 232.34062ZM178.8302 235.45L178.8302 229.23125L179.7677 229.23125L179.7677 230.10625Q180.4552 229.09062 181.75208 229.09062Q182.31458 229.09062 182.78333 229.29375Q183.2677 229.49687 183.50208 229.825Q183.73645 230.15312 183.8302 230.59062Q183.87708 230.8875 183.87708 231.62187L183.87708 235.45L182.8302 235.45L182.8302 231.66875Q182.8302 231.0125 182.7052 230.7Q182.5802 230.3875 182.2677 230.2Q181.9552 229.99687 181.53333 229.99687Q180.86145 229.99687 180.36145 230.43437Q179.87708 230.85625 179.87708 232.04375L179.87708 235.45L178.8302 235.45Z" fill-rule="nonzero"/><path fill="#000000" d="M232.875 233.59062L233.90625 233.43437Q234.0 234.05937 234.39062 234.3875Q234.79688 234.71562 235.53125 234.71562Q236.25 234.71562 236.59375 234.43437Q236.95312 234.1375 236.95312 233.73125Q236.95312 233.37187 236.64062 233.16875Q236.42188 233.02812 235.5625 232.80937Q234.40625 232.5125 233.95312 232.30937Q233.51562 232.09062 233.28125 231.71562Q233.04688 231.34062 233.04688 230.87187Q233.04688 230.46562 233.23438 230.10625Q233.42188 229.74687 233.75 229.5125Q234.0 229.34062 234.42188 229.21562Q234.84375 229.09062 235.34375 229.09062Q236.0625 229.09062 236.60938 229.30937Q237.17188 229.5125 237.4375 229.87187Q237.70312 230.23125 237.79688 230.825L236.76562 230.96562Q236.70312 230.49687 236.35938 230.23125Q236.03125 229.95 235.40625 229.95Q234.6875 229.95 234.375 230.2Q234.0625 230.43437 234.0625 230.7625Q234.0625 230.96562 234.1875 231.12187Q234.32812 231.29375 234.59375 231.40312Q234.75 231.46562 235.53125 231.66875Q236.65625 231.98125 237.09375 232.16875Q237.53125 232.35625 237.78125 232.71562Q238.03125 233.075 238.03125 233.62187Q238.03125 234.15312 237.71875 234.62187Q237.42188 235.075 236.84375 235.34062Q236.26562 235.59062 235.53125 235.59062Q234.3125 235.59062 233.67188 235.09062Q233.04688 234.575 232.875 233.59062ZM239.29688 235.45L239.29688 226.85625L240.34375 226.85625L240.34375 229.93437Q241.07812 229.09062 242.20312 229.09062Q242.90625 229.09062 243.40625 229.37187Q243.92188 229.6375 244.14062 230.12187Q244.35938 230.59062 244.35938 231.5125L244.35938 235.45L243.3125 235.45L243.3125 231.5125Q243.3125 230.71562 242.96875 230.35625Q242.625 229.99687 242.0 229.99687Q241.53125 229.99687 241.10938 230.24687Q240.70312 230.48125 240.51562 230.90312Q240.34375 231.30937 240.34375 232.04375L240.34375 235.45L239.29688 235.45ZM250.54688 233.45L251.64062 233.575Q251.39062 234.52812 250.6875 235.05937Q249.98438 235.59062 248.90625 235.59062Q247.54688 235.59062 246.73438 234.74687Q245.9375 233.90312 245.9375 232.3875Q245.9375 230.825 246.75 229.96562Q247.5625 229.09062 248.84375 229.09062Q250.09375 229.09062 250.875 229.93437Q251.67188 230.77812 251.67188 232.325Q251.67188 232.41875 251.67188 232.60625L247.03125 232.60625Q247.09375 233.6375 247.60938 234.18437Q248.125 234.71562 248.90625 234.71562Q249.48438 234.71562 249.89062 234.41875Q250.3125 234.10625 250.54688 233.45ZM247.09375 231.74687L250.5625 231.74687Q250.5 230.95 250.17188 230.55937Q249.65625 229.95 248.85938 229.95Q248.125 229.95 247.625 230.43437Q247.14062 230.91875 247.09375 231.74687ZM253.26562 235.45L253.26562 226.85625L254.32812 226.85625L254.32812 235.45L253.26562 235.45ZM256.26562 235.45L256.26562 226.85625L257.32812 226.85625L257.32812 235.45L256.26562 235.45ZM261.875 233.59062L262.90625 233.43437Q263.0 234.05937 263.39062 234.3875Q263.79688 234.71562 264.53125 234.71562Q265.25 234.71562 265.59375 234.43437Q265.95312 234.1375 265.95312 233.73125Q265.95312 233.37187 265.64062 233.16875Q265.42188 233.02812 264.5625 232.80937Q263.40625 232.5125 262.95312 232.30937Q262.51562 232.09062 262.28125 231.71562Q262.04688 231.34062 262.04688 230.87187Q262.04688 230.46562 262.23438 230.10625Q262.42188 229.74687 262.75 229.5125Q263.0 229.34062 263.42188 229.21562Q263.84375 229.09062 264.34375 229.09062Q265.0625 229.09062 265.60938 229.30937Q266.17188 229.5125 266.4375 229.87187Q266.70312 230.23125 266.79688 230.825L265.76562 230.96562Q265.70312 230.49687 265.35938 230.23125Q265.03125 229.95 264.40625 229.95Q263.6875 229.95 263.375 230.2Q263.0625 230.43437 263.0625 230.7625Q263.0625 230.96562 263.1875 231.12187Q263.32812 231.29375 263.59375 231.40312Q263.75 231.46562 264.53125 231.66875Q265.65625 231.98125 266.09375 232.16875Q266.53125 232.35625 266.78125 232.71562Q267.03125 233.075 267.03125 233.62187Q267.03125 234.15312 266.71875 234.62187Q266.42188 235.075 265.84375 235.34062Q265.26562 235.59062 264.53125 235.59062Q263.3125 235.59062 262.67188 235.09062Q262.04688 234.575 261.875 233.59062ZM272.35938 233.16875L273.39062 233.30937Q273.21875 234.37187 272.51562 234.98125Q271.8125 235.59062 270.79688 235.59062Q269.51562 235.59062 268.73438 234.7625Q267.96875 233.91875 267.96875 232.35625Q267.96875 231.35625 268.29688 230.60625Q268.64062 229.84062 269.3125 229.46562Q270.0 229.09062 270.8125 229.09062Q271.8125 229.09062 272.45312 229.60625Q273.10938 230.10625 273.29688 231.05937L272.26562 231.21562Q272.125 230.59062 271.75 230.27812Q271.375 229.95 270.84375 229.95Q270.04688 229.95 269.54688 230.52812Q269.04688 231.09062 269.04688 232.325Q269.04688 233.59062 269.53125 234.15312Q270.01562 234.71562 270.78125 234.71562Q271.40625 234.71562 271.8125 234.34062Q272.23438 233.96562 272.35938 233.16875ZM274.28125 235.45L274.28125 229.23125L275.23438 229.23125L275.23438 230.16875Q275.59375 229.5125 275.89062 229.30937Q276.20312 229.09062 276.57812 229.09062Q277.10938 229.09062 277.65625 229.41875L277.29688 230.40312Q276.90625 230.16875 276.53125 230.16875Q276.17188 230.16875 275.89062 230.3875Q275.625 230.59062 275.51562 230.96562Q275.32812 231.52812 275.32812 232.18437L275.32812 235.45L274.28125 235.45ZM278.29688 228.075L278.29688 226.85625L279.35938 226.85625L279.35938 228.075L278.29688 228.075ZM278.29688 235.45L278.29688 229.23125L279.35938 229.23125L279.35938 235.45L278.29688 235.45ZM281.29688 237.84062L281.29688 229.23125L282.25 229.23125L282.25 230.02812Q282.59375 229.55937 283.01562 229.325Q283.45312 229.09062 284.0625 229.09062Q284.85938 229.09062 285.46875 229.49687Q286.07812 229.90312 286.375 230.65312Q286.6875 231.40312 286.6875 232.29375Q286.6875 233.24687 286.34375 234.0125Q286.01562 234.77812 285.35938 235.18437Q284.70312 235.59062 283.98438 235.59062Q283.45312 235.59062 283.03125 235.37187Q282.60938 235.1375 282.34375 234.80937L282.34375 237.84062L281.29688 237.84062ZM282.25 232.37187Q282.25 233.575 282.73438 234.15312Q283.21875 234.71562 283.90625 234.71562Q284.60938 234.71562 285.10938 234.12187Q285.60938 233.52812 285.60938 232.27812Q285.60938 231.09062 285.125 230.5125Q284.64062 229.91875 283.95312 229.91875Q283.28125 229.91875 282.76562 230.54375Q282.25 231.16875 282.25 232.37187ZM290.59375 234.5125L290.75 235.43437Q290.29688 235.52812 289.95312 235.52812Q289.375 235.52812 289.0625 235.35625Q288.75 235.16875 288.60938 234.87187Q288.48438 234.575 288.48438 233.62187L288.48438 230.04375L287.71875 230.04375L287.71875 229.23125L288.48438 229.23125L288.48438 227.68437L289.53125 227.05937L289.53125 229.23125L290.59375 229.23125L290.59375 230.04375L289.53125 230.04375L289.53125 233.68437Q289.53125 234.1375 289.57812 234.2625Q289.64062 234.3875 289.76562 234.46562Q289.89062 234.54375 290.125 234.54375Q290.3125 234.54375 290.59375 234.5125ZM290.875 233.59062L291.90625 233.43437Q292.0 234.05937 292.39062 234.3875Q292.79688 234.71562 293.53125 234.71562Q294.25 234.71562 294.59375 234.43437Q294.95312 234.1375 294.95312 233.73125Q294.95312 233.37187 294.64062 233.16875Q294.42188 233.02812 293.5625 232.80937Q292.40625 232.5125 291.95312 232.30937Q291.51562 232.09062 291.28125 231.71562Q291.04688 231.34062 291.04688 230.87187Q291.04688 230.46562 291.23438 230.10625Q291.42188 229.74687 291.75 229.5125Q292.0 229.34062 292.42188 229.21562Q292.84375 229.09062 293.34375 229.09062Q294.0625 229.09062 294.60938 229.30937Q295.17188 229.5125 295.4375 229.87187Q295.70312 230.23125 295.79688 230.825L294.76562 230.96562Q294.70312 230.49687 294.35938 230.23125Q294.03125 229.95 293.40625 229.95Q292.6875 229.95 292.375 230.2Q292.0625 230.43437 292.0625 230.7625Q292.0625 230.96562 292.1875 231.12187Q292.32812 231.29375 292.59375 231.40312Q292.75 231.46562 293.53125 231.66875Q294.65625 231.98125 295.09375 232.16875Q295.53125 232.35625 295.78125 232.71562Q296.03125 233.075 296.03125 233.62187Q296.03125 234.15312 295.71875 234.62187Q295.42188 235.075 294.84375 235.34062Q294.26562 235.59062 293.53125 235.59062Q292.3125 235.59062 291.67188 235.09062Q291.04688 234.575 290.875 233.59062ZM302.3125 237.98125Q301.4375 236.87187 300.82812 235.40312Q300.23438 233.91875 300.23438 232.34062Q300.23438 230.95 300.67188 229.66875Q301.20312 228.18437 302.3125 226.71562L303.0625 226.71562Q302.35938 227.93437 302.125 228.45Q301.76562 229.2625 301.5625 230.1375Q301.3125 231.23125 301.3125 232.34062Q301.3125 235.16875 303.0625 237.98125L302.3125 237.98125ZM307.96875 235.45L306.92188 235.45L306.92188 228.73125Q306.53125 229.09062 305.90625 229.46562Q305.29688 229.825 304.8125 229.99687L304.8125 228.98125Q305.6875 228.55937 306.34375 227.98125Q307.01562 227.3875 307.29688 226.825L307.96875 226.825L307.96875 235.45ZM318.35938 233.16875L319.39062 233.30937Q319.21875 234.37187 318.51562 234.98125Q317.8125 235.59062 316.79688 235.59062Q315.51562 235.59062 314.73438 234.7625Q313.96875 233.91875 313.96875 232.35625Q313.96875 231.35625 314.29688 230.60625Q314.64062 229.84062 315.3125 229.46562Q316.0 229.09062 316.8125 229.09062Q317.8125 229.09062 318.45312 229.60625Q319.10938 230.10625 319.29688 231.05937L318.26562 231.21562Q318.125 230.59062 317.75 230.27812Q317.375 229.95 316.84375 229.95Q316.04688 229.95 315.54688 230.52812Q315.04688 231.09062 315.04688 232.325Q315.04688 233.59062 315.53125 234.15312Q316.01562 234.71562 316.78125 234.71562Q317.40625 234.71562 317.8125 234.34062Q318.23438 233.96562 318.35938 233.16875ZM319.90625 232.34062Q319.90625 230.60625 320.85938 229.77812Q321.65625 229.09062 322.8125 229.09062Q324.09375 229.09062 324.90625 229.93437Q325.73438 230.7625 325.73438 232.24687Q325.73438 233.45 325.375 234.1375Q325.01562 234.825 324.3125 235.21562Q323.625 235.59062 322.8125 235.59062Q321.51562 235.59062 320.70312 234.7625Q319.90625 233.91875 319.90625 232.34062ZM320.98438 232.34062Q320.98438 233.52812 321.5 234.12187Q322.03125 234.71562 322.8125 234.71562Q323.60938 234.71562 324.125 234.12187Q324.64062 233.52812 324.64062 232.30937Q324.64062 231.15312 324.10938 230.55937Q323.59375 229.96562 322.8125 229.96562Q322.03125 229.96562 321.5 230.55937Q320.98438 231.1375 320.98438 232.34062ZM327.29688 235.45L327.29688 229.23125L328.23438 229.23125L328.23438 230.10625Q328.92188 229.09062 330.21875 229.09062Q330.78125 229.09062 331.25 229.29375Q331.73438 229.49687 331.96875 229.825Q332.20312 230.15312 332.29688 230.59062Q332.34375 230.8875 332.34375 231.62187L332.34375 235.45L331.29688 235.45L331.29688 231.66875Q331.29688 231.0125 331.17188 230.7Q331.04688 230.3875 330.73438 230.2Q330.42188 229.99687 330.0 229.99687Q329.32812 229.99687 328.82812 230.43437Q328.34375 230.85625 328.34375 232.04375L328.34375 235.45L327.29688 235.45ZM338.35938 233.16875L339.39062 233.30937Q339.21875 234.37187 338.51562 234.98125Q337.8125 235.59062 336.79688 235.59062Q335.51562 235.59062 334.73438 234.7625Q333.96875 233.91875 333.96875 232.35625Q333.96875 231.35625 334.29688 230.60625Q334.64062 229.84062 335.3125 229.46562Q336.0 229.09062 336.8125 229.09062Q337.8125 229.09062 338.45312 229.60625Q339.10938 230.10625 339.29688 231.05937L338.26562 231.21562Q338.125 230.59062 337.75 230.27812Q337.375 229.95 336.84375 229.95Q336.04688 229.95 335.54688 230.52812Q335.04688 231.09062 335.04688 232.325Q335.04688 233.59062 335.53125 234.15312Q336.01562 234.71562 336.78125 234.71562Q337.40625 234.71562 337.8125 234.34062Q338.23438 233.96562 338.35938 233.16875ZM344.375 235.45L344.375 234.52812Q343.64062 235.59062 342.39062 235.59062Q341.84375 235.59062 341.35938 235.3875Q340.89062 235.16875 340.65625 234.85625Q340.42188 234.52812 340.32812 234.05937Q340.26562 233.7625 340.26562 233.075L340.26562 229.23125L341.32812 229.23125L341.32812 232.68437Q341.32812 233.49687 341.39062 233.79375Q341.48438 234.2 341.79688 234.45Q342.125 234.68437 342.60938 234.68437Q343.07812 234.68437 343.48438 234.45Q343.90625 234.2 344.07812 233.77812Q344.26562 233.35625 344.26562 232.55937L344.26562 229.23125L345.3125 229.23125L345.3125 235.45L344.375 235.45ZM347.28125 235.45L347.28125 229.23125L348.23438 229.23125L348.23438 230.16875Q348.59375 229.5125 348.89062 229.30937Q349.20312 229.09062 349.57812 229.09062Q350.10938 229.09062 350.65625 229.41875L350.29688 230.40312Q349.90625 230.16875 349.53125 230.16875Q349.17188 230.16875 348.89062 230.3875Q348.625 230.59062 348.51562 230.96562Q348.32812 231.52812 348.32812 232.18437L348.32812 235.45L347.28125 235.45ZM351.28125 235.45L351.28125 229.23125L352.23438 229.23125L352.23438 230.16875Q352.59375 229.5125 352.89062 229.30937Q353.20312 229.09062 353.57812 229.09062Q354.10938 229.09062 354.65625 229.41875L354.29688 230.40312Q353.90625 230.16875 353.53125 230.16875Q353.17188 230.16875 352.89062 230.3875Q352.625 230.59062 352.51562 230.96562Q352.32812 231.52812 352.32812 232.18437L352.32812 235.45L351.28125 235.45ZM359.54688 233.45L360.64062 233.575Q360.39062 234.52812 359.6875 235.05937Q358.98438 235.59062 357.90625 235.59062Q356.54688 235.59062 355.73438 234.74687Q354.9375 233.90312 354.9375 232.3875Q354.9375 230.825 355.75 229.96562Q356.5625 229.09062 357.84375 229.09062Q359.09375 229.09062 359.875 229.93437Q360.67188 230.77812 360.67188 232.325Q360.67188 232.41875 360.67188 232.60625L356.03125 232.60625Q356.09375 233.6375 356.60938 234.18437Q357.125 234.71562 357.90625 234.71562Q358.48438 234.71562 358.89062 234.41875Q359.3125 234.10625 359.54688 233.45ZM356.09375 231.74687L359.5625 231.74687Q359.5 230.95 359.17188 230.55937Q358.65625 229.95 357.85938 229.95Q357.125 229.95 356.625 230.43437Q356.14062 230.91875 356.09375 231.74687ZM362.29688 235.45L362.29688 229.23125L363.23438 229.23125L363.23438 230.10625Q363.92188 229.09062 365.21875 229.09062Q365.78125 229.09062 366.25 229.29375Q366.73438 229.49687 366.96875 229.825Q367.20312 230.15312 367.29688 230.59062Q367.34375 230.8875 367.34375 231.62187L367.34375 235.45L366.29688 235.45L366.29688 231.66875Q366.29688 231.0125 366.17188 230.7Q366.04688 230.3875 365.73438 230.2Q365.42188 229.99687 365.0 229.99687Q364.32812 229.99687 363.82812 230.43437Q363.34375 230.85625 363.34375 232.04375L363.34375 235.45L362.29688 235.45ZM371.59375 234.5125L371.75 235.43437Q371.29688 235.52812 370.95312 235.52812Q370.375 235.52812 370.0625 235.35625Q369.75 235.16875 369.60938 234.87187Q369.48438 234.575 369.48438 233.62187L369.48438 230.04375L368.71875 230.04375L368.71875 229.23125L369.48438 229.23125L369.48438 227.68437L370.53125 227.05937L370.53125 229.23125L371.59375 229.23125L371.59375 230.04375L370.53125 230.04375L370.53125 233.68437Q370.53125 234.1375 370.57812 234.2625Q370.64062 234.3875 370.76562 234.46562Q370.89062 234.54375 371.125 234.54375Q371.3125 234.54375 371.59375 234.5125ZM372.98438 237.98125L372.23438 237.98125Q373.98438 235.16875 373.98438 232.34062Q373.98438 231.24687 373.73438 230.15312Q373.53125 229.27812 373.17188 228.46562Q372.9375 227.95 372.23438 226.71562L372.98438 226.71562Q374.07812 228.18437 374.60938 229.66875Q375.0625 230.95 375.0625 232.34062Q375.0625 233.91875 374.45312 235.40312Q373.84375 236.87187 372.98438 237.98125Z" fill-rule="nonzero"/><path fill="#000000" d="M396.84167 233.59062L397.87292 233.43437Q397.96667 234.05937 398.3573 234.3875Q398.76355 234.71562 399.49792 234.71562Q400.21667 234.71562 400.56042 234.43437Q400.9198 234.1375 400.9198 233.73125Q400.9198 233.37187 400.6073 233.16875Q400.38855 233.02812 399.52917 232.80937Q398.37292 232.5125 397.9198 232.30937Q397.4823 232.09062 397.24792 231.71562Q397.01355 231.34062 397.01355 230.87187Q397.01355 230.46562 397.20105 230.10625Q397.38855 229.74687 397.71667 229.5125Q397.96667 229.34062 398.38855 229.21562Q398.81042 229.09062 399.31042 229.09062Q400.02917 229.09062 400.57605 229.30937Q401.13855 229.5125 401.40417 229.87187Q401.6698 230.23125 401.76355 230.825L400.7323 230.96562Q400.6698 230.49687 400.32605 230.23125Q399.99792 229.95 399.37292 229.95Q398.65417 229.95 398.34167 230.2Q398.02917 230.43437 398.02917 230.7625Q398.02917 230.96562 398.15417 231.12187Q398.2948 231.29375 398.56042 231.40312Q398.71667 231.46562 399.49792 231.66875Q400.62292 231.98125 401.06042 232.16875Q401.49792 232.35625 401.74792 232.71562Q401.99792 233.075 401.99792 233.62187Q401.99792 234.15312 401.68542 234.62187Q401.38855 235.075 400.81042 235.34062Q400.2323 235.59062 399.49792 235.59062Q398.27917 235.59062 397.63855 235.09062Q397.01355 234.575 396.84167 233.59062ZM403.26355 235.45L403.26355 226.85625L404.31042 226.85625L404.31042 229.93437Q405.0448 229.09062 406.1698 229.09062Q406.87292 229.09062 407.37292 229.37187Q407.88855 229.6375 408.1073 230.12187Q408.32605 230.59062 408.32605 231.5125L408.32605 235.45L407.27917 235.45L407.27917 231.5125Q407.27917 230.71562 406.93542 230.35625Q406.59167 229.99687 405.96667 229.99687Q405.49792 229.99687 405.07605 230.24687Q404.6698 230.48125 404.4823 230.90312Q404.31042 231.30937 404.31042 232.04375L404.31042 235.45L403.26355 235.45ZM414.51355 233.45L415.6073 233.575Q415.3573 234.52812 414.65417 235.05937Q413.95105 235.59062 412.87292 235.59062Q411.51355 235.59062 410.70105 234.74687Q409.90417 233.90312 409.90417 232.3875Q409.90417 230.825 410.71667 229.96562Q411.52917 229.09062 412.81042 229.09062Q414.06042 229.09062 414.84167 229.93437Q415.63855 230.77812 415.63855 232.325Q415.63855 232.41875 415.63855 232.60625L410.99792 232.60625Q411.06042 233.6375 411.57605 234.18437Q412.09167 234.71562 412.87292 234.71562Q413.45105 234.71562 413.8573 234.41875Q414.27917 234.10625 414.51355 233.45ZM411.06042 231.74687L414.52917 231.74687Q414.46667 230.95 414.13855 230.55937Q413.62292 229.95 412.82605 229.95Q412.09167 229.95 411.59167 230.43437Q411.1073 230.91875 411.06042 231.74687ZM417.2323 235.45L417.2323 226.85625L418.2948 226.85625L418.2948 235.45L417.2323 235.45ZM420.2323 235.45L420.2323 226.85625L421.2948 226.85625L421.2948 235.45L420.2323 235.45ZM425.84167 233.59062L426.87292 233.43437Q426.96667 234.05937 427.3573 234.3875Q427.76355 234.71562 428.49792 234.71562Q429.21667 234.71562 429.56042 234.43437Q429.9198 234.1375 429.9198 233.73125Q429.9198 233.37187 429.6073 233.16875Q429.38855 233.02812 428.52917 232.80937Q427.37292 232.5125 426.9198 232.30937Q426.4823 232.09062 426.24792 231.71562Q426.01355 231.34062 426.01355 230.87187Q426.01355 230.46562 426.20105 230.10625Q426.38855 229.74687 426.71667 229.5125Q426.96667 229.34062 427.38855 229.21562Q427.81042 229.09062 428.31042 229.09062Q429.02917 229.09062 429.57605 229.30937Q430.13855 229.5125 430.40417 229.87187Q430.6698 230.23125 430.76355 230.825L429.7323 230.96562Q429.6698 230.49687 429.32605 230.23125Q428.99792 229.95 428.37292 229.95Q427.65417 229.95 427.34167 230.2Q427.02917 230.43437 427.02917 230.7625Q427.02917 230.96562 427.15417 231.12187Q427.2948 231.29375 427.56042 231.40312Q427.71667 231.46562 428.49792 231.66875Q429.62292 231.98125 430.06042 232.16875Q430.49792 232.35625 430.74792 232.71562Q430.99792 233.075 430.99792 233.62187Q430.99792 234.15312 430.68542 234.62187Q430.38855 235.075 429.81042 235.34062Q429.2323 235.59062 428.49792 235.59062Q427.27917 235.59062 426.63855 235.09062Q426.01355 234.575 425.84167 233.59062ZM436.32605 233.16875L437.3573 233.30937Q437.18542 234.37187 436.4823 234.98125Q435.77917 235.59062 434.76355 235.59062Q433.4823 235.59062 432.70105 234.7625Q431.93542 233.91875 431.93542 232.35625Q431.93542 231.35625 432.26355 230.60625Q432.6073 229.84062 433.27917 229.46562Q433.96667 229.09062 434.77917 229.09062Q435.77917 229.09062 436.4198 229.60625Q437.07605 230.10625 437.26355 231.05937L436.2323 231.21562Q436.09167 230.59062 435.71667 230.27812Q435.34167 229.95 434.81042 229.95Q434.01355 229.95 433.51355 230.52812Q433.01355 231.09062 433.01355 232.325Q433.01355 233.59062 433.49792 234.15312Q433.9823 234.71562 434.74792 234.71562Q435.37292 234.71562 435.77917 234.34062Q436.20105 233.96562 436.32605 233.16875ZM438.24792 235.45L438.24792 229.23125L439.20105 229.23125L439.20105 230.16875Q439.56042 229.5125 439.8573 229.30937Q440.1698 229.09062 440.5448 229.09062Q441.07605 229.09062 441.62292 229.41875L441.26355 230.40312Q440.87292 230.16875 440.49792 230.16875Q440.13855 230.16875 439.8573 230.3875Q439.59167 230.59062 439.4823 230.96562Q439.2948 231.52812 439.2948 232.18437L439.2948 235.45L438.24792 235.45ZM442.26355 228.075L442.26355 226.85625L443.32605 226.85625L443.32605 228.075L442.26355 228.075ZM442.26355 235.45L442.26355 229.23125L443.32605 229.23125L443.32605 235.45L442.26355 235.45ZM445.26355 237.84062L445.26355 229.23125L446.21667 229.23125L446.21667 230.02812Q446.56042 229.55937 446.9823 229.325Q447.4198 229.09062 448.02917 229.09062Q448.82605 229.09062 449.43542 229.49687Q450.0448 229.90312 450.34167 230.65312Q450.65417 231.40312 450.65417 232.29375Q450.65417 233.24687 450.31042 234.0125Q449.9823 234.77812 449.32605 235.18437Q448.6698 235.59062 447.95105 235.59062Q447.4198 235.59062 446.99792 235.37187Q446.57605 235.1375 446.31042 234.80937L446.31042 237.84062L445.26355 237.84062ZM446.21667 232.37187Q446.21667 233.575 446.70105 234.15312Q447.18542 234.71562 447.87292 234.71562Q448.57605 234.71562 449.07605 234.12187Q449.57605 233.52812 449.57605 232.27812Q449.57605 231.09062 449.09167 230.5125Q448.6073 229.91875 447.9198 229.91875Q447.24792 229.91875 446.7323 230.54375Q446.21667 231.16875 446.21667 232.37187ZM454.56042 234.5125L454.71667 235.43437Q454.26355 235.52812 453.9198 235.52812Q453.34167 235.52812 453.02917 235.35625Q452.71667 235.16875 452.57605 234.87187Q452.45105 234.575 452.45105 233.62187L452.45105 230.04375L451.68542 230.04375L451.68542 229.23125L452.45105 229.23125L452.45105 227.68437L453.49792 227.05937L453.49792 229.23125L454.56042 229.23125L454.56042 230.04375L453.49792 230.04375L453.49792 233.68437Q453.49792 234.1375 453.5448 234.2625Q453.6073 234.3875 453.7323 234.46562Q453.8573 234.54375 454.09167 234.54375Q454.27917 234.54375 454.56042 234.5125ZM454.84167 233.59062L455.87292 233.43437Q455.96667 234.05937 456.3573 234.3875Q456.76355 234.71562 457.49792 234.71562Q458.21667 234.71562 458.56042 234.43437Q458.9198 234.1375 458.9198 233.73125Q458.9198 233.37187 458.6073 233.16875Q458.38855 233.02812 457.52917 232.80937Q456.37292 232.5125 455.9198 232.30937Q455.4823 232.09062 455.24792 231.71562Q455.01355 231.34062 455.01355 230.87187Q455.01355 230.46562 455.20105 230.10625Q455.38855 229.74687 455.71667 229.5125Q455.96667 229.34062 456.38855 229.21562Q456.81042 229.09062 457.31042 229.09062Q458.02917 229.09062 458.57605 229.30937Q459.13855 229.5125 459.40417 229.87187Q459.6698 230.23125 459.76355 230.825L458.7323 230.96562Q458.6698 230.49687 458.32605 230.23125Q457.99792 229.95 457.37292 229.95Q456.65417 229.95 456.34167 230.2Q456.02917 230.43437 456.02917 230.7625Q456.02917 230.96562 456.15417 231.12187Q456.2948 231.29375 456.56042 231.40312Q456.71667 231.46562 457.49792 231.66875Q458.62292 231.98125 459.06042 232.16875Q459.49792 232.35625 459.74792 232.71562Q459.99792 233.075 459.99792 233.62187Q459.99792 234.15312 459.68542 234.62187Q459.38855 235.075 458.81042 235.34062Q458.2323 235.59062 457.49792 235.59062Q456.27917 235.59062 455.63855 235.09062Q455.01355 234.575 454.84167 233.59062ZM466.27917 237.98125Q465.40417 236.87187 464.7948 235.40312Q464.20105 233.91875 464.20105 232.34062Q464.20105 230.95 464.63855 229.66875Q465.1698 228.18437 466.27917 226.71562L467.02917 226.71562Q466.32605 227.93437 466.09167 228.45Q465.7323 229.2625 465.52917 230.1375Q465.27917 231.23125 465.27917 232.34062Q465.27917 235.16875 467.02917 237.98125L466.27917 237.98125ZM469.59167 230.79375Q468.93542 230.54375 468.6073 230.10625Q468.2948 229.65312 468.2948 229.04375Q468.2948 228.10625 468.96667 227.46562Q469.65417 226.825 470.76355 226.825Q471.88855 226.825 472.57605 227.48125Q473.26355 228.1375 473.26355 229.075Q473.26355 229.66875 472.95105 230.10625Q472.63855 230.54375 471.99792 230.79375Q472.7948 231.04375 473.20105 231.62187Q473.6073 232.2 473.6073 232.99687Q473.6073 234.09062 472.82605 234.84062Q472.06042 235.59062 470.77917 235.59062Q469.51355 235.59062 468.7323 234.84062Q467.95105 234.09062 467.95105 232.96562Q467.95105 232.12187 468.37292 231.55937Q468.81042 230.99687 469.59167 230.79375ZM469.37292 228.99687Q469.37292 229.60625 469.76355 229.99687Q470.1698 230.3875 470.7948 230.3875Q471.40417 230.3875 471.7948 230.0125Q472.18542 229.62187 472.18542 229.05937Q472.18542 228.48125 471.77917 228.09062Q471.37292 227.68437 470.77917 227.68437Q470.1698 227.68437 469.76355 228.075Q469.37292 228.46562 469.37292 228.99687ZM469.0448 232.96562Q469.0448 233.41875 469.24792 233.84062Q469.46667 234.2625 469.88855 234.49687Q470.31042 234.73125 470.7948 234.73125Q471.5448 234.73125 472.02917 234.24687Q472.52917 233.7625 472.52917 233.0125Q472.52917 232.24687 472.02917 231.74687Q471.52917 231.24687 470.76355 231.24687Q470.01355 231.24687 469.52917 231.74687Q469.0448 232.23125 469.0448 232.96562ZM482.32605 233.16875L483.3573 233.30937Q483.18542 234.37187 482.4823 234.98125Q481.77917 235.59062 480.76355 235.59062Q479.4823 235.59062 478.70105 234.7625Q477.93542 233.91875 477.93542 232.35625Q477.93542 231.35625 478.26355 230.60625Q478.6073 229.84062 479.27917 229.46562Q479.96667 229.09062 480.77917 229.09062Q481.77917 229.09062 482.4198 229.60625Q483.07605 230.10625 483.26355 231.05937L482.2323 231.21562Q482.09167 230.59062 481.71667 230.27812Q481.34167 229.95 480.81042 229.95Q480.01355 229.95 479.51355 230.52812Q479.01355 231.09062 479.01355 232.325Q479.01355 233.59062 479.49792 234.15312Q479.9823 234.71562 480.74792 234.71562Q481.37292 234.71562 481.77917 234.34062Q482.20105 233.96562 482.32605 233.16875ZM483.87292 232.34062Q483.87292 230.60625 484.82605 229.77812Q485.62292 229.09062 486.77917 229.09062Q488.06042 229.09062 488.87292 229.93437Q489.70105 230.7625 489.70105 232.24687Q489.70105 233.45 489.34167 234.1375Q488.9823 234.825 488.27917 235.21562Q487.59167 235.59062 486.77917 235.59062Q485.4823 235.59062 484.6698 234.7625Q483.87292 233.91875 483.87292 232.34062ZM484.95105 232.34062Q484.95105 233.52812 485.46667 234.12187Q485.99792 234.71562 486.77917 234.71562Q487.57605 234.71562 488.09167 234.12187Q488.6073 233.52812 488.6073 232.30937Q488.6073 231.15312 488.07605 230.55937Q487.56042 229.96562 486.77917 229.96562Q485.99792 229.96562 485.46667 230.55937Q484.95105 231.1375 484.95105 232.34062ZM491.26355 235.45L491.26355 229.23125L492.20105 229.23125L492.20105 230.10625Q492.88855 229.09062 494.18542 229.09062Q494.74792 229.09062 495.21667 229.29375Q495.70105 229.49687 495.93542 229.825Q496.1698 230.15312 496.26355 230.59062Q496.31042 230.8875 496.31042 231.62187L496.31042 235.45L495.26355 235.45L495.26355 231.66875Q495.26355 231.0125 495.13855 230.7Q495.01355 230.3875 494.70105 230.2Q494.38855 229.99687 493.96667 229.99687Q493.2948 229.99687 492.7948 230.43437Q492.31042 230.85625 492.31042 232.04375L492.31042 235.45L491.26355 235.45ZM502.32605 233.16875L503.3573 233.30937Q503.18542 234.37187 502.4823 234.98125Q501.77917 235.59062 500.76355 235.59062Q499.4823 235.59062 498.70105 234.7625Q497.93542 233.91875 497.93542 232.35625Q497.93542 231.35625 498.26355 230.60625Q498.6073 229.84062 499.27917 229.46562Q499.96667 229.09062 500.77917 229.09062Q501.77917 229.09062 502.4198 229.60625Q503.07605 230.10625 503.26355 231.05937L502.2323 231.21562Q502.09167 230.59062 501.71667 230.27812Q501.34167 229.95 500.81042 229.95Q500.01355 229.95 499.51355 230.52812Q499.01355 231.09062 499.01355 232.325Q499.01355 233.59062 499.49792 234.15312Q499.9823 234.71562 500.74792 234.71562Q501.37292 234.71562 501.77917 234.34062Q502.20105 233.96562 502.32605 233.16875ZM508.32605 233.16875L509.3573 233.30937Q509.18542 234.37187 508.4823 234.98125Q507.77917 235.59062 506.76355 235.59062Q505.4823 235.59062 504.70105 234.7625Q503.93542 233.91875 503.93542 232.35625Q503.93542 231.35625 504.26355 230.60625Q504.6073 229.84062 505.27917 229.46562Q505.96667 229.09062 506.77917 229.09062Q507.77917 229.09062 508.4198 229.60625Q509.07605 230.10625 509.26355 231.05937L508.2323 231.21562Q508.09167 230.59062 507.71667 230.27812Q507.34167 229.95 506.81042 229.95Q506.01355 229.95 505.51355 230.52812Q505.01355 231.09062 505.01355 232.325Q505.01355 233.59062 505.49792 234.15312Q505.9823 234.71562 506.74792 234.71562Q507.37292 234.71562 507.77917 234.34062Q508.20105 233.96562 508.32605 233.16875ZM514.3417 235.45L514.3417 234.52812Q513.6073 235.59062 512.3573 235.59062Q511.81042 235.59062 511.32605 235.3875Q510.8573 235.16875 510.62292 234.85625Q510.38855 234.52812 510.2948 234.05937Q510.2323 233.7625 510.2323 233.075L510.2323 229.23125L511.2948 229.23125L511.2948 232.68437Q511.2948 233.49687 511.3573 233.79375Q511.45105 234.2 511.76355 234.45Q512.0917 234.68437 512.57605 234.68437Q513.0448 234.68437 513.45105 234.45Q513.8729 234.2 514.0448 233.77812Q514.2323 233.35625 514.2323 232.55937L514.2323 229.23125L515.2792 229.23125L515.2792 235.45L514.3417 235.45ZM517.2479 235.45L517.2479 229.23125L518.20105 229.23125L518.20105 230.16875Q518.5604 229.5125 518.8573 229.30937Q519.1698 229.09062 519.5448 229.09062Q520.07605 229.09062 520.6229 229.41875L520.26355 230.40312Q519.8729 230.16875 519.4979 230.16875Q519.13855 230.16875 518.8573 230.3875Q518.5917 230.59062 518.4823 230.96562Q518.2948 231.52812 518.2948 232.18437L518.2948 235.45L517.2479 235.45ZM521.2479 235.45L521.2479 229.23125L522.20105 229.23125L522.20105 230.16875Q522.5604 229.5125 522.8573 229.30937Q523.1698 229.09062 523.5448 229.09062Q524.07605 229.09062 524.6229 229.41875L524.26355 230.40312Q523.8729 230.16875 523.4979 230.16875Q523.13855 230.16875 522.8573 230.3875Q522.5917 230.59062 522.4823 230.96562Q522.2948 231.52812 522.2948 232.18437L522.2948 235.45L521.2479 235.45ZM529.51355 233.45L530.6073 233.575Q530.3573 234.52812 529.6542 235.05937Q528.95105 235.59062 527.8729 235.59062Q526.51355 235.59062 525.70105 234.74687Q524.9042 233.90312 524.9042 232.3875Q524.9042 230.825 525.7167 229.96562Q526.5292 229.09062 527.8104 229.09062Q529.0604 229.09062 529.8417 229.93437Q530.63855 230.77812 530.63855 232.325Q530.63855 232.41875 530.63855 232.60625L525.9979 232.60625Q526.0604 233.6375 526.57605 234.18437Q527.0917 234.71562 527.8729 234.71562Q528.45105 234.71562 528.8573 234.41875Q529.2792 234.10625 529.51355 233.45ZM526.0604 231.74687L529.5292 231.74687Q529.4667 230.95 529.13855 230.55937Q528.6229 229.95 527.82605 229.95Q527.0917 229.95 526.5917 230.43437Q526.1073 230.91875 526.0604 231.74687ZM532.26355 235.45L532.26355 229.23125L533.20105 229.23125L533.20105 230.10625Q533.88855 229.09062 535.1854 229.09062Q535.7479 229.09062 536.2167 229.29375Q536.70105 229.49687 536.9354 229.825Q537.1698 230.15312 537.26355 230.59062Q537.3104 230.8875 537.3104 231.62187L537.3104 235.45L536.26355 235.45L536.26355 231.66875Q536.26355 231.0125 536.13855 230.7Q536.01355 230.3875 535.70105 230.2Q535.38855 229.99687 534.9667 229.99687Q534.2948 229.99687 533.7948 230.43437Q533.3104 230.85625 533.3104 232.04375L533.3104 235.45L532.26355 235.45ZM541.5604 234.5125L541.7167 235.43437Q541.26355 235.52812 540.9198 235.52812Q540.3417 235.52812 540.0292 235.35625Q539.7167 235.16875 539.57605 234.87187Q539.45105 234.575 539.45105 233.62187L539.45105 230.04375L538.6854 230.04375L538.6854 229.23125L539.45105 229.23125L539.45105 227.68437L540.4979 227.05937L540.4979 229.23125L541.5604 229.23125L541.5604 230.04375L540.4979 230.04375L540.4979 233.68437Q540.4979 234.1375 540.5448 234.2625Q540.6073 234.3875 540.7323 234.46562Q540.8573 234.54375 541.0917 234.54375Q541.2792 234.54375 541.5604 234.5125ZM542.95105 237.98125L542.20105 237.98125Q543.95105 235.16875 543.95105 232.34062Q543.95105 231.24687 543.70105 230.15312Q543.4979 229.27812 543.13855 228.46562Q542.9042 227.95 542.20105 226.71562L542.95105 226.71562Q544.0448 228.18437 544.57605 229.66875Q545.0292 230.95 545.0292 232.34062Q545.0292 233.91875 544.4198 235.40312Q543.8104 236.87187 542.95105 237.98125Z" fill-rule="nonzero"/></svg>