<svg version="1.1" viewBox="0.0 0.0 600.0 275.0" fill="none" stroke="none" stroke-linecap="square" stroke-miterlimit="10" width="600" height="275" xmlns:xlink="http://www.w3.org/1999/xlink" xmlns="http://www.w3.org/2000/svg"><path fill="#ffffff" d="M0 0L600.0 0L600.0 275.0L0 275.0L0 0Z" fill-rule="nonzero"/><path stroke="#cccccc" stroke-width="1.0" stroke-linecap="butt" d="M47.5 20.5L47.5 241.5" fill-rule="nonzero"/><path stroke="#cccccc" stroke-width="1.0" stroke-linecap="butt" d="M156.5 20.5L156.5 241.5" fill-rule="nonzero"/><path stroke="#cccccc" stroke-width="1.0" stroke-linecap="butt" d="M264.5 20.5L264.5 241.5" fill-rule="nonzero"/><path stroke="#cccccc" stroke-width="1.0" stroke-linecap="butt" d="M373.5 20.5L373.5 241.5" fill-rule="nonzero"/><path stroke="#cccccc" stroke-width="1.0" stroke-linecap="butt" d="M481.5 20.5L481.5 241.5" fill-rule="nonzero"/><path stroke="#cccccc" stroke-width="1.0" stroke-linecap="butt" d="M40.5 241.5L586.5 241.5" fill-rule="nonzero"/><path stroke="#cccccc" stroke-width="1.0" stroke-linecap="butt" d="M40.5 199.5L586.5 199.5" fill-rule="nonzero"/><path stroke="#cccccc" stroke-width="1.0" stroke-linecap="butt" d="M40.5 157.5L586.5 157.5" fill-rule="nonzero"/><path stroke="#cccccc" stroke-width="1.0" stroke-linecap="butt" d="M40.5 132.5L586.5 132.5" fill-rule="nonzero"/><path stroke="#cccccc" stroke-width="1.0" stroke-linecap="butt" d="M40.5 115.5L586.5 115.5" fill-rule="nonzero"/><path stroke="#cccccc" stroke-width="1.0" stroke-linecap="butt" d="M40.5 101.5L586.5 101.5" fill-rule="nonzero"/><path stroke="#cccccc" stroke-width="1.0" stroke-linecap="butt" d="M40.5 59.5L586.5 59.5" fill-rule="nonzero"/><clipPath id="id_0"><path d="M40.75 20.75L586.25 20.75L586.25 241.25L40.75 241.25L40.75 20.75Z" clip-rule="nonzero"/></clipPath><path stroke="#fbbc04" stroke-width="2.0" stroke-linecap="butt" clip-path="url(#id_0)" d="M47.574844 199.23341L318.92703 143.6905L481.73837 101.67392L536.0088 90.622116L579.4252 20.75" fill-rule="nonzero"/><path stroke="#34a853" stroke-width="2.0" stroke-linecap="butt" clip-path="url(#id_0)" d="M47.574844 143.6905L318.92703 115.20024L481.73837 95.89649L536.0088 73.183655L579.4252 31.167068" fill-rule="nonzero"/><path stroke="#4285f4" stroke-width="2.0" stroke-linecap="butt" clip-path="url(#id_0)" d="M47.574844 241.25L318.92703 199.23341L481.73837 157.21683L536.0088 123.29453L579.4252 85.77016" fill-rule="nonzero"/><path fill="#fbbc04" clip-path="url(#id_0)" d="M52.074844 199.23341C52.074844 201.71869 50.060123 203.73341 47.574844 203.73341C45.08956 203.73341 43.074844 201.71869 43.074844 199.23341C43.074844 196.74814 45.08956 194.73341 47.574844 194.73341C50.060123 194.73341 52.074844 196.74814 52.074844 199.23341Z" fill-rule="nonzero"/><path fill="#fbbc04" clip-path="url(#id_0)" d="M323.42703 143.6905C323.42703 146.17578 321.41232 148.1905 318.92703 148.1905C316.44177 148.1905 314.42703 146.17578 314.42703 143.6905C314.42703 141.20523 316.44177 139.1905 318.92703 139.1905C321.41232 139.1905 323.42703 141.20523 323.42703 143.6905Z" fill-rule="nonzero"/><path fill="#fbbc04" clip-path="url(#id_0)" d="M486.23837 101.67392C486.23837 104.1592 484.22363 106.17392 481.73837 106.17392C479.25308 106.17392 477.23837 104.1592 477.23837 101.67392C477.23837 99.18864 479.25308 97.17392 481.73837 97.17392C484.22363 97.17392 486.23837 99.18864 486.23837 101.67392Z" fill-rule="nonzero"/><path fill="#fbbc04" clip-path="url(#id_0)" d="M540.5088 90.622116C540.5088 93.10739 538.4941 95.122116 536.0088 95.122116C533.5235 95.122116 531.5088 93.10739 531.5088 90.622116C531.5088 88.13683 533.5235 86.122116 536.0088 86.122116C538.4941 86.122116 540.5088 88.13683 540.5088 90.622116Z" fill-rule="nonzero"/><path fill="#fbbc04" clip-path="url(#id_0)" d="M583.9252 20.75C583.9252 23.235281 581.91046 25.25 579.4252 25.25C576.9399 25.25 574.9252 23.235281 574.9252 20.75C574.9252 18.264719 576.9399 16.25 579.4252 16.25C581.91046 16.25 583.9252 18.264719 583.9252 20.75Z" fill-rule="nonzero"/><path fill="#34a853" clip-path="url(#id_0)" d="M52.074844 143.6905C52.074844 146.17578 50.060123 148.1905 47.574844 148.1905C45.08956 148.1905 43.074844 146.17578 43.074844 143.6905C43.074844 141.20523 45.08956 139.1905 47.574844 139.1905C50.060123 139.1905 52.074844 141.20523 52.074844 143.6905Z" fill-rule="nonzero"/><path fill="#34a853" clip-path="url(#id_0)" d="M323.42703 115.20024C323.42703 117.685524 321.41232 119.70024 318.92703 119.70024C316.44177 119.70024 314.42703 117.685524 314.42703 115.20024C314.42703 112.71496 316.44177 110.70024 318.92703 110.70024C321.41232 110.70024 323.42703 112.71496 323.42703 115.20024Z" fill-rule="nonzero"/><path fill="#34a853" clip-path="url(#id_0)" d="M486.23837 95.89649C486.23837 98.381775 484.22363 100.39649 481.73837 100.39649C479.25308 100.39649 477.23837 98.381775 477.23837 95.89649C477.23837 93.41121 479.25308 91.39649 481.73837 91.39649C484.22363 91.39649 486.23837 93.41121 486.23837 95.89649Z" fill-rule="nonzero"/><path fill="#34a853" clip-path="url(#id_0)" d="M540.5088 73.183655C540.5088 75.66894 538.4941 77.683655 536.0088 77.683655C533.5235 77.683655 531.5088 75.66894 531.5088 73.183655C531.5088 70.69837 533.5235 68.683655 536.0088 68.683655C538.4941 68.683655 540.5088 70.69837 540.5088 73.183655Z" fill-rule="nonzero"/><path fill="#34a853" clip-path="url(#id_0)" d="M583.9252 31.167068C583.9252 33.652348 581.91046 35.66707 579.4252 35.66707C576.9399 35.66707 574.9252 33.652348 574.9252 31.167068C574.9252 28.681786 576.9399 26.667068 579.4252 26.667068C581.91046 26.667068 583.9252 28.681786 583.9252 31.167068Z" fill-rule="nonzero"/><path fill="#4285f4" clip-path="url(#id_0)" d="M52.074844 241.25C52.074844 243.73528 50.060123 245.75 47.574844 245.75C45.08956 245.75 43.074844 243.73528 43.074844 241.25C43.074844 238.76472 45.08956 236.75 47.574844 236.75C50.060123 236.75 52.074844 238.76472 52.074844 241.25Z" fill-rule="nonzero"/><path fill="#4285f4" clip-path="url(#id_0)" d="M323.42703 199.23341C323.42703 201.71869 321.41232 203.73341 318.92703 203.73341C316.44177 203.73341 314.42703 201.71869 314.42703 199.23341C314.42703 196.74814 316.44177 194.73341 318.92703 194.73341C321.41232 194.73341 323.42703 196.74814 323.42703 199.23341Z" fill-rule="nonzero"/><path fill="#4285f4" clip-path="url(#id_0)" d="M486.23837 157.21683C486.23837 159.7021 484.22363 161.71683 481.73837 161.71683C479.25308 161.71683 477.23837 159.7021 477.23837 157.21683C477.23837 154.73155 479.25308 152.71683 481.73837 152.71683C484.22363 152.71683 486.23837 154.73155 486.23837 157.21683Z" fill-rule="nonzero"/><path fill="#4285f4" clip-path="url(#id_0)" d="M540.5088 123.29453C540.5088 125.77981 538.4941 127.79453 536.0088 127.79453C533.5235 127.79453 531.5088 125.77981 531.5088 123.29453C531.5088 120.80925 533.5235 118.79453 536.0088 118.79453C538.4941 118.79453 540.5088 120.80925 540.5088 123.29453Z" fill-rule="nonzero"/><path fill="#4285f4" clip-path="url(#id_0)" d="M583.9252 85.77016C583.9252 88.25544 581.91046 90.27016 579.4252 90.27016C576.9399 90.27016 574.9252 88.25544 574.9252 85.77016C574.9252 83.284874 576.9399 81.27016 579.4252 81.27016C581.91046 81.27016 583.9252 83.284874 583.9252 85.77016Z" fill-rule="nonzero"/><path fill="#000000" d="M32.21875 245.25L31.171875 245.25L31.171875 238.53125Q30.78125 238.89062 30.15625 239.26562Q29.546875 239.625 29.0625 239.79688L29.0625 238.78125Q29.9375 238.35938 30.59375 237.78125Q31.265625 237.1875 31.546875 236.625L32.21875 236.625L32.21875 245.25Z" fill-rule="nonzero"/><path fill="#000000" d="M33.796875 202.21779L33.796875 203.23341L28.109375 203.23341Q28.109375 202.85841 28.234375 202.49904Q28.453125 201.92091 28.921875 201.35841Q29.40625 200.79591 30.3125 200.06154Q31.71875 198.90529 32.203125 198.23341Q32.703125 197.56154 32.703125 196.96779Q32.703125 196.34279 32.25 195.92091Q31.796875 195.48341 31.078125 195.48341Q30.3125 195.48341 29.859375 195.93654Q29.40625 196.38966 29.390625 197.20216L28.3125 197.09279Q28.421875 195.87404 29.140625 195.24904Q29.875 194.60841 31.109375 194.60841Q32.34375 194.60841 33.0625 195.29591Q33.78125 195.98341 33.78125 196.99904Q33.78125 197.51466 33.5625 198.01466Q33.359375 198.49904 32.859375 199.06154Q32.375 199.60841 31.25 200.56154Q30.296875 201.35841 30.015625 201.65529Q29.75 201.93654 29.578125 202.21779L33.796875 202.21779Z" fill-rule="nonzero"/><path fill="#000000" d="M31.625 161.21683L31.625 159.15433L27.90625 159.15433L27.90625 158.18558L31.828125 152.62308L32.6875 152.62308L32.6875 158.18558L33.84375 158.18558L33.84375 159.15433L32.6875 159.15433L32.6875 161.21683L31.625 161.21683ZM31.625 158.18558L31.625 154.3262L28.9375 158.18558L31.625 158.18558Z" fill-rule="nonzero"/><path fill="#000000" d="M33.71875 130.15433L32.671875 130.23245Q32.53125 129.60745 32.28125 129.3262Q31.84375 128.87308 31.21875 128.87308Q30.71875 128.87308 30.328125 129.15433Q29.84375 129.52933 29.546875 130.23245Q29.265625 130.91995 29.25 132.2012Q29.625 131.62308 30.171875 131.34183Q30.734375 131.06058 31.34375 131.06058Q32.390625 131.06058 33.125 131.84183Q33.875 132.62308 33.875 133.84183Q33.875 134.65433 33.515625 135.35745Q33.171875 136.04495 32.5625 136.41995Q31.953125 136.77933 31.1875 136.77933Q29.859375 136.77933 29.03125 135.81058Q28.203125 134.84183 28.203125 132.62308Q28.203125 130.12308 29.125 128.99808Q29.921875 128.0137 31.28125 128.0137Q32.296875 128.0137 32.9375 128.59183Q33.59375 129.15433 33.71875 130.15433ZM29.421875 133.85745Q29.421875 134.40433 29.640625 134.90433Q29.875 135.3887 30.28125 135.65433Q30.703125 135.91995 31.171875 135.91995Q31.828125 135.91995 32.3125 135.3887Q32.796875 134.84183 32.796875 133.91995Q32.796875 133.02933 32.3125 132.5137Q31.84375 131.99808 31.125 131.99808Q30.40625 131.99808 29.90625 132.5137Q29.421875 133.02933 29.421875 133.85745Z" fill-rule="nonzero"/><path fill="#000000" d="M29.875 114.54399Q29.21875 114.29399 28.890625 113.85649Q28.578125 113.403366 28.578125 112.79399Q28.578125 111.85649 29.25 111.215866Q29.9375 110.57524 31.046875 110.57524Q32.171875 110.57524 32.859375 111.23149Q33.546875 111.88774 33.546875 112.82524Q33.546875 113.41899 33.234375 113.85649Q32.921875 114.29399 32.28125 114.54399Q33.078125 114.79399 33.484375 115.372116Q33.890625 115.95024 33.890625 116.747116Q33.890625 117.840866 33.109375 118.590866Q32.34375 119.340866 31.0625 119.340866Q29.796875 119.340866 29.015625 118.590866Q28.234375 117.840866 28.234375 116.715866Q28.234375 115.872116 28.65625 115.309616Q29.09375 114.747116 29.875 114.54399ZM29.65625 112.747116Q29.65625 113.35649 30.046875 113.747116Q30.453125 114.13774 31.078125 114.13774Q31.6875 114.13774 32.078125 113.76274Q32.46875 113.372116 32.46875 112.809616Q32.46875 112.23149 32.0625 111.840866Q31.65625 111.434616 31.0625 111.434616Q30.453125 111.434616 30.046875 111.82524Q29.65625 112.215866 29.65625 112.747116ZM29.328125 116.715866Q29.328125 117.16899 29.53125 117.590866Q29.75 118.01274 30.171875 118.247116Q30.59375 118.48149 31.078125 118.48149Q31.828125 118.48149 32.3125 117.997116Q32.8125 117.51274 32.8125 116.76274Q32.8125 115.997116 32.3125 115.497116Q31.8125 114.997116 31.046875 114.997116Q30.296875 114.997116 29.8125 115.497116Q29.328125 115.98149 29.328125 116.715866Z" fill-rule="nonzero"/><path fill="#000000" d="M26.796875 62.64171L26.796875 63.657333L21.109375 63.657333Q21.109375 63.282333 21.234375 62.92296Q21.453125 62.344833 21.921875 61.782333Q22.40625 61.219833 23.3125 60.48546Q24.71875 59.32921 25.203125 58.657333Q25.703125 57.98546 25.703125 57.39171Q25.703125 56.76671 25.25 56.344833Q24.796875 55.907333 24.078125 55.907333Q23.3125 55.907333 22.859375 56.36046Q22.40625 56.813583 22.390625 57.626083L21.3125 57.51671Q21.421875 56.29796 22.140625 55.67296Q22.875 55.032333 24.109375 55.032333Q25.34375 55.032333 26.0625 55.719833Q26.78125 56.407333 26.78125 57.42296Q26.78125 57.938583 26.5625 58.438583Q26.359375 58.92296 25.859375 59.48546Q25.375 60.032333 24.25 60.98546Q23.296875 61.782333 23.015625 62.07921Q22.75 62.36046 22.578125 62.64171L26.796875 62.64171ZM28.25 59.42296Q28.25 57.89171 28.5625 56.969833Q28.875 56.032333 29.484375 55.532333Q30.109375 55.032333 31.046875 55.032333Q31.734375 55.032333 32.25 55.313583Q32.78125 55.594833 33.125 56.126083Q33.46875 56.64171 33.65625 57.39171Q33.84375 58.14171 33.84375 59.42296Q33.84375 60.938583 33.53125 61.86046Q33.234375 62.782333 32.609375 63.29796Q32.0 63.79796 31.046875 63.79796Q29.8125 63.79796 29.09375 62.907333Q28.25 61.844833 28.25 59.42296ZM29.328125 59.42296Q29.328125 61.532333 29.828125 62.23546Q30.328125 62.938583 31.046875 62.938583Q31.78125 62.938583 32.265625 62.23546Q32.765625 61.532333 32.765625 59.42296Q32.765625 57.29796 32.265625 56.61046Q31.78125 55.907333 31.03125 55.907333Q30.3125 55.907333 29.875 56.51671Q29.328125 57.29796 29.328125 59.42296Z" fill-rule="nonzero"/><path fill="#000000" d="M39.574844 254.01562Q39.574844 252.48438 39.887344 251.5625Q40.199844 250.625 40.80922 250.125Q41.43422 249.625 42.37172 249.625Q43.05922 249.625 43.574844 249.90625Q44.106094 250.1875 44.449844 250.71875Q44.793594 251.23438 44.981094 251.98438Q45.168594 252.73438 45.168594 254.01562Q45.168594 255.53125 44.856094 256.45312Q44.55922 257.375 43.93422 257.89062Q43.324844 258.39062 42.37172 258.39062Q41.137344 258.39062 40.418594 257.5Q39.574844 256.4375 39.574844 254.01562ZM40.65297 254.01562Q40.65297 256.125 41.15297 256.82812Q41.65297 257.53125 42.37172 257.53125Q43.106094 257.53125 43.59047 256.82812Q44.09047 256.125 44.09047 254.01562Q44.09047 251.89062 43.59047 251.20312Q43.106094 250.5 42.356094 250.5Q41.637344 250.5 41.199844 251.10938Q40.65297 251.89062 40.65297 254.01562ZM47.168594 258.25L47.168594 257.04688L48.37172 257.04688L48.37172 258.25L47.168594 258.25ZM49.574844 256.0L50.68422 255.90625Q50.80922 256.71875 51.24672 257.125Q51.699844 257.53125 52.34047 257.53125Q53.09047 257.53125 53.62172 256.95312Q54.15297 256.375 54.15297 255.4375Q54.15297 254.53125 53.637344 254.01562Q53.137344 253.48438 52.30922 253.48438Q51.80922 253.48438 51.387344 253.71875Q50.981094 253.95312 50.74672 254.3125L49.762344 254.1875L50.59047 249.78125L54.87172 249.78125L54.87172 250.78125L51.43422 250.78125L50.981094 253.09375Q51.74672 252.54688 52.59047 252.54688Q53.71547 252.54688 54.481094 253.32812Q55.262344 254.10938 55.262344 255.34375Q55.262344 256.5 54.59047 257.35938Q53.762344 258.39062 52.34047 258.39062Q51.168594 258.39062 50.418594 257.73438Q49.68422 257.07812 49.574844 256.0Z" fill-rule="nonzero"/><path fill="#000000" d="M148.11572 254.01562Q148.11572 252.48438 148.42822 251.5625Q148.74072 250.625 149.3501 250.125Q149.9751 249.625 150.9126 249.625Q151.6001 249.625 152.11572 249.90625Q152.64697 250.1875 152.99072 250.71875Q153.33447 251.23438 153.52197 251.98438Q153.70947 252.73438 153.70947 254.01562Q153.70947 255.53125 153.39697 256.45312Q153.1001 257.375 152.4751 257.89062Q151.86572 258.39062 150.9126 258.39062Q149.67822 258.39062 148.95947 257.5Q148.11572 256.4375 148.11572 254.01562ZM149.19385 254.01562Q149.19385 256.125 149.69385 256.82812Q150.19385 257.53125 150.9126 257.53125Q151.64697 257.53125 152.13135 256.82812Q152.63135 256.125 152.63135 254.01562Q152.63135 251.89062 152.13135 251.20312Q151.64697 250.5 150.89697 250.5Q150.17822 250.5 149.74072 251.10938Q149.19385 251.89062 149.19385 254.01562ZM155.70947 258.25L155.70947 257.04688L156.9126 257.04688L156.9126 258.25L155.70947 258.25ZM163.58447 251.76562L162.5376 251.84375Q162.39697 251.21875 162.14697 250.9375Q161.70947 250.48438 161.08447 250.48438Q160.58447 250.48438 160.19385 250.76562Q159.70947 251.14062 159.4126 251.84375Q159.13135 252.53125 159.11572 253.8125Q159.49072 253.23438 160.0376 252.95312Q160.6001 252.67188 161.20947 252.67188Q162.25635 252.67188 162.99072 253.45312Q163.74072 254.23438 163.74072 255.45312Q163.74072 256.26562 163.38135 256.96875Q163.0376 257.65625 162.42822 258.03125Q161.81885 258.39062 161.05322 258.39062Q159.7251 258.39062 158.89697 257.42188Q158.06885 256.45312 158.06885 254.23438Q158.06885 251.73438 158.99072 250.60938Q159.7876 249.625 161.14697 249.625Q162.1626 249.625 162.80322 250.20312Q163.45947 250.76562 163.58447 251.76562ZM159.2876 255.46875Q159.2876 256.01562 159.50635 256.51562Q159.74072 257.0 160.14697 257.26562Q160.56885 257.53125 161.0376 257.53125Q161.69385 257.53125 162.17822 257.0Q162.6626 256.45312 162.6626 255.53125Q162.6626 254.64062 162.17822 254.125Q161.70947 253.60938 160.99072 253.60938Q160.27197 253.60938 159.77197 254.125Q159.2876 254.64062 159.2876 255.46875Z" fill-rule="nonzero"/><path fill="#000000" d="M256.65662 254.01562Q256.65662 252.48438 256.96912 251.5625Q257.28162 250.625 257.891 250.125Q258.516 249.625 259.4535 249.625Q260.141 249.625 260.65662 249.90625Q261.18787 250.1875 261.53162 250.71875Q261.87537 251.23438 262.06287 251.98438Q262.25037 252.73438 262.25037 254.01562Q262.25037 255.53125 261.93787 256.45312Q261.641 257.375 261.016 257.89062Q260.40662 258.39062 259.4535 258.39062Q258.21912 258.39062 257.50037 257.5Q256.65662 256.4375 256.65662 254.01562ZM257.73474 254.01562Q257.73474 256.125 258.23474 256.82812Q258.73474 257.53125 259.4535 257.53125Q260.18787 257.53125 260.67224 256.82812Q261.17224 256.125 261.17224 254.01562Q261.17224 251.89062 260.67224 251.20312Q260.18787 250.5 259.43787 250.5Q258.71912 250.5 258.28162 251.10938Q257.73474 251.89062 257.73474 254.01562ZM264.25037 258.25L264.25037 257.04688L265.4535 257.04688L265.4535 258.25L264.25037 258.25ZM266.71912 250.78125L266.71912 249.76562L272.28162 249.76562L272.28162 250.59375Q271.46912 251.46875 270.65662 252.92188Q269.85974 254.35938 269.42224 255.89062Q269.09412 256.96875 269.016 258.25L267.92224 258.25Q267.93787 257.23438 268.31287 255.79688Q268.7035 254.35938 269.40662 253.03125Q270.12537 251.70312 270.93787 250.78125L266.71912 250.78125Z" fill-rule="nonzero"/><path fill="#000000" d="M365.19748 254.01562Q365.19748 252.48438 365.50998 251.5625Q365.82248 250.625 366.43185 250.125Q367.05685 249.625 367.99435 249.625Q368.68185 249.625 369.19748 249.90625Q369.72873 250.1875 370.07248 250.71875Q370.41623 251.23438 370.60373 251.98438Q370.79123 252.73438 370.79123 254.01562Q370.79123 255.53125 370.47873 256.45312Q370.18185 257.375 369.55685 257.89062Q368.94748 258.39062 367.99435 258.39062Q366.75998 258.39062 366.04123 257.5Q365.19748 256.4375 365.19748 254.01562ZM366.2756 254.01562Q366.2756 256.125 366.7756 256.82812Q367.2756 257.53125 367.99435 257.53125Q368.72873 257.53125 369.2131 256.82812Q369.7131 256.125 369.7131 254.01562Q369.7131 251.89062 369.2131 251.20312Q368.72873 250.5 367.97873 250.5Q367.25998 250.5 366.82248 251.10938Q366.2756 251.89062 366.2756 254.01562ZM372.79123 258.25L372.79123 257.04688L373.99435 257.04688L373.99435 258.25L372.79123 258.25ZM376.82248 253.59375Q376.16623 253.34375 375.8381 252.90625Q375.5256 252.45312 375.5256 251.84375Q375.5256 250.90625 376.19748 250.26562Q376.88498 249.625 377.99435 249.625Q379.11935 249.625 379.80685 250.28125Q380.49435 250.9375 380.49435 251.875Q380.49435 252.46875 380.18185 252.90625Q379.86935 253.34375 379.22873 253.59375Q380.0256 253.84375 380.43185 254.42188Q380.8381 255.0 380.8381 255.79688Q380.8381 256.89062 380.05685 257.64062Q379.29123 258.39062 378.00998 258.39062Q376.74435 258.39062 375.9631 257.64062Q375.18185 256.89062 375.18185 255.76562Q375.18185 254.92188 375.60373 254.35938Q376.04123 253.79688 376.82248 253.59375ZM376.60373 251.79688Q376.60373 252.40625 376.99435 252.79688Q377.4006 253.1875 378.0256 253.1875Q378.63498 253.1875 379.0256 252.8125Q379.41623 252.42188 379.41623 251.85938Q379.41623 251.28125 379.00998 250.89062Q378.60373 250.48438 378.00998 250.48438Q377.4006 250.48438 376.99435 250.875Q376.60373 251.26562 376.60373 251.79688ZM376.2756 255.76562Q376.2756 256.21875 376.47873 256.64062Q376.69748 257.0625 377.11935 257.29688Q377.54123 257.53125 378.0256 257.53125Q378.7756 257.53125 379.25998 257.04688Q379.75998 256.5625 379.75998 255.8125Q379.75998 255.04688 379.25998 254.54688Q378.75998 254.04688 377.99435 254.04688Q377.24435 254.04688 376.75998 254.54688Q376.2756 255.03125 376.2756 255.76562Z" fill-rule="nonzero"/><path fill="#000000" d="M473.73837 254.01562Q473.73837 252.48438 474.05087 251.5625Q474.36337 250.625 474.97275 250.125Q475.59775 249.625 476.53525 249.625Q477.22275 249.625 477.73837 249.90625Q478.26962 250.1875 478.61337 250.71875Q478.95712 251.23438 479.14462 251.98438Q479.33212 252.73438 479.33212 254.01562Q479.33212 255.53125 479.01962 256.45312Q478.72275 257.375 478.09775 257.89062Q477.48837 258.39062 476.53525 258.39062Q475.30087 258.39062 474.58212 257.5Q473.73837 256.4375 473.73837 254.01562ZM474.8165 254.01562Q474.8165 256.125 475.3165 256.82812Q475.8165 257.53125 476.53525 257.53125Q477.26962 257.53125 477.754 256.82812Q478.254 256.125 478.254 254.01562Q478.254 251.89062 477.754 251.20312Q477.26962 250.5 476.51962 250.5Q475.80087 250.5 475.36337 251.10938Q474.8165 251.89062 474.8165 254.01562ZM481.33212 258.25L481.33212 257.04688L482.53525 257.04688L482.53525 258.25L481.33212 258.25ZM483.89462 256.26562L484.91025 256.17188Q485.03525 256.89062 485.39462 257.21875Q485.76962 257.53125 486.33212 257.53125Q486.8165 257.53125 487.17587 257.3125Q487.55087 257.07812 487.78525 256.71875Q488.01962 256.34375 488.17587 255.71875Q488.33212 255.07812 488.33212 254.42188Q488.33212 254.34375 488.33212 254.20312Q488.01962 254.70312 487.47275 255.03125Q486.92587 255.34375 486.28525 255.34375Q485.20712 255.34375 484.47275 254.57812Q483.73837 253.79688 483.73837 252.53125Q483.73837 251.21875 484.504 250.42188Q485.28525 249.625 486.4415 249.625Q487.26962 249.625 487.95712 250.07812Q488.66025 250.53125 489.01962 251.375Q489.379 252.20312 489.379 253.78125Q489.379 255.42188 489.01962 256.40625Q488.67587 257.375 487.95712 257.89062Q487.254 258.39062 486.3165 258.39062Q485.30087 258.39062 484.66025 257.84375Q484.01962 257.28125 483.89462 256.26562ZM488.20712 252.46875Q488.20712 251.5625 487.72275 251.03125Q487.254 250.5 486.5665 250.5Q485.86337 250.5 485.33212 251.07812Q484.8165 251.64062 484.8165 252.5625Q484.8165 253.375 485.3165 253.89062Q485.8165 254.40625 486.53525 254.40625Q487.26962 254.40625 487.73837 253.89062Q488.20712 253.375 488.20712 252.46875Z" fill-rule="nonzero"/></svg>