<svg version="1.1" viewBox="0.0 0.0 1232.0 312.0" fill="none" stroke="none" stroke-linecap="square" stroke-miterlimit="10" width="1232" height="312" xmlns:xlink="http://www.w3.org/1999/xlink" xmlns="http://www.w3.org/2000/svg"><path fill="#ffffff" d="M0 0L1232.0 0L1232.0 312.0L0 312.0L0 0Z" fill-rule="nonzero"/><path stroke="#cccccc" stroke-width="1.0" stroke-linecap="butt" d="M307.5 22.5L307.5 276.5" fill-rule="nonzero"/><path stroke="#cccccc" stroke-width="1.0" stroke-linecap="butt" d="M548.5 22.5L548.5 276.5" fill-rule="nonzero"/><path stroke="#cccccc" stroke-width="1.0" stroke-linecap="butt" d="M788.5 22.5L788.5 276.5" fill-rule="nonzero"/><path stroke="#cccccc" stroke-width="1.0" stroke-linecap="butt" d="M1029.5 22.5L1029.5 276.5" fill-rule="nonzero"/><path stroke="#cccccc" stroke-width="1.0" stroke-linecap="butt" d="M72.5 235.5L1216.5 235.5" fill-rule="nonzero"/><path stroke="#cccccc" stroke-width="1.0" stroke-linecap="butt" d="M72.5 194.5L1216.5 194.5" fill-rule="nonzero"/><path stroke="#cccccc" stroke-width="1.0" stroke-linecap="butt" d="M72.5 100.5L1216.5 100.5" fill-rule="nonzero"/><path stroke="#cccccc" stroke-width="1.0" stroke-linecap="butt" d="M72.5 59.5L1216.5 59.5" fill-rule="nonzero"/><clipPath id="id_0"><path d="M72.6 22.6L1216.4 22.6L1216.4 276.4L72.6 276.4L72.6 22.6Z" clip-rule="nonzero"/></clipPath><path stroke="#a27903" stroke-width="1.0" stroke-linecap="butt" clip-path="url(#id_0)" d="M79.51536 246.50772L79.51536 246.22438" fill-rule="nonzero"/><path stroke="#a27903" stroke-width="1.0" stroke-linecap="butt" clip-path="url(#id_0)" d="M73.51536 246.50772L85.51536 246.50772" fill-rule="nonzero"/><path stroke="#a27903" stroke-width="1.0" stroke-linecap="butt" clip-path="url(#id_0)" d="M73.51536 246.22438L85.51536 246.22438" fill-rule="nonzero"/><path stroke="#a27903" stroke-width="1.0" stroke-linecap="butt" clip-path="url(#id_0)" d="M127.59916 216.03532L127.59916 215.86688" fill-rule="nonzero"/><path stroke="#a27903" stroke-width="1.0" stroke-linecap="butt" clip-path="url(#id_0)" d="M121.59916 216.03532L133.59915 216.03532" fill-rule="nonzero"/><path stroke="#a27903" stroke-width="1.0" stroke-linecap="butt" clip-path="url(#id_0)" d="M121.59916 215.86688L133.59915 215.86688" fill-rule="nonzero"/><path stroke="#a27903" stroke-width="1.0" stroke-linecap="butt" clip-path="url(#id_0)" d="M187.7039 196.68204L187.7039 196.561" fill-rule="nonzero"/><path stroke="#a27903" stroke-width="1.0" stroke-linecap="butt" clip-path="url(#id_0)" d="M181.7039 196.68204L193.7039 196.68204" fill-rule="nonzero"/><path stroke="#a27903" stroke-width="1.0" stroke-linecap="butt" clip-path="url(#id_0)" d="M181.7039 196.561L193.7039 196.561" fill-rule="nonzero"/><path stroke="#a27903" stroke-width="1.0" stroke-linecap="butt" clip-path="url(#id_0)" d="M307.9134 182.31714L307.9134 182.22244" fill-rule="nonzero"/><path stroke="#a27903" stroke-width="1.0" stroke-linecap="butt" clip-path="url(#id_0)" d="M301.9134 182.31714L313.9134 182.31714" fill-rule="nonzero"/><path stroke="#a27903" stroke-width="1.0" stroke-linecap="butt" clip-path="url(#id_0)" d="M301.9134 182.22244L313.9134 182.22244" fill-rule="nonzero"/><path stroke="#a27903" stroke-width="1.0" stroke-linecap="butt" clip-path="url(#id_0)" d="M428.1229 173.33888L428.1229 173.25766" fill-rule="nonzero"/><path stroke="#a27903" stroke-width="1.0" stroke-linecap="butt" clip-path="url(#id_0)" d="M422.1229 173.33888L434.1229 173.33888" fill-rule="nonzero"/><path stroke="#a27903" stroke-width="1.0" stroke-linecap="butt" clip-path="url(#id_0)" d="M422.1229 173.25766L434.1229 173.25766" fill-rule="nonzero"/><path stroke="#a27903" stroke-width="1.0" stroke-linecap="butt" clip-path="url(#id_0)" d="M548.3324 165.3301L548.3324 165.25926" fill-rule="nonzero"/><path stroke="#a27903" stroke-width="1.0" stroke-linecap="butt" clip-path="url(#id_0)" d="M542.3324 165.3301L554.3324 165.3301" fill-rule="nonzero"/><path stroke="#a27903" stroke-width="1.0" stroke-linecap="butt" clip-path="url(#id_0)" d="M542.3324 165.25926L554.3324 165.25926" fill-rule="nonzero"/><path stroke="#a27903" stroke-width="1.0" stroke-linecap="butt" clip-path="url(#id_0)" d="M668.5419 158.48857L668.5419 158.42555" fill-rule="nonzero"/><path stroke="#a27903" stroke-width="1.0" stroke-linecap="butt" clip-path="url(#id_0)" d="M662.5419 158.48857L674.5419 158.48857" fill-rule="nonzero"/><path stroke="#a27903" stroke-width="1.0" stroke-linecap="butt" clip-path="url(#id_0)" d="M662.5419 158.42555L674.5419 158.42555" fill-rule="nonzero"/><path stroke="#a27903" stroke-width="1.0" stroke-linecap="butt" clip-path="url(#id_0)" d="M788.7514 152.36424L788.7514 152.30748" fill-rule="nonzero"/><path stroke="#a27903" stroke-width="1.0" stroke-linecap="butt" clip-path="url(#id_0)" d="M782.7514 152.36424L794.7514 152.36424" fill-rule="nonzero"/><path stroke="#a27903" stroke-width="1.0" stroke-linecap="butt" clip-path="url(#id_0)" d="M782.7514 152.30748L794.7514 152.30748" fill-rule="nonzero"/><path stroke="#a27903" stroke-width="1.0" stroke-linecap="butt" clip-path="url(#id_0)" d="M908.9609 146.16353L908.9609 146.11249" fill-rule="nonzero"/><path stroke="#a27903" stroke-width="1.0" stroke-linecap="butt" clip-path="url(#id_0)" d="M902.9609 146.16353L914.9609 146.16353" fill-rule="nonzero"/><path stroke="#a27903" stroke-width="1.0" stroke-linecap="butt" clip-path="url(#id_0)" d="M902.9609 146.11249L914.9609 146.11249" fill-rule="nonzero"/><path stroke="#a27903" stroke-width="1.0" stroke-linecap="butt" clip-path="url(#id_0)" d="M1029.1704 140.55772L1029.1704 140.51134" fill-rule="nonzero"/><path stroke="#a27903" stroke-width="1.0" stroke-linecap="butt" clip-path="url(#id_0)" d="M1023.1704 140.55772L1035.1704 140.55772" fill-rule="nonzero"/><path stroke="#a27903" stroke-width="1.0" stroke-linecap="butt" clip-path="url(#id_0)" d="M1023.1704 140.51134L1035.1704 140.51134" fill-rule="nonzero"/><path stroke="#a27903" stroke-width="1.0" stroke-linecap="butt" clip-path="url(#id_0)" d="M1149.3799 133.83234L1149.3799 133.791" fill-rule="nonzero"/><path stroke="#a27903" stroke-width="1.0" stroke-linecap="butt" clip-path="url(#id_0)" d="M1143.3799 133.83234L1155.3799 133.83234" fill-rule="nonzero"/><path stroke="#a27903" stroke-width="1.0" stroke-linecap="butt" clip-path="url(#id_0)" d="M1143.3799 133.791L1155.3799 133.791" fill-rule="nonzero"/><path stroke="#9ad4a9" stroke-width="1.0" stroke-linecap="butt" clip-path="url(#id_0)" d="M79.51536 276.4L79.51536 275.92838" fill-rule="nonzero"/><path stroke="#9ad4a9" stroke-width="1.0" stroke-linecap="butt" clip-path="url(#id_0)" d="M73.51536 276.4L85.51536 276.4" fill-rule="nonzero"/><path stroke="#9ad4a9" stroke-width="1.0" stroke-linecap="butt" clip-path="url(#id_0)" d="M73.51536 275.92838L85.51536 275.92838" fill-rule="nonzero"/><path stroke="#9ad4a9" stroke-width="1.0" stroke-linecap="butt" clip-path="url(#id_0)" d="M127.59916 267.2973L127.59916 266.89343" fill-rule="nonzero"/><path stroke="#9ad4a9" stroke-width="1.0" stroke-linecap="butt" clip-path="url(#id_0)" d="M121.59916 267.2973L133.59915 267.2973" fill-rule="nonzero"/><path stroke="#9ad4a9" stroke-width="1.0" stroke-linecap="butt" clip-path="url(#id_0)" d="M121.59916 266.89343L133.59915 266.89343" fill-rule="nonzero"/><path stroke="#9ad4a9" stroke-width="1.0" stroke-linecap="butt" clip-path="url(#id_0)" d="M187.7039 262.9258L187.7039 262.55093" fill-rule="nonzero"/><path stroke="#9ad4a9" stroke-width="1.0" stroke-linecap="butt" clip-path="url(#id_0)" d="M181.7039 262.9258L193.7039 262.9258" fill-rule="nonzero"/><path stroke="#9ad4a9" stroke-width="1.0" stroke-linecap="butt" clip-path="url(#id_0)" d="M181.7039 262.55093L193.7039 262.55093" fill-rule="nonzero"/><path stroke="#9ad4a9" stroke-width="1.0" stroke-linecap="butt" clip-path="url(#id_0)" d="M307.9134 250.50392L307.9134 250.20059" fill-rule="nonzero"/><path stroke="#9ad4a9" stroke-width="1.0" stroke-linecap="butt" clip-path="url(#id_0)" d="M301.9134 250.50392L313.9134 250.50392" fill-rule="nonzero"/><path stroke="#9ad4a9" stroke-width="1.0" stroke-linecap="butt" clip-path="url(#id_0)" d="M301.9134 250.20059L313.9134 250.20059" fill-rule="nonzero"/><path stroke="#9ad4a9" stroke-width="1.0" stroke-linecap="butt" clip-path="url(#id_0)" d="M428.1229 219.94128L428.1229 219.76123" fill-rule="nonzero"/><path stroke="#9ad4a9" stroke-width="1.0" stroke-linecap="butt" clip-path="url(#id_0)" d="M422.1229 219.94128L434.1229 219.94128" fill-rule="nonzero"/><path stroke="#9ad4a9" stroke-width="1.0" stroke-linecap="butt" clip-path="url(#id_0)" d="M422.1229 219.76123L434.1229 219.76123" fill-rule="nonzero"/><path stroke="#9ad4a9" stroke-width="1.0" stroke-linecap="butt" clip-path="url(#id_0)" d="M548.3324 162.66986L548.3324 162.60217" fill-rule="nonzero"/><path stroke="#9ad4a9" stroke-width="1.0" stroke-linecap="butt" clip-path="url(#id_0)" d="M542.3324 162.66986L554.3324 162.66986" fill-rule="nonzero"/><path stroke="#9ad4a9" stroke-width="1.0" stroke-linecap="butt" clip-path="url(#id_0)" d="M542.3324 162.60217L554.3324 162.60217" fill-rule="nonzero"/><path stroke="#9ad4a9" stroke-width="1.0" stroke-linecap="butt" clip-path="url(#id_0)" d="M668.5419 65.73034L668.5419 65.71744" fill-rule="nonzero"/><path stroke="#9ad4a9" stroke-width="1.0" stroke-linecap="butt" clip-path="url(#id_0)" d="M662.5419 65.73034L674.5419 65.73034" fill-rule="nonzero"/><path stroke="#9ad4a9" stroke-width="1.0" stroke-linecap="butt" clip-path="url(#id_0)" d="M662.5419 65.71744L674.5419 65.71744" fill-rule="nonzero"/><path stroke="#9ad4a9" stroke-width="1.0" stroke-linecap="butt" clip-path="url(#id_0)" d="M788.7514 27.896444L788.7514 27.889687" fill-rule="nonzero"/><path stroke="#9ad4a9" stroke-width="1.0" stroke-linecap="butt" clip-path="url(#id_0)" d="M782.7514 27.896444L794.7514 27.896444" fill-rule="nonzero"/><path stroke="#9ad4a9" stroke-width="1.0" stroke-linecap="butt" clip-path="url(#id_0)" d="M782.7514 27.889687L794.7514 27.889687" fill-rule="nonzero"/><path stroke="#9ad4a9" stroke-width="1.0" stroke-linecap="butt" clip-path="url(#id_0)" d="M908.9609 25.19151L908.9609 25.185055" fill-rule="nonzero"/><path stroke="#9ad4a9" stroke-width="1.0" stroke-linecap="butt" clip-path="url(#id_0)" d="M902.9609 25.19151L914.9609 25.19151" fill-rule="nonzero"/><path stroke="#9ad4a9" stroke-width="1.0" stroke-linecap="butt" clip-path="url(#id_0)" d="M902.9609 25.185055L914.9609 25.185055" fill-rule="nonzero"/><path stroke="#9ad4a9" stroke-width="1.0" stroke-linecap="butt" clip-path="url(#id_0)" d="M1029.1704 23.884556L1029.1704 23.878244" fill-rule="nonzero"/><path stroke="#9ad4a9" stroke-width="1.0" stroke-linecap="butt" clip-path="url(#id_0)" d="M1023.1704 23.884556L1035.1704 23.884556" fill-rule="nonzero"/><path stroke="#9ad4a9" stroke-width="1.0" stroke-linecap="butt" clip-path="url(#id_0)" d="M1023.1704 23.878244L1035.1704 23.878244" fill-rule="nonzero"/><path stroke="#9ad4a9" stroke-width="1.0" stroke-linecap="butt" clip-path="url(#id_0)" d="M1149.3799 22.606174L1149.3799 22.6" fill-rule="nonzero"/><path stroke="#9ad4a9" stroke-width="1.0" stroke-linecap="butt" clip-path="url(#id_0)" d="M1143.3799 22.606174L1155.3799 22.606174" fill-rule="nonzero"/><path stroke="#9ad4a9" stroke-width="1.0" stroke-linecap="butt" clip-path="url(#id_0)" d="M1143.3799 22.6L1155.3799 22.6" fill-rule="nonzero"/><path stroke="#a2c3fa" stroke-width="1.0" stroke-linecap="butt" clip-path="url(#id_0)" d="M79.51536 149.52692L79.51536 149.47285" fill-rule="nonzero"/><path stroke="#a2c3fa" stroke-width="1.0" stroke-linecap="butt" clip-path="url(#id_0)" d="M73.51536 149.52692L85.51536 149.52692" fill-rule="nonzero"/><path stroke="#a2c3fa" stroke-width="1.0" stroke-linecap="butt" clip-path="url(#id_0)" d="M73.51536 149.47285L85.51536 149.47285" fill-rule="nonzero"/><path stroke="#a2c3fa" stroke-width="1.0" stroke-linecap="butt" clip-path="url(#id_0)" d="M127.59916 83.33246L127.59916 83.31502" fill-rule="nonzero"/><path stroke="#a2c3fa" stroke-width="1.0" stroke-linecap="butt" clip-path="url(#id_0)" d="M121.59916 83.33246L133.59915 83.33246" fill-rule="nonzero"/><path stroke="#a2c3fa" stroke-width="1.0" stroke-linecap="butt" clip-path="url(#id_0)" d="M121.59916 83.31502L133.59915 83.31502" fill-rule="nonzero"/><path stroke="#a2c3fa" stroke-width="1.0" stroke-linecap="butt" clip-path="url(#id_0)" d="M187.7039 81.57326L187.7039 81.556335" fill-rule="nonzero"/><path stroke="#a2c3fa" stroke-width="1.0" stroke-linecap="butt" clip-path="url(#id_0)" d="M181.7039 81.57326L193.7039 81.57326" fill-rule="nonzero"/><path stroke="#a2c3fa" stroke-width="1.0" stroke-linecap="butt" clip-path="url(#id_0)" d="M181.7039 81.556335L193.7039 81.556335" fill-rule="nonzero"/><path stroke="#a2c3fa" stroke-width="1.0" stroke-linecap="butt" clip-path="url(#id_0)" d="M307.9134 79.86543L307.9134 79.849" fill-rule="nonzero"/><path stroke="#a2c3fa" stroke-width="1.0" stroke-linecap="butt" clip-path="url(#id_0)" d="M301.9134 79.86543L313.9134 79.86543" fill-rule="nonzero"/><path stroke="#a2c3fa" stroke-width="1.0" stroke-linecap="butt" clip-path="url(#id_0)" d="M301.9134 79.849L313.9134 79.849" fill-rule="nonzero"/><path stroke="#a2c3fa" stroke-width="1.0" stroke-linecap="butt" clip-path="url(#id_0)" d="M428.1229 78.20607L428.1229 78.190094" fill-rule="nonzero"/><path stroke="#a2c3fa" stroke-width="1.0" stroke-linecap="butt" clip-path="url(#id_0)" d="M422.1229 78.20607L434.1229 78.20607" fill-rule="nonzero"/><path stroke="#a2c3fa" stroke-width="1.0" stroke-linecap="butt" clip-path="url(#id_0)" d="M422.1229 78.190094L434.1229 78.190094" fill-rule="nonzero"/><path stroke="#a2c3fa" stroke-width="1.0" stroke-linecap="butt" clip-path="url(#id_0)" d="M548.3324 76.59249L548.3324 76.57695" fill-rule="nonzero"/><path stroke="#a2c3fa" stroke-width="1.0" stroke-linecap="butt" clip-path="url(#id_0)" d="M542.3324 76.59249L554.3324 76.59249" fill-rule="nonzero"/><path stroke="#a2c3fa" stroke-width="1.0" stroke-linecap="butt" clip-path="url(#id_0)" d="M542.3324 76.57695L554.3324 76.57695" fill-rule="nonzero"/><path stroke="#a2c3fa" stroke-width="1.0" stroke-linecap="butt" clip-path="url(#id_0)" d="M668.5419 75.8021L668.5419 75.786766" fill-rule="nonzero"/><path stroke="#a2c3fa" stroke-width="1.0" stroke-linecap="butt" clip-path="url(#id_0)" d="M662.5419 75.8021L674.5419 75.8021" fill-rule="nonzero"/><path stroke="#a2c3fa" stroke-width="1.0" stroke-linecap="butt" clip-path="url(#id_0)" d="M662.5419 75.786766L674.5419 75.786766" fill-rule="nonzero"/><path stroke="#a2c3fa" stroke-width="1.0" stroke-linecap="butt" clip-path="url(#id_0)" d="M788.7514 73.49306L788.7514 73.478325" fill-rule="nonzero"/><path stroke="#a2c3fa" stroke-width="1.0" stroke-linecap="butt" clip-path="url(#id_0)" d="M782.7514 73.49306L794.7514 73.49306" fill-rule="nonzero"/><path stroke="#a2c3fa" stroke-width="1.0" stroke-linecap="butt" clip-path="url(#id_0)" d="M782.7514 73.478325L794.7514 73.478325" fill-rule="nonzero"/><path stroke="#a2c3fa" stroke-width="1.0" stroke-linecap="butt" clip-path="url(#id_0)" d="M908.9609 71.271736L908.9609 71.25755" fill-rule="nonzero"/><path stroke="#a2c3fa" stroke-width="1.0" stroke-linecap="butt" clip-path="url(#id_0)" d="M902.9609 71.271736L914.9609 71.271736" fill-rule="nonzero"/><path stroke="#a2c3fa" stroke-width="1.0" stroke-linecap="butt" clip-path="url(#id_0)" d="M902.9609 71.25755L914.9609 71.25755" fill-rule="nonzero"/><path stroke="#a2c3fa" stroke-width="1.0" stroke-linecap="butt" clip-path="url(#id_0)" d="M1029.1704 67.74734L1029.1704 67.73398" fill-rule="nonzero"/><path stroke="#a2c3fa" stroke-width="1.0" stroke-linecap="butt" clip-path="url(#id_0)" d="M1023.1704 67.74734L1035.1704 67.74734" fill-rule="nonzero"/><path stroke="#a2c3fa" stroke-width="1.0" stroke-linecap="butt" clip-path="url(#id_0)" d="M1023.1704 67.73398L1035.1704 67.73398" fill-rule="nonzero"/><path stroke="#a2c3fa" stroke-width="1.0" stroke-linecap="butt" clip-path="url(#id_0)" d="M1149.3799 63.144867L1149.3799 63.13252" fill-rule="nonzero"/><path stroke="#a2c3fa" stroke-width="1.0" stroke-linecap="butt" clip-path="url(#id_0)" d="M1143.3799 63.144867L1155.3799 63.144867" fill-rule="nonzero"/><path stroke="#a2c3fa" stroke-width="1.0" stroke-linecap="butt" clip-path="url(#id_0)" d="M1143.3799 63.13252L1155.3799 63.13252" fill-rule="nonzero"/><path stroke="#fbbc04" stroke-width="2.0" stroke-linecap="butt" clip-path="url(#id_0)" d="M79.51536 246.36588L127.59916 215.95103L187.7039 196.62149L307.9134 182.26978L428.1229 173.29826L548.3324 165.29466L668.5419 158.45705L788.7514 152.33586L908.9609 146.138L1029.1704 140.53453L1149.3799 133.81166" fill-rule="nonzero"/><path stroke="#34a853" stroke-width="2.0" stroke-linecap="butt" clip-path="url(#id_0)" d="M79.51536 276.16373L127.59916 267.09503L187.7039 262.7381L307.9134 250.35207L428.1229 219.85118L548.3324 162.636L668.5419 65.723885L788.7514 27.893064L908.9609 25.188282L1029.1704 23.881401L1149.3799 22.603086" fill-rule="nonzero"/><path stroke="#4285f4" stroke-width="2.0" stroke-linecap="butt" clip-path="url(#id_0)" d="M79.51536 149.49988L127.59916 83.32374L187.7039 81.5648L307.9134 79.857216L428.1229 78.19808L548.3324 76.584724L668.5419 75.79443L788.7514 73.48569L908.9609 71.26465L1029.1704 67.740654L1149.3799 63.13869" fill-rule="nonzero"/><path fill="#fbbc04" clip-path="url(#id_0)" d="M84.01536 246.36588C84.01536 248.85115 82.00064 250.86588 79.51536 250.86588C77.030075 250.86588 75.01536 248.85115 75.01536 246.36588C75.01536 243.8806 77.030075 241.86588 79.51536 241.86588C82.00064 241.86588 84.01536 243.8806 84.01536 246.36588Z" fill-rule="nonzero"/><path fill="#fbbc04" clip-path="url(#id_0)" d="M132.09915 215.95103C132.09915 218.43633 130.08444 220.45103 127.59916 220.45103C125.11388 220.45103 123.09916 218.43633 123.09916 215.95103C123.09916 213.46576 125.11388 211.45103 127.59916 211.45103C130.08444 211.45103 132.09915 213.46576 132.09915 215.95103Z" fill-rule="nonzero"/><path fill="#fbbc04" clip-path="url(#id_0)" d="M192.2039 196.62149C192.2039 199.10678 190.1892 201.12149 187.7039 201.12149C185.21863 201.12149 183.2039 199.10678 183.2039 196.62149C183.2039 194.13622 185.21863 192.12149 187.7039 192.12149C190.1892 192.12149 192.2039 194.13622 192.2039 196.62149Z" fill-rule="nonzero"/><path fill="#fbbc04" clip-path="url(#id_0)" d="M312.4134 182.26978C312.4134 184.75505 310.39868 186.76978 307.9134 186.76978C305.42813 186.76978 303.4134 184.75505 303.4134 182.26978C303.4134 179.78448 305.42813 177.76978 307.9134 177.76978C310.39868 177.76978 312.4134 179.78448 312.4134 182.26978Z" fill-rule="nonzero"/><path fill="#fbbc04" clip-path="url(#id_0)" d="M432.6229 173.29826C432.6229 175.78354 430.6082 177.79826 428.1229 177.79826C425.63763 177.79826 423.6229 175.78354 423.6229 173.29826C423.6229 170.81299 425.63763 168.79826 428.1229 168.79826C430.6082 168.79826 432.6229 170.81299 432.6229 173.29826Z" fill-rule="nonzero"/><path fill="#fbbc04" clip-path="url(#id_0)" d="M552.8324 165.29466C552.8324 167.77995 550.8177 169.79466 548.3324 169.79466C545.8471 169.79466 543.8324 167.77995 543.8324 165.29466C543.8324 162.80939 545.8471 160.79466 548.3324 160.79466C550.8177 160.79466 552.8324 162.80939 552.8324 165.29466Z" fill-rule="nonzero"/><path fill="#fbbc04" clip-path="url(#id_0)" d="M673.0419 158.45705C673.0419 160.94232 671.02716 162.95705 668.5419 162.95705C666.05664 162.95705 664.0419 160.94232 664.0419 158.45705C664.0419 155.97177 666.05664 153.95705 668.5419 153.95705C671.02716 153.95705 673.0419 155.97177 673.0419 158.45705Z" fill-rule="nonzero"/><path fill="#fbbc04" clip-path="url(#id_0)" d="M793.2514 152.33586C793.2514 154.82114 791.2367 156.83586 788.7514 156.83586C786.2661 156.83586 784.2514 154.82114 784.2514 152.33586C784.2514 149.85057 786.2661 147.83586 788.7514 147.83586C791.2367 147.83586 793.2514 149.85057 793.2514 152.33586Z" fill-rule="nonzero"/><path fill="#fbbc04" clip-path="url(#id_0)" d="M913.4609 146.138C913.4609 148.62329 911.44617 150.638 908.9609 150.638C906.4756 150.638 904.4609 148.62329 904.4609 146.138C904.4609 143.65273 906.4756 141.638 908.9609 141.638C911.44617 141.638 913.4609 143.65273 913.4609 146.138Z" fill-rule="nonzero"/><path fill="#fbbc04" clip-path="url(#id_0)" d="M1033.6704 140.53453C1033.6704 143.0198 1031.6556 145.03453 1029.1704 145.03453C1026.685 145.03453 1024.6704 143.0198 1024.6704 140.53453C1024.6704 138.04924 1026.685 136.03453 1029.1704 136.03453C1031.6556 136.03453 1033.6704 138.04924 1033.6704 140.53453Z" fill-rule="nonzero"/><path fill="#fbbc04" clip-path="url(#id_0)" d="M1153.8799 133.81166C1153.8799 136.29695 1151.8652 138.31166 1149.3799 138.31166C1146.8947 138.31166 1144.8799 136.29695 1144.8799 133.81166C1144.8799 131.32639 1146.8947 129.31166 1149.3799 129.31166C1151.8652 129.31166 1153.8799 131.32639 1153.8799 133.81166Z" fill-rule="nonzero"/><path fill="#34a853" clip-path="url(#id_0)" d="M84.01536 276.16373C84.01536 278.649 82.00064 280.66373 79.51536 280.66373C77.030075 280.66373 75.01536 278.649 75.01536 276.16373C75.01536 273.67844 77.030075 271.66373 79.51536 271.66373C82.00064 271.66373 84.01536 273.67844 84.01536 276.16373Z" fill-rule="nonzero"/><path fill="#34a853" clip-path="url(#id_0)" d="M132.09915 267.09503C132.09915 269.58032 130.08444 271.59503 127.59916 271.59503C125.11388 271.59503 123.09916 269.58032 123.09916 267.09503C123.09916 264.60974 125.11388 262.59503 127.59916 262.59503C130.08444 262.59503 132.09915 264.60974 132.09915 267.09503Z" fill-rule="nonzero"/><path fill="#34a853" clip-path="url(#id_0)" d="M192.2039 262.7381C192.2039 265.22336 190.1892 267.2381 187.7039 267.2381C185.21863 267.2381 183.2039 265.22336 183.2039 262.7381C183.2039 260.2528 185.21863 258.2381 187.7039 258.2381C190.1892 258.2381 192.2039 260.2528 192.2039 262.7381Z" fill-rule="nonzero"/><path fill="#34a853" clip-path="url(#id_0)" d="M312.4134 250.35207C312.4134 252.83734 310.39868 254.85207 307.9134 254.85207C305.42813 254.85207 303.4134 252.83734 303.4134 250.35207C303.4134 247.86678 305.42813 245.85207 307.9134 245.85207C310.39868 245.85207 312.4134 247.86678 312.4134 250.35207Z" fill-rule="nonzero"/><path fill="#34a853" clip-path="url(#id_0)" d="M432.6229 219.85118C432.6229 222.33647 430.6082 224.35118 428.1229 224.35118C425.63763 224.35118 423.6229 222.33647 423.6229 219.85118C423.6229 217.3659 425.63763 215.35118 428.1229 215.35118C430.6082 215.35118 432.6229 217.3659 432.6229 219.85118Z" fill-rule="nonzero"/><path fill="#34a853" clip-path="url(#id_0)" d="M552.8324 162.636C552.8324 165.12129 550.8177 167.136 548.3324 167.136C545.8471 167.136 543.8324 165.12129 543.8324 162.636C543.8324 160.15073 545.8471 158.136 548.3324 158.136C550.8177 158.136 552.8324 160.15073 552.8324 162.636Z" fill-rule="nonzero"/><path fill="#34a853" clip-path="url(#id_0)" d="M673.0419 65.723885C673.0419 68.20917 671.02716 70.223885 668.5419 70.223885C666.05664 70.223885 664.0419 68.20917 664.0419 65.723885C664.0419 63.238605 666.05664 61.22389 668.5419 61.22389C671.02716 61.22389 673.0419 63.238605 673.0419 65.723885Z" fill-rule="nonzero"/><path fill="#34a853" clip-path="url(#id_0)" d="M793.2514 27.893064C793.2514 30.378347 791.2367 32.393066 788.7514 32.393066C786.2661 32.393066 784.2514 30.378347 784.2514 27.893064C784.2514 25.407784 786.2661 23.393064 788.7514 23.393064C791.2367 23.393064 793.2514 25.407784 793.2514 27.893064Z" fill-rule="nonzero"/><path fill="#34a853" clip-path="url(#id_0)" d="M913.4609 25.188282C913.4609 27.673563 911.44617 29.688282 908.9609 29.688282C906.4756 29.688282 904.4609 27.673563 904.4609 25.188282C904.4609 22.703001 906.4756 20.688282 908.9609 20.688282C911.44617 20.688282 913.4609 22.703001 913.4609 25.188282Z" fill-rule="nonzero"/><path fill="#34a853" clip-path="url(#id_0)" d="M1033.6704 23.881401C1033.6704 26.366682 1031.6556 28.381401 1029.1704 28.381401C1026.685 28.381401 1024.6704 26.366682 1024.6704 23.881401C1024.6704 21.396118 1026.685 19.381401 1029.1704 19.381401C1031.6556 19.381401 1033.6704 21.396118 1033.6704 23.881401Z" fill-rule="nonzero"/><path fill="#34a853" clip-path="url(#id_0)" d="M1153.8799 22.603086C1153.8799 25.088367 1151.8652 27.103086 1149.3799 27.103086C1146.8947 27.103086 1144.8799 25.088367 1144.8799 22.603086C1144.8799 20.117805 1146.8947 18.103086 1149.3799 18.103086C1151.8652 18.103086 1153.8799 20.117805 1153.8799 22.603086Z" fill-rule="nonzero"/><path fill="#4285f4" clip-path="url(#id_0)" d="M84.01536 149.49988C84.01536 151.98517 82.00064 153.99988 79.51536 153.99988C77.030075 153.99988 75.01536 151.98517 75.01536 149.49988C75.01536 147.0146 77.030075 144.99988 79.51536 144.99988C82.00064 144.99988 84.01536 147.0146 84.01536 149.49988Z" fill-rule="nonzero"/><path fill="#4285f4" clip-path="url(#id_0)" d="M132.09915 83.32374C132.09915 85.80902 130.08444 87.82374 127.59916 87.82374C125.11388 87.82374 123.09916 85.80902 123.09916 83.32374C123.09916 80.838455 125.11388 78.82374 127.59916 78.82374C130.08444 78.82374 132.09915 80.838455 132.09915 83.32374Z" fill-rule="nonzero"/><path fill="#4285f4" clip-path="url(#id_0)" d="M192.2039 81.5648C192.2039 84.05007 190.1892 86.0648 187.7039 86.0648C185.21863 86.0648 183.2039 84.05007 183.2039 81.5648C183.2039 79.07951 185.21863 77.0648 187.7039 77.0648C190.1892 77.0648 192.2039 79.07951 192.2039 81.5648Z" fill-rule="nonzero"/><path fill="#4285f4" clip-path="url(#id_0)" d="M312.4134 79.857216C312.4134 82.34249 310.39868 84.357216 307.9134 84.357216C305.42813 84.357216 303.4134 82.34249 303.4134 79.857216C303.4134 77.37193 305.42813 75.357216 307.9134 75.357216C310.39868 75.357216 312.4134 77.37193 312.4134 79.857216Z" fill-rule="nonzero"/><path fill="#4285f4" clip-path="url(#id_0)" d="M432.6229 78.19808C432.6229 80.68336 430.6082 82.69808 428.1229 82.69808C425.63763 82.69808 423.6229 80.68336 423.6229 78.19808C423.6229 75.7128 425.63763 73.69808 428.1229 73.69808C430.6082 73.69808 432.6229 75.7128 432.6229 78.19808Z" fill-rule="nonzero"/><path fill="#4285f4" clip-path="url(#id_0)" d="M552.8324 76.584724C552.8324 79.07 550.8177 81.084724 548.3324 81.084724C545.8471 81.084724 543.8324 79.07 543.8324 76.584724C543.8324 74.09944 545.8471 72.084724 548.3324 72.084724C550.8177 72.084724 552.8324 74.09944 552.8324 76.584724Z" fill-rule="nonzero"/><path fill="#4285f4" clip-path="url(#id_0)" d="M673.0419 75.79443C673.0419 78.27972 671.02716 80.29443 668.5419 80.29443C666.05664 80.29443 664.0419 78.27972 664.0419 75.79443C664.0419 73.30915 666.05664 71.29443 668.5419 71.29443C671.02716 71.29443 673.0419 73.30915 673.0419 75.79443Z" fill-rule="nonzero"/><path fill="#4285f4" clip-path="url(#id_0)" d="M793.2514 73.48569C793.2514 75.97097 791.2367 77.98569 788.7514 77.98569C786.2661 77.98569 784.2514 75.97097 784.2514 73.48569C784.2514 71.00041 786.2661 68.98569 788.7514 68.98569C791.2367 68.98569 793.2514 71.00041 793.2514 73.48569Z" fill-rule="nonzero"/><path fill="#4285f4" clip-path="url(#id_0)" d="M913.4609 71.26465C913.4609 73.74992 911.44617 75.76465 908.9609 75.76465C906.4756 75.76465 904.4609 73.74992 904.4609 71.26465C904.4609 68.779366 906.4756 66.76465 908.9609 66.76465C911.44617 66.76465 913.4609 68.779366 913.4609 71.26465Z" fill-rule="nonzero"/><path fill="#4285f4" clip-path="url(#id_0)" d="M1033.6704 67.740654C1033.6704 70.22594 1031.6556 72.240654 1029.1704 72.240654C1026.685 72.240654 1024.6704 70.22594 1024.6704 67.740654C1024.6704 65.25537 1026.685 63.240658 1029.1704 63.240658C1031.6556 63.240658 1033.6704 65.25537 1033.6704 67.740654Z" fill-rule="nonzero"/><path fill="#4285f4" clip-path="url(#id_0)" d="M1153.8799 63.13869C1153.8799 65.62397 1151.8652 67.638695 1149.3799 67.638695C1146.8947 67.638695 1144.8799 65.62397 1144.8799 63.13869C1144.8799 60.65341 1146.8947 58.63869 1149.3799 58.63869C1151.8652 58.63869 1153.8799 60.65341 1153.8799 63.13869Z" fill-rule="nonzero"/><path fill="#000000" d="M26.599995 203.73438L18.006245 203.73438L18.006245 202.67188L26.599995 202.67188L26.599995 203.73438ZM23.49062 201.09375Q21.756245 201.09375 20.92812 200.14062Q20.24062 199.34375 20.24062 198.1875Q20.24062 196.90625 21.08437 196.09375Q21.912495 195.26562 23.39687 195.26562Q24.599995 195.26562 25.287495 195.625Q25.974995 195.98438 26.36562 196.6875Q26.74062 197.375 26.74062 198.1875Q26.74062 199.48438 25.912495 200.29688Q25.068745 201.09375 23.49062 201.09375ZM23.49062 200.01562Q24.67812 200.01562 25.27187 199.5Q25.86562 198.96875 25.86562 198.1875Q25.86562 197.39062 25.27187 196.875Q24.67812 196.35938 23.45937 196.35938Q22.30312 196.35938 21.70937 196.89062Q21.11562 197.40625 21.11562 198.1875Q21.11562 198.96875 21.70937 199.5Q22.287495 200.01562 23.49062 200.01562ZM27.11562 193.90625L27.27187 192.875Q27.74062 192.8125 27.95937 192.51562Q28.256245 192.125 28.256245 191.45312Q28.256245 190.71875 27.95937 190.32812Q27.662495 189.92188 27.14687 189.78125Q26.818745 189.6875 25.787495 189.70312Q26.599995 190.39062 26.599995 191.42188Q26.599995 192.70312 25.67812 193.40625Q24.74062 194.10938 23.45937 194.10938Q22.568745 194.10938 21.818745 193.79688Q21.05312 193.46875 20.64687 192.85938Q20.24062 192.25 20.24062 191.42188Q20.24062 190.3125 21.131245 189.59375L20.381245 189.59375L20.381245 188.625L25.756245 188.625Q27.20937 188.625 27.818745 188.92188Q28.42812 189.21875 28.77187 189.85938Q29.131245 190.5 29.131245 191.4375Q29.131245 192.54688 28.631245 193.23438Q28.131245 193.92188 27.11562 193.90625ZM23.381245 193.03125Q24.599995 193.03125 25.162495 192.54688Q25.724995 192.0625 25.724995 191.32812Q25.724995 190.59375 25.162495 190.10938Q24.599995 189.60938 23.412495 189.60938Q22.27187 189.60938 21.693745 190.125Q21.11562 190.625 21.11562 191.34375Q21.11562 192.04688 21.693745 192.54688Q22.256245 193.03125 23.381245 193.03125ZM26.599995 183.73438L18.006245 183.73438L18.006245 182.67188L26.599995 182.67188L26.599995 183.73438ZM25.83437 176.64062Q26.33437 177.23438 26.537495 177.78125Q26.74062 178.3125 26.74062 178.9375Q26.74062 179.96875 26.24062 180.51562Q25.74062 181.0625 24.95937 181.0625Q24.506245 181.0625 24.131245 180.85938Q23.74062 180.65625 23.52187 180.3125Q23.287495 179.96875 23.17812 179.54688Q23.08437 179.25 23.006245 178.60938Q22.86562 177.34375 22.64687 176.73438Q22.42812 176.73438 22.381245 176.73438Q21.724995 176.73438 21.45937 177.03125Q21.11562 177.4375 21.11562 178.23438Q21.11562 178.96875 21.381245 179.32812Q21.631245 179.6875 22.287495 179.85938L22.14687 180.89062Q21.49062 180.75 21.08437 180.42188Q20.67812 180.09375 20.45937 179.48438Q20.24062 178.875 20.24062 178.07812Q20.24062 177.28125 20.42812 176.78125Q20.61562 176.28125 20.89687 176.04688Q21.17812 175.8125 21.61562 175.71875Q21.881245 175.67188 22.58437 175.67188L23.99062 175.67188Q25.45937 175.67188 25.849995 175.60938Q26.24062 175.53125 26.599995 175.32812L26.599995 176.4375Q26.27187 176.59375 25.83437 176.64062ZM23.474995 176.73438Q23.70937 177.3125 23.881245 178.45312Q23.974995 179.10938 24.099995 179.375Q24.20937 179.64062 24.42812 179.79688Q24.64687 179.9375 24.92812 179.9375Q25.349995 179.9375 25.631245 179.625Q25.912495 179.29688 25.912495 178.6875Q25.912495 178.07812 25.64687 177.60938Q25.381245 177.125 24.912495 176.90625Q24.55312 176.73438 23.86562 176.73438L23.474995 176.73438ZM25.662495 171.40625L26.58437 171.25Q26.67812 171.70312 26.67812 172.04688Q26.67812 172.625 26.506245 172.9375Q26.318745 173.25 26.02187 173.39062Q25.724995 173.51562 24.77187 173.51562L21.193745 173.51562L21.193745 174.28125L20.381245 174.28125L20.381245 173.51562L18.83437 173.51562L18.20937 172.46875L20.381245 172.46875L20.381245 171.40625L21.193745 171.40625L21.193745 172.46875L24.83437 172.46875Q25.287495 172.46875 25.412495 172.42188Q25.537495 172.35938 25.61562 172.23438Q25.693745 172.10938 25.693745 171.875Q25.693745 171.6875 25.662495 171.40625ZM24.599995 166.45312L24.724995 165.35938Q25.67812 165.60938 26.20937 166.3125Q26.74062 167.01562 26.74062 168.09375Q26.74062 169.45312 25.89687 170.26562Q25.05312 171.0625 23.537495 171.0625Q21.974995 171.0625 21.11562 170.25Q20.24062 169.4375 20.24062 168.15625Q20.24062 166.90625 21.08437 166.125Q21.92812 165.32812 23.474995 165.32812Q23.568745 165.32812 23.756245 165.32812L23.756245 169.96875Q24.787495 169.90625 25.33437 169.39062Q25.86562 168.875 25.86562 168.09375Q25.86562 167.51562 25.568745 167.10938Q25.256245 166.6875 24.599995 166.45312ZM22.89687 169.90625L22.89687 166.4375Q22.099995 166.5 21.70937 166.82812Q21.099995 167.34375 21.099995 168.14062Q21.099995 168.875 21.58437 169.375Q22.068745 169.85938 22.89687 169.90625ZM26.599995 163.70312L20.381245 163.70312L20.381245 162.76562L21.256245 162.76562Q20.24062 162.07812 20.24062 160.78125Q20.24062 160.21875 20.443745 159.75Q20.64687 159.26562 20.974995 159.03125Q21.30312 158.79688 21.74062 158.70312Q22.037495 158.65625 22.77187 158.65625L26.599995 158.65625L26.599995 159.70312L22.818745 159.70312Q22.162495 159.70312 21.849995 159.82812Q21.537495 159.95312 21.349995 160.26562Q21.14687 160.57812 21.14687 161.0Q21.14687 161.67188 21.58437 162.17188Q22.006245 162.65625 23.193745 162.65625L26.599995 162.65625L26.599995 163.70312ZM24.318745 152.64062L24.45937 151.60938Q25.52187 151.78125 26.131245 152.48438Q26.74062 153.1875 26.74062 154.20312Q26.74062 155.48438 25.912495 156.26562Q25.068745 157.03125 23.506245 157.03125Q22.506245 157.03125 21.756245 156.70312Q20.99062 156.35938 20.61562 155.6875Q20.24062 155.0 20.24062 154.1875Q20.24062 153.1875 20.756245 152.54688Q21.256245 151.89062 22.20937 151.70312L22.36562 152.73438Q21.74062 152.875 21.42812 153.25Q21.099995 153.625 21.099995 154.15625Q21.099995 154.95312 21.67812 155.45312Q22.24062 155.95312 23.474995 155.95312Q24.74062 155.95312 25.30312 155.46875Q25.86562 154.98438 25.86562 154.21875Q25.86562 153.59375 25.49062 153.1875Q25.11562 152.76562 24.318745 152.64062ZM28.99062 150.75L28.006245 150.875Q28.099995 150.53125 28.099995 150.26562Q28.099995 149.92188 27.974995 149.71875Q27.86562 149.5 27.662495 149.35938Q27.49062 149.26562 26.86562 149.03125Q26.787495 149.01562 26.61562 148.9375L20.381245 151.3125L20.381245 150.17188L23.974995 148.875Q24.662495 148.625 25.42812 148.42188Q24.693745 148.23438 24.006245 147.98438L20.381245 146.65625L20.381245 145.60938L26.70937 147.96875Q27.724995 148.35938 28.11562 148.5625Q28.64687 148.84375 28.881245 149.21875Q29.131245 149.57812 29.131245 150.07812Q29.131245 150.375 28.99062 150.75ZM29.131245 139.6875Q28.02187 140.5625 26.55312 141.17188Q25.068745 141.76562 23.49062 141.76562Q22.099995 141.76562 20.818745 141.32812Q19.33437 140.79688 17.86562 139.6875L17.86562 138.9375Q19.08437 139.64062 19.599995 139.875Q20.412495 140.23438 21.287495 140.4375Q22.381245 140.6875 23.49062 140.6875Q26.318745 140.6875 29.131245 138.9375L29.131245 139.6875ZM26.599995 137.70312L20.381245 137.70312L20.381245 136.76562L21.256245 136.76562Q20.787495 136.46875 20.52187 135.98438Q20.24062 135.5 20.24062 134.875Q20.24062 134.1875 20.52187 133.75Q20.80312 133.29688 21.318745 133.125Q20.24062 132.375 20.24062 131.20312Q20.24062 130.26562 20.756245 129.78125Q21.256245 129.28125 22.33437 129.28125L26.599995 129.28125L26.599995 130.32812L22.67812 130.32812Q22.05312 130.32812 21.77187 130.4375Q21.49062 130.53125 21.318745 130.79688Q21.14687 131.0625 21.14687 131.4375Q21.14687 132.09375 21.58437 132.53125Q22.02187 132.95312 22.99062 132.95312L26.599995 132.95312L26.599995 134.01562L22.55312 134.01562Q21.849995 134.01562 21.506245 134.28125Q21.14687 134.53125 21.14687 135.10938Q21.14687 135.5625 21.381245 135.9375Q21.61562 136.3125 22.068745 136.48438Q22.52187 136.65625 23.36562 136.65625L26.599995 136.65625L26.599995 137.70312ZM24.74062 128.125L24.58437 127.09375Q25.20937 127.0 25.537495 126.609375Q25.86562 126.203125 25.86562 125.46875Q25.86562 124.75 25.58437 124.40625Q25.287495 124.046875 24.881245 124.046875Q24.52187 124.046875 24.318745 124.359375Q24.17812 124.578125 23.95937 125.4375Q23.662495 126.59375 23.45937 127.046875Q23.24062 127.484375 22.86562 127.71875Q22.49062 127.953125 22.02187 127.953125Q21.61562 127.953125 21.256245 127.765625Q20.89687 127.578125 20.662495 127.25Q20.49062 127.0 20.36562 126.578125Q20.24062 126.15625 20.24062 125.65625Q20.24062 124.9375 20.45937 124.390625Q20.662495 123.828125 21.02187 123.5625Q21.381245 123.296875 21.974995 123.203125L22.11562 124.234375Q21.64687 124.296875 21.381245 124.640625Q21.099995 124.96875 21.099995 125.59375Q21.099995 126.3125 21.349995 126.625Q21.58437 126.9375 21.912495 126.9375Q22.11562 126.9375 22.27187 126.8125Q22.443745 126.671875 22.55312 126.40625Q22.61562 126.25 22.818745 125.46875Q23.131245 124.34375 23.318745 123.90625Q23.506245 123.46875 23.86562 123.21875Q24.224995 122.96875 24.77187 122.96875Q25.30312 122.96875 25.77187 123.28125Q26.224995 123.578125 26.49062 124.15625Q26.74062 124.734375 26.74062 125.46875Q26.74062 126.6875 26.24062 127.328125Q25.724995 127.953125 24.74062 128.125ZM24.599995 117.453125L24.724995 116.359375Q25.67812 116.609375 26.20937 117.3125Q26.74062 118.015625 26.74062 119.09375Q26.74062 120.453125 25.89687 121.265625Q25.05312 122.0625 23.537495 122.0625Q21.974995 122.0625 21.11562 121.25Q20.24062 120.4375 20.24062 119.15625Q20.24062 117.90625 21.08437 117.125Q21.92812 116.328125 23.474995 116.328125Q23.568745 116.328125 23.756245 116.328125L23.756245 120.96875Q24.787495 120.90625 25.33437 120.390625Q25.86562 119.875 25.86562 119.09375Q25.86562 118.515625 25.568745 118.109375Q25.256245 117.6875 24.599995 117.453125ZM22.89687 120.90625L22.89687 117.4375Q22.099995 117.5 21.70937 117.828125Q21.099995 118.34375 21.099995 119.140625Q21.099995 119.875 21.58437 120.375Q22.068745 120.859375 22.89687 120.90625ZM24.318745 110.640625L24.45937 109.609375Q25.52187 109.78125 26.131245 110.484375Q26.74062 111.1875 26.74062 112.203125Q26.74062 113.484375 25.912495 114.265625Q25.068745 115.03125 23.506245 115.03125Q22.506245 115.03125 21.756245 114.703125Q20.99062 114.359375 20.61562 113.6875Q20.24062 113.0 20.24062 112.1875Q20.24062 111.1875 20.756245 110.546875Q21.256245 109.890625 22.20937 109.703125L22.36562 110.734375Q21.74062 110.875 21.42812 111.25Q21.099995 111.625 21.099995 112.15625Q21.099995 112.953125 21.67812 113.453125Q22.24062 113.953125 23.474995 113.953125Q24.74062 113.953125 25.30312 113.46875Q25.86562 112.984375 25.86562 112.21875Q25.86562 111.59375 25.49062 111.1875Q25.11562 110.765625 24.318745 110.640625ZM29.131245 108.015625L29.131245 108.765625Q26.318745 107.015625 23.49062 107.015625Q22.39687 107.015625 21.30312 107.265625Q20.42812 107.46875 19.61562 107.828125Q19.099995 108.0625 17.86562 108.765625L17.86562 108.015625Q19.33437 106.921875 20.818745 106.390625Q22.099995 105.9375 23.49062 105.9375Q25.068745 105.9375 26.55312 106.546875Q28.02187 107.15625 29.131245 108.015625Z" fill-rule="nonzero"/><path fill="#000000" d="M60.1 236.90839L61.209373 236.81464Q61.334373 237.62714 61.771873 238.03339Q62.225 238.43964 62.865623 238.43964Q63.615623 238.43964 64.14687 237.86151Q64.67812 237.28339 64.67812 236.34589Q64.67812 235.43964 64.1625 234.92401Q63.6625 234.39276 62.834373 234.39276Q62.334373 234.39276 61.9125 234.62714Q61.50625 234.86151 61.271873 235.22089L60.2875 235.09589L61.115623 230.68964L65.39687 230.68964L65.39687 231.68964L61.959373 231.68964L61.50625 234.00214Q62.271873 233.45526 63.115623 233.45526Q64.24062 233.45526 65.00625 234.23651Q65.7875 235.01776 65.7875 236.25214Q65.7875 237.40839 65.11562 238.26776Q64.2875 239.29901 62.865623 239.29901Q61.69375 239.29901 60.94375 238.64276Q60.209373 237.98651 60.1 236.90839Z" fill-rule="nonzero"/><path fill="#000000" d="M57.06875 198.62277L56.021873 198.62277L56.021873 191.90402Q55.63125 192.2634 55.00625 192.6384Q54.396873 192.99777 53.9125 193.16965L53.9125 192.15402Q54.7875 191.73215 55.44375 191.15402Q56.115623 190.56027 56.396873 189.99777L57.06875 189.99777L57.06875 198.62277ZM60.1 194.3884Q60.1 192.85715 60.4125 191.93527Q60.725 190.99777 61.334373 190.49777Q61.959373 189.99777 62.896873 189.99777Q63.584373 189.99777 64.1 190.27902Q64.63125 190.56027 64.975 191.09152Q65.31875 191.60715 65.50625 192.35715Q65.69375 193.10715 65.69375 194.3884Q65.69375 195.90402 65.38125 196.8259Q65.08437 197.74777 64.45937 198.2634Q63.85 198.7634 62.896873 198.7634Q61.6625 198.7634 60.94375 197.87277Q60.1 196.81027 60.1 194.3884ZM61.178123 194.3884Q61.178123 196.49777 61.678123 197.2009Q62.178123 197.90402 62.896873 197.90402Q63.63125 197.90402 64.11562 197.2009Q64.61562 196.49777 64.61562 194.3884Q64.61562 192.2634 64.11562 191.5759Q63.63125 190.87277 62.88125 190.87277Q62.1625 190.87277 61.725 191.48215Q61.178123 192.2634 61.178123 194.3884Z" fill-rule="nonzero"/><path fill="#000000" d="M53.1 102.25202L54.209373 102.15827Q54.334373 102.97077 54.771873 103.37702Q55.225 103.78327 55.865623 103.78327Q56.615623 103.78327 57.146873 103.20515Q57.678123 102.62702 57.678123 101.68952Q57.678123 100.78327 57.1625 100.26765Q56.6625 99.7364 55.834373 99.7364Q55.334373 99.7364 54.9125 99.97077Q54.50625 100.20515 54.271873 100.56452L53.2875 100.43952L54.115623 96.03327L58.396873 96.03327L58.396873 97.03327L54.959373 97.03327L54.50625 99.34577Q55.271873 98.7989 56.115623 98.7989Q57.240623 98.7989 58.00625 99.58015Q58.7875 100.3614 58.7875 101.59577Q58.7875 102.75202 58.115623 103.6114Q57.2875 104.64265 55.865623 104.64265Q54.69375 104.64265 53.94375 103.9864Q53.209373 103.33015 53.1 102.25202ZM60.1 100.26765Q60.1 98.7364 60.4125 97.81452Q60.725 96.87702 61.334373 96.37702Q61.959373 95.87702 62.896873 95.87702Q63.584373 95.87702 64.1 96.15827Q64.63125 96.43952 64.975 96.97077Q65.31875 97.4864 65.50625 98.2364Q65.69375 98.9864 65.69375 100.26765Q65.69375 101.78327 65.38125 102.70515Q65.08437 103.62702 64.45937 104.14265Q63.85 104.64265 62.896873 104.64265Q61.6625 104.64265 60.94375 103.75202Q60.1 102.68952 60.1 100.26765ZM61.178123 100.26765Q61.178123 102.37702 61.678123 103.08015Q62.178123 103.78327 62.896873 103.78327Q63.63125 103.78327 64.11562 103.08015Q64.61562 102.37702 64.61562 100.26765Q64.61562 98.14265 64.11562 97.45515Q63.63125 96.75202 62.88125 96.75202Q62.1625 96.75202 61.725 97.3614Q61.178123 98.14265 61.178123 100.26765Z" fill-rule="nonzero"/><path fill="#000000" d="M50.06875 63.966415L49.021873 63.966415L49.021873 57.247665Q48.63125 57.60704 48.00625 57.98204Q47.396873 58.341415 46.9125 58.51329L46.9125 57.497665Q47.7875 57.07579 48.44375 56.497665Q49.115623 55.903915 49.396873 55.341415L50.06875 55.341415L50.06875 63.966415ZM53.1 59.73204Q53.1 58.20079 53.4125 57.278915Q53.725 56.341415 54.334373 55.841415Q54.959373 55.341415 55.896873 55.341415Q56.584373 55.341415 57.1 55.622665Q57.63125 55.903915 57.975 56.435165Q58.31875 56.95079 58.50625 57.70079Q58.69375 58.45079 58.69375 59.73204Q58.69375 61.247665 58.38125 62.16954Q58.084373 63.091415 57.459373 63.60704Q56.85 64.10704 55.896873 64.10704Q54.6625 64.10704 53.94375 63.216415Q53.1 62.153915 53.1 59.73204ZM54.178123 59.73204Q54.178123 61.841415 54.678123 62.54454Q55.178123 63.247665 55.896873 63.247665Q56.63125 63.247665 57.115623 62.54454Q57.615623 61.841415 57.615623 59.73204Q57.615623 57.60704 57.115623 56.91954Q56.63125 56.216415 55.88125 56.216415Q55.1625 56.216415 54.725 56.82579Q54.178123 57.60704 54.178123 59.73204ZM60.1 59.73204Q60.1 58.20079 60.4125 57.278915Q60.725 56.341415 61.334373 55.841415Q61.959373 55.341415 62.896873 55.341415Q63.584373 55.341415 64.1 55.622665Q64.63125 55.903915 64.975 56.435165Q65.31875 56.95079 65.50625 57.70079Q65.69375 58.45079 65.69375 59.73204Q65.69375 61.247665 65.38125 62.16954Q65.08437 63.091415 64.45937 63.60704Q63.85 64.10704 62.896873 64.10704Q61.6625 64.10704 60.94375 63.216415Q60.1 62.153915 60.1 59.73204ZM61.178123 59.73204Q61.178123 61.841415 61.678123 62.54454Q62.178123 63.247665 62.896873 63.247665Q63.63125 63.247665 64.11562 62.54454Q64.61562 61.841415 64.61562 59.73204Q64.61562 57.60704 64.11562 56.91954Q63.63125 56.216415 62.88125 56.216415Q62.1625 56.216415 61.725 56.82579Q61.178123 57.60704 61.178123 59.73204Z" fill-rule="nonzero"/><path fill="#000000" d="M299.9134 289.16562Q299.9134 287.63437 300.2259 286.7125Q300.5384 285.775 301.14777 285.275Q301.77277 284.775 302.71027 284.775Q303.39777 284.775 303.9134 285.05624Q304.44464 285.3375 304.7884 285.86874Q305.13214 286.38437 305.31964 287.13437Q305.50714 287.88437 305.50714 289.16562Q305.50714 290.68124 305.19464 291.60312Q304.89777 292.525 304.27277 293.04062Q303.6634 293.54062 302.71027 293.54062Q301.4759 293.54062 300.75714 292.65Q299.9134 291.5875 299.9134 289.16562ZM300.99152 289.16562Q300.99152 291.275 301.49152 291.97812Q301.99152 292.68124 302.71027 292.68124Q303.44464 292.68124 303.92902 291.97812Q304.42902 291.275 304.42902 289.16562Q304.42902 287.04062 303.92902 286.35312Q303.44464 285.65 302.69464 285.65Q301.9759 285.65 301.5384 286.25937Q300.99152 287.04062 300.99152 289.16562ZM307.50714 293.4L307.50714 292.19687L308.71027 292.19687L308.71027 293.4L307.50714 293.4ZM315.46027 292.38437L315.46027 293.4L309.77277 293.4Q309.77277 293.025 309.89777 292.66562Q310.11652 292.0875 310.58527 291.525Q311.06964 290.9625 311.9759 290.22812Q313.38214 289.07187 313.86652 288.4Q314.36652 287.72812 314.36652 287.13437Q314.36652 286.50937 313.9134 286.0875Q313.46027 285.65 312.74152 285.65Q311.9759 285.65 311.52277 286.10312Q311.06964 286.55624 311.05402 287.36874L309.9759 287.25937Q310.08527 286.04062 310.80402 285.41562Q311.5384 284.775 312.77277 284.775Q314.00714 284.775 314.7259 285.4625Q315.44464 286.15 315.44464 287.16562Q315.44464 287.68124 315.2259 288.18124Q315.02277 288.66562 314.52277 289.22812Q314.0384 289.775 312.9134 290.72812Q311.96027 291.525 311.67902 291.82187Q311.4134 292.10312 311.24152 292.38437L315.46027 292.38437Z" fill-rule="nonzero"/><path fill="#000000" d="M540.3324 289.16562Q540.3324 287.63437 540.6449 286.7125Q540.9574 285.775 541.5668 285.275Q542.1918 284.775 543.1293 284.775Q543.8168 284.775 544.3324 285.05624Q544.86365 285.3375 545.2074 285.86874Q545.55115 286.38437 545.73865 287.13437Q545.92615 287.88437 545.92615 289.16562Q545.92615 290.68124 545.61365 291.60312Q545.3168 292.525 544.6918 293.04062Q544.0824 293.54062 543.1293 293.54062Q541.8949 293.54062 541.17615 292.65Q540.3324 291.5875 540.3324 289.16562ZM541.4105 289.16562Q541.4105 291.275 541.9105 291.97812Q542.4105 292.68124 543.1293 292.68124Q543.86365 292.68124 544.348 291.97812Q544.848 291.275 544.848 289.16562Q544.848 287.04062 544.348 286.35312Q543.86365 285.65 543.11365 285.65Q542.3949 285.65 541.9574 286.25937Q541.4105 287.04062 541.4105 289.16562ZM547.92615 293.4L547.92615 292.19687L549.1293 292.19687L549.1293 293.4L547.92615 293.4ZM553.7074 293.4L553.7074 291.3375L549.98865 291.3375L549.98865 290.36874L553.9105 284.80624L554.7699 284.80624L554.7699 290.36874L555.92615 290.36874L555.92615 291.3375L554.7699 291.3375L554.7699 293.4L553.7074 293.4ZM553.7074 290.36874L553.7074 286.50937L551.0199 290.36874L553.7074 290.36874Z" fill-rule="nonzero"/><path fill="#000000" d="M780.7514 289.16562Q780.7514 287.63437 781.0639 286.7125Q781.3764 285.775 781.9858 285.275Q782.6108 284.775 783.5483 284.775Q784.2358 284.775 784.7514 285.05624Q785.28265 285.3375 785.6264 285.86874Q785.97015 286.38437 786.15765 287.13437Q786.34515 287.88437 786.34515 289.16562Q786.34515 290.68124 786.03265 291.60312Q785.7358 292.525 785.1108 293.04062Q784.5014 293.54062 783.5483 293.54062Q782.3139 293.54062 781.59515 292.65Q780.7514 291.5875 780.7514 289.16562ZM781.8295 289.16562Q781.8295 291.275 782.3295 291.97812Q782.8295 292.68124 783.5483 292.68124Q784.28265 292.68124 784.767 291.97812Q785.267 291.275 785.267 289.16562Q785.267 287.04062 784.767 286.35312Q784.28265 285.65 783.53265 285.65Q782.8139 285.65 782.3764 286.25937Q781.8295 287.04062 781.8295 289.16562ZM788.34515 293.4L788.34515 292.19687L789.5483 292.19687L789.5483 293.4L788.34515 293.4ZM796.22015 286.91562L795.1733 286.99374Q795.03265 286.36874 794.78265 286.0875Q794.34515 285.63437 793.72015 285.63437Q793.22015 285.63437 792.8295 285.91562Q792.34515 286.29062 792.0483 286.99374Q791.767 287.68124 791.7514 288.9625Q792.1264 288.38437 792.6733 288.10312Q793.2358 287.82187 793.84515 287.82187Q794.892 287.82187 795.6264 288.60312Q796.3764 289.38437 796.3764 290.60312Q796.3764 291.41562 796.017 292.11874Q795.6733 292.80624 795.0639 293.18124Q794.4545 293.54062 793.6889 293.54062Q792.3608 293.54062 791.53265 292.57187Q790.7045 291.60312 790.7045 289.38437Q790.7045 286.88437 791.6264 285.75937Q792.4233 284.775 793.78265 284.775Q794.7983 284.775 795.4389 285.35312Q796.09515 285.91562 796.22015 286.91562ZM791.9233 290.61874Q791.9233 291.16562 792.142 291.66562Q792.3764 292.15 792.78265 292.41562Q793.2045 292.68124 793.6733 292.68124Q794.3295 292.68124 794.8139 292.15Q795.2983 291.60312 795.2983 290.68124Q795.2983 289.79062 794.8139 289.275Q794.34515 288.75937 793.6264 288.75937Q792.90765 288.75937 792.40765 289.275Q791.9233 289.79062 791.9233 290.61874Z" fill-rule="nonzero"/><path fill="#000000" d="M1021.1704 289.16562Q1021.1704 287.63437 1021.4829 286.7125Q1021.7954 285.775 1022.4048 285.275Q1023.0298 284.775 1023.9673 284.775Q1024.6548 284.775 1025.1704 285.05624Q1025.7017 285.3375 1026.0454 285.86874Q1026.3892 286.38437 1026.5767 287.13437Q1026.7642 287.88437 1026.7642 289.16562Q1026.7642 290.68124 1026.4517 291.60312Q1026.1548 292.525 1025.5298 293.04062Q1024.9204 293.54062 1023.9673 293.54062Q1022.7329 293.54062 1022.01416 292.65Q1021.1704 291.5875 1021.1704 289.16562ZM1022.24854 289.16562Q1022.24854 291.275 1022.74854 291.97812Q1023.24854 292.68124 1023.9673 292.68124Q1024.7017 292.68124 1025.186 291.97812Q1025.686 291.275 1025.686 289.16562Q1025.686 287.04062 1025.186 286.35312Q1024.7017 285.65 1023.95166 285.65Q1023.2329 285.65 1022.7954 286.25937Q1022.24854 287.04062 1022.24854 289.16562ZM1028.7642 293.4L1028.7642 292.19687L1029.9673 292.19687L1029.9673 293.4L1028.7642 293.4ZM1032.7954 288.74374Q1032.1392 288.49374 1031.811 288.05624Q1031.4985 287.60312 1031.4985 286.99374Q1031.4985 286.05624 1032.1704 285.41562Q1032.8579 284.775 1033.9673 284.775Q1035.0923 284.775 1035.7798 285.43124Q1036.4673 286.0875 1036.4673 287.025Q1036.4673 287.61874 1036.1548 288.05624Q1035.8423 288.49374 1035.2017 288.74374Q1035.9985 288.99374 1036.4048 289.57187Q1036.811 290.15 1036.811 290.94687Q1036.811 292.04062 1036.0298 292.79062Q1035.2642 293.54062 1033.9829 293.54062Q1032.7173 293.54062 1031.936 292.79062Q1031.1548 292.04062 1031.1548 290.91562Q1031.1548 290.07187 1031.5767 289.50937Q1032.0142 288.94687 1032.7954 288.74374ZM1032.5767 286.94687Q1032.5767 287.55624 1032.9673 287.94687Q1033.3735 288.3375 1033.9985 288.3375Q1034.6079 288.3375 1034.9985 287.9625Q1035.3892 287.57187 1035.3892 287.00937Q1035.3892 286.43124 1034.9829 286.04062Q1034.5767 285.63437 1033.9829 285.63437Q1033.3735 285.63437 1032.9673 286.025Q1032.5767 286.41562 1032.5767 286.94687ZM1032.2485 290.91562Q1032.2485 291.36874 1032.4517 291.79062Q1032.6704 292.2125 1033.0923 292.44687Q1033.5142 292.68124 1033.9985 292.68124Q1034.7485 292.68124 1035.2329 292.19687Q1035.7329 291.7125 1035.7329 290.9625Q1035.7329 290.19687 1035.2329 289.69687Q1034.7329 289.19687 1033.9673 289.19687Q1033.2173 289.19687 1032.7329 289.69687Q1032.2485 290.18124 1032.2485 290.91562Z" fill-rule="nonzero"/></svg>