<svg version="1.1" viewBox="0.0 0.0 600.0 315.0" fill="none" stroke="none" stroke-linecap="square" stroke-miterlimit="10" width="600" height="315" xmlns:xlink="http://www.w3.org/1999/xlink" xmlns="http://www.w3.org/2000/svg"><path fill="#ffffff" d="M0 0L600.0 0L600.0 315.0L0 315.0L0 0Z" fill-rule="nonzero"/><path stroke="#333333" stroke-width="1.0" stroke-linecap="butt" d="M73.5 22.5L73.5 279.5" fill-rule="nonzero"/><path stroke="#cccccc" stroke-width="1.0" stroke-linecap="butt" d="M185.5 22.5L185.5 279.5" fill-rule="nonzero"/><path stroke="#cccccc" stroke-width="1.0" stroke-linecap="butt" d="M297.5 22.5L297.5 279.5" fill-rule="nonzero"/><path stroke="#cccccc" stroke-width="1.0" stroke-linecap="butt" d="M409.5 22.5L409.5 279.5" fill-rule="nonzero"/><path stroke="#cccccc" stroke-width="1.0" stroke-linecap="butt" d="M521.5 22.5L521.5 279.5" fill-rule="nonzero"/><path stroke="#cccccc" stroke-width="1.0" stroke-linecap="butt" d="M72.5 273.5L584.5 273.5" fill-rule="nonzero"/><path stroke="#cccccc" stroke-width="1.0" stroke-linecap="butt" d="M72.5 227.5L584.5 227.5" fill-rule="nonzero"/><path stroke="#cccccc" stroke-width="1.0" stroke-linecap="butt" d="M72.5 194.5L584.5 194.5" fill-rule="nonzero"/><path stroke="#cccccc" stroke-width="1.0" stroke-linecap="butt" d="M72.5 168.5L584.5 168.5" fill-rule="nonzero"/><path stroke="#cccccc" stroke-width="1.0" stroke-linecap="butt" d="M72.5 88.5L584.5 88.5" fill-rule="nonzero"/><clipPath id="id_0"><path d="M72.75 22.75L584.25 22.75L584.25 279.25L72.75 279.25L72.75 22.75Z" clip-rule="nonzero"/></clipPath><path stroke="#fbbc04" stroke-width="2.0" stroke-linecap="butt" clip-path="url(#id_0)" d="M79.563515 221.95013L101.93983 217.62723L129.91022 216.22156L185.851 213.46062L241.79178 210.76427L297.73257 208.12955L353.67334 205.55371L409.61414 203.0342L465.55493 199.35526L521.4957 193.47318L577.43646 182.5395" fill-rule="nonzero"/><path stroke="#34a853" stroke-width="2.0" stroke-linecap="butt" clip-path="url(#id_0)" d="M79.563515 63.63839L101.93983 60.701572L129.91022 59.260757L185.851 56.432056L241.79178 55.04332L297.73257 52.315056L353.67334 50.974766L409.61414 48.34005L465.55493 45.764217L521.4957 39.565746L577.43646 22.75" fill-rule="nonzero"/><path stroke="#4285f4" stroke-width="2.0" stroke-linecap="butt" clip-path="url(#id_0)" d="M79.563515 279.25L101.93983 269.97757L129.91022 265.60684L185.851 260.3667L241.79178 255.35443L297.73257 251.49586L353.67334 247.7623L409.61414 242.81847L465.55493 237.65654L521.4957 229.53601L577.43646 205.55371" fill-rule="nonzero"/><path fill="#fbbc04" clip-path="url(#id_0)" d="M84.063515 221.95013C84.063515 224.43541 82.04879 226.45013 79.563515 226.45013C77.07823 226.45013 75.063515 224.43541 75.063515 221.95013C75.063515 219.46484 77.07823 217.45013 79.563515 217.45013C82.04879 217.45013 84.063515 219.46484 84.063515 221.95013Z" fill-rule="nonzero"/><path fill="#fbbc04" clip-path="url(#id_0)" d="M106.43983 217.62723C106.43983 220.11252 104.4251 222.12723 101.93983 222.12723C99.454544 222.12723 97.43983 220.11252 97.43983 217.62723C97.43983 215.14195 99.454544 213.12723 101.93983 213.12723C104.4251 213.12723 106.43983 215.14195 106.43983 217.62723Z" fill-rule="nonzero"/><path fill="#fbbc04" clip-path="url(#id_0)" d="M134.41022 216.22156C134.41022 218.70685 132.3955 220.72156 129.91022 220.72156C127.424934 220.72156 125.41022 218.70685 125.41022 216.22156C125.41022 213.73628 127.424934 211.72156 129.91022 211.72156C132.3955 211.72156 134.41022 213.73628 134.41022 216.22156Z" fill-rule="nonzero"/><path fill="#fbbc04" clip-path="url(#id_0)" d="M190.351 213.46062C190.351 215.94589 188.33629 217.96062 185.851 217.96062C183.36572 217.96062 181.351 215.94589 181.351 213.46062C181.351 210.97534 183.36572 208.96062 185.851 208.96062C188.33629 208.96062 190.351 210.97534 190.351 213.46062Z" fill-rule="nonzero"/><path fill="#fbbc04" clip-path="url(#id_0)" d="M246.29178 210.76427C246.29178 213.24954 244.27707 215.26427 241.79178 215.26427C239.3065 215.26427 237.29178 213.24954 237.29178 210.76427C237.29178 208.27899 239.3065 206.26427 241.79178 206.26427C244.27707 206.26427 246.29178 208.27899 246.29178 210.76427Z" fill-rule="nonzero"/><path fill="#fbbc04" clip-path="url(#id_0)" d="M302.23257 208.12955C302.23257 210.61484 300.21786 212.62955 297.73257 212.62955C295.24728 212.62955 293.23257 210.61484 293.23257 208.12955C293.23257 205.64427 295.24728 203.62955 297.73257 203.62955C300.21786 203.62955 302.23257 205.64427 302.23257 208.12955Z" fill-rule="nonzero"/><path fill="#fbbc04" clip-path="url(#id_0)" d="M358.17334 205.55371C358.17334 208.039 356.15863 210.05371 353.67334 210.05371C351.18808 210.05371 349.17334 208.039 349.17334 205.55371C349.17334 203.06844 351.18808 201.05371 353.67334 201.05371C356.15863 201.05371 358.17334 203.06844 358.17334 205.55371Z" fill-rule="nonzero"/><path fill="#fbbc04" clip-path="url(#id_0)" d="M414.11414 203.0342C414.11414 205.51947 412.09943 207.5342 409.61414 207.5342C407.12885 207.5342 405.11414 205.51947 405.11414 203.0342C405.11414 200.5489 407.12885 198.5342 409.61414 198.5342C412.09943 198.5342 414.11414 200.5489 414.11414 203.0342Z" fill-rule="nonzero"/><path fill="#fbbc04" clip-path="url(#id_0)" d="M470.05493 199.35526C470.05493 201.84053 468.0402 203.85526 465.55493 203.85526C463.06964 203.85526 461.05493 201.84053 461.05493 199.35526C461.05493 196.86996 463.06964 194.85526 465.55493 194.85526C468.0402 194.85526 470.05493 196.86996 470.05493 199.35526Z" fill-rule="nonzero"/><path fill="#fbbc04" clip-path="url(#id_0)" d="M525.9957 193.47318C525.9957 195.95845 523.98096 197.97318 521.4957 197.97318C519.01044 197.97318 516.9957 195.95845 516.9957 193.47318C516.9957 190.98788 519.01044 188.97318 521.4957 188.97318C523.98096 188.97318 525.9957 190.98788 525.9957 193.47318Z" fill-rule="nonzero"/><path fill="#fbbc04" clip-path="url(#id_0)" d="M581.93646 182.5395C581.93646 185.02478 579.92175 187.0395 577.43646 187.0395C574.95123 187.0395 572.93646 185.02478 572.93646 182.5395C572.93646 180.05421 574.95123 178.0395 577.43646 178.0395C579.92175 178.0395 581.93646 180.05421 581.93646 182.5395Z" fill-rule="nonzero"/><path fill="#34a853" clip-path="url(#id_0)" d="M84.063515 63.63839C84.063515 66.12367 82.04879 68.13839 79.563515 68.13839C77.07823 68.13839 75.063515 66.12367 75.063515 63.63839C75.063515 61.153107 77.07823 59.13839 79.563515 59.13839C82.04879 59.13839 84.063515 61.153107 84.063515 63.63839Z" fill-rule="nonzero"/><path fill="#34a853" clip-path="url(#id_0)" d="M106.43983 60.701572C106.43983 63.186855 104.4251 65.20158 101.93983 65.20158C99.454544 65.20158 97.43983 63.186855 97.43983 60.701572C97.43983 58.216293 99.454544 56.201572 101.93983 56.201572C104.4251 56.201572 106.43983 58.216293 106.43983 60.701572Z" fill-rule="nonzero"/><path fill="#34a853" clip-path="url(#id_0)" d="M134.41022 59.260757C134.41022 61.74604 132.3955 63.760757 129.91022 63.760757C127.424934 63.760757 125.41022 61.74604 125.41022 59.260757C125.41022 56.775475 127.424934 54.760757 129.91022 54.760757C132.3955 54.760757 134.41022 56.775475 134.41022 59.260757Z" fill-rule="nonzero"/><path fill="#34a853" clip-path="url(#id_0)" d="M190.351 56.432056C190.351 58.91734 188.33629 60.932056 185.851 60.932056C183.36572 60.932056 181.351 58.91734 181.351 56.432056C181.351 53.946774 183.36572 51.932056 185.851 51.932056C188.33629 51.932056 190.351 53.946774 190.351 56.432056Z" fill-rule="nonzero"/><path fill="#34a853" clip-path="url(#id_0)" d="M246.29178 55.04332C246.29178 57.528603 244.27707 59.54332 241.79178 59.54332C239.3065 59.54332 237.29178 57.528603 237.29178 55.04332C237.29178 52.558037 239.3065 50.54332 241.79178 50.54332C244.27707 50.54332 246.29178 52.558037 246.29178 55.04332Z" fill-rule="nonzero"/><path fill="#34a853" clip-path="url(#id_0)" d="M302.23257 52.315056C302.23257 54.80034 300.21786 56.815056 297.73257 56.815056C295.24728 56.815056 293.23257 54.80034 293.23257 52.315056C293.23257 49.829777 295.24728 47.815056 297.73257 47.815056C300.21786 47.815056 302.23257 49.829777 302.23257 52.315056Z" fill-rule="nonzero"/><path fill="#34a853" clip-path="url(#id_0)" d="M358.17334 50.974766C358.17334 53.460045 356.15863 55.474766 353.67334 55.474766C351.18808 55.474766 349.17334 53.460045 349.17334 50.974766C349.17334 48.489483 351.18808 46.474766 353.67334 46.474766C356.15863 46.474766 358.17334 48.489483 358.17334 50.974766Z" fill-rule="nonzero"/><path fill="#34a853" clip-path="url(#id_0)" d="M414.11414 48.34005C414.11414 50.825333 412.09943 52.84005 409.61414 52.84005C407.12885 52.84005 405.11414 50.825333 405.11414 48.34005C405.11414 45.854767 407.12885 43.84005 409.61414 43.84005C412.09943 43.84005 414.11414 45.854767 414.11414 48.34005Z" fill-rule="nonzero"/><path fill="#34a853" clip-path="url(#id_0)" d="M470.05493 45.764217C470.05493 48.249496 468.0402 50.264217 465.55493 50.264217C463.06964 50.264217 461.05493 48.249496 461.05493 45.764217C461.05493 43.278934 463.06964 41.264217 465.55493 41.264217C468.0402 41.264217 470.05493 43.278934 470.05493 45.764217Z" fill-rule="nonzero"/><path fill="#34a853" clip-path="url(#id_0)" d="M525.9957 39.565746C525.9957 42.05103 523.98096 44.065746 521.4957 44.065746C519.01044 44.065746 516.9957 42.05103 516.9957 39.565746C516.9957 37.080463 519.01044 35.065746 521.4957 35.065746C523.98096 35.065746 525.9957 37.080463 525.9957 39.565746Z" fill-rule="nonzero"/><path fill="#34a853" clip-path="url(#id_0)" d="M581.93646 22.75C581.93646 25.235281 579.92175 27.25 577.43646 27.25C574.95123 27.25 572.93646 25.235281 572.93646 22.75C572.93646 20.264719 574.95123 18.25 577.43646 18.25C579.92175 18.25 581.93646 20.264719 581.93646 22.75Z" fill-rule="nonzero"/><path fill="#4285f4" clip-path="url(#id_0)" d="M84.063515 279.25C84.063515 281.7353 82.04879 283.75 79.563515 283.75C77.07823 283.75 75.063515 281.7353 75.063515 279.25C75.063515 276.7647 77.07823 274.75 79.563515 274.75C82.04879 274.75 84.063515 276.7647 84.063515 279.25Z" fill-rule="nonzero"/><path fill="#4285f4" clip-path="url(#id_0)" d="M106.43983 269.97757C106.43983 272.46286 104.4251 274.47757 101.93983 274.47757C99.454544 274.47757 97.43983 272.46286 97.43983 269.97757C97.43983 267.49228 99.454544 265.47757 101.93983 265.47757C104.4251 265.47757 106.43983 267.49228 106.43983 269.97757Z" fill-rule="nonzero"/><path fill="#4285f4" clip-path="url(#id_0)" d="M134.41022 265.60684C134.41022 268.09213 132.3955 270.10684 129.91022 270.10684C127.424934 270.10684 125.41022 268.09213 125.41022 265.60684C125.41022 263.12158 127.424934 261.10684 129.91022 261.10684C132.3955 261.10684 134.41022 263.12158 134.41022 265.60684Z" fill-rule="nonzero"/><path fill="#4285f4" clip-path="url(#id_0)" d="M190.351 260.3667C190.351 262.85196 188.33629 264.8667 185.851 264.8667C183.36572 264.8667 181.351 262.85196 181.351 260.3667C181.351 257.8814 183.36572 255.86668 185.851 255.86668C188.33629 255.86668 190.351 257.8814 190.351 260.3667Z" fill-rule="nonzero"/><path fill="#4285f4" clip-path="url(#id_0)" d="M246.29178 255.35443C246.29178 257.83972 244.27707 259.85443 241.79178 259.85443C239.3065 259.85443 237.29178 257.83972 237.29178 255.35443C237.29178 252.86914 239.3065 250.85443 241.79178 250.85443C244.27707 250.85443 246.29178 252.86914 246.29178 255.35443Z" fill-rule="nonzero"/><path fill="#4285f4" clip-path="url(#id_0)" d="M302.23257 251.49586C302.23257 253.98116 300.21786 255.99586 297.73257 255.99586C295.24728 255.99586 293.23257 253.98116 293.23257 251.49586C293.23257 249.01059 295.24728 246.99586 297.73257 246.99586C300.21786 246.99586 302.23257 249.01059 302.23257 251.49586Z" fill-rule="nonzero"/><path fill="#4285f4" clip-path="url(#id_0)" d="M358.17334 247.7623C358.17334 250.24759 356.15863 252.2623 353.67334 252.2623C351.18808 252.2623 349.17334 250.24759 349.17334 247.7623C349.17334 245.27702 351.18808 243.2623 353.67334 243.2623C356.15863 243.2623 358.17334 245.27702 358.17334 247.7623Z" fill-rule="nonzero"/><path fill="#4285f4" clip-path="url(#id_0)" d="M414.11414 242.81847C414.11414 245.30374 412.09943 247.31847 409.61414 247.31847C407.12885 247.31847 405.11414 245.30374 405.11414 242.81847C405.11414 240.33318 407.12885 238.31847 409.61414 238.31847C412.09943 238.31847 414.11414 240.33318 414.11414 242.81847Z" fill-rule="nonzero"/><path fill="#4285f4" clip-path="url(#id_0)" d="M470.05493 237.65654C470.05493 240.14182 468.0402 242.15654 465.55493 242.15654C463.06964 242.15654 461.05493 240.14182 461.05493 237.65654C461.05493 235.17125 463.06964 233.15654 465.55493 233.15654C468.0402 233.15654 470.05493 235.17125 470.05493 237.65654Z" fill-rule="nonzero"/><path fill="#4285f4" clip-path="url(#id_0)" d="M525.9957 229.53601C525.9957 232.02129 523.98096 234.03601 521.4957 234.03601C519.01044 234.03601 516.9957 232.02129 516.9957 229.53601C516.9957 227.05072 519.01044 225.03601 521.4957 225.03601C523.98096 225.03601 525.9957 227.05072 525.9957 229.53601Z" fill-rule="nonzero"/><path fill="#4285f4" clip-path="url(#id_0)" d="M581.93646 205.55371C581.93646 208.039 579.92175 210.05371 577.43646 210.05371C574.95123 210.05371 572.93646 208.039 572.93646 205.55371C572.93646 203.06844 574.95123 201.05371 577.43646 201.05371C579.92175 201.05371 581.93646 203.06844 581.93646 205.55371Z" fill-rule="nonzero"/><path fill="#000000" d="M27.75 206.23438L19.15625 206.23438L19.15625 205.17188L27.75 205.17188L27.75 206.23438ZM24.640625 203.59375Q22.90625 203.59375 22.078125 202.64062Q21.390625 201.84375 21.390625 200.6875Q21.390625 199.40625 22.234375 198.59375Q23.0625 197.76562 24.546875 197.76562Q25.75 197.76562 26.4375 198.125Q27.125 198.48438 27.515625 199.1875Q27.890625 199.875 27.890625 200.6875Q27.890625 201.98438 27.0625 202.79688Q26.21875 203.59375 24.640625 203.59375ZM24.640625 202.51562Q25.828125 202.51562 26.421875 202.0Q27.015625 201.46875 27.015625 200.6875Q27.015625 199.89062 26.421875 199.375Q25.828125 198.85938 24.609375 198.85938Q23.453125 198.85938 22.859375 199.39062Q22.265625 199.90625 22.265625 200.6875Q22.265625 201.46875 22.859375 202.0Q23.4375 202.51562 24.640625 202.51562ZM28.265625 196.40625L28.421875 195.375Q28.890625 195.3125 29.109375 195.01562Q29.40625 194.625 29.40625 193.95312Q29.40625 193.21875 29.109375 192.82812Q28.8125 192.42188 28.296875 192.28125Q27.96875 192.1875 26.9375 192.20312Q27.75 192.89062 27.75 193.92188Q27.75 195.20312 26.828125 195.90625Q25.890625 196.60938 24.609375 196.60938Q23.71875 196.60938 22.96875 196.29688Q22.203125 195.96875 21.796875 195.35938Q21.390625 194.75 21.390625 193.92188Q21.390625 192.8125 22.28125 192.09375L21.53125 192.09375L21.53125 191.125L26.90625 191.125Q28.359375 191.125 28.96875 191.42188Q29.578125 191.71875 29.921875 192.35938Q30.28125 193.0 30.28125 193.9375Q30.28125 195.04688 29.78125 195.73438Q29.28125 196.42188 28.265625 196.40625ZM24.53125 195.53125Q25.75 195.53125 26.3125 195.04688Q26.875 194.5625 26.875 193.82812Q26.875 193.09375 26.3125 192.60938Q25.75 192.10938 24.5625 192.10938Q23.421875 192.10938 22.84375 192.625Q22.265625 193.125 22.265625 193.84375Q22.265625 194.54688 22.84375 195.04688Q23.40625 195.53125 24.53125 195.53125ZM27.75 186.23438L19.15625 186.23438L19.15625 185.17188L27.75 185.17188L27.75 186.23438ZM26.984375 179.14062Q27.484375 179.73438 27.6875 180.28125Q27.890625 180.8125 27.890625 181.4375Q27.890625 182.46875 27.390625 183.01562Q26.890625 183.5625 26.109375 183.5625Q25.65625 183.5625 25.28125 183.35938Q24.890625 183.15625 24.671875 182.8125Q24.4375 182.46875 24.328125 182.04688Q24.234375 181.75 24.15625 181.10938Q24.015625 179.84375 23.796875 179.23438Q23.578125 179.23438 23.53125 179.23438Q22.875 179.23438 22.609375 179.53125Q22.265625 179.9375 22.265625 180.73438Q22.265625 181.46875 22.53125 181.82812Q22.78125 182.1875 23.4375 182.35938L23.296875 183.39062Q22.640625 183.25 22.234375 182.92188Q21.828125 182.59375 21.609375 181.98438Q21.390625 181.375 21.390625 180.57812Q21.390625 179.78125 21.578125 179.28125Q21.765625 178.78125 22.046875 178.54688Q22.328125 178.3125 22.765625 178.21875Q23.03125 178.17188 23.734375 178.17188L25.140625 178.17188Q26.609375 178.17188 27.0 178.10938Q27.390625 178.03125 27.75 177.82812L27.75 178.9375Q27.421875 179.09375 26.984375 179.14062ZM24.625 179.23438Q24.859375 179.8125 25.03125 180.95312Q25.125 181.60938 25.25 181.875Q25.359375 182.14062 25.578125 182.29688Q25.796875 182.4375 26.078125 182.4375Q26.5 182.4375 26.78125 182.125Q27.0625 181.79688 27.0625 181.1875Q27.0625 180.57812 26.796875 180.10938Q26.53125 179.625 26.0625 179.40625Q25.703125 179.23438 25.015625 179.23438L24.625 179.23438ZM26.8125 173.90625L27.734375 173.75Q27.828125 174.20312 27.828125 174.54688Q27.828125 175.125 27.65625 175.4375Q27.46875 175.75 27.171875 175.89062Q26.875 176.01562 25.921875 176.01562L22.34375 176.01562L22.34375 176.78125L21.53125 176.78125L21.53125 176.01562L19.984375 176.01562L19.359375 174.96875L21.53125 174.96875L21.53125 173.90625L22.34375 173.90625L22.34375 174.96875L25.984375 174.96875Q26.4375 174.96875 26.5625 174.92188Q26.6875 174.85938 26.765625 174.73438Q26.84375 174.60938 26.84375 174.375Q26.84375 174.1875 26.8125 173.90625ZM25.75 168.95312L25.875 167.85938Q26.828125 168.10938 27.359375 168.8125Q27.890625 169.51562 27.890625 170.59375Q27.890625 171.95312 27.046875 172.76562Q26.203125 173.5625 24.6875 173.5625Q23.125 173.5625 22.265625 172.75Q21.390625 171.9375 21.390625 170.65625Q21.390625 169.40625 22.234375 168.625Q23.078125 167.82812 24.625 167.82812Q24.71875 167.82812 24.90625 167.82812L24.90625 172.46875Q25.9375 172.40625 26.484375 171.89062Q27.015625 171.375 27.015625 170.59375Q27.015625 170.01562 26.71875 169.60938Q26.40625 169.1875 25.75 168.95312ZM24.046875 172.40625L24.046875 168.9375Q23.25 169.0 22.859375 169.32812Q22.25 169.84375 22.25 170.64062Q22.25 171.375 22.734375 171.875Q23.21875 172.35938 24.046875 172.40625ZM27.75 166.20312L21.53125 166.20312L21.53125 165.26562L22.40625 165.26562Q21.390625 164.57812 21.390625 163.28125Q21.390625 162.71875 21.59375 162.25Q21.796875 161.76562 22.125 161.53125Q22.453125 161.29688 22.890625 161.20312Q23.1875 161.15625 23.921875 161.15625L27.75 161.15625L27.75 162.20312L23.96875 162.20312Q23.3125 162.20312 23.0 162.32812Q22.6875 162.45312 22.5 162.76562Q22.296875 163.07812 22.296875 163.5Q22.296875 164.17188 22.734375 164.67188Q23.15625 165.15625 24.34375 165.15625L27.75 165.15625L27.75 166.20312ZM25.46875 155.14062L25.609375 154.10938Q26.671875 154.28125 27.28125 154.98438Q27.890625 155.6875 27.890625 156.70312Q27.890625 157.98438 27.0625 158.76562Q26.21875 159.53125 24.65625 159.53125Q23.65625 159.53125 22.90625 159.20312Q22.140625 158.85938 21.765625 158.1875Q21.390625 157.5 21.390625 156.6875Q21.390625 155.6875 21.90625 155.04688Q22.40625 154.39062 23.359375 154.20312L23.515625 155.23438Q22.890625 155.375 22.578125 155.75Q22.25 156.125 22.25 156.65625Q22.25 157.45312 22.828125 157.95312Q23.390625 158.45312 24.625 158.45312Q25.890625 158.45312 26.453125 157.96875Q27.015625 157.48438 27.015625 156.71875Q27.015625 156.09375 26.640625 155.6875Q26.265625 155.26562 25.46875 155.14062ZM30.140625 153.25L29.15625 153.375Q29.25 153.03125 29.25 152.76562Q29.25 152.42188 29.125 152.21875Q29.015625 152.0 28.8125 151.85938Q28.640625 151.76562 28.015625 151.53125Q27.9375 151.51562 27.765625 151.4375L21.53125 153.8125L21.53125 152.67188L25.125 151.375Q25.8125 151.125 26.578125 150.92188Q25.84375 150.73438 25.15625 150.48438L21.53125 149.15625L21.53125 148.10938L27.859375 150.46875Q28.875 150.85938 29.265625 151.0625Q29.796875 151.34375 30.03125 151.71875Q30.28125 152.07812 30.28125 152.57812Q30.28125 152.875 30.140625 153.25ZM30.28125 142.1875Q29.171875 143.0625 27.703125 143.67188Q26.21875 144.26562 24.640625 144.26562Q23.25 144.26562 21.96875 143.82812Q20.484375 143.29688 19.015625 142.1875L19.015625 141.4375Q20.234375 142.14062 20.75 142.375Q21.5625 142.73438 22.4375 142.9375Q23.53125 143.1875 24.640625 143.1875Q27.46875 143.1875 30.28125 141.4375L30.28125 142.1875ZM27.75 140.20312L21.53125 140.20312L21.53125 139.26562L22.40625 139.26562Q21.9375 138.96875 21.671875 138.48438Q21.390625 138.0 21.390625 137.375Q21.390625 136.6875 21.671875 136.25Q21.953125 135.79688 22.46875 135.625Q21.390625 134.875 21.390625 133.70312Q21.390625 132.76562 21.90625 132.28125Q22.40625 131.78125 23.484375 131.78125L27.75 131.78125L27.75 132.82812L23.828125 132.82812Q23.203125 132.82812 22.921875 132.9375Q22.640625 133.03125 22.46875 133.29688Q22.296875 133.5625 22.296875 133.9375Q22.296875 134.59375 22.734375 135.03125Q23.171875 135.45312 24.140625 135.45312L27.75 135.45312L27.75 136.51562L23.703125 136.51562Q23.0 136.51562 22.65625 136.78125Q22.296875 137.03125 22.296875 137.60938Q22.296875 138.0625 22.53125 138.4375Q22.765625 138.8125 23.21875 138.98438Q23.671875 139.15625 24.515625 139.15625L27.75 139.15625L27.75 140.20312ZM25.890625 130.625L25.734375 129.59375Q26.359375 129.5 26.6875 129.10938Q27.015625 128.70312 27.015625 127.96875Q27.015625 127.25 26.734375 126.90625Q26.4375 126.546875 26.03125 126.546875Q25.671875 126.546875 25.46875 126.859375Q25.328125 127.078125 25.109375 127.9375Q24.8125 129.09375 24.609375 129.54688Q24.390625 129.98438 24.015625 130.21875Q23.640625 130.45312 23.171875 130.45312Q22.765625 130.45312 22.40625 130.26562Q22.046875 130.07812 21.8125 129.75Q21.640625 129.5 21.515625 129.07812Q21.390625 128.65625 21.390625 128.15625Q21.390625 127.4375 21.609375 126.890625Q21.8125 126.328125 22.171875 126.0625Q22.53125 125.796875 23.125 125.703125L23.265625 126.734375Q22.796875 126.796875 22.53125 127.140625Q22.25 127.46875 22.25 128.09375Q22.25 128.8125 22.5 129.125Q22.734375 129.4375 23.0625 129.4375Q23.265625 129.4375 23.421875 129.3125Q23.59375 129.17188 23.703125 128.90625Q23.765625 128.75 23.96875 127.96875Q24.28125 126.84375 24.46875 126.40625Q24.65625 125.96875 25.015625 125.71875Q25.375 125.46875 25.921875 125.46875Q26.453125 125.46875 26.921875 125.78125Q27.375 126.078125 27.640625 126.65625Q27.890625 127.234375 27.890625 127.96875Q27.890625 129.1875 27.390625 129.82812Q26.875 130.45312 25.890625 130.625ZM25.75 119.953125L25.875 118.859375Q26.828125 119.109375 27.359375 119.8125Q27.890625 120.515625 27.890625 121.59375Q27.890625 122.953125 27.046875 123.765625Q26.203125 124.5625 24.6875 124.5625Q23.125 124.5625 22.265625 123.75Q21.390625 122.9375 21.390625 121.65625Q21.390625 120.40625 22.234375 119.625Q23.078125 118.828125 24.625 118.828125Q24.71875 118.828125 24.90625 118.828125L24.90625 123.46875Q25.9375 123.40625 26.484375 122.890625Q27.015625 122.375 27.015625 121.59375Q27.015625 121.015625 26.71875 120.609375Q26.40625 120.1875 25.75 119.953125ZM24.046875 123.40625L24.046875 119.9375Q23.25 120.0 22.859375 120.328125Q22.25 120.84375 22.25 121.640625Q22.25 122.375 22.734375 122.875Q23.21875 123.359375 24.046875 123.40625ZM25.46875 113.140625L25.609375 112.109375Q26.671875 112.28125 27.28125 112.984375Q27.890625 113.6875 27.890625 114.703125Q27.890625 115.984375 27.0625 116.765625Q26.21875 117.53125 24.65625 117.53125Q23.65625 117.53125 22.90625 117.203125Q22.140625 116.859375 21.765625 116.1875Q21.390625 115.5 21.390625 114.6875Q21.390625 113.6875 21.90625 113.046875Q22.40625 112.390625 23.359375 112.203125L23.515625 113.234375Q22.890625 113.375 22.578125 113.75Q22.25 114.125 22.25 114.65625Q22.25 115.453125 22.828125 115.953125Q23.390625 116.453125 24.625 116.453125Q25.890625 116.453125 26.453125 115.96875Q27.015625 115.484375 27.015625 114.71875Q27.015625 114.09375 26.640625 113.6875Q26.265625 113.265625 25.46875 113.140625ZM30.28125 110.515625L30.28125 111.265625Q27.46875 109.515625 24.640625 109.515625Q23.546875 109.515625 22.453125 109.765625Q21.578125 109.96875 20.765625 110.328125Q20.25 110.5625 19.015625 111.265625L19.015625 110.515625Q20.484375 109.421875 21.96875 108.890625Q23.25 108.4375 24.640625 108.4375Q26.21875 108.4375 27.703125 109.046875Q29.171875 109.65625 30.28125 110.515625Z" fill-rule="nonzero"/><path fill="#000000" d="M50.25 273.70844Q50.25 272.1772 50.5625 271.2553Q50.875 270.3178 51.484375 269.8178Q52.109375 269.3178 53.046875 269.3178Q53.734375 269.3178 54.25 269.59906Q54.78125 269.8803 55.125 270.41156Q55.46875 270.9272 55.65625 271.6772Q55.84375 272.4272 55.84375 273.70844Q55.84375 275.22406 55.53125 276.14594Q55.234375 277.0678 54.609375 277.58344Q54.0 278.08344 53.046875 278.08344Q51.8125 278.08344 51.09375 277.1928Q50.25 276.1303 50.25 273.70844ZM51.328125 273.70844Q51.328125 275.8178 51.828125 276.52094Q52.328125 277.22406 53.046875 277.22406Q53.78125 277.22406 54.265625 276.52094Q54.765625 275.8178 54.765625 273.70844Q54.765625 271.58344 54.265625 270.89594Q53.78125 270.1928 53.03125 270.1928Q52.3125 270.1928 51.875 270.8022Q51.328125 271.58344 51.328125 273.70844ZM57.84375 277.9428L57.84375 276.7397L59.046875 276.7397L59.046875 277.9428L57.84375 277.9428ZM63.625 277.9428L63.625 275.8803L59.90625 275.8803L59.90625 274.91156L63.828125 269.34906L64.6875 269.34906L64.6875 274.91156L65.84375 274.91156L65.84375 275.8803L64.6875 275.8803L64.6875 277.9428L63.625 277.9428ZM63.625 274.91156L63.625 271.0522L60.9375 274.91156L63.625 274.91156Z" fill-rule="nonzero"/><path fill="#000000" d="M50.25 226.97299Q50.25 225.44174 50.5625 224.51987Q50.875 223.58237 51.484375 223.08237Q52.109375 222.58237 53.046875 222.58237Q53.734375 222.58237 54.25 222.86362Q54.78125 223.14487 55.125 223.67612Q55.46875 224.19174 55.65625 224.94174Q55.84375 225.69174 55.84375 226.97299Q55.84375 228.48862 55.53125 229.41049Q55.234375 230.33237 54.609375 230.84799Q54.0 231.34799 53.046875 231.34799Q51.8125 231.34799 51.09375 230.45737Q50.25 229.39487 50.25 226.97299ZM51.328125 226.97299Q51.328125 229.08237 51.828125 229.78549Q52.328125 230.48862 53.046875 230.48862Q53.78125 230.48862 54.265625 229.78549Q54.765625 229.08237 54.765625 226.97299Q54.765625 224.84799 54.265625 224.16049Q53.78125 223.45737 53.03125 223.45737Q52.3125 223.45737 51.875 224.06674Q51.328125 224.84799 51.328125 226.97299ZM57.84375 231.20737L57.84375 230.00424L59.046875 230.00424L59.046875 231.20737L57.84375 231.20737ZM65.71875 224.72299L64.671875 224.80112Q64.53125 224.17612 64.28125 223.89487Q63.84375 223.44174 63.21875 223.44174Q62.71875 223.44174 62.328125 223.72299Q61.84375 224.09799 61.546875 224.80112Q61.265625 225.48862 61.25 226.76987Q61.625 226.19174 62.171875 225.91049Q62.734375 225.62924 63.34375 225.62924Q64.390625 225.62924 65.125 226.41049Q65.875 227.19174 65.875 228.41049Q65.875 229.22299 65.515625 229.92612Q65.171875 230.61362 64.5625 230.98862Q63.953125 231.34799 63.1875 231.34799Q61.859375 231.34799 61.03125 230.37924Q60.203125 229.41049 60.203125 227.19174Q60.203125 224.69174 61.125 223.56674Q61.921875 222.58237 63.28125 222.58237Q64.296875 222.58237 64.9375 223.16049Q65.59375 223.72299 65.71875 224.72299ZM61.421875 228.42612Q61.421875 228.97299 61.640625 229.47299Q61.875 229.95737 62.28125 230.22299Q62.703125 230.48862 63.171875 230.48862Q63.828125 230.48862 64.3125 229.95737Q64.796875 229.41049 64.796875 228.48862Q64.796875 227.59799 64.3125 227.08237Q63.84375 226.56674 63.125 226.56674Q62.40625 226.56674 61.90625 227.08237Q61.421875 227.59799 61.421875 228.42612Z" fill-rule="nonzero"/><path fill="#000000" d="M50.25 193.81367Q50.25 192.28242 50.5625 191.36055Q50.875 190.42305 51.484375 189.92305Q52.109375 189.42305 53.046875 189.42305Q53.734375 189.42305 54.25 189.7043Q54.78125 189.98555 55.125 190.5168Q55.46875 191.03242 55.65625 191.78242Q55.84375 192.53242 55.84375 193.81367Q55.84375 195.3293 55.53125 196.25117Q55.234375 197.17305 54.609375 197.68867Q54.0 198.18867 53.046875 198.18867Q51.8125 198.18867 51.09375 197.29805Q50.25 196.23555 50.25 193.81367ZM51.328125 193.81367Q51.328125 195.92305 51.828125 196.62617Q52.328125 197.3293 53.046875 197.3293Q53.78125 197.3293 54.265625 196.62617Q54.765625 195.92305 54.765625 193.81367Q54.765625 191.68867 54.265625 191.00117Q53.78125 190.29805 53.03125 190.29805Q52.3125 190.29805 51.875 190.90742Q51.328125 191.68867 51.328125 193.81367ZM57.84375 198.04805L57.84375 196.84492L59.046875 196.84492L59.046875 198.04805L57.84375 198.04805ZM61.875 193.3918Q61.21875 193.1418 60.890625 192.7043Q60.578125 192.25117 60.578125 191.6418Q60.578125 190.7043 61.25 190.06367Q61.9375 189.42305 63.046875 189.42305Q64.171875 189.42305 64.859375 190.0793Q65.546875 190.73555 65.546875 191.67305Q65.546875 192.2668 65.234375 192.7043Q64.921875 193.1418 64.28125 193.3918Q65.078125 193.6418 65.484375 194.21992Q65.890625 194.79805 65.890625 195.59492Q65.890625 196.68867 65.109375 197.43867Q64.34375 198.18867 63.0625 198.18867Q61.796875 198.18867 61.015625 197.43867Q60.234375 196.68867 60.234375 195.56367Q60.234375 194.71992 60.65625 194.15742Q61.09375 193.59492 61.875 193.3918ZM61.65625 191.59492Q61.65625 192.2043 62.046875 192.59492Q62.453125 192.98555 63.078125 192.98555Q63.6875 192.98555 64.078125 192.61055Q64.46875 192.21992 64.46875 191.65742Q64.46875 191.0793 64.0625 190.68867Q63.65625 190.28242 63.0625 190.28242Q62.453125 190.28242 62.046875 190.67305Q61.65625 191.06367 61.65625 191.59492ZM61.328125 195.56367Q61.328125 196.0168 61.53125 196.43867Q61.75 196.86055 62.171875 197.09492Q62.59375 197.3293 63.078125 197.3293Q63.828125 197.3293 64.3125 196.84492Q64.8125 196.36055 64.8125 195.61055Q64.8125 194.84492 64.3125 194.34492Q63.8125 193.84492 63.046875 193.84492Q62.296875 193.84492 61.8125 194.34492Q61.328125 194.8293 61.328125 195.56367Z" fill-rule="nonzero"/><path fill="#000000" d="M64.21875 172.32768L63.171875 172.32768L63.171875 165.60893Q62.78125 165.9683 62.15625 166.3433Q61.546875 166.70268 61.0625 166.87456L61.0625 165.85893Q61.9375 165.43706 62.59375 164.85893Q63.265625 164.26518 63.546875 163.70268L64.21875 163.70268L64.21875 172.32768Z" fill-rule="nonzero"/><path fill="#000000" d="M65.796875 91.41731L65.796875 92.43294L60.109375 92.43294Q60.109375 92.05794 60.234375 91.69856Q60.453125 91.12044 60.921875 90.55794Q61.40625 89.99544 62.3125 89.26106Q63.71875 88.10481 64.203125 87.43294Q64.703125 86.76106 64.703125 86.16731Q64.703125 85.54231 64.25 85.12044Q63.796875 84.68294 63.078125 84.68294Q62.3125 84.68294 61.859375 85.13606Q61.40625 85.58919 61.390625 86.40169L60.3125 86.29231Q60.421875 85.07356 61.140625 84.44856Q61.875 83.80794 63.109375 83.80794Q64.34375 83.80794 65.0625 84.49544Q65.78125 85.18294 65.78125 86.19856Q65.78125 86.71419 65.5625 87.21419Q65.359375 87.69856 64.859375 88.26106Q64.375 88.80794 63.25 89.76106Q62.296875 90.55794 62.015625 90.85481Q61.75 91.13606 61.578125 91.41731L65.796875 91.41731Z" fill-rule="nonzero"/><path fill="#000000" d="M70.96943 292.01562Q70.96943 290.48438 71.28193 289.5625Q71.59443 288.625 72.203804 288.125Q72.828804 287.625 73.766304 287.625Q74.453804 287.625 74.96943 287.90625Q75.50068 288.1875 75.84443 288.71875Q76.18818 289.23438 76.37568 289.98438Q76.56318 290.73438 76.56318 292.01562Q76.56318 293.53125 76.25068 294.45312Q75.953804 295.375 75.328804 295.89062Q74.71943 296.39062 73.766304 296.39062Q72.53193 296.39062 71.81318 295.5Q70.96943 294.4375 70.96943 292.01562ZM72.047554 292.01562Q72.047554 294.125 72.547554 294.82812Q73.047554 295.53125 73.766304 295.53125Q74.50068 295.53125 74.985054 294.82812Q75.485054 294.125 75.485054 292.01562Q75.485054 289.89062 74.985054 289.20312Q74.50068 288.5 73.75068 288.5Q73.03193 288.5 72.59443 289.10938Q72.047554 289.89062 72.047554 292.01562Z" fill-rule="nonzero"/><path fill="#000000" d="M177.851 292.01562Q177.851 290.48438 178.1635 289.5625Q178.476 288.625 179.08537 288.125Q179.71037 287.625 180.64787 287.625Q181.33537 287.625 181.851 287.90625Q182.38225 288.1875 182.726 288.71875Q183.06975 289.23438 183.25725 289.98438Q183.44475 290.73438 183.44475 292.01562Q183.44475 293.53125 183.13225 294.45312Q182.83537 295.375 182.21037 295.89062Q181.601 296.39062 180.64787 296.39062Q179.4135 296.39062 178.69475 295.5Q177.851 294.4375 177.851 292.01562ZM178.92912 292.01562Q178.92912 294.125 179.42912 294.82812Q179.92912 295.53125 180.64787 295.53125Q181.38225 295.53125 181.86662 294.82812Q182.36662 294.125 182.36662 292.01562Q182.36662 289.89062 181.86662 289.20312Q181.38225 288.5 180.63225 288.5Q179.9135 288.5 179.476 289.10938Q178.92912 289.89062 178.92912 292.01562ZM185.44475 296.25L185.44475 295.04688L186.64787 295.04688L186.64787 296.25L185.44475 296.25ZM193.39787 295.23438L193.39787 296.25L187.71037 296.25Q187.71037 295.875 187.83537 295.51562Q188.05412 294.9375 188.52287 294.375Q189.00725 293.8125 189.9135 293.07812Q191.31975 291.92188 191.80412 291.25Q192.30412 290.57812 192.30412 289.98438Q192.30412 289.35938 191.851 288.9375Q191.39787 288.5 190.67912 288.5Q189.9135 288.5 189.46037 288.95312Q189.00725 289.40625 188.99162 290.21875L187.9135 290.10938Q188.02287 288.89062 188.74162 288.26562Q189.476 287.625 190.71037 287.625Q191.94475 287.625 192.6635 288.3125Q193.38225 289.0 193.38225 290.01562Q193.38225 290.53125 193.1635 291.03125Q192.96037 291.51562 192.46037 292.07812Q191.976 292.625 190.851 293.57812Q189.89787 294.375 189.61662 294.67188Q189.351 294.95312 189.17912 295.23438L193.39787 295.23438Z" fill-rule="nonzero"/><path fill="#000000" d="M289.73257 292.01562Q289.73257 290.48438 290.04507 289.5625Q290.35757 288.625 290.96695 288.125Q291.59195 287.625 292.52945 287.625Q293.21695 287.625 293.73257 287.90625Q294.26382 288.1875 294.60757 288.71875Q294.95132 289.23438 295.13882 289.98438Q295.32632 290.73438 295.32632 292.01562Q295.32632 293.53125 295.01382 294.45312Q294.71695 295.375 294.09195 295.89062Q293.48257 296.39062 292.52945 296.39062Q291.29507 296.39062 290.57632 295.5Q289.73257 294.4375 289.73257 292.01562ZM290.8107 292.01562Q290.8107 294.125 291.3107 294.82812Q291.8107 295.53125 292.52945 295.53125Q293.26382 295.53125 293.7482 294.82812Q294.2482 294.125 294.2482 292.01562Q294.2482 289.89062 293.7482 289.20312Q293.26382 288.5 292.51382 288.5Q291.79507 288.5 291.35757 289.10938Q290.8107 289.89062 290.8107 292.01562ZM297.32632 296.25L297.32632 295.04688L298.52945 295.04688L298.52945 296.25L297.32632 296.25ZM303.10757 296.25L303.10757 294.1875L299.38882 294.1875L299.38882 293.21875L303.3107 287.65625L304.17007 287.65625L304.17007 293.21875L305.32632 293.21875L305.32632 294.1875L304.17007 294.1875L304.17007 296.25L303.10757 296.25ZM303.10757 293.21875L303.10757 289.35938L300.42007 293.21875L303.10757 293.21875Z" fill-rule="nonzero"/><path fill="#000000" d="M401.61414 292.01562Q401.61414 290.48438 401.92664 289.5625Q402.23914 288.625 402.8485 288.125Q403.4735 287.625 404.411 287.625Q405.0985 287.625 405.61414 287.90625Q406.1454 288.1875 406.48914 288.71875Q406.8329 289.23438 407.0204 289.98438Q407.2079 290.73438 407.2079 292.01562Q407.2079 293.53125 406.8954 294.45312Q406.5985 295.375 405.9735 295.89062Q405.36414 296.39062 404.411 296.39062Q403.17664 296.39062 402.4579 295.5Q401.61414 294.4375 401.61414 292.01562ZM402.69226 292.01562Q402.69226 294.125 403.19226 294.82812Q403.69226 295.53125 404.411 295.53125Q405.1454 295.53125 405.62976 294.82812Q406.12976 294.125 406.12976 292.01562Q406.12976 289.89062 405.62976 289.20312Q405.1454 288.5 404.3954 288.5Q403.67664 288.5 403.23914 289.10938Q402.69226 289.89062 402.69226 292.01562ZM409.2079 296.25L409.2079 295.04688L410.411 295.04688L410.411 296.25L409.2079 296.25ZM417.0829 289.76562L416.036 289.84375Q415.8954 289.21875 415.6454 288.9375Q415.2079 288.48438 414.5829 288.48438Q414.0829 288.48438 413.69226 288.76562Q413.2079 289.14062 412.911 289.84375Q412.62976 290.53125 412.61414 291.8125Q412.98914 291.23438 413.536 290.95312Q414.0985 290.67188 414.7079 290.67188Q415.75476 290.67188 416.48914 291.45312Q417.23914 292.23438 417.23914 293.45312Q417.23914 294.26562 416.87976 294.96875Q416.536 295.65625 415.92664 296.03125Q415.31726 296.39062 414.55164 296.39062Q413.2235 296.39062 412.3954 295.42188Q411.56726 294.45312 411.56726 292.23438Q411.56726 289.73438 412.48914 288.60938Q413.286 287.625 414.6454 287.625Q415.661 287.625 416.30164 288.20312Q416.9579 288.76562 417.0829 289.76562ZM412.786 293.46875Q412.786 294.01562 413.00476 294.51562Q413.23914 295.0 413.6454 295.26562Q414.06726 295.53125 414.536 295.53125Q415.19226 295.53125 415.67664 295.0Q416.161 294.45312 416.161 293.53125Q416.161 292.64062 415.67664 292.125Q415.2079 291.60938 414.48914 291.60938Q413.7704 291.60938 413.2704 292.125Q412.786 292.64062 412.786 293.46875Z" fill-rule="nonzero"/><path fill="#000000" d="M513.4957 292.01562Q513.4957 290.48438 513.8082 289.5625Q514.1207 288.625 514.7301 288.125Q515.3551 287.625 516.2926 287.625Q516.9801 287.625 517.4957 287.90625Q518.027 288.1875 518.3707 288.71875Q518.7145 289.23438 518.902 289.98438Q519.0895 290.73438 519.0895 292.01562Q519.0895 293.53125 518.777 294.45312Q518.4801 295.375 517.8551 295.89062Q517.2457 296.39062 516.2926 296.39062Q515.0582 296.39062 514.3395 295.5Q513.4957 294.4375 513.4957 292.01562ZM514.57385 292.01562Q514.57385 294.125 515.07385 294.82812Q515.57385 295.53125 516.2926 295.53125Q517.027 295.53125 517.51135 294.82812Q518.01135 294.125 518.01135 292.01562Q518.01135 289.89062 517.51135 289.20312Q517.027 288.5 516.277 288.5Q515.5582 288.5 515.1207 289.10938Q514.57385 289.89062 514.57385 292.01562ZM521.0895 296.25L521.0895 295.04688L522.2926 295.04688L522.2926 296.25L521.0895 296.25ZM525.1207 291.59375Q524.4645 291.34375 524.13635 290.90625Q523.82385 290.45312 523.82385 289.84375Q523.82385 288.90625 524.4957 288.26562Q525.1832 287.625 526.2926 287.625Q527.4176 287.625 528.1051 288.28125Q528.7926 288.9375 528.7926 289.875Q528.7926 290.46875 528.4801 290.90625Q528.1676 291.34375 527.527 291.59375Q528.32385 291.84375 528.7301 292.42188Q529.13635 293.0 529.13635 293.79688Q529.13635 294.89062 528.3551 295.64062Q527.5895 296.39062 526.3082 296.39062Q525.0426 296.39062 524.26135 295.64062Q523.4801 294.89062 523.4801 293.76562Q523.4801 292.92188 523.902 292.35938Q524.3395 291.79688 525.1207 291.59375ZM524.902 289.79688Q524.902 290.40625 525.2926 290.79688Q525.69885 291.1875 526.32385 291.1875Q526.9332 291.1875 527.32385 290.8125Q527.7145 290.42188 527.7145 289.85938Q527.7145 289.28125 527.3082 288.89062Q526.902 288.48438 526.3082 288.48438Q525.69885 288.48438 525.2926 288.875Q524.902 289.26562 524.902 289.79688ZM524.57385 293.76562Q524.57385 294.21875 524.777 294.64062Q524.9957 295.0625 525.4176 295.29688Q525.8395 295.53125 526.32385 295.53125Q527.07385 295.53125 527.5582 295.04688Q528.0582 294.5625 528.0582 293.8125Q528.0582 293.04688 527.5582 292.54688Q527.0582 292.04688 526.2926 292.04688Q525.5426 292.04688 525.0582 292.54688Q524.57385 293.03125 524.57385 293.76562Z" fill-rule="nonzero"/></svg>