<svg version="1.1" viewBox="0.0 0.0 600.0 315.0" fill="none" stroke="none" stroke-linecap="square" stroke-miterlimit="10" width="600" height="315" xmlns:xlink="http://www.w3.org/1999/xlink" xmlns="http://www.w3.org/2000/svg"><path fill="#ffffff" d="M0 0L600.0 0L600.0 315.0L0 315.0L0 0Z" fill-rule="nonzero"/><path stroke="#333333" stroke-width="1.0" stroke-linecap="butt" d="M43.5 22.5L43.5 279.5" fill-rule="nonzero"/><path stroke="#cccccc" stroke-width="1.0" stroke-linecap="butt" d="M162.5 22.5L162.5 279.5" fill-rule="nonzero"/><path stroke="#cccccc" stroke-width="1.0" stroke-linecap="butt" d="M280.5 22.5L280.5 279.5" fill-rule="nonzero"/><path stroke="#cccccc" stroke-width="1.0" stroke-linecap="butt" d="M399.5 22.5L399.5 279.5" fill-rule="nonzero"/><path stroke="#cccccc" stroke-width="1.0" stroke-linecap="butt" d="M518.5 22.5L518.5 279.5" fill-rule="nonzero"/><path stroke="#cccccc" stroke-width="1.0" stroke-linecap="butt" d="M42.5 275.5L584.5 275.5" fill-rule="nonzero"/><path stroke="#cccccc" stroke-width="1.0" stroke-linecap="butt" d="M42.5 183.5L584.5 183.5" fill-rule="nonzero"/><path stroke="#cccccc" stroke-width="1.0" stroke-linecap="butt" d="M42.5 144.5L584.5 144.5" fill-rule="nonzero"/><path stroke="#cccccc" stroke-width="1.0" stroke-linecap="butt" d="M42.5 53.5L584.5 53.5" fill-rule="nonzero"/><clipPath id="id_0"><path d="M42.75 22.75L584.25 22.75L584.25 279.25L42.75 279.25L42.75 22.75Z" clip-rule="nonzero"/></clipPath><path stroke="#fbbc04" stroke-width="2.0" stroke-linecap="butt" clip-path="url(#id_0)" d="M49.57358 171.61397L73.2973 134.77827L102.95196 93.187874L162.26126 80.14658L221.57057 73.85427L280.87988 73.19645L340.18918 73.19645L399.4985 72.54618L458.8078 72.54618L518.1171 60.3768L577.4264 22.75" fill-rule="nonzero"/><path stroke="#34a853" stroke-width="2.0" stroke-linecap="butt" clip-path="url(#id_0)" d="M49.57358 279.25L73.2973 245.78111L102.95196 233.41704L162.26126 218.81525L221.57057 199.28442L280.87988 180.68495L340.18918 163.1934L399.4985 154.30103L458.8078 140.38914L518.1171 100.64239L577.4264 91.35541" fill-rule="nonzero"/><path stroke="#4285f4" stroke-width="2.0" stroke-linecap="butt" clip-path="url(#id_0)" d="M49.57358 271.9402L73.2973 244.92395L102.95196 132.86847L162.26126 89.79929L221.57057 88.928925L280.87988 88.928925L340.18918 88.928925L399.4985 88.928925L458.8078 88.928925L518.1171 88.928925L577.4264 86.39541" fill-rule="nonzero"/><path fill="#fbbc04" clip-path="url(#id_0)" d="M54.07358 171.61397C54.07358 174.09926 52.058865 176.11397 49.57358 176.11397C47.088303 176.11397 45.07358 174.09926 45.07358 171.61397C45.07358 169.1287 47.088303 167.11397 49.57358 167.11397C52.058865 167.11397 54.07358 169.1287 54.07358 171.61397Z" fill-rule="nonzero"/><path fill="#fbbc04" clip-path="url(#id_0)" d="M77.7973 134.77827C77.7973 137.26355 75.782585 139.27827 73.2973 139.27827C70.81203 139.27827 68.7973 137.26355 68.7973 134.77827C68.7973 132.29298 70.81203 130.27827 73.2973 130.27827C75.782585 130.27827 77.7973 132.29298 77.7973 134.77827Z" fill-rule="nonzero"/><path fill="#fbbc04" clip-path="url(#id_0)" d="M107.45196 93.187874C107.45196 95.67316 105.43724 97.687874 102.95196 97.687874C100.466675 97.687874 98.45196 95.67316 98.45196 93.187874C98.45196 90.70259 100.466675 88.687874 102.95196 88.687874C105.43724 88.687874 107.45196 90.70259 107.45196 93.187874Z" fill-rule="nonzero"/><path fill="#fbbc04" clip-path="url(#id_0)" d="M166.76126 80.14658C166.76126 82.63187 164.74655 84.64658 162.26126 84.64658C159.77599 84.64658 157.76126 82.63187 157.76126 80.14658C157.76126 77.6613 159.77599 75.64658 162.26126 75.64658C164.74655 75.64658 166.76126 77.6613 166.76126 80.14658Z" fill-rule="nonzero"/><path fill="#fbbc04" clip-path="url(#id_0)" d="M226.07057 73.85427C226.07057 76.339554 224.05586 78.35427 221.57057 78.35427C219.0853 78.35427 217.07057 76.339554 217.07057 73.85427C217.07057 71.368996 219.0853 69.35427 221.57057 69.35427C224.05586 69.35427 226.07057 71.368996 226.07057 73.85427Z" fill-rule="nonzero"/><path fill="#fbbc04" clip-path="url(#id_0)" d="M285.37988 73.19645C285.37988 75.68173 283.36517 77.69645 280.87988 77.69645C278.3946 77.69645 276.37988 75.68173 276.37988 73.19645C276.37988 70.71117 278.3946 68.69645 280.87988 68.69645C283.36517 68.69645 285.37988 70.71117 285.37988 73.19645Z" fill-rule="nonzero"/><path fill="#fbbc04" clip-path="url(#id_0)" d="M344.68918 73.19645C344.68918 75.68173 342.67447 77.69645 340.18918 77.69645C337.70392 77.69645 335.68918 75.68173 335.68918 73.19645C335.68918 70.71117 337.70392 68.69645 340.18918 68.69645C342.67447 68.69645 344.68918 70.71117 344.68918 73.19645Z" fill-rule="nonzero"/><path fill="#fbbc04" clip-path="url(#id_0)" d="M403.9985 72.54618C403.9985 75.03146 401.98376 77.04618 399.4985 77.04618C397.0132 77.04618 394.9985 75.03146 394.9985 72.54618C394.9985 70.0609 397.0132 68.04618 399.4985 68.04618C401.98376 68.04618 403.9985 70.0609 403.9985 72.54618Z" fill-rule="nonzero"/><path fill="#fbbc04" clip-path="url(#id_0)" d="M463.3078 72.54618C463.3078 75.03146 461.2931 77.04618 458.8078 77.04618C456.3225 77.04618 454.3078 75.03146 454.3078 72.54618C454.3078 70.0609 456.3225 68.04618 458.8078 68.04618C461.2931 68.04618 463.3078 70.0609 463.3078 72.54618Z" fill-rule="nonzero"/><path fill="#fbbc04" clip-path="url(#id_0)" d="M522.6171 60.3768C522.6171 62.86208 520.6024 64.8768 518.1171 64.8768C515.63184 64.8768 513.6171 62.86208 513.6171 60.3768C513.6171 57.891518 515.63184 55.8768 518.1171 55.8768C520.6024 55.8768 522.6171 57.891518 522.6171 60.3768Z" fill-rule="nonzero"/><path fill="#fbbc04" clip-path="url(#id_0)" d="M581.9264 22.75C581.9264 25.235281 579.9117 27.25 577.4264 27.25C574.94116 27.25 572.9264 25.235281 572.9264 22.75C572.9264 20.264719 574.94116 18.25 577.4264 18.25C579.9117 18.25 581.9264 20.264719 581.9264 22.75Z" fill-rule="nonzero"/><path fill="#34a853" clip-path="url(#id_0)" d="M54.07358 279.25C54.07358 281.7353 52.058865 283.75 49.57358 283.75C47.088303 283.75 45.07358 281.7353 45.07358 279.25C45.07358 276.7647 47.088303 274.75 49.57358 274.75C52.058865 274.75 54.07358 276.7647 54.07358 279.25Z" fill-rule="nonzero"/><path fill="#34a853" clip-path="url(#id_0)" d="M77.7973 245.78111C77.7973 248.2664 75.782585 250.28111 73.2973 250.28111C70.81203 250.28111 68.7973 248.2664 68.7973 245.78111C68.7973 243.29584 70.81203 241.28111 73.2973 241.28111C75.782585 241.28111 77.7973 243.29584 77.7973 245.78111Z" fill-rule="nonzero"/><path fill="#34a853" clip-path="url(#id_0)" d="M107.45196 233.41704C107.45196 235.90233 105.43724 237.91704 102.95196 237.91704C100.466675 237.91704 98.45196 235.90233 98.45196 233.41704C98.45196 230.93176 100.466675 228.91704 102.95196 228.91704C105.43724 228.91704 107.45196 230.93176 107.45196 233.41704Z" fill-rule="nonzero"/><path fill="#34a853" clip-path="url(#id_0)" d="M166.76126 218.81525C166.76126 221.30052 164.74655 223.31525 162.26126 223.31525C159.77599 223.31525 157.76126 221.30052 157.76126 218.81525C157.76126 216.32996 159.77599 214.31525 162.26126 214.31525C164.74655 214.31525 166.76126 216.32996 166.76126 218.81525Z" fill-rule="nonzero"/><path fill="#34a853" clip-path="url(#id_0)" d="M226.07057 199.28442C226.07057 201.7697 224.05586 203.78442 221.57057 203.78442C219.0853 203.78442 217.07057 201.7697 217.07057 199.28442C217.07057 196.79915 219.0853 194.78442 221.57057 194.78442C224.05586 194.78442 226.07057 196.79915 226.07057 199.28442Z" fill-rule="nonzero"/><path fill="#34a853" clip-path="url(#id_0)" d="M285.37988 180.68495C285.37988 183.17023 283.36517 185.18495 280.87988 185.18495C278.3946 185.18495 276.37988 183.17023 276.37988 180.68495C276.37988 178.19968 278.3946 176.18495 280.87988 176.18495C283.36517 176.18495 285.37988 178.19968 285.37988 180.68495Z" fill-rule="nonzero"/><path fill="#34a853" clip-path="url(#id_0)" d="M344.68918 163.1934C344.68918 165.67868 342.67447 167.6934 340.18918 167.6934C337.70392 167.6934 335.68918 165.67868 335.68918 163.1934C335.68918 160.70813 337.70392 158.6934 340.18918 158.6934C342.67447 158.6934 344.68918 160.70813 344.68918 163.1934Z" fill-rule="nonzero"/><path fill="#34a853" clip-path="url(#id_0)" d="M403.9985 154.30103C403.9985 156.78632 401.98376 158.80103 399.4985 158.80103C397.0132 158.80103 394.9985 156.78632 394.9985 154.30103C394.9985 151.81575 397.0132 149.80103 399.4985 149.80103C401.98376 149.80103 403.9985 151.81575 403.9985 154.30103Z" fill-rule="nonzero"/><path fill="#34a853" clip-path="url(#id_0)" d="M463.3078 140.38914C463.3078 142.87442 461.2931 144.88914 458.8078 144.88914C456.3225 144.88914 454.3078 142.87442 454.3078 140.38914C454.3078 137.90387 456.3225 135.88914 458.8078 135.88914C461.2931 135.88914 463.3078 137.90387 463.3078 140.38914Z" fill-rule="nonzero"/><path fill="#34a853" clip-path="url(#id_0)" d="M522.6171 100.64239C522.6171 103.12767 520.6024 105.14239 518.1171 105.14239C515.63184 105.14239 513.6171 103.12767 513.6171 100.64239C513.6171 98.157104 515.63184 96.14239 518.1171 96.14239C520.6024 96.14239 522.6171 98.157104 522.6171 100.64239Z" fill-rule="nonzero"/><path fill="#34a853" clip-path="url(#id_0)" d="M581.9264 91.35541C581.9264 93.84069 579.9117 95.85541 577.4264 95.85541C574.94116 95.85541 572.9264 93.84069 572.9264 91.35541C572.9264 88.870125 574.94116 86.85541 577.4264 86.85541C579.9117 86.85541 581.9264 88.870125 581.9264 91.35541Z" fill-rule="nonzero"/><path fill="#4285f4" clip-path="url(#id_0)" d="M54.07358 271.9402C54.07358 274.42545 52.058865 276.4402 49.57358 276.4402C47.088303 276.4402 45.07358 274.42545 45.07358 271.9402C45.07358 269.4549 47.088303 267.4402 49.57358 267.4402C52.058865 267.4402 54.07358 269.4549 54.07358 271.9402Z" fill-rule="nonzero"/><path fill="#4285f4" clip-path="url(#id_0)" d="M77.7973 244.92395C77.7973 247.40923 75.782585 249.42395 73.2973 249.42395C70.81203 249.42395 68.7973 247.40923 68.7973 244.92395C68.7973 242.43866 70.81203 240.42395 73.2973 240.42395C75.782585 240.42395 77.7973 242.43866 77.7973 244.92395Z" fill-rule="nonzero"/><path fill="#4285f4" clip-path="url(#id_0)" d="M107.45196 132.86847C107.45196 135.35374 105.43724 137.36847 102.95196 137.36847C100.466675 137.36847 98.45196 135.35374 98.45196 132.86847C98.45196 130.38318 100.466675 128.36847 102.95196 128.36847C105.43724 128.36847 107.45196 130.38318 107.45196 132.86847Z" fill-rule="nonzero"/><path fill="#4285f4" clip-path="url(#id_0)" d="M166.76126 89.79929C166.76126 92.28457 164.74655 94.29929 162.26126 94.29929C159.77599 94.29929 157.76126 92.28457 157.76126 89.79929C157.76126 87.31401 159.77599 85.29929 162.26126 85.29929C164.74655 85.29929 166.76126 87.31401 166.76126 89.79929Z" fill-rule="nonzero"/><path fill="#4285f4" clip-path="url(#id_0)" d="M226.07057 88.928925C226.07057 91.41421 224.05586 93.428925 221.57057 93.428925C219.0853 93.428925 217.07057 91.41421 217.07057 88.928925C217.07057 86.44365 219.0853 84.428925 221.57057 84.428925C224.05586 84.428925 226.07057 86.44365 226.07057 88.928925Z" fill-rule="nonzero"/><path fill="#4285f4" clip-path="url(#id_0)" d="M285.37988 88.928925C285.37988 91.41421 283.36517 93.428925 280.87988 93.428925C278.3946 93.428925 276.37988 91.41421 276.37988 88.928925C276.37988 86.44365 278.3946 84.428925 280.87988 84.428925C283.36517 84.428925 285.37988 86.44365 285.37988 88.928925Z" fill-rule="nonzero"/><path fill="#4285f4" clip-path="url(#id_0)" d="M344.68918 88.928925C344.68918 91.41421 342.67447 93.428925 340.18918 93.428925C337.70392 93.428925 335.68918 91.41421 335.68918 88.928925C335.68918 86.44365 337.70392 84.428925 340.18918 84.428925C342.67447 84.428925 344.68918 86.44365 344.68918 88.928925Z" fill-rule="nonzero"/><path fill="#4285f4" clip-path="url(#id_0)" d="M403.9985 88.928925C403.9985 91.41421 401.98376 93.428925 399.4985 93.428925C397.0132 93.428925 394.9985 91.41421 394.9985 88.928925C394.9985 86.44365 397.0132 84.428925 399.4985 84.428925C401.98376 84.428925 403.9985 86.44365 403.9985 88.928925Z" fill-rule="nonzero"/><path fill="#4285f4" clip-path="url(#id_0)" d="M463.3078 88.928925C463.3078 91.41421 461.2931 93.428925 458.8078 93.428925C456.3225 93.428925 454.3078 91.41421 454.3078 88.928925C454.3078 86.44365 456.3225 84.428925 458.8078 84.428925C461.2931 84.428925 463.3078 86.44365 463.3078 88.928925Z" fill-rule="nonzero"/><path fill="#4285f4" clip-path="url(#id_0)" d="M522.6171 88.928925C522.6171 91.41421 520.6024 93.428925 518.1171 93.428925C515.63184 93.428925 513.6171 91.41421 513.6171 88.928925C513.6171 86.44365 515.63184 84.428925 518.1171 84.428925C520.6024 84.428925 522.6171 86.44365 522.6171 88.928925Z" fill-rule="nonzero"/><path fill="#4285f4" clip-path="url(#id_0)" d="M581.9264 86.39541C581.9264 88.88069 579.9117 90.89541 577.4264 90.89541C574.94116 90.89541 572.9264 88.88069 572.9264 86.39541C572.9264 83.910126 574.94116 81.89541 577.4264 81.89541C579.9117 81.89541 581.9264 83.910126 581.9264 86.39541Z" fill-rule="nonzero"/><path fill="#000000" d="M27.21875 279.0227L26.171875 279.0227L26.171875 272.30396Q25.78125 272.66333 25.15625 273.03833Q24.546875 273.3977 24.0625 273.56958L24.0625 272.55396Q24.9375 272.13208 25.59375 271.55396Q26.265625 270.9602 26.546875 270.3977L27.21875 270.3977L27.21875 279.0227ZM30.25 274.78833Q30.25 273.25708 30.5625 272.3352Q30.875 271.3977 31.484375 270.8977Q32.109375 270.3977 33.046875 270.3977Q33.734375 270.3977 34.25 270.67896Q34.78125 270.9602 35.125 271.49146Q35.46875 272.00708 35.65625 272.75708Q35.84375 273.50708 35.84375 274.78833Q35.84375 276.30396 35.53125 277.22583Q35.234375 278.1477 34.609375 278.66333Q34.0 279.16333 33.046875 279.16333Q31.8125 279.16333 31.09375 278.2727Q30.25 277.2102 30.25 274.78833ZM31.328125 274.78833Q31.328125 276.8977 31.828125 277.60083Q32.328125 278.30396 33.046875 278.30396Q33.78125 278.30396 34.265625 277.60083Q34.765625 276.8977 34.765625 274.78833Q34.765625 272.66333 34.265625 271.97583Q33.78125 271.2727 33.03125 271.2727Q32.3125 271.2727 31.875 271.88208Q31.328125 272.66333 31.328125 274.78833Z" fill-rule="nonzero"/><path fill="#000000" d="M23.25 185.72282L24.359375 185.62907Q24.484375 186.44157 24.921875 186.84782Q25.375 187.25407 26.015625 187.25407Q26.765625 187.25407 27.296875 186.67595Q27.828125 186.09782 27.828125 185.16032Q27.828125 184.25407 27.3125 183.73845Q26.8125 183.2072 25.984375 183.2072Q25.484375 183.2072 25.0625 183.44157Q24.65625 183.67595 24.421875 184.03532L23.4375 183.91032L24.265625 179.50407L28.546875 179.50407L28.546875 180.50407L25.109375 180.50407L24.65625 182.81657Q25.421875 182.2697 26.265625 182.2697Q27.390625 182.2697 28.15625 183.05095Q28.9375 183.8322 28.9375 185.06657Q28.9375 186.22282 28.265625 187.0822Q27.4375 188.11345 26.015625 188.11345Q24.84375 188.11345 24.09375 187.4572Q23.359375 186.80095 23.25 185.72282ZM30.25 183.73845Q30.25 182.2072 30.5625 181.28532Q30.875 180.34782 31.484375 179.84782Q32.109375 179.34782 33.046875 179.34782Q33.734375 179.34782 34.25 179.62907Q34.78125 179.91032 35.125 180.44157Q35.46875 180.9572 35.65625 181.7072Q35.84375 182.4572 35.84375 183.73845Q35.84375 185.25407 35.53125 186.17595Q35.234375 187.09782 34.609375 187.61345Q34.0 188.11345 33.046875 188.11345Q31.8125 188.11345 31.09375 187.22282Q30.25 186.16032 30.25 183.73845ZM31.328125 183.73845Q31.328125 185.84782 31.828125 186.55095Q32.328125 187.25407 33.046875 187.25407Q33.78125 187.25407 34.265625 186.55095Q34.765625 185.84782 34.765625 183.73845Q34.765625 181.61345 34.265625 180.92595Q33.78125 180.22282 33.03125 180.22282Q32.3125 180.22282 31.875 180.8322Q31.328125 181.61345 31.328125 183.73845Z" fill-rule="nonzero"/><path fill="#000000" d="M20.21875 148.75978L19.171875 148.75978L19.171875 142.04103Q18.78125 142.4004 18.15625 142.7754Q17.546875 143.13478 17.0625 143.30666L17.0625 142.29103Q17.9375 141.86916 18.59375 141.29103Q19.265625 140.69728 19.546875 140.13478L20.21875 140.13478L20.21875 148.75978ZM23.25 144.5254Q23.25 142.99416 23.5625 142.07228Q23.875 141.13478 24.484375 140.63478Q25.109375 140.13478 26.046875 140.13478Q26.734375 140.13478 27.25 140.41603Q27.78125 140.69728 28.125 141.22853Q28.46875 141.74416 28.65625 142.49416Q28.84375 143.24416 28.84375 144.5254Q28.84375 146.04103 28.53125 146.9629Q28.234375 147.88478 27.609375 148.4004Q27.0 148.9004 26.046875 148.9004Q24.8125 148.9004 24.09375 148.00978Q23.25 146.94728 23.25 144.5254ZM24.328125 144.5254Q24.328125 146.63478 24.828125 147.3379Q25.328125 148.04103 26.046875 148.04103Q26.78125 148.04103 27.265625 147.3379Q27.765625 146.63478 27.765625 144.5254Q27.765625 142.4004 27.265625 141.7129Q26.78125 141.00978 26.03125 141.00978Q25.3125 141.00978 24.875 141.61916Q24.328125 142.4004 24.328125 144.5254ZM30.25 144.5254Q30.25 142.99416 30.5625 142.07228Q30.875 141.13478 31.484375 140.63478Q32.109375 140.13478 33.046875 140.13478Q33.734375 140.13478 34.25 140.41603Q34.78125 140.69728 35.125 141.22853Q35.46875 141.74416 35.65625 142.49416Q35.84375 143.24416 35.84375 144.5254Q35.84375 146.04103 35.53125 146.9629Q35.234375 147.88478 34.609375 148.4004Q34.0 148.9004 33.046875 148.9004Q31.8125 148.9004 31.09375 148.00978Q30.25 146.94728 30.25 144.5254ZM31.328125 144.5254Q31.328125 146.63478 31.828125 147.3379Q32.328125 148.04103 33.046875 148.04103Q33.78125 148.04103 34.265625 147.3379Q34.765625 146.63478 34.765625 144.5254Q34.765625 142.4004 34.265625 141.7129Q33.78125 141.00978 33.03125 141.00978Q32.3125 141.00978 31.875 141.61916Q31.328125 142.4004 31.328125 144.5254Z" fill-rule="nonzero"/><path fill="#000000" d="M16.25 55.459904L17.359375 55.366154Q17.484375 56.178654 17.921875 56.584904Q18.375 56.991154 19.015625 56.991154Q19.765625 56.991154 20.296875 56.41303Q20.828125 55.834904 20.828125 54.897404Q20.828125 53.991154 20.3125 53.47553Q19.8125 52.94428 18.984375 52.94428Q18.484375 52.94428 18.0625 53.178654Q17.65625 53.41303 17.421875 53.772404L16.4375 53.647404L17.265625 49.241154L21.546875 49.241154L21.546875 50.241154L18.109375 50.241154L17.65625 52.553654Q18.421875 52.00678 19.265625 52.00678Q20.390625 52.00678 21.15625 52.78803Q21.9375 53.56928 21.9375 54.803654Q21.9375 55.959904 21.265625 56.81928Q20.4375 57.85053 19.015625 57.85053Q17.84375 57.85053 17.09375 57.19428Q16.359375 56.53803 16.25 55.459904ZM23.25 53.47553Q23.25 51.94428 23.5625 51.022404Q23.875 50.084904 24.484375 49.584904Q25.109375 49.084904 26.046875 49.084904Q26.734375 49.084904 27.25 49.366154Q27.78125 49.647404 28.125 50.178654Q28.46875 50.69428 28.65625 51.44428Q28.84375 52.19428 28.84375 53.47553Q28.84375 54.991154 28.53125 55.91303Q28.234375 56.834904 27.609375 57.35053Q27.0 57.85053 26.046875 57.85053Q24.8125 57.85053 24.09375 56.959904Q23.25 55.897404 23.25 53.47553ZM24.328125 53.47553Q24.328125 55.584904 24.828125 56.28803Q25.328125 56.991154 26.046875 56.991154Q26.78125 56.991154 27.265625 56.28803Q27.765625 55.584904 27.765625 53.47553Q27.765625 51.35053 27.265625 50.66303Q26.78125 49.959904 26.03125 49.959904Q25.3125 49.959904 24.875 50.56928Q24.328125 51.35053 24.328125 53.47553ZM30.25 53.47553Q30.25 51.94428 30.5625 51.022404Q30.875 50.084904 31.484375 49.584904Q32.109375 49.084904 33.046875 49.084904Q33.734375 49.084904 34.25 49.366154Q34.78125 49.647404 35.125 50.178654Q35.46875 50.69428 35.65625 51.44428Q35.84375 52.19428 35.84375 53.47553Q35.84375 54.991154 35.53125 55.91303Q35.234375 56.834904 34.609375 57.35053Q34.0 57.85053 33.046875 57.85053Q31.8125 57.85053 31.09375 56.959904Q30.25 55.897404 30.25 53.47553ZM31.328125 53.47553Q31.328125 55.584904 31.828125 56.28803Q32.328125 56.991154 33.046875 56.991154Q33.78125 56.991154 34.265625 56.28803Q34.765625 55.584904 34.765625 53.47553Q34.765625 51.35053 34.265625 50.66303Q33.78125 49.959904 33.03125 49.959904Q32.3125 49.959904 31.875 50.56928Q31.328125 51.35053 31.328125 53.47553Z" fill-rule="nonzero"/><path fill="#000000" d="M40.64265 292.01562Q40.64265 290.48438 40.95515 289.5625Q41.26765 288.625 41.877026 288.125Q42.502026 287.625 43.439526 287.625Q44.127026 287.625 44.64265 287.90625Q45.1739 288.1875 45.51765 288.71875Q45.8614 289.23438 46.0489 289.98438Q46.2364 290.73438 46.2364 292.01562Q46.2364 293.53125 45.9239 294.45312Q45.627026 295.375 45.002026 295.89062Q44.39265 296.39062 43.439526 296.39062Q42.20515 296.39062 41.4864 295.5Q40.64265 294.4375 40.64265 292.01562ZM41.720776 292.01562Q41.720776 294.125 42.220776 294.82812Q42.720776 295.53125 43.439526 295.53125Q44.1739 295.53125 44.658276 294.82812Q45.158276 294.125 45.158276 292.01562Q45.158276 289.89062 44.658276 289.20312Q44.1739 288.5 43.4239 288.5Q42.70515 288.5 42.26765 289.10938Q41.720776 289.89062 41.720776 292.01562Z" fill-rule="nonzero"/><path fill="#000000" d="M154.26126 292.01562Q154.26126 290.48438 154.57376 289.5625Q154.88626 288.625 155.49564 288.125Q156.12064 287.625 157.05814 287.625Q157.74564 287.625 158.26126 287.90625Q158.79251 288.1875 159.13626 288.71875Q159.48001 289.23438 159.66751 289.98438Q159.85501 290.73438 159.85501 292.01562Q159.85501 293.53125 159.54251 294.45312Q159.24564 295.375 158.62064 295.89062Q158.01126 296.39062 157.05814 296.39062Q155.82376 296.39062 155.10501 295.5Q154.26126 294.4375 154.26126 292.01562ZM155.33939 292.01562Q155.33939 294.125 155.83939 294.82812Q156.33939 295.53125 157.05814 295.53125Q157.79251 295.53125 158.27689 294.82812Q158.77689 294.125 158.77689 292.01562Q158.77689 289.89062 158.27689 289.20312Q157.79251 288.5 157.04251 288.5Q156.32376 288.5 155.88626 289.10938Q155.33939 289.89062 155.33939 292.01562ZM161.85501 296.25L161.85501 295.04688L163.05814 295.04688L163.05814 296.25L161.85501 296.25ZM169.80814 295.23438L169.80814 296.25L164.12064 296.25Q164.12064 295.875 164.24564 295.51562Q164.46439 294.9375 164.93314 294.375Q165.41751 293.8125 166.32376 293.07812Q167.73001 291.92188 168.21439 291.25Q168.71439 290.57812 168.71439 289.98438Q168.71439 289.35938 168.26126 288.9375Q167.80814 288.5 167.08939 288.5Q166.32376 288.5 165.87064 288.95312Q165.41751 289.40625 165.40189 290.21875L164.32376 290.10938Q164.43314 288.89062 165.15189 288.26562Q165.88626 287.625 167.12064 287.625Q168.35501 287.625 169.07376 288.3125Q169.79251 289.0 169.79251 290.01562Q169.79251 290.53125 169.57376 291.03125Q169.37064 291.51562 168.87064 292.07812Q168.38626 292.625 167.26126 293.57812Q166.30814 294.375 166.02689 294.67188Q165.76126 294.95312 165.58939 295.23438L169.80814 295.23438Z" fill-rule="nonzero"/><path fill="#000000" d="M272.87988 292.01562Q272.87988 290.48438 273.19238 289.5625Q273.50488 288.625 274.11426 288.125Q274.73926 287.625 275.67676 287.625Q276.36426 287.625 276.87988 287.90625Q277.41113 288.1875 277.75488 288.71875Q278.09863 289.23438 278.28613 289.98438Q278.47363 290.73438 278.47363 292.01562Q278.47363 293.53125 278.16113 294.45312Q277.86426 295.375 277.23926 295.89062Q276.62988 296.39062 275.67676 296.39062Q274.44238 296.39062 273.72363 295.5Q272.87988 294.4375 272.87988 292.01562ZM273.958 292.01562Q273.958 294.125 274.458 294.82812Q274.958 295.53125 275.67676 295.53125Q276.41113 295.53125 276.8955 294.82812Q277.3955 294.125 277.3955 292.01562Q277.3955 289.89062 276.8955 289.20312Q276.41113 288.5 275.66113 288.5Q274.94238 288.5 274.50488 289.10938Q273.958 289.89062 273.958 292.01562ZM280.47363 296.25L280.47363 295.04688L281.67676 295.04688L281.67676 296.25L280.47363 296.25ZM286.25488 296.25L286.25488 294.1875L282.53613 294.1875L282.53613 293.21875L286.458 287.65625L287.31738 287.65625L287.31738 293.21875L288.47363 293.21875L288.47363 294.1875L287.31738 294.1875L287.31738 296.25L286.25488 296.25ZM286.25488 293.21875L286.25488 289.35938L283.56738 293.21875L286.25488 293.21875Z" fill-rule="nonzero"/><path fill="#000000" d="M391.4985 292.01562Q391.4985 290.48438 391.811 289.5625Q392.1235 288.625 392.73288 288.125Q393.35788 287.625 394.29538 287.625Q394.98288 287.625 395.4985 287.90625Q396.02975 288.1875 396.3735 288.71875Q396.71725 289.23438 396.90475 289.98438Q397.09225 290.73438 397.09225 292.01562Q397.09225 293.53125 396.77975 294.45312Q396.48288 295.375 395.85788 295.89062Q395.2485 296.39062 394.29538 296.39062Q393.061 296.39062 392.34225 295.5Q391.4985 294.4375 391.4985 292.01562ZM392.57663 292.01562Q392.57663 294.125 393.07663 294.82812Q393.57663 295.53125 394.29538 295.53125Q395.02975 295.53125 395.51413 294.82812Q396.01413 294.125 396.01413 292.01562Q396.01413 289.89062 395.51413 289.20312Q395.02975 288.5 394.27975 288.5Q393.561 288.5 393.1235 289.10938Q392.57663 289.89062 392.57663 292.01562ZM399.09225 296.25L399.09225 295.04688L400.29538 295.04688L400.29538 296.25L399.09225 296.25ZM406.96725 289.76562L405.92038 289.84375Q405.77975 289.21875 405.52975 288.9375Q405.09225 288.48438 404.46725 288.48438Q403.96725 288.48438 403.57663 288.76562Q403.09225 289.14062 402.79538 289.84375Q402.51413 290.53125 402.4985 291.8125Q402.8735 291.23438 403.42038 290.95312Q403.98288 290.67188 404.59225 290.67188Q405.63913 290.67188 406.3735 291.45312Q407.1235 292.23438 407.1235 293.45312Q407.1235 294.26562 406.76413 294.96875Q406.42038 295.65625 405.811 296.03125Q405.20163 296.39062 404.436 296.39062Q403.10788 296.39062 402.27975 295.42188Q401.45163 294.45312 401.45163 292.23438Q401.45163 289.73438 402.3735 288.60938Q403.17038 287.625 404.52975 287.625Q405.54538 287.625 406.186 288.20312Q406.84225 288.76562 406.96725 289.76562ZM402.67038 293.46875Q402.67038 294.01562 402.88913 294.51562Q403.1235 295.0 403.52975 295.26562Q403.95163 295.53125 404.42038 295.53125Q405.07663 295.53125 405.561 295.0Q406.04538 294.45312 406.04538 293.53125Q406.04538 292.64062 405.561 292.125Q405.09225 291.60938 404.3735 291.60938Q403.65475 291.60938 403.15475 292.125Q402.67038 292.64062 402.67038 293.46875Z" fill-rule="nonzero"/><path fill="#000000" d="M510.1171 292.01562Q510.1171 290.48438 510.4296 289.5625Q510.7421 288.625 511.35147 288.125Q511.97647 287.625 512.91394 287.625Q513.60144 287.625 514.11707 287.90625Q514.6483 288.1875 514.99207 288.71875Q515.3358 289.23438 515.5233 289.98438Q515.7108 290.73438 515.7108 292.01562Q515.7108 293.53125 515.3983 294.45312Q515.10144 295.375 514.47644 295.89062Q513.86707 296.39062 512.91394 296.39062Q511.6796 296.39062 510.96085 295.5Q510.1171 294.4375 510.1171 292.01562ZM511.19522 292.01562Q511.19522 294.125 511.69522 294.82812Q512.1952 295.53125 512.91394 295.53125Q513.6483 295.53125 514.1327 294.82812Q514.6327 294.125 514.6327 292.01562Q514.6327 289.89062 514.1327 289.20312Q513.6483 288.5 512.8983 288.5Q512.17957 288.5 511.7421 289.10938Q511.19522 289.89062 511.19522 292.01562ZM517.7108 296.25L517.7108 295.04688L518.91394 295.04688L518.91394 296.25L517.7108 296.25ZM521.74207 291.59375Q521.0858 291.34375 520.7577 290.90625Q520.4452 290.45312 520.4452 289.84375Q520.4452 288.90625 521.11707 288.26562Q521.80457 287.625 522.91394 287.625Q524.03894 287.625 524.72644 288.28125Q525.41394 288.9375 525.41394 289.875Q525.41394 290.46875 525.10144 290.90625Q524.78894 291.34375 524.1483 291.59375Q524.9452 291.84375 525.35144 292.42188Q525.7577 293.0 525.7577 293.79688Q525.7577 294.89062 524.97644 295.64062Q524.2108 296.39062 522.92957 296.39062Q521.66394 296.39062 520.8827 295.64062Q520.10144 294.89062 520.10144 293.76562Q520.10144 292.92188 520.5233 292.35938Q520.9608 291.79688 521.74207 291.59375ZM521.5233 289.79688Q521.5233 290.40625 521.91394 290.79688Q522.3202 291.1875 522.9452 291.1875Q523.55457 291.1875 523.9452 290.8125Q524.3358 290.42188 524.3358 289.85938Q524.3358 289.28125 523.92957 288.89062Q523.5233 288.48438 522.92957 288.48438Q522.3202 288.48438 521.91394 288.875Q521.5233 289.26562 521.5233 289.79688ZM521.1952 293.76562Q521.1952 294.21875 521.3983 294.64062Q521.61707 295.0625 522.03894 295.29688Q522.4608 295.53125 522.9452 295.53125Q523.6952 295.53125 524.17957 295.04688Q524.67957 294.5625 524.67957 293.8125Q524.67957 293.04688 524.17957 292.54688Q523.67957 292.04688 522.91394 292.04688Q522.16394 292.04688 521.67957 292.54688Q521.1952 293.03125 521.1952 293.76562Z" fill-rule="nonzero"/></svg>