<svg version="1.1" viewBox="0.0 0.0 600.0 275.0" fill="none" stroke="none" stroke-linecap="square" stroke-miterlimit="10" width="600" height="275" xmlns:xlink="http://www.w3.org/1999/xlink" xmlns="http://www.w3.org/2000/svg"><path fill="#ffffff" d="M0 0L600.0 0L600.0 275.0L0 275.0L0 0Z" fill-rule="nonzero"/><path stroke="#cccccc" stroke-width="1.0" stroke-linecap="butt" d="M79.5 20.5L79.5 241.5" fill-rule="nonzero"/><path stroke="#cccccc" stroke-width="1.0" stroke-linecap="butt" d="M181.5 20.5L181.5 241.5" fill-rule="nonzero"/><path stroke="#cccccc" stroke-width="1.0" stroke-linecap="butt" d="M283.5 20.5L283.5 241.5" fill-rule="nonzero"/><path stroke="#cccccc" stroke-width="1.0" stroke-linecap="butt" d="M385.5 20.5L385.5 241.5" fill-rule="nonzero"/><path stroke="#cccccc" stroke-width="1.0" stroke-linecap="butt" d="M487.5 20.5L487.5 241.5" fill-rule="nonzero"/><path stroke="#cccccc" stroke-width="1.0" stroke-linecap="butt" d="M72.5 205.5L586.5 205.5" fill-rule="nonzero"/><path stroke="#cccccc" stroke-width="1.0" stroke-linecap="butt" d="M72.5 178.5L586.5 178.5" fill-rule="nonzero"/><path stroke="#cccccc" stroke-width="1.0" stroke-linecap="butt" d="M72.5 115.5L586.5 115.5" fill-rule="nonzero"/><path stroke="#cccccc" stroke-width="1.0" stroke-linecap="butt" d="M72.5 88.5L586.5 88.5" fill-rule="nonzero"/><path stroke="#cccccc" stroke-width="1.0" stroke-linecap="butt" d="M72.5 26.5L586.5 26.5" fill-rule="nonzero"/><clipPath id="id_0"><path d="M72.75 20.75L586.25 20.75L586.25 241.25L72.75 241.25L72.75 20.75Z" clip-rule="nonzero"/></clipPath><path stroke="#fbbc04" stroke-width="2.0" stroke-linecap="butt" clip-path="url(#id_0)" d="M79.56422 241.25L334.60074 178.5637L487.62265 134.49652L538.62994 60.167965L579.4358 20.75" fill-rule="nonzero"/><path stroke="#34a853" stroke-width="2.0" stroke-linecap="butt" clip-path="url(#id_0)" d="M79.56422 198.45995L334.60074 182.66742L487.62265 162.77118L538.62994 144.46492L579.4358 76.053795" fill-rule="nonzero"/><path stroke="#4285f4" stroke-width="2.0" stroke-linecap="butt" clip-path="url(#id_0)" d="M79.56422 205.56122L334.60074 198.45995L487.62265 182.66742L538.62994 171.46243L579.4358 147.85394" fill-rule="nonzero"/><path fill="#fbbc04" clip-path="url(#id_0)" d="M84.06422 241.25C84.06422 243.73528 82.0495 245.75 79.56422 245.75C77.07893 245.75 75.06422 243.73528 75.06422 241.25C75.06422 238.76472 77.07893 236.75 79.56422 236.75C82.0495 236.75 84.06422 238.76472 84.06422 241.25Z" fill-rule="nonzero"/><path fill="#fbbc04" clip-path="url(#id_0)" d="M339.10074 178.5637C339.10074 181.049 337.086 183.0637 334.60074 183.0637C332.11545 183.0637 330.10074 181.049 330.10074 178.5637C330.10074 176.07843 332.11545 174.0637 334.60074 174.0637C337.086 174.0637 339.10074 176.07843 339.10074 178.5637Z" fill-rule="nonzero"/><path fill="#fbbc04" clip-path="url(#id_0)" d="M492.12265 134.49652C492.12265 136.98181 490.1079 138.99652 487.62265 138.99652C485.13736 138.99652 483.12265 136.98181 483.12265 134.49652C483.12265 132.01125 485.13736 129.99652 487.62265 129.99652C490.1079 129.99652 492.12265 132.01125 492.12265 134.49652Z" fill-rule="nonzero"/><path fill="#fbbc04" clip-path="url(#id_0)" d="M543.12994 60.167965C543.12994 62.653248 541.11523 64.66797 538.62994 64.66797C536.14465 64.66797 534.12994 62.653248 534.12994 60.167965C534.12994 57.682686 536.14465 55.667965 538.62994 55.667965C541.11523 55.667965 543.12994 57.682686 543.12994 60.167965Z" fill-rule="nonzero"/><path fill="#fbbc04" clip-path="url(#id_0)" d="M583.9358 20.75C583.9358 23.235281 581.9211 25.25 579.4358 25.25C576.9505 25.25 574.9358 23.235281 574.9358 20.75C574.9358 18.264719 576.9505 16.25 579.4358 16.25C581.9211 16.25 583.9358 18.264719 583.9358 20.75Z" fill-rule="nonzero"/><path fill="#34a853" clip-path="url(#id_0)" d="M84.06422 198.45995C84.06422 200.94524 82.0495 202.95995 79.56422 202.95995C77.07893 202.95995 75.06422 200.94524 75.06422 198.45995C75.06422 195.97467 77.07893 193.95995 79.56422 193.95995C82.0495 193.95995 84.06422 195.97467 84.06422 198.45995Z" fill-rule="nonzero"/><path fill="#34a853" clip-path="url(#id_0)" d="M339.10074 182.66742C339.10074 185.1527 337.086 187.16742 334.60074 187.16742C332.11545 187.16742 330.10074 185.1527 330.10074 182.66742C330.10074 180.18213 332.11545 178.16742 334.60074 178.16742C337.086 178.16742 339.10074 180.18213 339.10074 182.66742Z" fill-rule="nonzero"/><path fill="#34a853" clip-path="url(#id_0)" d="M492.12265 162.77118C492.12265 165.25645 490.1079 167.27118 487.62265 167.27118C485.13736 167.27118 483.12265 165.25645 483.12265 162.77118C483.12265 160.28589 485.13736 158.27118 487.62265 158.27118C490.1079 158.27118 492.12265 160.28589 492.12265 162.77118Z" fill-rule="nonzero"/><path fill="#34a853" clip-path="url(#id_0)" d="M543.12994 144.46492C543.12994 146.9502 541.11523 148.96492 538.62994 148.96492C536.14465 148.96492 534.12994 146.9502 534.12994 144.46492C534.12994 141.97963 536.14465 139.96492 538.62994 139.96492C541.11523 139.96492 543.12994 141.97963 543.12994 144.46492Z" fill-rule="nonzero"/><path fill="#34a853" clip-path="url(#id_0)" d="M583.9358 76.053795C583.9358 78.53907 581.9211 80.553795 579.4358 80.553795C576.9505 80.553795 574.9358 78.53907 574.9358 76.053795C574.9358 73.56851 576.9505 71.553795 579.4358 71.553795C581.9211 71.553795 583.9358 73.56851 583.9358 76.053795Z" fill-rule="nonzero"/><path fill="#4285f4" clip-path="url(#id_0)" d="M84.06422 205.56122C84.06422 208.04651 82.0495 210.06122 79.56422 210.06122C77.07893 210.06122 75.06422 208.04651 75.06422 205.56122C75.06422 203.07594 77.07893 201.06122 79.56422 201.06122C82.0495 201.06122 84.06422 203.07594 84.06422 205.56122Z" fill-rule="nonzero"/><path fill="#4285f4" clip-path="url(#id_0)" d="M339.10074 198.45995C339.10074 200.94524 337.086 202.95995 334.60074 202.95995C332.11545 202.95995 330.10074 200.94524 330.10074 198.45995C330.10074 195.97467 332.11545 193.95995 334.60074 193.95995C337.086 193.95995 339.10074 195.97467 339.10074 198.45995Z" fill-rule="nonzero"/><path fill="#4285f4" clip-path="url(#id_0)" d="M492.12265 182.66742C492.12265 185.1527 490.1079 187.16742 487.62265 187.16742C485.13736 187.16742 483.12265 185.1527 483.12265 182.66742C483.12265 180.18213 485.13736 178.16742 487.62265 178.16742C490.1079 178.16742 492.12265 180.18213 492.12265 182.66742Z" fill-rule="nonzero"/><path fill="#4285f4" clip-path="url(#id_0)" d="M543.12994 171.46243C543.12994 173.94771 541.11523 175.96243 538.62994 175.96243C536.14465 175.96243 534.12994 173.94771 534.12994 171.46243C534.12994 168.97716 536.14465 166.96243 538.62994 166.96243C541.11523 166.96243 543.12994 168.97716 543.12994 171.46243Z" fill-rule="nonzero"/><path fill="#4285f4" clip-path="url(#id_0)" d="M583.9358 147.85394C583.9358 150.33922 581.9211 152.35394 579.4358 152.35394C576.9505 152.35394 574.9358 150.33922 574.9358 147.85394C574.9358 145.36865 576.9505 143.35394 579.4358 143.35394C581.9211 143.35394 583.9358 145.36865 583.9358 147.85394Z" fill-rule="nonzero"/><path fill="#000000" d="M24.75 178.23438L16.15625 178.23438L16.15625 177.17188L24.75 177.17188L24.75 178.23438ZM21.640625 175.59375Q19.90625 175.59375 19.078125 174.64062Q18.390625 173.84375 18.390625 172.6875Q18.390625 171.40625 19.234375 170.59375Q20.0625 169.76562 21.546875 169.76562Q22.75 169.76562 23.4375 170.125Q24.125 170.48438 24.515625 171.1875Q24.890625 171.875 24.890625 172.6875Q24.890625 173.98438 24.0625 174.79688Q23.21875 175.59375 21.640625 175.59375ZM21.640625 174.51562Q22.828125 174.51562 23.421875 174.0Q24.015625 173.46875 24.015625 172.6875Q24.015625 171.89062 23.421875 171.375Q22.828125 170.85938 21.609375 170.85938Q20.453125 170.85938 19.859375 171.39062Q19.265625 171.90625 19.265625 172.6875Q19.265625 173.46875 19.859375 174.0Q20.4375 174.51562 21.640625 174.51562ZM25.265625 168.40625L25.421875 167.375Q25.890625 167.3125 26.109375 167.01562Q26.40625 166.625 26.40625 165.95312Q26.40625 165.21875 26.109375 164.82812Q25.8125 164.42188 25.296875 164.28125Q24.96875 164.1875 23.9375 164.20312Q24.75 164.89062 24.75 165.92188Q24.75 167.20312 23.828125 167.90625Q22.890625 168.60938 21.609375 168.60938Q20.71875 168.60938 19.96875 168.29688Q19.203125 167.96875 18.796875 167.35938Q18.390625 166.75 18.390625 165.92188Q18.390625 164.8125 19.28125 164.09375L18.53125 164.09375L18.53125 163.125L23.90625 163.125Q25.359375 163.125 25.96875 163.42188Q26.578125 163.71875 26.921875 164.35938Q27.28125 165.0 27.28125 165.9375Q27.28125 167.04688 26.78125 167.73438Q26.28125 168.42188 25.265625 168.40625ZM21.53125 167.53125Q22.75 167.53125 23.3125 167.04688Q23.875 166.5625 23.875 165.82812Q23.875 165.09375 23.3125 164.60938Q22.75 164.10938 21.5625 164.10938Q20.421875 164.10938 19.84375 164.625Q19.265625 165.125 19.265625 165.84375Q19.265625 166.54688 19.84375 167.04688Q20.40625 167.53125 21.53125 167.53125ZM24.75 158.23438L16.15625 158.23438L16.15625 157.17188L24.75 157.17188L24.75 158.23438ZM23.984375 151.14062Q24.484375 151.73438 24.6875 152.28125Q24.890625 152.8125 24.890625 153.4375Q24.890625 154.46875 24.390625 155.01562Q23.890625 155.5625 23.109375 155.5625Q22.65625 155.5625 22.28125 155.35938Q21.890625 155.15625 21.671875 154.8125Q21.4375 154.46875 21.328125 154.04688Q21.234375 153.75 21.15625 153.10938Q21.015625 151.84375 20.796875 151.23438Q20.578125 151.23438 20.53125 151.23438Q19.875 151.23438 19.609375 151.53125Q19.265625 151.9375 19.265625 152.73438Q19.265625 153.46875 19.53125 153.82812Q19.78125 154.1875 20.4375 154.35938L20.296875 155.39062Q19.640625 155.25 19.234375 154.92188Q18.828125 154.59375 18.609375 153.98438Q18.390625 153.375 18.390625 152.57812Q18.390625 151.78125 18.578125 151.28125Q18.765625 150.78125 19.046875 150.54688Q19.328125 150.3125 19.765625 150.21875Q20.03125 150.17188 20.734375 150.17188L22.140625 150.17188Q23.609375 150.17188 24.0 150.10938Q24.390625 150.03125 24.75 149.82812L24.75 150.9375Q24.421875 151.09375 23.984375 151.14062ZM21.625 151.23438Q21.859375 151.8125 22.03125 152.95312Q22.125 153.60938 22.25 153.875Q22.359375 154.14062 22.578125 154.29688Q22.796875 154.4375 23.078125 154.4375Q23.5 154.4375 23.78125 154.125Q24.0625 153.79688 24.0625 153.1875Q24.0625 152.57812 23.796875 152.10938Q23.53125 151.625 23.0625 151.40625Q22.703125 151.23438 22.015625 151.23438L21.625 151.23438ZM23.8125 145.90625L24.734375 145.75Q24.828125 146.20312 24.828125 146.54688Q24.828125 147.125 24.65625 147.4375Q24.46875 147.75 24.171875 147.89062Q23.875 148.01562 22.921875 148.01562L19.34375 148.01562L19.34375 148.78125L18.53125 148.78125L18.53125 148.01562L16.984375 148.01562L16.359375 146.96875L18.53125 146.96875L18.53125 145.90625L19.34375 145.90625L19.34375 146.96875L22.984375 146.96875Q23.4375 146.96875 23.5625 146.92188Q23.6875 146.85938 23.765625 146.73438Q23.84375 146.60938 23.84375 146.375Q23.84375 146.1875 23.8125 145.90625ZM22.75 140.95312L22.875 139.85938Q23.828125 140.10938 24.359375 140.8125Q24.890625 141.51562 24.890625 142.59375Q24.890625 143.95312 24.046875 144.76562Q23.203125 145.5625 21.6875 145.5625Q20.125 145.5625 19.265625 144.75Q18.390625 143.9375 18.390625 142.65625Q18.390625 141.40625 19.234375 140.625Q20.078125 139.82812 21.625 139.82812Q21.71875 139.82812 21.90625 139.82812L21.90625 144.46875Q22.9375 144.40625 23.484375 143.89062Q24.015625 143.375 24.015625 142.59375Q24.015625 142.01562 23.71875 141.60938Q23.40625 141.1875 22.75 140.95312ZM21.046875 144.40625L21.046875 140.9375Q20.25 141.0 19.859375 141.32812Q19.25 141.84375 19.25 142.64062Q19.25 143.375 19.734375 143.875Q20.21875 144.35938 21.046875 144.40625ZM24.75 138.20312L18.53125 138.20312L18.53125 137.26562L19.40625 137.26562Q18.390625 136.57812 18.390625 135.28125Q18.390625 134.71875 18.59375 134.25Q18.796875 133.76562 19.125 133.53125Q19.453125 133.29688 19.890625 133.20312Q20.1875 133.15625 20.921875 133.15625L24.75 133.15625L24.75 134.20312L20.96875 134.20312Q20.3125 134.20312 20.0 134.32812Q19.6875 134.45312 19.5 134.76562Q19.296875 135.07812 19.296875 135.5Q19.296875 136.17188 19.734375 136.67188Q20.15625 137.15625 21.34375 137.15625L24.75 137.15625L24.75 138.20312ZM22.46875 127.140625L22.609375 126.109375Q23.671875 126.28125 24.28125 126.984375Q24.890625 127.6875 24.890625 128.70312Q24.890625 129.98438 24.0625 130.76562Q23.21875 131.53125 21.65625 131.53125Q20.65625 131.53125 19.90625 131.20312Q19.140625 130.85938 18.765625 130.1875Q18.390625 129.5 18.390625 128.6875Q18.390625 127.6875 18.90625 127.046875Q19.40625 126.390625 20.359375 126.203125L20.515625 127.234375Q19.890625 127.375 19.578125 127.75Q19.25 128.125 19.25 128.65625Q19.25 129.45312 19.828125 129.95312Q20.390625 130.45312 21.625 130.45312Q22.890625 130.45312 23.453125 129.96875Q24.015625 129.48438 24.015625 128.71875Q24.015625 128.09375 23.640625 127.6875Q23.265625 127.265625 22.46875 127.140625ZM27.140625 125.25L26.15625 125.375Q26.25 125.03125 26.25 124.765625Q26.25 124.421875 26.125 124.21875Q26.015625 124.0 25.8125 123.859375Q25.640625 123.765625 25.015625 123.53125Q24.9375 123.515625 24.765625 123.4375L18.53125 125.8125L18.53125 124.671875L22.125 123.375Q22.8125 123.125 23.578125 122.921875Q22.84375 122.734375 22.15625 122.484375L18.53125 121.15625L18.53125 120.109375L24.859375 122.46875Q25.875 122.859375 26.265625 123.0625Q26.796875 123.34375 27.03125 123.71875Q27.28125 124.078125 27.28125 124.578125Q27.28125 124.875 27.140625 125.25ZM27.28125 117.1875Q26.171875 118.0625 24.703125 118.671875Q23.21875 119.265625 21.640625 119.265625Q20.25 119.265625 18.96875 118.828125Q17.484375 118.296875 16.015625 117.1875L16.015625 116.4375Q17.234375 117.140625 17.75 117.375Q18.5625 117.734375 19.4375 117.9375Q20.53125 118.1875 21.640625 118.1875Q24.46875 118.1875 27.28125 116.4375L27.28125 117.1875ZM24.75 115.203125L18.53125 115.203125L18.53125 114.265625L19.40625 114.265625Q18.9375 113.96875 18.671875 113.484375Q18.390625 113.0 18.390625 112.375Q18.390625 111.6875 18.671875 111.25Q18.953125 110.796875 19.46875 110.625Q18.390625 109.875 18.390625 108.703125Q18.390625 107.765625 18.90625 107.28125Q19.40625 106.78125 20.484375 106.78125L24.75 106.78125L24.75 107.828125L20.828125 107.828125Q20.203125 107.828125 19.921875 107.9375Q19.640625 108.03125 19.46875 108.296875Q19.296875 108.5625 19.296875 108.9375Q19.296875 109.59375 19.734375 110.03125Q20.171875 110.453125 21.140625 110.453125L24.75 110.453125L24.75 111.515625L20.703125 111.515625Q20.0 111.515625 19.65625 111.78125Q19.296875 112.03125 19.296875 112.609375Q19.296875 113.0625 19.53125 113.4375Q19.765625 113.8125 20.21875 113.984375Q20.671875 114.15625 21.515625 114.15625L24.75 114.15625L24.75 115.203125ZM22.890625 105.625L22.734375 104.59375Q23.359375 104.5 23.6875 104.109375Q24.015625 103.703125 24.015625 102.96875Q24.015625 102.25 23.734375 101.90625Q23.4375 101.546875 23.03125 101.546875Q22.671875 101.546875 22.46875 101.859375Q22.328125 102.078125 22.109375 102.9375Q21.8125 104.09375 21.609375 104.546875Q21.390625 104.984375 21.015625 105.21875Q20.640625 105.453125 20.171875 105.453125Q19.765625 105.453125 19.40625 105.265625Q19.046875 105.078125 18.8125 104.75Q18.640625 104.5 18.515625 104.078125Q18.390625 103.65625 18.390625 103.15625Q18.390625 102.4375 18.609375 101.890625Q18.8125 101.328125 19.171875 101.0625Q19.53125 100.796875 20.125 100.703125L20.265625 101.734375Q19.796875 101.796875 19.53125 102.140625Q19.25 102.46875 19.25 103.09375Q19.25 103.8125 19.5 104.125Q19.734375 104.4375 20.0625 104.4375Q20.265625 104.4375 20.421875 104.3125Q20.59375 104.171875 20.703125 103.90625Q20.765625 103.75 20.96875 102.96875Q21.28125 101.84375 21.46875 101.40625Q21.65625 100.96875 22.015625 100.71875Q22.375 100.46875 22.921875 100.46875Q23.453125 100.46875 23.921875 100.78125Q24.375 101.078125 24.640625 101.65625Q24.890625 102.234375 24.890625 102.96875Q24.890625 104.1875 24.390625 104.828125Q23.875 105.453125 22.890625 105.625ZM27.28125 98.515625L27.28125 99.265625Q24.46875 97.515625 21.640625 97.515625Q20.546875 97.515625 19.453125 97.765625Q18.578125 97.96875 17.765625 98.328125Q17.25 98.5625 16.015625 99.265625L16.015625 98.515625Q17.484375 97.421875 18.96875 96.890625Q20.25 96.4375 21.640625 96.4375Q23.21875 96.4375 24.703125 97.046875Q26.171875 97.65625 27.28125 98.515625Z" fill-rule="nonzero"/><path fill="#000000" d="M60.25 207.31122L61.359375 207.21747Q61.484375 208.02997 61.921875 208.43622Q62.375 208.84247 63.015625 208.84247Q63.765625 208.84247 64.296875 208.26434Q64.828125 207.68622 64.828125 206.74872Q64.828125 205.84247 64.3125 205.32684Q63.8125 204.7956 62.984375 204.7956Q62.484375 204.7956 62.0625 205.02997Q61.65625 205.26434 61.421875 205.62372L60.4375 205.49872L61.265625 201.09247L65.546875 201.09247L65.546875 202.09247L62.109375 202.09247L61.65625 204.40497Q62.421875 203.8581 63.265625 203.8581Q64.390625 203.8581 65.15625 204.63934Q65.9375 205.4206 65.9375 206.65497Q65.9375 207.81122 65.265625 208.6706Q64.4375 209.70184 63.015625 209.70184Q61.84375 209.70184 61.09375 209.0456Q60.359375 208.38934 60.25 207.31122Z" fill-rule="nonzero"/><path fill="#000000" d="M57.21875 182.5637L56.171875 182.5637L56.171875 175.84496Q55.78125 176.20433 55.15625 176.57933Q54.546875 176.9387 54.0625 177.11058L54.0625 176.09496Q54.9375 175.67308 55.59375 175.09496Q56.265625 174.5012 56.546875 173.9387L57.21875 173.9387L57.21875 182.5637ZM60.25 178.32933Q60.25 176.79808 60.5625 175.8762Q60.875 174.9387 61.484375 174.4387Q62.109375 173.9387 63.046875 173.9387Q63.734375 173.9387 64.25 174.21996Q64.78125 174.5012 65.125 175.03246Q65.46875 175.54808 65.65625 176.29808Q65.84375 177.04808 65.84375 178.32933Q65.84375 179.84496 65.53125 180.76683Q65.234375 181.6887 64.609375 182.20433Q64.0 182.70433 63.046875 182.70433Q61.8125 182.70433 61.09375 181.8137Q60.25 180.7512 60.25 178.32933ZM61.328125 178.32933Q61.328125 180.4387 61.828125 181.14183Q62.328125 181.84496 63.046875 181.84496Q63.78125 181.84496 64.265625 181.14183Q64.765625 180.4387 64.765625 178.32933Q64.765625 176.20433 64.265625 175.51683Q63.78125 174.8137 63.03125 174.8137Q62.3125 174.8137 61.875 175.42308Q61.328125 176.20433 61.328125 178.32933Z" fill-rule="nonzero"/><path fill="#000000" d="M53.25 117.62742L54.359375 117.53367Q54.484375 118.34617 54.921875 118.75242Q55.375 119.15867 56.015625 119.15867Q56.765625 119.15867 57.296875 118.58054Q57.828125 118.00242 57.828125 117.06492Q57.828125 116.15867 57.3125 115.64304Q56.8125 115.11179 55.984375 115.11179Q55.484375 115.11179 55.0625 115.34617Q54.65625 115.58054 54.421875 115.93992L53.4375 115.81492L54.265625 111.40867L58.546875 111.40867L58.546875 112.40867L55.109375 112.40867L54.65625 114.72117Q55.421875 114.17429 56.265625 114.17429Q57.390625 114.17429 58.15625 114.95554Q58.9375 115.73679 58.9375 116.97117Q58.9375 118.12742 58.265625 118.98679Q57.4375 120.01804 56.015625 120.01804Q54.84375 120.01804 54.09375 119.36179Q53.359375 118.70554 53.25 117.62742ZM60.25 115.64304Q60.25 114.11179 60.5625 113.18992Q60.875 112.25242 61.484375 111.75242Q62.109375 111.25242 63.046875 111.25242Q63.734375 111.25242 64.25 111.53367Q64.78125 111.81492 65.125 112.34617Q65.46875 112.86179 65.65625 113.61179Q65.84375 114.36179 65.84375 115.64304Q65.84375 117.15867 65.53125 118.08054Q65.234375 119.00242 64.609375 119.51804Q64.0 120.01804 63.046875 120.01804Q61.8125 120.01804 61.09375 119.12742Q60.25 118.06492 60.25 115.64304ZM61.328125 115.64304Q61.328125 117.75242 61.828125 118.45554Q62.328125 119.15867 63.046875 119.15867Q63.78125 119.15867 64.265625 118.45554Q64.765625 117.75242 64.765625 115.64304Q64.765625 113.51804 64.265625 112.83054Q63.78125 112.12742 63.03125 112.12742Q62.3125 112.12742 61.875 112.73679Q61.328125 113.51804 61.328125 115.64304Z" fill-rule="nonzero"/><path fill="#000000" d="M50.21875 92.879906L49.171875 92.879906L49.171875 86.161156Q48.78125 86.52053 48.15625 86.89553Q47.546875 87.254906 47.0625 87.42678L47.0625 86.411156Q47.9375 85.98928 48.59375 85.411156Q49.265625 84.817406 49.546875 84.254906L50.21875 84.254906L50.21875 92.879906ZM53.25 88.64553Q53.25 87.11428 53.5625 86.192406Q53.875 85.254906 54.484375 84.754906Q55.109375 84.254906 56.046875 84.254906Q56.734375 84.254906 57.25 84.536156Q57.78125 84.817406 58.125 85.348656Q58.46875 85.86428 58.65625 86.61428Q58.84375 87.36428 58.84375 88.64553Q58.84375 90.161156 58.53125 91.08303Q58.234375 92.004906 57.609375 92.52053Q57.0 93.02053 56.046875 93.02053Q54.8125 93.02053 54.09375 92.129906Q53.25 91.067406 53.25 88.64553ZM54.328125 88.64553Q54.328125 90.754906 54.828125 91.45803Q55.328125 92.161156 56.046875 92.161156Q56.78125 92.161156 57.265625 91.45803Q57.765625 90.754906 57.765625 88.64553Q57.765625 86.52053 57.265625 85.83303Q56.78125 85.129906 56.03125 85.129906Q55.3125 85.129906 54.875 85.73928Q54.328125 86.52053 54.328125 88.64553ZM60.25 88.64553Q60.25 87.11428 60.5625 86.192406Q60.875 85.254906 61.484375 84.754906Q62.109375 84.254906 63.046875 84.254906Q63.734375 84.254906 64.25 84.536156Q64.78125 84.817406 65.125 85.348656Q65.46875 85.86428 65.65625 86.61428Q65.84375 87.36428 65.84375 88.64553Q65.84375 90.161156 65.53125 91.08303Q65.234375 92.004906 64.609375 92.52053Q64.0 93.02053 63.046875 93.02053Q61.8125 93.02053 61.09375 92.129906Q60.25 91.067406 60.25 88.64553ZM61.328125 88.64553Q61.328125 90.754906 61.828125 91.45803Q62.328125 92.161156 63.046875 92.161156Q63.78125 92.161156 64.265625 91.45803Q64.765625 90.754906 64.765625 88.64553Q64.765625 86.52053 64.265625 85.83303Q63.78125 85.129906 63.03125 85.129906Q62.3125 85.129906 61.875 85.73928Q61.328125 86.52053 61.328125 88.64553Z" fill-rule="nonzero"/><path fill="#000000" d="M46.25 27.943613L47.359375 27.849863Q47.484375 28.662363 47.921875 29.068613Q48.375 29.474863 49.015625 29.474863Q49.765625 29.474863 50.296875 28.896738Q50.828125 28.318613 50.828125 27.381113Q50.828125 26.474863 50.3125 25.959238Q49.8125 25.427988 48.984375 25.427988Q48.484375 25.427988 48.0625 25.662363Q47.65625 25.896738 47.421875 26.256113L46.4375 26.131113L47.265625 21.724863L51.546875 21.724863L51.546875 22.724863L48.109375 22.724863L47.65625 25.037363Q48.421875 24.490488 49.265625 24.490488Q50.390625 24.490488 51.15625 25.271738Q51.9375 26.052988 51.9375 27.287363Q51.9375 28.443613 51.265625 29.302988Q50.4375 30.334238 49.015625 30.334238Q47.84375 30.334238 47.09375 29.677988Q46.359375 29.021738 46.25 27.943613ZM53.25 25.959238Q53.25 24.427988 53.5625 23.506113Q53.875 22.568613 54.484375 22.068613Q55.109375 21.568613 56.046875 21.568613Q56.734375 21.568613 57.25 21.849863Q57.78125 22.131113 58.125 22.662363Q58.46875 23.177988 58.65625 23.927988Q58.84375 24.677988 58.84375 25.959238Q58.84375 27.474863 58.53125 28.396738Q58.234375 29.318613 57.609375 29.834238Q57.0 30.334238 56.046875 30.334238Q54.8125 30.334238 54.09375 29.443613Q53.25 28.381113 53.25 25.959238ZM54.328125 25.959238Q54.328125 28.068613 54.828125 28.771738Q55.328125 29.474863 56.046875 29.474863Q56.78125 29.474863 57.265625 28.771738Q57.765625 28.068613 57.765625 25.959238Q57.765625 23.834238 57.265625 23.146738Q56.78125 22.443613 56.03125 22.443613Q55.3125 22.443613 54.875 23.052988Q54.328125 23.834238 54.328125 25.959238ZM60.25 25.959238Q60.25 24.427988 60.5625 23.506113Q60.875 22.568613 61.484375 22.068613Q62.109375 21.568613 63.046875 21.568613Q63.734375 21.568613 64.25 21.849863Q64.78125 22.131113 65.125 22.662363Q65.46875 23.177988 65.65625 23.927988Q65.84375 24.677988 65.84375 25.959238Q65.84375 27.474863 65.53125 28.396738Q65.234375 29.318613 64.609375 29.834238Q64.0 30.334238 63.046875 30.334238Q61.8125 30.334238 61.09375 29.443613Q60.25 28.381113 60.25 25.959238ZM61.328125 25.959238Q61.328125 28.068613 61.828125 28.771738Q62.328125 29.474863 63.046875 29.474863Q63.78125 29.474863 64.265625 28.771738Q64.765625 28.068613 64.765625 25.959238Q64.765625 23.834238 64.265625 23.146738Q63.78125 22.443613 63.03125 22.443613Q62.3125 22.443613 61.875 23.052988Q61.328125 23.834238 61.328125 25.959238Z" fill-rule="nonzero"/><path fill="#000000" d="M71.56422 254.01562Q71.56422 252.48438 71.87672 251.5625Q72.18922 250.625 72.79859 250.125Q73.42359 249.625 74.36109 249.625Q75.04859 249.625 75.56422 249.90625Q76.09547 250.1875 76.43922 250.71875Q76.78297 251.23438 76.97047 251.98438Q77.15797 252.73438 77.15797 254.01562Q77.15797 255.53125 76.84547 256.45312Q76.54859 257.375 75.92359 257.89062Q75.31422 258.39062 74.36109 258.39062Q73.12672 258.39062 72.40797 257.5Q71.56422 256.4375 71.56422 254.01562ZM72.64234 254.01562Q72.64234 256.125 73.14234 256.82812Q73.64234 257.53125 74.36109 257.53125Q75.09547 257.53125 75.57984 256.82812Q76.07984 256.125 76.07984 254.01562Q76.07984 251.89062 75.57984 251.20312Q75.09547 250.5 74.34547 250.5Q73.62672 250.5 73.18922 251.10938Q72.64234 251.89062 72.64234 254.01562ZM79.15797 258.25L79.15797 257.04688L80.36109 257.04688L80.36109 258.25L79.15797 258.25ZM81.56422 256.0L82.67359 255.90625Q82.79859 256.71875 83.23609 257.125Q83.68922 257.53125 84.32984 257.53125Q85.07984 257.53125 85.61109 256.95312Q86.14234 256.375 86.14234 255.4375Q86.14234 254.53125 85.62672 254.01562Q85.12672 253.48438 84.29859 253.48438Q83.79859 253.48438 83.37672 253.71875Q82.97047 253.95312 82.73609 254.3125L81.75172 254.1875L82.57984 249.78125L86.86109 249.78125L86.86109 250.78125L83.42359 250.78125L82.97047 253.09375Q83.73609 252.54688 84.57984 252.54688Q85.70484 252.54688 86.47047 253.32812Q87.25172 254.10938 87.25172 255.34375Q87.25172 256.5 86.57984 257.35938Q85.75172 258.39062 84.32984 258.39062Q83.15797 258.39062 82.40797 257.73438Q81.67359 257.07812 81.56422 256.0Z" fill-rule="nonzero"/><path fill="#000000" d="M173.57883 254.01562Q173.57883 252.48438 173.89133 251.5625Q174.20383 250.625 174.8132 250.125Q175.4382 249.625 176.3757 249.625Q177.0632 249.625 177.57883 249.90625Q178.11008 250.1875 178.45383 250.71875Q178.79758 251.23438 178.98508 251.98438Q179.17258 252.73438 179.17258 254.01562Q179.17258 255.53125 178.86008 256.45312Q178.5632 257.375 177.9382 257.89062Q177.32883 258.39062 176.3757 258.39062Q175.14133 258.39062 174.42258 257.5Q173.57883 256.4375 173.57883 254.01562ZM174.65695 254.01562Q174.65695 256.125 175.15695 256.82812Q175.65695 257.53125 176.3757 257.53125Q177.11008 257.53125 177.59445 256.82812Q178.09445 256.125 178.09445 254.01562Q178.09445 251.89062 177.59445 251.20312Q177.11008 250.5 176.36008 250.5Q175.64133 250.5 175.20383 251.10938Q174.65695 251.89062 174.65695 254.01562ZM181.17258 258.25L181.17258 257.04688L182.3757 257.04688L182.3757 258.25L181.17258 258.25ZM189.04758 251.76562L188.0007 251.84375Q187.86008 251.21875 187.61008 250.9375Q187.17258 250.48438 186.54758 250.48438Q186.04758 250.48438 185.65695 250.76562Q185.17258 251.14062 184.8757 251.84375Q184.59445 252.53125 184.57883 253.8125Q184.95383 253.23438 185.5007 252.95312Q186.0632 252.67188 186.67258 252.67188Q187.71945 252.67188 188.45383 253.45312Q189.20383 254.23438 189.20383 255.45312Q189.20383 256.26562 188.84445 256.96875Q188.5007 257.65625 187.89133 258.03125Q187.28195 258.39062 186.51633 258.39062Q185.1882 258.39062 184.36008 257.42188Q183.53195 256.45312 183.53195 254.23438Q183.53195 251.73438 184.45383 250.60938Q185.2507 249.625 186.61008 249.625Q187.6257 249.625 188.26633 250.20312Q188.92258 250.76562 189.04758 251.76562ZM184.7507 255.46875Q184.7507 256.01562 184.96945 256.51562Q185.20383 257.0 185.61008 257.26562Q186.03195 257.53125 186.5007 257.53125Q187.15695 257.53125 187.64133 257.0Q188.1257 256.45312 188.1257 255.53125Q188.1257 254.64062 187.64133 254.125Q187.17258 253.60938 186.45383 253.60938Q185.73508 253.60938 185.23508 254.125Q184.7507 254.64062 184.7507 255.46875Z" fill-rule="nonzero"/><path fill="#000000" d="M275.5934 254.01562Q275.5934 252.48438 275.9059 251.5625Q276.2184 250.625 276.8278 250.125Q277.4528 249.625 278.3903 249.625Q279.0778 249.625 279.5934 249.90625Q280.12466 250.1875 280.4684 250.71875Q280.81216 251.23438 280.99966 251.98438Q281.18716 252.73438 281.18716 254.01562Q281.18716 255.53125 280.87466 256.45312Q280.5778 257.375 279.9528 257.89062Q279.3434 258.39062 278.3903 258.39062Q277.1559 258.39062 276.43716 257.5Q275.5934 256.4375 275.5934 254.01562ZM276.67154 254.01562Q276.67154 256.125 277.17154 256.82812Q277.67154 257.53125 278.3903 257.53125Q279.12466 257.53125 279.60904 256.82812Q280.10904 256.125 280.10904 254.01562Q280.10904 251.89062 279.60904 251.20312Q279.12466 250.5 278.37466 250.5Q277.6559 250.5 277.2184 251.10938Q276.67154 251.89062 276.67154 254.01562ZM283.18716 258.25L283.18716 257.04688L284.3903 257.04688L284.3903 258.25L283.18716 258.25ZM285.6559 250.78125L285.6559 249.76562L291.2184 249.76562L291.2184 250.59375Q290.4059 251.46875 289.5934 252.92188Q288.79654 254.35938 288.35904 255.89062Q288.0309 256.96875 287.9528 258.25L286.85904 258.25Q286.87466 257.23438 287.24966 255.79688Q287.6403 254.35938 288.3434 253.03125Q289.06216 251.70312 289.87466 250.78125L285.6559 250.78125Z" fill-rule="nonzero"/><path fill="#000000" d="M377.60803 254.01562Q377.60803 252.48438 377.92053 251.5625Q378.23303 250.625 378.8424 250.125Q379.4674 249.625 380.4049 249.625Q381.0924 249.625 381.60803 249.90625Q382.13928 250.1875 382.48303 250.71875Q382.82678 251.23438 383.01428 251.98438Q383.20178 252.73438 383.20178 254.01562Q383.20178 255.53125 382.88928 256.45312Q382.5924 257.375 381.9674 257.89062Q381.35803 258.39062 380.4049 258.39062Q379.17053 258.39062 378.45178 257.5Q377.60803 256.4375 377.60803 254.01562ZM378.68616 254.01562Q378.68616 256.125 379.18616 256.82812Q379.68616 257.53125 380.4049 257.53125Q381.13928 257.53125 381.62366 256.82812Q382.12366 256.125 382.12366 254.01562Q382.12366 251.89062 381.62366 251.20312Q381.13928 250.5 380.38928 250.5Q379.67053 250.5 379.23303 251.10938Q378.68616 251.89062 378.68616 254.01562ZM385.20178 258.25L385.20178 257.04688L386.4049 257.04688L386.4049 258.25L385.20178 258.25ZM389.23303 253.59375Q388.57678 253.34375 388.24866 252.90625Q387.93616 252.45312 387.93616 251.84375Q387.93616 250.90625 388.60803 250.26562Q389.29553 249.625 390.4049 249.625Q391.5299 249.625 392.2174 250.28125Q392.9049 250.9375 392.9049 251.875Q392.9049 252.46875 392.5924 252.90625Q392.2799 253.34375 391.63928 253.59375Q392.43616 253.84375 392.8424 254.42188Q393.24866 255.0 393.24866 255.79688Q393.24866 256.89062 392.4674 257.64062Q391.70178 258.39062 390.42053 258.39062Q389.1549 258.39062 388.37366 257.64062Q387.5924 256.89062 387.5924 255.76562Q387.5924 254.92188 388.01428 254.35938Q388.45178 253.79688 389.23303 253.59375ZM389.01428 251.79688Q389.01428 252.40625 389.4049 252.79688Q389.81116 253.1875 390.43616 253.1875Q391.04553 253.1875 391.43616 252.8125Q391.82678 252.42188 391.82678 251.85938Q391.82678 251.28125 391.42053 250.89062Q391.01428 250.48438 390.42053 250.48438Q389.81116 250.48438 389.4049 250.875Q389.01428 251.26562 389.01428 251.79688ZM388.68616 255.76562Q388.68616 256.21875 388.88928 256.64062Q389.10803 257.0625 389.5299 257.29688Q389.95178 257.53125 390.43616 257.53125Q391.18616 257.53125 391.67053 257.04688Q392.17053 256.5625 392.17053 255.8125Q392.17053 255.04688 391.67053 254.54688Q391.17053 254.04688 390.4049 254.04688Q389.6549 254.04688 389.17053 254.54688Q388.68616 255.03125 388.68616 255.76562Z" fill-rule="nonzero"/><path fill="#000000" d="M479.62265 254.01562Q479.62265 252.48438 479.93515 251.5625Q480.24765 250.625 480.85703 250.125Q481.48203 249.625 482.41953 249.625Q483.10703 249.625 483.62265 249.90625Q484.1539 250.1875 484.49765 250.71875Q484.8414 251.23438 485.0289 251.98438Q485.2164 252.73438 485.2164 254.01562Q485.2164 255.53125 484.9039 256.45312Q484.60703 257.375 483.98203 257.89062Q483.37265 258.39062 482.41953 258.39062Q481.18515 258.39062 480.4664 257.5Q479.62265 256.4375 479.62265 254.01562ZM480.70078 254.01562Q480.70078 256.125 481.20078 256.82812Q481.70078 257.53125 482.41953 257.53125Q483.1539 257.53125 483.63828 256.82812Q484.13828 256.125 484.13828 254.01562Q484.13828 251.89062 483.63828 251.20312Q483.1539 250.5 482.4039 250.5Q481.68515 250.5 481.24765 251.10938Q480.70078 251.89062 480.70078 254.01562ZM487.2164 258.25L487.2164 257.04688L488.41953 257.04688L488.41953 258.25L487.2164 258.25ZM489.7789 256.26562L490.79453 256.17188Q490.91953 256.89062 491.2789 257.21875Q491.6539 257.53125 492.2164 257.53125Q492.70078 257.53125 493.06015 257.3125Q493.43515 257.07812 493.66953 256.71875Q493.9039 256.34375 494.06015 255.71875Q494.2164 255.07812 494.2164 254.42188Q494.2164 254.34375 494.2164 254.20312Q493.9039 254.70312 493.35703 255.03125Q492.81015 255.34375 492.16953 255.34375Q491.0914 255.34375 490.35703 254.57812Q489.62265 253.79688 489.62265 252.53125Q489.62265 251.21875 490.38828 250.42188Q491.16953 249.625 492.32578 249.625Q493.1539 249.625 493.8414 250.07812Q494.54453 250.53125 494.9039 251.375Q495.26328 252.20312 495.26328 253.78125Q495.26328 255.42188 494.9039 256.40625Q494.56015 257.375 493.8414 257.89062Q493.13828 258.39062 492.20078 258.39062Q491.18515 258.39062 490.54453 257.84375Q489.9039 257.28125 489.7789 256.26562ZM494.0914 252.46875Q494.0914 251.5625 493.60703 251.03125Q493.13828 250.5 492.45078 250.5Q491.74765 250.5 491.2164 251.07812Q490.70078 251.64062 490.70078 252.5625Q490.70078 253.375 491.20078 253.89062Q491.70078 254.40625 492.41953 254.40625Q493.1539 254.40625 493.62265 253.89062Q494.0914 253.375 494.0914 252.46875Z" fill-rule="nonzero"/></svg>