<svg version="1.1" viewBox="0.0 0.0 600.0 315.0" fill="none" stroke="none" stroke-linecap="square" stroke-miterlimit="10" width="600" height="315" xmlns:xlink="http://www.w3.org/1999/xlink" xmlns="http://www.w3.org/2000/svg"><path fill="#ffffff" d="M0 0L600.0 0L600.0 315.0L0 315.0L0 0Z" fill-rule="nonzero"/><path stroke="#333333" stroke-width="1.0" stroke-linecap="butt" d="M50.5 22.5L50.5 279.5" fill-rule="nonzero"/><path stroke="#cccccc" stroke-width="1.0" stroke-linecap="butt" d="M167.5 22.5L167.5 279.5" fill-rule="nonzero"/><path stroke="#cccccc" stroke-width="1.0" stroke-linecap="butt" d="M284.5 22.5L284.5 279.5" fill-rule="nonzero"/><path stroke="#cccccc" stroke-width="1.0" stroke-linecap="butt" d="M401.5 22.5L401.5 279.5" fill-rule="nonzero"/><path stroke="#cccccc" stroke-width="1.0" stroke-linecap="butt" d="M518.5 22.5L518.5 279.5" fill-rule="nonzero"/><path stroke="#cccccc" stroke-width="1.0" stroke-linecap="butt" d="M49.5 218.5L584.5 218.5" fill-rule="nonzero"/><path stroke="#cccccc" stroke-width="1.0" stroke-linecap="butt" d="M49.5 180.5L584.5 180.5" fill-rule="nonzero"/><path stroke="#cccccc" stroke-width="1.0" stroke-linecap="butt" d="M49.5 93.5L584.5 93.5" fill-rule="nonzero"/><path stroke="#cccccc" stroke-width="1.0" stroke-linecap="butt" d="M49.5 55.5L584.5 55.5" fill-rule="nonzero"/><clipPath id="id_0"><path d="M49.75 22.75L584.25 22.75L584.25 279.25L49.75 279.25L49.75 22.75Z" clip-rule="nonzero"/></clipPath><path stroke="#fbbc04" stroke-width="2.0" stroke-linecap="butt" clip-path="url(#id_0)" d="M56.57133 147.54375L79.98065 118.44079L109.242294 114.342514L167.7656 111.772736L226.2889 111.772736L284.8122 111.772736L343.33548 107.54911L401.85876 78.73146L460.38208 41.10994L518.9054 37.799377L577.42865 29.478537" fill-rule="nonzero"/><path stroke="#34a853" stroke-width="2.0" stroke-linecap="butt" clip-path="url(#id_0)" d="M56.57133 279.25L79.98065 270.36475L109.242294 266.16058L167.7656 261.01816L226.2889 255.20766L284.8122 249.95947L343.33548 243.81734L401.85876 228.53908L460.38208 106.971695L518.9054 41.10994L577.42865 22.75" fill-rule="nonzero"/><path stroke="#4285f4" stroke-width="2.0" stroke-linecap="butt" clip-path="url(#id_0)" d="M56.57133 246.5661L79.98065 122.87398L109.242294 99.4734L167.7656 99.4734L226.2889 99.4734L284.8122 99.4734L343.33548 99.4734L401.85876 98.97545L460.38208 98.97545L518.9054 94.68824L577.42865 92.88637" fill-rule="nonzero"/><path fill="#fbbc04" clip-path="url(#id_0)" d="M61.07133 147.54375C61.07133 150.02902 59.056614 152.04375 56.57133 152.04375C54.08605 152.04375 52.07133 150.02902 52.07133 147.54375C52.07133 145.05847 54.08605 143.04375 56.57133 143.04375C59.056614 143.04375 61.07133 145.05847 61.07133 147.54375Z" fill-rule="nonzero"/><path fill="#fbbc04" clip-path="url(#id_0)" d="M84.48065 118.44079C84.48065 120.92607 82.46593 122.94079 79.98065 122.94079C77.49537 122.94079 75.48065 120.92607 75.48065 118.44079C75.48065 115.955505 77.49537 113.94079 79.98065 113.94079C82.46593 113.94079 84.48065 115.955505 84.48065 118.44079Z" fill-rule="nonzero"/><path fill="#fbbc04" clip-path="url(#id_0)" d="M113.742294 114.342514C113.742294 116.8278 111.72758 118.842514 109.242294 118.842514C106.75702 118.842514 104.742294 116.8278 104.742294 114.342514C104.742294 111.85723 106.75702 109.842514 109.242294 109.842514C111.72758 109.842514 113.742294 111.85723 113.742294 114.342514Z" fill-rule="nonzero"/><path fill="#fbbc04" clip-path="url(#id_0)" d="M172.2656 111.772736C172.2656 114.25802 170.25087 116.272736 167.7656 116.272736C165.28032 116.272736 163.2656 114.25802 163.2656 111.772736C163.2656 109.28745 165.28032 107.272736 167.7656 107.272736C170.25087 107.272736 172.2656 109.28745 172.2656 111.772736Z" fill-rule="nonzero"/><path fill="#fbbc04" clip-path="url(#id_0)" d="M230.7889 111.772736C230.7889 114.25802 228.77417 116.272736 226.2889 116.272736C223.8036 116.272736 221.7889 114.25802 221.7889 111.772736C221.7889 109.28745 223.8036 107.272736 226.2889 107.272736C228.77417 107.272736 230.7889 109.28745 230.7889 111.772736Z" fill-rule="nonzero"/><path fill="#fbbc04" clip-path="url(#id_0)" d="M289.3122 111.772736C289.3122 114.25802 287.29745 116.272736 284.8122 116.272736C282.3269 116.272736 280.3122 114.25802 280.3122 111.772736C280.3122 109.28745 282.3269 107.272736 284.8122 107.272736C287.29745 107.272736 289.3122 109.28745 289.3122 111.772736Z" fill-rule="nonzero"/><path fill="#fbbc04" clip-path="url(#id_0)" d="M347.83548 107.54911C347.83548 110.03439 345.82077 112.04911 343.33548 112.04911C340.8502 112.04911 338.83548 110.03439 338.83548 107.54911C338.83548 105.06383 340.8502 103.04911 343.33548 103.04911C345.82077 103.04911 347.83548 105.06383 347.83548 107.54911Z" fill-rule="nonzero"/><path fill="#fbbc04" clip-path="url(#id_0)" d="M406.35876 78.73146C406.35876 81.21674 404.34406 83.23146 401.85876 83.23146C399.3735 83.23146 397.35876 81.21674 397.35876 78.73146C397.35876 76.24618 399.3735 74.23146 401.85876 74.23146C404.34406 74.23146 406.35876 76.24618 406.35876 78.73146Z" fill-rule="nonzero"/><path fill="#fbbc04" clip-path="url(#id_0)" d="M464.88208 41.10994C464.88208 43.595222 462.86737 45.60994 460.38208 45.60994C457.8968 45.60994 455.88208 43.595222 455.88208 41.10994C455.88208 38.624657 457.8968 36.60994 460.38208 36.60994C462.86737 36.60994 464.88208 38.624657 464.88208 41.10994Z" fill-rule="nonzero"/><path fill="#fbbc04" clip-path="url(#id_0)" d="M523.4054 37.799377C523.4054 40.28466 521.3906 42.299377 518.9054 42.299377C516.4201 42.299377 514.4054 40.28466 514.4054 37.799377C514.4054 35.3141 516.4201 33.299377 518.9054 33.299377C521.3906 33.299377 523.4054 35.3141 523.4054 37.799377Z" fill-rule="nonzero"/><path fill="#fbbc04" clip-path="url(#id_0)" d="M581.92865 29.478537C581.92865 31.963818 579.91394 33.97854 577.42865 33.97854C574.94336 33.97854 572.92865 31.963818 572.92865 29.478537C572.92865 26.993256 574.94336 24.978537 577.42865 24.978537C579.91394 24.978537 581.92865 26.993256 581.92865 29.478537Z" fill-rule="nonzero"/><path fill="#34a853" clip-path="url(#id_0)" d="M61.07133 279.25C61.07133 281.7353 59.056614 283.75 56.57133 283.75C54.08605 283.75 52.07133 281.7353 52.07133 279.25C52.07133 276.7647 54.08605 274.75 56.57133 274.75C59.056614 274.75 61.07133 276.7647 61.07133 279.25Z" fill-rule="nonzero"/><path fill="#34a853" clip-path="url(#id_0)" d="M84.48065 270.36475C84.48065 272.85 82.46593 274.86475 79.98065 274.86475C77.49537 274.86475 75.48065 272.85 75.48065 270.36475C75.48065 267.87946 77.49537 265.86475 79.98065 265.86475C82.46593 265.86475 84.48065 267.87946 84.48065 270.36475Z" fill-rule="nonzero"/><path fill="#34a853" clip-path="url(#id_0)" d="M113.742294 266.16058C113.742294 268.64587 111.72758 270.66058 109.242294 270.66058C106.75702 270.66058 104.742294 268.64587 104.742294 266.16058C104.742294 263.67532 106.75702 261.66058 109.242294 261.66058C111.72758 261.66058 113.742294 263.67532 113.742294 266.16058Z" fill-rule="nonzero"/><path fill="#34a853" clip-path="url(#id_0)" d="M172.2656 261.01816C172.2656 263.50345 170.25087 265.51816 167.7656 265.51816C165.28032 265.51816 163.2656 263.50345 163.2656 261.01816C163.2656 258.53287 165.28032 256.51816 167.7656 256.51816C170.25087 256.51816 172.2656 258.53287 172.2656 261.01816Z" fill-rule="nonzero"/><path fill="#34a853" clip-path="url(#id_0)" d="M230.7889 255.20766C230.7889 257.69293 228.77417 259.70767 226.2889 259.70767C223.8036 259.70767 221.7889 257.69293 221.7889 255.20766C221.7889 252.72238 223.8036 250.70766 226.2889 250.70766C228.77417 250.70766 230.7889 252.72238 230.7889 255.20766Z" fill-rule="nonzero"/><path fill="#34a853" clip-path="url(#id_0)" d="M289.3122 249.95947C289.3122 252.44476 287.29745 254.45947 284.8122 254.45947C282.3269 254.45947 280.3122 252.44476 280.3122 249.95947C280.3122 247.4742 282.3269 245.45947 284.8122 245.45947C287.29745 245.45947 289.3122 247.4742 289.3122 249.95947Z" fill-rule="nonzero"/><path fill="#34a853" clip-path="url(#id_0)" d="M347.83548 243.81734C347.83548 246.30263 345.82077 248.31734 343.33548 248.31734C340.8502 248.31734 338.83548 246.30263 338.83548 243.81734C338.83548 241.33206 340.8502 239.31734 343.33548 239.31734C345.82077 239.31734 347.83548 241.33206 347.83548 243.81734Z" fill-rule="nonzero"/><path fill="#34a853" clip-path="url(#id_0)" d="M406.35876 228.53908C406.35876 231.02435 404.34406 233.03908 401.85876 233.03908C399.3735 233.03908 397.35876 231.02435 397.35876 228.53908C397.35876 226.0538 399.3735 224.03908 401.85876 224.03908C404.34406 224.03908 406.35876 226.0538 406.35876 228.53908Z" fill-rule="nonzero"/><path fill="#34a853" clip-path="url(#id_0)" d="M464.88208 106.971695C464.88208 109.45698 462.86737 111.471695 460.38208 111.471695C457.8968 111.471695 455.88208 109.45698 455.88208 106.971695C455.88208 104.48642 457.8968 102.471695 460.38208 102.471695C462.86737 102.471695 464.88208 104.48642 464.88208 106.971695Z" fill-rule="nonzero"/><path fill="#34a853" clip-path="url(#id_0)" d="M523.4054 41.10994C523.4054 43.595222 521.3906 45.60994 518.9054 45.60994C516.4201 45.60994 514.4054 43.595222 514.4054 41.10994C514.4054 38.624657 516.4201 36.60994 518.9054 36.60994C521.3906 36.60994 523.4054 38.624657 523.4054 41.10994Z" fill-rule="nonzero"/><path fill="#34a853" clip-path="url(#id_0)" d="M581.92865 22.75C581.92865 25.235281 579.91394 27.25 577.42865 27.25C574.94336 27.25 572.92865 25.235281 572.92865 22.75C572.92865 20.264719 574.94336 18.25 577.42865 18.25C579.91394 18.25 581.92865 20.264719 581.92865 22.75Z" fill-rule="nonzero"/><path fill="#4285f4" clip-path="url(#id_0)" d="M61.07133 246.5661C61.07133 249.05138 59.056614 251.0661 56.57133 251.0661C54.08605 251.0661 52.07133 249.05138 52.07133 246.5661C52.07133 244.08081 54.08605 242.0661 56.57133 242.0661C59.056614 242.0661 61.07133 244.08081 61.07133 246.5661Z" fill-rule="nonzero"/><path fill="#4285f4" clip-path="url(#id_0)" d="M84.48065 122.87398C84.48065 125.35926 82.46593 127.37398 79.98065 127.37398C77.49537 127.37398 75.48065 125.35926 75.48065 122.87398C75.48065 120.388695 77.49537 118.37398 79.98065 118.37398C82.46593 118.37398 84.48065 120.388695 84.48065 122.87398Z" fill-rule="nonzero"/><path fill="#4285f4" clip-path="url(#id_0)" d="M113.742294 99.4734C113.742294 101.95868 111.72758 103.9734 109.242294 103.9734C106.75702 103.9734 104.742294 101.95868 104.742294 99.4734C104.742294 96.98811 106.75702 94.9734 109.242294 94.9734C111.72758 94.9734 113.742294 96.98811 113.742294 99.4734Z" fill-rule="nonzero"/><path fill="#4285f4" clip-path="url(#id_0)" d="M172.2656 99.4734C172.2656 101.95868 170.25087 103.9734 167.7656 103.9734C165.28032 103.9734 163.2656 101.95868 163.2656 99.4734C163.2656 96.98811 165.28032 94.9734 167.7656 94.9734C170.25087 94.9734 172.2656 96.98811 172.2656 99.4734Z" fill-rule="nonzero"/><path fill="#4285f4" clip-path="url(#id_0)" d="M230.7889 99.4734C230.7889 101.95868 228.77417 103.9734 226.2889 103.9734C223.8036 103.9734 221.7889 101.95868 221.7889 99.4734C221.7889 96.98811 223.8036 94.9734 226.2889 94.9734C228.77417 94.9734 230.7889 96.98811 230.7889 99.4734Z" fill-rule="nonzero"/><path fill="#4285f4" clip-path="url(#id_0)" d="M289.3122 99.4734C289.3122 101.95868 287.29745 103.9734 284.8122 103.9734C282.3269 103.9734 280.3122 101.95868 280.3122 99.4734C280.3122 96.98811 282.3269 94.9734 284.8122 94.9734C287.29745 94.9734 289.3122 96.98811 289.3122 99.4734Z" fill-rule="nonzero"/><path fill="#4285f4" clip-path="url(#id_0)" d="M347.83548 99.4734C347.83548 101.95868 345.82077 103.9734 343.33548 103.9734C340.8502 103.9734 338.83548 101.95868 338.83548 99.4734C338.83548 96.98811 340.8502 94.9734 343.33548 94.9734C345.82077 94.9734 347.83548 96.98811 347.83548 99.4734Z" fill-rule="nonzero"/><path fill="#4285f4" clip-path="url(#id_0)" d="M406.35876 98.97545C406.35876 101.460724 404.34406 103.47545 401.85876 103.47545C399.3735 103.47545 397.35876 101.460724 397.35876 98.97545C397.35876 96.490166 399.3735 94.47545 401.85876 94.47545C404.34406 94.47545 406.35876 96.490166 406.35876 98.97545Z" fill-rule="nonzero"/><path fill="#4285f4" clip-path="url(#id_0)" d="M464.88208 98.97545C464.88208 101.460724 462.86737 103.47545 460.38208 103.47545C457.8968 103.47545 455.88208 101.460724 455.88208 98.97545C455.88208 96.490166 457.8968 94.47545 460.38208 94.47545C462.86737 94.47545 464.88208 96.490166 464.88208 98.97545Z" fill-rule="nonzero"/><path fill="#4285f4" clip-path="url(#id_0)" d="M523.4054 94.68824C523.4054 97.17352 521.3906 99.18824 518.9054 99.18824C516.4201 99.18824 514.4054 97.17352 514.4054 94.68824C514.4054 92.20296 516.4201 90.18824 518.9054 90.18824C521.3906 90.18824 523.4054 92.20296 523.4054 94.68824Z" fill-rule="nonzero"/><path fill="#4285f4" clip-path="url(#id_0)" d="M581.92865 92.88637C581.92865 95.37165 579.91394 97.38637 577.42865 97.38637C574.94336 97.38637 572.92865 95.37165 572.92865 92.88637C572.92865 90.401085 574.94336 88.38637 577.42865 88.38637C579.91394 88.38637 581.92865 90.401085 581.92865 92.88637Z" fill-rule="nonzero"/><path fill="#000000" d="M30.25 219.80307L31.359375 219.70932Q31.484375 220.52182 31.921875 220.92807Q32.375 221.33432 33.015625 221.33432Q33.765625 221.33432 34.296875 220.7562Q34.828125 220.17807 34.828125 219.24057Q34.828125 218.33432 34.3125 217.8187Q33.8125 217.28745 32.984375 217.28745Q32.484375 217.28745 32.0625 217.52182Q31.65625 217.7562 31.421875 218.11557L30.4375 217.99057L31.265625 213.58432L35.546875 213.58432L35.546875 214.58432L32.109375 214.58432L31.65625 216.89682Q32.421875 216.34995 33.265625 216.34995Q34.390625 216.34995 35.15625 217.1312Q35.9375 217.91245 35.9375 219.14682Q35.9375 220.30307 35.265625 221.16245Q34.4375 222.1937 33.015625 222.1937Q31.84375 222.1937 31.09375 221.53745Q30.359375 220.8812 30.25 219.80307ZM37.25 217.8187Q37.25 216.28745 37.5625 215.36557Q37.875 214.42807 38.484375 213.92807Q39.109375 213.42807 40.046875 213.42807Q40.734375 213.42807 41.25 213.70932Q41.78125 213.99057 42.125 214.52182Q42.46875 215.03745 42.65625 215.78745Q42.84375 216.53745 42.84375 217.8187Q42.84375 219.33432 42.53125 220.2562Q42.234375 221.17807 41.609375 221.6937Q41.0 222.1937 40.046875 222.1937Q38.8125 222.1937 38.09375 221.30307Q37.25 220.24057 37.25 217.8187ZM38.328125 217.8187Q38.328125 219.92807 38.828125 220.6312Q39.328125 221.33432 40.046875 221.33432Q40.78125 221.33432 41.265625 220.6312Q41.765625 219.92807 41.765625 217.8187Q41.765625 215.6937 41.265625 215.0062Q40.78125 214.30307 40.03125 214.30307Q39.3125 214.30307 38.875 214.91245Q38.328125 215.6937 38.328125 217.8187Z" fill-rule="nonzero"/><path fill="#000000" d="M27.21875 184.43155L26.171875 184.43155L26.171875 177.7128Q25.78125 178.07217 25.15625 178.44717Q24.546875 178.80655 24.0625 178.97842L24.0625 177.9628Q24.9375 177.54092 25.59375 176.9628Q26.265625 176.36905 26.546875 175.80655L27.21875 175.80655L27.21875 184.43155ZM30.25 180.19717Q30.25 178.66592 30.5625 177.74405Q30.875 176.80655 31.484375 176.30655Q32.109375 175.80655 33.046875 175.80655Q33.734375 175.80655 34.25 176.0878Q34.78125 176.36905 35.125 176.9003Q35.46875 177.41592 35.65625 178.16592Q35.84375 178.91592 35.84375 180.19717Q35.84375 181.7128 35.53125 182.63467Q35.234375 183.55655 34.609375 184.07217Q34.0 184.57217 33.046875 184.57217Q31.8125 184.57217 31.09375 183.68155Q30.25 182.61905 30.25 180.19717ZM31.328125 180.19717Q31.328125 182.30655 31.828125 183.00967Q32.328125 183.7128 33.046875 183.7128Q33.78125 183.7128 34.265625 183.00967Q34.765625 182.30655 34.765625 180.19717Q34.765625 178.07217 34.265625 177.38467Q33.78125 176.68155 33.03125 176.68155Q32.3125 176.68155 31.875 177.29092Q31.328125 178.07217 31.328125 180.19717ZM37.25 180.19717Q37.25 178.66592 37.5625 177.74405Q37.875 176.80655 38.484375 176.30655Q39.109375 175.80655 40.046875 175.80655Q40.734375 175.80655 41.25 176.0878Q41.78125 176.36905 42.125 176.9003Q42.46875 177.41592 42.65625 178.16592Q42.84375 178.91592 42.84375 180.19717Q42.84375 181.7128 42.53125 182.63467Q42.234375 183.55655 41.609375 184.07217Q41.0 184.57217 40.046875 184.57217Q38.8125 184.57217 38.09375 183.68155Q37.25 182.61905 37.25 180.19717ZM38.328125 180.19717Q38.328125 182.30655 38.828125 183.00967Q39.328125 183.7128 40.046875 183.7128Q40.78125 183.7128 41.265625 183.00967Q41.765625 182.30655 41.765625 180.19717Q41.765625 178.07217 41.265625 177.38467Q40.78125 176.68155 40.03125 176.68155Q39.3125 176.68155 38.875 177.29092Q38.328125 178.07217 38.328125 180.19717Z" fill-rule="nonzero"/><path fill="#000000" d="M23.25 94.82709L24.359375 94.73334Q24.484375 95.54584 24.921875 95.95209Q25.375 96.35834 26.015625 96.35834Q26.765625 96.35834 27.296875 95.78021Q27.828125 95.20209 27.828125 94.26459Q27.828125 93.35834 27.3125 92.84271Q26.8125 92.31146 25.984375 92.31146Q25.484375 92.31146 25.0625 92.54584Q24.65625 92.78021 24.421875 93.13959L23.4375 93.01459L24.265625 88.60834L28.546875 88.60834L28.546875 89.60834L25.109375 89.60834L24.65625 91.92084Q25.421875 91.37396 26.265625 91.37396Q27.390625 91.37396 28.15625 92.15521Q28.9375 92.93646 28.9375 94.17084Q28.9375 95.32709 28.265625 96.18646Q27.4375 97.21771 26.015625 97.21771Q24.84375 97.21771 24.09375 96.56146Q23.359375 95.90521 23.25 94.82709ZM30.25 92.84271Q30.25 91.31146 30.5625 90.38959Q30.875 89.45209 31.484375 88.95209Q32.109375 88.45209 33.046875 88.45209Q33.734375 88.45209 34.25 88.73334Q34.78125 89.01459 35.125 89.54584Q35.46875 90.06146 35.65625 90.81146Q35.84375 91.56146 35.84375 92.84271Q35.84375 94.35834 35.53125 95.28021Q35.234375 96.20209 34.609375 96.71771Q34.0 97.21771 33.046875 97.21771Q31.8125 97.21771 31.09375 96.32709Q30.25 95.26459 30.25 92.84271ZM31.328125 92.84271Q31.328125 94.95209 31.828125 95.65521Q32.328125 96.35834 33.046875 96.35834Q33.78125 96.35834 34.265625 95.65521Q34.765625 94.95209 34.765625 92.84271Q34.765625 90.71771 34.265625 90.03021Q33.78125 89.32709 33.03125 89.32709Q32.3125 89.32709 31.875 89.93646Q31.328125 90.71771 31.328125 92.84271ZM37.25 92.84271Q37.25 91.31146 37.5625 90.38959Q37.875 89.45209 38.484375 88.95209Q39.109375 88.45209 40.046875 88.45209Q40.734375 88.45209 41.25 88.73334Q41.78125 89.01459 42.125 89.54584Q42.46875 90.06146 42.65625 90.81146Q42.84375 91.56146 42.84375 92.84271Q42.84375 94.35834 42.53125 95.28021Q42.234375 96.20209 41.609375 96.71771Q41.0 97.21771 40.046875 97.21771Q38.8125 97.21771 38.09375 96.32709Q37.25 95.26459 37.25 92.84271ZM38.328125 92.84271Q38.328125 94.95209 38.828125 95.65521Q39.328125 96.35834 40.046875 96.35834Q40.78125 96.35834 41.265625 95.65521Q41.765625 94.95209 41.765625 92.84271Q41.765625 90.71771 41.265625 90.03021Q40.78125 89.32709 40.03125 89.32709Q39.3125 89.32709 38.875 89.93646Q38.328125 90.71771 38.328125 92.84271Z" fill-rule="nonzero"/><path fill="#000000" d="M20.21875 59.455566L19.171875 59.455566L19.171875 52.736816Q18.78125 53.09619 18.15625 53.47119Q17.546875 53.830566 17.0625 54.00244L17.0625 52.986816Q17.9375 52.56494 18.59375 51.986816Q19.265625 51.393066 19.546875 50.830566L20.21875 50.830566L20.21875 59.455566ZM23.25 55.22119Q23.25 53.68994 23.5625 52.768066Q23.875 51.830566 24.484375 51.330566Q25.109375 50.830566 26.046875 50.830566Q26.734375 50.830566 27.25 51.111816Q27.78125 51.393066 28.125 51.924316Q28.46875 52.43994 28.65625 53.18994Q28.84375 53.93994 28.84375 55.22119Q28.84375 56.736816 28.53125 57.65869Q28.234375 58.580566 27.609375 59.09619Q27.0 59.59619 26.046875 59.59619Q24.8125 59.59619 24.09375 58.705566Q23.25 57.643066 23.25 55.22119ZM24.328125 55.22119Q24.328125 57.330566 24.828125 58.03369Q25.328125 58.736816 26.046875 58.736816Q26.78125 58.736816 27.265625 58.03369Q27.765625 57.330566 27.765625 55.22119Q27.765625 53.09619 27.265625 52.40869Q26.78125 51.705566 26.03125 51.705566Q25.3125 51.705566 24.875 52.31494Q24.328125 53.09619 24.328125 55.22119ZM30.25 55.22119Q30.25 53.68994 30.5625 52.768066Q30.875 51.830566 31.484375 51.330566Q32.109375 50.830566 33.046875 50.830566Q33.734375 50.830566 34.25 51.111816Q34.78125 51.393066 35.125 51.924316Q35.46875 52.43994 35.65625 53.18994Q35.84375 53.93994 35.84375 55.22119Q35.84375 56.736816 35.53125 57.65869Q35.234375 58.580566 34.609375 59.09619Q34.0 59.59619 33.046875 59.59619Q31.8125 59.59619 31.09375 58.705566Q30.25 57.643066 30.25 55.22119ZM31.328125 55.22119Q31.328125 57.330566 31.828125 58.03369Q32.328125 58.736816 33.046875 58.736816Q33.78125 58.736816 34.265625 58.03369Q34.765625 57.330566 34.765625 55.22119Q34.765625 53.09619 34.265625 52.40869Q33.78125 51.705566 33.03125 51.705566Q32.3125 51.705566 31.875 52.31494Q31.328125 53.09619 31.328125 55.22119ZM37.25 55.22119Q37.25 53.68994 37.5625 52.768066Q37.875 51.830566 38.484375 51.330566Q39.109375 50.830566 40.046875 50.830566Q40.734375 50.830566 41.25 51.111816Q41.78125 51.393066 42.125 51.924316Q42.46875 52.43994 42.65625 53.18994Q42.84375 53.93994 42.84375 55.22119Q42.84375 56.736816 42.53125 57.65869Q42.234375 58.580566 41.609375 59.09619Q41.0 59.59619 40.046875 59.59619Q38.8125 59.59619 38.09375 58.705566Q37.25 57.643066 37.25 55.22119ZM38.328125 55.22119Q38.328125 57.330566 38.828125 58.03369Q39.328125 58.736816 40.046875 58.736816Q40.78125 58.736816 41.265625 58.03369Q41.765625 57.330566 41.765625 55.22119Q41.765625 53.09619 41.265625 52.40869Q40.78125 51.705566 40.03125 51.705566Q39.3125 51.705566 38.875 52.31494Q38.328125 53.09619 38.328125 55.22119Z" fill-rule="nonzero"/><path fill="#000000" d="M47.719 292.01562Q47.719 290.48438 48.0315 289.5625Q48.344 288.625 48.953377 288.125Q49.578377 287.625 50.515877 287.625Q51.203377 287.625 51.719 287.90625Q52.25025 288.1875 52.594 288.71875Q52.93775 289.23438 53.12525 289.98438Q53.31275 290.73438 53.31275 292.01562Q53.31275 293.53125 53.00025 294.45312Q52.703377 295.375 52.078377 295.89062Q51.469 296.39062 50.515877 296.39062Q49.2815 296.39062 48.56275 295.5Q47.719 294.4375 47.719 292.01562ZM48.797127 292.01562Q48.797127 294.125 49.297127 294.82812Q49.797127 295.53125 50.515877 295.53125Q51.25025 295.53125 51.734627 294.82812Q52.234627 294.125 52.234627 292.01562Q52.234627 289.89062 51.734627 289.20312Q51.25025 288.5 50.50025 288.5Q49.7815 288.5 49.344 289.10938Q48.797127 289.89062 48.797127 292.01562Z" fill-rule="nonzero"/><path fill="#000000" d="M159.7656 292.01562Q159.7656 290.48438 160.0781 289.5625Q160.3906 288.625 160.99997 288.125Q161.62497 287.625 162.56247 287.625Q163.24997 287.625 163.7656 287.90625Q164.29684 288.1875 164.6406 288.71875Q164.98434 289.23438 165.17184 289.98438Q165.35934 290.73438 165.35934 292.01562Q165.35934 293.53125 165.04684 294.45312Q164.74997 295.375 164.12497 295.89062Q163.5156 296.39062 162.56247 296.39062Q161.3281 296.39062 160.60934 295.5Q159.7656 294.4375 159.7656 292.01562ZM160.84372 292.01562Q160.84372 294.125 161.34372 294.82812Q161.84372 295.53125 162.56247 295.53125Q163.29684 295.53125 163.78122 294.82812Q164.28122 294.125 164.28122 292.01562Q164.28122 289.89062 163.78122 289.20312Q163.29684 288.5 162.54684 288.5Q161.8281 288.5 161.3906 289.10938Q160.84372 289.89062 160.84372 292.01562ZM167.35934 296.25L167.35934 295.04688L168.56247 295.04688L168.56247 296.25L167.35934 296.25ZM175.31247 295.23438L175.31247 296.25L169.62497 296.25Q169.62497 295.875 169.74997 295.51562Q169.96872 294.9375 170.43747 294.375Q170.92184 293.8125 171.8281 293.07812Q173.23434 291.92188 173.71872 291.25Q174.21872 290.57812 174.21872 289.98438Q174.21872 289.35938 173.7656 288.9375Q173.31247 288.5 172.59372 288.5Q171.8281 288.5 171.37497 288.95312Q170.92184 289.40625 170.90622 290.21875L169.8281 290.10938Q169.93747 288.89062 170.65622 288.26562Q171.3906 287.625 172.62497 287.625Q173.85934 287.625 174.5781 288.3125Q175.29684 289.0 175.29684 290.01562Q175.29684 290.53125 175.0781 291.03125Q174.87497 291.51562 174.37497 292.07812Q173.8906 292.625 172.7656 293.57812Q171.81247 294.375 171.53122 294.67188Q171.2656 294.95312 171.09372 295.23438L175.31247 295.23438Z" fill-rule="nonzero"/><path fill="#000000" d="M276.8122 292.01562Q276.8122 290.48438 277.1247 289.5625Q277.4372 288.625 278.04657 288.125Q278.67157 287.625 279.60907 287.625Q280.29657 287.625 280.8122 287.90625Q281.34344 288.1875 281.6872 288.71875Q282.03094 289.23438 282.21844 289.98438Q282.40594 290.73438 282.40594 292.01562Q282.40594 293.53125 282.09344 294.45312Q281.79657 295.375 281.17157 295.89062Q280.5622 296.39062 279.60907 296.39062Q278.3747 296.39062 277.65594 295.5Q276.8122 294.4375 276.8122 292.01562ZM277.89032 292.01562Q277.89032 294.125 278.39032 294.82812Q278.89032 295.53125 279.60907 295.53125Q280.34344 295.53125 280.82782 294.82812Q281.32782 294.125 281.32782 292.01562Q281.32782 289.89062 280.82782 289.20312Q280.34344 288.5 279.59344 288.5Q278.8747 288.5 278.4372 289.10938Q277.89032 289.89062 277.89032 292.01562ZM284.40594 296.25L284.40594 295.04688L285.60907 295.04688L285.60907 296.25L284.40594 296.25ZM290.1872 296.25L290.1872 294.1875L286.46844 294.1875L286.46844 293.21875L290.39032 287.65625L291.2497 287.65625L291.2497 293.21875L292.40594 293.21875L292.40594 294.1875L291.2497 294.1875L291.2497 296.25L290.1872 296.25ZM290.1872 293.21875L290.1872 289.35938L287.4997 293.21875L290.1872 293.21875Z" fill-rule="nonzero"/><path fill="#000000" d="M393.85876 292.01562Q393.85876 290.48438 394.17126 289.5625Q394.48376 288.625 395.09314 288.125Q395.71814 287.625 396.65564 287.625Q397.34314 287.625 397.85876 287.90625Q398.39 288.1875 398.73376 288.71875Q399.0775 289.23438 399.265 289.98438Q399.4525 290.73438 399.4525 292.01562Q399.4525 293.53125 399.14 294.45312Q398.84314 295.375 398.21814 295.89062Q397.60876 296.39062 396.65564 296.39062Q395.42126 296.39062 394.7025 295.5Q393.85876 294.4375 393.85876 292.01562ZM394.9369 292.01562Q394.9369 294.125 395.4369 294.82812Q395.9369 295.53125 396.65564 295.53125Q397.39 295.53125 397.8744 294.82812Q398.3744 294.125 398.3744 292.01562Q398.3744 289.89062 397.8744 289.20312Q397.39 288.5 396.64 288.5Q395.92126 288.5 395.48376 289.10938Q394.9369 289.89062 394.9369 292.01562ZM401.4525 296.25L401.4525 295.04688L402.65564 295.04688L402.65564 296.25L401.4525 296.25ZM409.3275 289.76562L408.28064 289.84375Q408.14 289.21875 407.89 288.9375Q407.4525 288.48438 406.8275 288.48438Q406.3275 288.48438 405.9369 288.76562Q405.4525 289.14062 405.15564 289.84375Q404.8744 290.53125 404.85876 291.8125Q405.23376 291.23438 405.78064 290.95312Q406.34314 290.67188 406.9525 290.67188Q407.9994 290.67188 408.73376 291.45312Q409.48376 292.23438 409.48376 293.45312Q409.48376 294.26562 409.1244 294.96875Q408.78064 295.65625 408.17126 296.03125Q407.5619 296.39062 406.79626 296.39062Q405.46814 296.39062 404.64 295.42188Q403.8119 294.45312 403.8119 292.23438Q403.8119 289.73438 404.73376 288.60938Q405.53064 287.625 406.89 287.625Q407.90564 287.625 408.54626 288.20312Q409.2025 288.76562 409.3275 289.76562ZM405.03064 293.46875Q405.03064 294.01562 405.2494 294.51562Q405.48376 295.0 405.89 295.26562Q406.3119 295.53125 406.78064 295.53125Q407.4369 295.53125 407.92126 295.0Q408.40564 294.45312 408.40564 293.53125Q408.40564 292.64062 407.92126 292.125Q407.4525 291.60938 406.73376 291.60938Q406.015 291.60938 405.515 292.125Q405.03064 292.64062 405.03064 293.46875Z" fill-rule="nonzero"/><path fill="#000000" d="M510.90536 292.01562Q510.90536 290.48438 511.21786 289.5625Q511.53036 288.625 512.1398 288.125Q512.7648 287.625 513.7023 287.625Q514.3898 287.625 514.9054 287.90625Q515.43665 288.1875 515.7804 288.71875Q516.12415 289.23438 516.31165 289.98438Q516.49915 290.73438 516.49915 292.01562Q516.49915 293.53125 516.18665 294.45312Q515.8898 295.375 515.2648 295.89062Q514.6554 296.39062 513.7023 296.39062Q512.4679 296.39062 511.7491 295.5Q510.90536 294.4375 510.90536 292.01562ZM511.9835 292.01562Q511.9835 294.125 512.4835 294.82812Q512.9835 295.53125 513.7023 295.53125Q514.43665 295.53125 514.921 294.82812Q515.421 294.125 515.421 292.01562Q515.421 289.89062 514.921 289.20312Q514.43665 288.5 513.68665 288.5Q512.9679 288.5 512.5304 289.10938Q511.9835 289.89062 511.9835 292.01562ZM518.49915 296.25L518.49915 295.04688L519.7023 295.04688L519.7023 296.25L518.49915 296.25ZM522.5304 291.59375Q521.87415 291.34375 521.546 290.90625Q521.2335 290.45312 521.2335 289.84375Q521.2335 288.90625 521.9054 288.26562Q522.5929 287.625 523.7023 287.625Q524.8273 287.625 525.5148 288.28125Q526.2023 288.9375 526.2023 289.875Q526.2023 290.46875 525.8898 290.90625Q525.5773 291.34375 524.93665 291.59375Q525.7335 291.84375 526.1398 292.42188Q526.546 293.0 526.546 293.79688Q526.546 294.89062 525.7648 295.64062Q524.99915 296.39062 523.7179 296.39062Q522.4523 296.39062 521.671 295.64062Q520.8898 294.89062 520.8898 293.76562Q520.8898 292.92188 521.31165 292.35938Q521.74915 291.79688 522.5304 291.59375ZM522.31165 289.79688Q522.31165 290.40625 522.7023 290.79688Q523.1085 291.1875 523.7335 291.1875Q524.3429 291.1875 524.7335 290.8125Q525.12415 290.42188 525.12415 289.85938Q525.12415 289.28125 524.7179 288.89062Q524.31165 288.48438 523.7179 288.48438Q523.1085 288.48438 522.7023 288.875Q522.31165 289.26562 522.31165 289.79688ZM521.9835 293.76562Q521.9835 294.21875 522.18665 294.64062Q522.4054 295.0625 522.8273 295.29688Q523.24915 295.53125 523.7335 295.53125Q524.4835 295.53125 524.9679 295.04688Q525.4679 294.5625 525.4679 293.8125Q525.4679 293.04688 524.9679 292.54688Q524.4679 292.04688 523.7023 292.04688Q522.9523 292.04688 522.4679 292.54688Q521.9835 293.03125 521.9835 293.76562Z" fill-rule="nonzero"/></svg>