<svg version="1.1" viewBox="0.0 0.0 600.0 315.0" fill="none" stroke="none" stroke-linecap="square" stroke-miterlimit="10" width="600" height="315" xmlns:xlink="http://www.w3.org/1999/xlink" xmlns="http://www.w3.org/2000/svg"><path fill="#ffffff" d="M0 0L600.0 0L600.0 315.0L0 315.0L0 0Z" fill-rule="nonzero"/><path stroke="#333333" stroke-width="1.0" stroke-linecap="butt" d="M75.5 22.5L75.5 279.5" fill-rule="nonzero"/><path stroke="#cccccc" stroke-width="1.0" stroke-linecap="butt" d="M187.5 22.5L187.5 279.5" fill-rule="nonzero"/><path stroke="#cccccc" stroke-width="1.0" stroke-linecap="butt" d="M298.5 22.5L298.5 279.5" fill-rule="nonzero"/><path stroke="#cccccc" stroke-width="1.0" stroke-linecap="butt" d="M410.5 22.5L410.5 279.5" fill-rule="nonzero"/><path stroke="#cccccc" stroke-width="1.0" stroke-linecap="butt" d="M521.5 22.5L521.5 279.5" fill-rule="nonzero"/><path stroke="#cccccc" stroke-width="1.0" stroke-linecap="butt" d="M74.5 268.5L584.5 268.5" fill-rule="nonzero"/><path stroke="#cccccc" stroke-width="1.0" stroke-linecap="butt" d="M74.5 224.5L584.5 224.5" fill-rule="nonzero"/><path stroke="#cccccc" stroke-width="1.0" stroke-linecap="butt" d="M74.5 123.5L584.5 123.5" fill-rule="nonzero"/><path stroke="#cccccc" stroke-width="1.0" stroke-linecap="butt" d="M74.5 80.5L584.5 80.5" fill-rule="nonzero"/><clipPath id="id_0"><path d="M74.75 22.75L584.25 22.75L584.25 279.25L74.75 279.25L74.75 22.75Z" clip-rule="nonzero"/></clipPath><path stroke="#fbbc04" stroke-width="2.0" stroke-linecap="butt" clip-path="url(#id_0)" d="M81.5628 279.25L103.84929 275.7571L131.7074 267.7932L187.42363 257.90005L243.13985 256.22037L298.85608 254.5846L354.5723 252.20844L410.2885 247.71083L466.00476 220.79518L521.72095 196.85475L577.4372 147.37944" fill-rule="nonzero"/><path stroke="#34a853" stroke-width="2.0" stroke-linecap="butt" clip-path="url(#id_0)" d="M81.5628 178.37656L103.84929 174.66794L131.7074 171.1669L187.42363 163.93987L243.13985 159.54755L298.85608 157.46187L354.5723 155.44347L410.2885 153.48816L466.00476 149.75185L521.72095 135.97253L577.4372 77.2067" fill-rule="nonzero"/><path stroke="#4285f4" stroke-width="2.0" stroke-linecap="butt" clip-path="url(#id_0)" d="M81.5628 267.7932L103.84929 260.5073L131.7074 254.5846L187.42363 223.9301L243.13985 119.81948L298.85608 86.15977L354.5723 72.814384L410.2885 62.417095L466.00476 51.46084L521.72095 38.564228L577.4372 22.75" fill-rule="nonzero"/><path fill="#fbbc04" clip-path="url(#id_0)" d="M86.0628 279.25C86.0628 281.7353 84.04808 283.75 81.5628 283.75C79.077515 283.75 77.0628 281.7353 77.0628 279.25C77.0628 276.7647 79.077515 274.75 81.5628 274.75C84.04808 274.75 86.0628 276.7647 86.0628 279.25Z" fill-rule="nonzero"/><path fill="#fbbc04" clip-path="url(#id_0)" d="M108.34929 275.7571C108.34929 278.2424 106.33457 280.2571 103.84929 280.2571C101.364006 280.2571 99.34929 278.2424 99.34929 275.7571C99.34929 273.27182 101.364006 271.2571 103.84929 271.2571C106.33457 271.2571 108.34929 273.27182 108.34929 275.7571Z" fill-rule="nonzero"/><path fill="#fbbc04" clip-path="url(#id_0)" d="M136.2074 267.7932C136.2074 270.2785 134.19269 272.2932 131.7074 272.2932C129.22212 272.2932 127.2074 270.2785 127.2074 267.7932C127.2074 265.30795 129.22212 263.2932 131.7074 263.2932C134.19269 263.2932 136.2074 265.30795 136.2074 267.7932Z" fill-rule="nonzero"/><path fill="#fbbc04" clip-path="url(#id_0)" d="M191.92363 257.90005C191.92363 260.38535 189.9089 262.40005 187.42363 262.40005C184.93834 262.40005 182.92363 260.38535 182.92363 257.90005C182.92363 255.41478 184.93834 253.40005 187.42363 253.40005C189.9089 253.40005 191.92363 255.41478 191.92363 257.90005Z" fill-rule="nonzero"/><path fill="#fbbc04" clip-path="url(#id_0)" d="M247.63985 256.22037C247.63985 258.70566 245.62514 260.72037 243.13985 260.72037C240.65457 260.72037 238.63985 258.70566 238.63985 256.22037C238.63985 253.73509 240.65457 251.72037 243.13985 251.72037C245.62514 251.72037 247.63985 253.73509 247.63985 256.22037Z" fill-rule="nonzero"/><path fill="#fbbc04" clip-path="url(#id_0)" d="M303.35608 254.5846C303.35608 257.0699 301.34137 259.0846 298.85608 259.0846C296.3708 259.0846 294.35608 257.0699 294.35608 254.5846C294.35608 252.09932 296.3708 250.0846 298.85608 250.0846C301.34137 250.0846 303.35608 252.09932 303.35608 254.5846Z" fill-rule="nonzero"/><path fill="#fbbc04" clip-path="url(#id_0)" d="M359.0723 252.20844C359.0723 254.69371 357.0576 256.70844 354.5723 256.70844C352.087 256.70844 350.0723 254.69371 350.0723 252.20844C350.0723 249.72314 352.087 247.70844 354.5723 247.70844C357.0576 247.70844 359.0723 249.72314 359.0723 252.20844Z" fill-rule="nonzero"/><path fill="#fbbc04" clip-path="url(#id_0)" d="M414.7885 247.71083C414.7885 250.1961 412.7738 252.21083 410.2885 252.21083C407.80325 252.21083 405.7885 250.1961 405.7885 247.71083C405.7885 245.22554 407.80325 243.21083 410.2885 243.21083C412.7738 243.21083 414.7885 245.22554 414.7885 247.71083Z" fill-rule="nonzero"/><path fill="#fbbc04" clip-path="url(#id_0)" d="M470.50476 220.79518C470.50476 223.28046 468.49002 225.29518 466.00476 225.29518C463.51947 225.29518 461.50476 223.28046 461.50476 220.79518C461.50476 218.30989 463.51947 216.29518 466.00476 216.29518C468.49002 216.29518 470.50476 218.30989 470.50476 220.79518Z" fill-rule="nonzero"/><path fill="#fbbc04" clip-path="url(#id_0)" d="M526.22095 196.85475C526.22095 199.34003 524.20624 201.35475 521.72095 201.35475C519.2357 201.35475 517.22095 199.34003 517.22095 196.85475C517.22095 194.36946 519.2357 192.35475 521.72095 192.35475C524.20624 192.35475 526.22095 194.36946 526.22095 196.85475Z" fill-rule="nonzero"/><path fill="#fbbc04" clip-path="url(#id_0)" d="M581.9372 147.37944C581.9372 149.86472 579.9225 151.87944 577.4372 151.87944C574.9519 151.87944 572.9372 149.86472 572.9372 147.37944C572.9372 144.89415 574.9519 142.87944 577.4372 142.87944C579.9225 142.87944 581.9372 144.89415 581.9372 147.37944Z" fill-rule="nonzero"/><path fill="#34a853" clip-path="url(#id_0)" d="M86.0628 178.37656C86.0628 180.86185 84.04808 182.87656 81.5628 182.87656C79.077515 182.87656 77.0628 180.86185 77.0628 178.37656C77.0628 175.89128 79.077515 173.87656 81.5628 173.87656C84.04808 173.87656 86.0628 175.89128 86.0628 178.37656Z" fill-rule="nonzero"/><path fill="#34a853" clip-path="url(#id_0)" d="M108.34929 174.66794C108.34929 177.15321 106.33457 179.16794 103.84929 179.16794C101.364006 179.16794 99.34929 177.15321 99.34929 174.66794C99.34929 172.18265 101.364006 170.16794 103.84929 170.16794C106.33457 170.16794 108.34929 172.18265 108.34929 174.66794Z" fill-rule="nonzero"/><path fill="#34a853" clip-path="url(#id_0)" d="M136.2074 171.1669C136.2074 173.65218 134.19269 175.6669 131.7074 175.6669C129.22212 175.6669 127.2074 173.65218 127.2074 171.1669C127.2074 168.68161 129.22212 166.6669 131.7074 166.6669C134.19269 166.6669 136.2074 168.68161 136.2074 171.1669Z" fill-rule="nonzero"/><path fill="#34a853" clip-path="url(#id_0)" d="M191.92363 163.93987C191.92363 166.42514 189.9089 168.43987 187.42363 168.43987C184.93834 168.43987 182.92363 166.42514 182.92363 163.93987C182.92363 161.45457 184.93834 159.43987 187.42363 159.43987C189.9089 159.43987 191.92363 161.45457 191.92363 163.93987Z" fill-rule="nonzero"/><path fill="#34a853" clip-path="url(#id_0)" d="M247.63985 159.54755C247.63985 162.03284 245.62514 164.04755 243.13985 164.04755C240.65457 164.04755 238.63985 162.03284 238.63985 159.54755C238.63985 157.06227 240.65457 155.04755 243.13985 155.04755C245.62514 155.04755 247.63985 157.06227 247.63985 159.54755Z" fill-rule="nonzero"/><path fill="#34a853" clip-path="url(#id_0)" d="M303.35608 157.46187C303.35608 159.94714 301.34137 161.96187 298.85608 161.96187C296.3708 161.96187 294.35608 159.94714 294.35608 157.46187C294.35608 154.97658 296.3708 152.96187 298.85608 152.96187C301.34137 152.96187 303.35608 154.97658 303.35608 157.46187Z" fill-rule="nonzero"/><path fill="#34a853" clip-path="url(#id_0)" d="M359.0723 155.44347C359.0723 157.92876 357.0576 159.94347 354.5723 159.94347C352.087 159.94347 350.0723 157.92876 350.0723 155.44347C350.0723 152.95819 352.087 150.94347 354.5723 150.94347C357.0576 150.94347 359.0723 152.95819 359.0723 155.44347Z" fill-rule="nonzero"/><path fill="#34a853" clip-path="url(#id_0)" d="M414.7885 153.48816C414.7885 155.97345 412.7738 157.98816 410.2885 157.98816C407.80325 157.98816 405.7885 155.97345 405.7885 153.48816C405.7885 151.00288 407.80325 148.98816 410.2885 148.98816C412.7738 148.98816 414.7885 151.00288 414.7885 153.48816Z" fill-rule="nonzero"/><path fill="#34a853" clip-path="url(#id_0)" d="M470.50476 149.75185C470.50476 152.23712 468.49002 154.25185 466.00476 154.25185C463.51947 154.25185 461.50476 152.23712 461.50476 149.75185C461.50476 147.26657 463.51947 145.25185 466.00476 145.25185C468.49002 145.25185 470.50476 147.26657 470.50476 149.75185Z" fill-rule="nonzero"/><path fill="#34a853" clip-path="url(#id_0)" d="M526.22095 135.97253C526.22095 138.45781 524.20624 140.47253 521.72095 140.47253C519.2357 140.47253 517.22095 138.45781 517.22095 135.97253C517.22095 133.48726 519.2357 131.47253 521.72095 131.47253C524.20624 131.47253 526.22095 133.48726 526.22095 135.97253Z" fill-rule="nonzero"/><path fill="#34a853" clip-path="url(#id_0)" d="M581.9372 77.2067C581.9372 79.69198 579.9225 81.7067 577.4372 81.7067C574.9519 81.7067 572.9372 79.69198 572.9372 77.2067C572.9372 74.72142 574.9519 72.7067 577.4372 72.7067C579.9225 72.7067 581.9372 74.72142 581.9372 77.2067Z" fill-rule="nonzero"/><path fill="#4285f4" clip-path="url(#id_0)" d="M86.0628 267.7932C86.0628 270.2785 84.04808 272.2932 81.5628 272.2932C79.077515 272.2932 77.0628 270.2785 77.0628 267.7932C77.0628 265.30795 79.077515 263.2932 81.5628 263.2932C84.04808 263.2932 86.0628 265.30795 86.0628 267.7932Z" fill-rule="nonzero"/><path fill="#4285f4" clip-path="url(#id_0)" d="M108.34929 260.5073C108.34929 262.99258 106.33457 265.0073 103.84929 265.0073C101.364006 265.0073 99.34929 262.99258 99.34929 260.5073C99.34929 258.02203 101.364006 256.0073 103.84929 256.0073C106.33457 256.0073 108.34929 258.02203 108.34929 260.5073Z" fill-rule="nonzero"/><path fill="#4285f4" clip-path="url(#id_0)" d="M136.2074 254.5846C136.2074 257.0699 134.19269 259.0846 131.7074 259.0846C129.22212 259.0846 127.2074 257.0699 127.2074 254.5846C127.2074 252.09932 129.22212 250.0846 131.7074 250.0846C134.19269 250.0846 136.2074 252.09932 136.2074 254.5846Z" fill-rule="nonzero"/><path fill="#4285f4" clip-path="url(#id_0)" d="M191.92363 223.9301C191.92363 226.41537 189.9089 228.4301 187.42363 228.4301C184.93834 228.4301 182.92363 226.41537 182.92363 223.9301C182.92363 221.44481 184.93834 219.4301 187.42363 219.4301C189.9089 219.4301 191.92363 221.44481 191.92363 223.9301Z" fill-rule="nonzero"/><path fill="#4285f4" clip-path="url(#id_0)" d="M247.63985 119.81948C247.63985 122.30476 245.62514 124.31948 243.13985 124.31948C240.65457 124.31948 238.63985 122.30476 238.63985 119.81948C238.63985 117.3342 240.65457 115.31948 243.13985 115.31948C245.62514 115.31948 247.63985 117.3342 247.63985 119.81948Z" fill-rule="nonzero"/><path fill="#4285f4" clip-path="url(#id_0)" d="M303.35608 86.15977C303.35608 88.64505 301.34137 90.65977 298.85608 90.65977C296.3708 90.65977 294.35608 88.64505 294.35608 86.15977C294.35608 83.674484 296.3708 81.65977 298.85608 81.65977C301.34137 81.65977 303.35608 83.674484 303.35608 86.15977Z" fill-rule="nonzero"/><path fill="#4285f4" clip-path="url(#id_0)" d="M359.0723 72.814384C359.0723 75.29967 357.0576 77.314384 354.5723 77.314384C352.087 77.314384 350.0723 75.29967 350.0723 72.814384C350.0723 70.32911 352.087 68.314384 354.5723 68.314384C357.0576 68.314384 359.0723 70.32911 359.0723 72.814384Z" fill-rule="nonzero"/><path fill="#4285f4" clip-path="url(#id_0)" d="M414.7885 62.417095C414.7885 64.902374 412.7738 66.91709 410.2885 66.91709C407.80325 66.91709 405.7885 64.902374 405.7885 62.417095C405.7885 59.931812 407.80325 57.917095 410.2885 57.917095C412.7738 57.917095 414.7885 59.931812 414.7885 62.417095Z" fill-rule="nonzero"/><path fill="#4285f4" clip-path="url(#id_0)" d="M470.50476 51.46084C470.50476 53.94612 468.49002 55.96084 466.00476 55.96084C463.51947 55.96084 461.50476 53.94612 461.50476 51.46084C461.50476 48.97556 463.51947 46.96084 466.00476 46.96084C468.49002 46.96084 470.50476 48.97556 470.50476 51.46084Z" fill-rule="nonzero"/><path fill="#4285f4" clip-path="url(#id_0)" d="M526.22095 38.564228C526.22095 41.04951 524.20624 43.064228 521.72095 43.064228C519.2357 43.064228 517.22095 41.04951 517.22095 38.564228C517.22095 36.07895 519.2357 34.064228 521.72095 34.064228C524.20624 34.064228 526.22095 36.07895 526.22095 38.564228Z" fill-rule="nonzero"/><path fill="#4285f4" clip-path="url(#id_0)" d="M581.9372 22.75C581.9372 25.235281 579.9225 27.25 577.4372 27.25C574.9519 27.25 572.9372 25.235281 572.9372 22.75C572.9372 20.264719 574.9519 18.25 577.4372 18.25C579.9225 18.25 581.9372 20.264719 581.9372 22.75Z" fill-rule="nonzero"/><path fill="#000000" d="M26.75 206.23438L18.15625 206.23438L18.15625 205.17188L26.75 205.17188L26.75 206.23438ZM23.640625 203.59375Q21.90625 203.59375 21.078125 202.64062Q20.390625 201.84375 20.390625 200.6875Q20.390625 199.40625 21.234375 198.59375Q22.0625 197.76562 23.546875 197.76562Q24.75 197.76562 25.4375 198.125Q26.125 198.48438 26.515625 199.1875Q26.890625 199.875 26.890625 200.6875Q26.890625 201.98438 26.0625 202.79688Q25.21875 203.59375 23.640625 203.59375ZM23.640625 202.51562Q24.828125 202.51562 25.421875 202.0Q26.015625 201.46875 26.015625 200.6875Q26.015625 199.89062 25.421875 199.375Q24.828125 198.85938 23.609375 198.85938Q22.453125 198.85938 21.859375 199.39062Q21.265625 199.90625 21.265625 200.6875Q21.265625 201.46875 21.859375 202.0Q22.4375 202.51562 23.640625 202.51562ZM27.265625 196.40625L27.421875 195.375Q27.890625 195.3125 28.109375 195.01562Q28.40625 194.625 28.40625 193.95312Q28.40625 193.21875 28.109375 192.82812Q27.8125 192.42188 27.296875 192.28125Q26.96875 192.1875 25.9375 192.20312Q26.75 192.89062 26.75 193.92188Q26.75 195.20312 25.828125 195.90625Q24.890625 196.60938 23.609375 196.60938Q22.71875 196.60938 21.96875 196.29688Q21.203125 195.96875 20.796875 195.35938Q20.390625 194.75 20.390625 193.92188Q20.390625 192.8125 21.28125 192.09375L20.53125 192.09375L20.53125 191.125L25.90625 191.125Q27.359375 191.125 27.96875 191.42188Q28.578125 191.71875 28.921875 192.35938Q29.28125 193.0 29.28125 193.9375Q29.28125 195.04688 28.78125 195.73438Q28.28125 196.42188 27.265625 196.40625ZM23.53125 195.53125Q24.75 195.53125 25.3125 195.04688Q25.875 194.5625 25.875 193.82812Q25.875 193.09375 25.3125 192.60938Q24.75 192.10938 23.5625 192.10938Q22.421875 192.10938 21.84375 192.625Q21.265625 193.125 21.265625 193.84375Q21.265625 194.54688 21.84375 195.04688Q22.40625 195.53125 23.53125 195.53125ZM26.75 186.23438L18.15625 186.23438L18.15625 185.17188L26.75 185.17188L26.75 186.23438ZM25.984375 179.14062Q26.484375 179.73438 26.6875 180.28125Q26.890625 180.8125 26.890625 181.4375Q26.890625 182.46875 26.390625 183.01562Q25.890625 183.5625 25.109375 183.5625Q24.65625 183.5625 24.28125 183.35938Q23.890625 183.15625 23.671875 182.8125Q23.4375 182.46875 23.328125 182.04688Q23.234375 181.75 23.15625 181.10938Q23.015625 179.84375 22.796875 179.23438Q22.578125 179.23438 22.53125 179.23438Q21.875 179.23438 21.609375 179.53125Q21.265625 179.9375 21.265625 180.73438Q21.265625 181.46875 21.53125 181.82812Q21.78125 182.1875 22.4375 182.35938L22.296875 183.39062Q21.640625 183.25 21.234375 182.92188Q20.828125 182.59375 20.609375 181.98438Q20.390625 181.375 20.390625 180.57812Q20.390625 179.78125 20.578125 179.28125Q20.765625 178.78125 21.046875 178.54688Q21.328125 178.3125 21.765625 178.21875Q22.03125 178.17188 22.734375 178.17188L24.140625 178.17188Q25.609375 178.17188 26.0 178.10938Q26.390625 178.03125 26.75 177.82812L26.75 178.9375Q26.421875 179.09375 25.984375 179.14062ZM23.625 179.23438Q23.859375 179.8125 24.03125 180.95312Q24.125 181.60938 24.25 181.875Q24.359375 182.14062 24.578125 182.29688Q24.796875 182.4375 25.078125 182.4375Q25.5 182.4375 25.78125 182.125Q26.0625 181.79688 26.0625 181.1875Q26.0625 180.57812 25.796875 180.10938Q25.53125 179.625 25.0625 179.40625Q24.703125 179.23438 24.015625 179.23438L23.625 179.23438ZM25.8125 173.90625L26.734375 173.75Q26.828125 174.20312 26.828125 174.54688Q26.828125 175.125 26.65625 175.4375Q26.46875 175.75 26.171875 175.89062Q25.875 176.01562 24.921875 176.01562L21.34375 176.01562L21.34375 176.78125L20.53125 176.78125L20.53125 176.01562L18.984375 176.01562L18.359375 174.96875L20.53125 174.96875L20.53125 173.90625L21.34375 173.90625L21.34375 174.96875L24.984375 174.96875Q25.4375 174.96875 25.5625 174.92188Q25.6875 174.85938 25.765625 174.73438Q25.84375 174.60938 25.84375 174.375Q25.84375 174.1875 25.8125 173.90625ZM24.75 168.95312L24.875 167.85938Q25.828125 168.10938 26.359375 168.8125Q26.890625 169.51562 26.890625 170.59375Q26.890625 171.95312 26.046875 172.76562Q25.203125 173.5625 23.6875 173.5625Q22.125 173.5625 21.265625 172.75Q20.390625 171.9375 20.390625 170.65625Q20.390625 169.40625 21.234375 168.625Q22.078125 167.82812 23.625 167.82812Q23.71875 167.82812 23.90625 167.82812L23.90625 172.46875Q24.9375 172.40625 25.484375 171.89062Q26.015625 171.375 26.015625 170.59375Q26.015625 170.01562 25.71875 169.60938Q25.40625 169.1875 24.75 168.95312ZM23.046875 172.40625L23.046875 168.9375Q22.25 169.0 21.859375 169.32812Q21.25 169.84375 21.25 170.64062Q21.25 171.375 21.734375 171.875Q22.21875 172.35938 23.046875 172.40625ZM26.75 166.20312L20.53125 166.20312L20.53125 165.26562L21.40625 165.26562Q20.390625 164.57812 20.390625 163.28125Q20.390625 162.71875 20.59375 162.25Q20.796875 161.76562 21.125 161.53125Q21.453125 161.29688 21.890625 161.20312Q22.1875 161.15625 22.921875 161.15625L26.75 161.15625L26.75 162.20312L22.96875 162.20312Q22.3125 162.20312 22.0 162.32812Q21.6875 162.45312 21.5 162.76562Q21.296875 163.07812 21.296875 163.5Q21.296875 164.17188 21.734375 164.67188Q22.15625 165.15625 23.34375 165.15625L26.75 165.15625L26.75 166.20312ZM24.46875 155.14062L24.609375 154.10938Q25.671875 154.28125 26.28125 154.98438Q26.890625 155.6875 26.890625 156.70312Q26.890625 157.98438 26.0625 158.76562Q25.21875 159.53125 23.65625 159.53125Q22.65625 159.53125 21.90625 159.20312Q21.140625 158.85938 20.765625 158.1875Q20.390625 157.5 20.390625 156.6875Q20.390625 155.6875 20.90625 155.04688Q21.40625 154.39062 22.359375 154.20312L22.515625 155.23438Q21.890625 155.375 21.578125 155.75Q21.25 156.125 21.25 156.65625Q21.25 157.45312 21.828125 157.95312Q22.390625 158.45312 23.625 158.45312Q24.890625 158.45312 25.453125 157.96875Q26.015625 157.48438 26.015625 156.71875Q26.015625 156.09375 25.640625 155.6875Q25.265625 155.26562 24.46875 155.14062ZM29.140625 153.25L28.15625 153.375Q28.25 153.03125 28.25 152.76562Q28.25 152.42188 28.125 152.21875Q28.015625 152.0 27.8125 151.85938Q27.640625 151.76562 27.015625 151.53125Q26.9375 151.51562 26.765625 151.4375L20.53125 153.8125L20.53125 152.67188L24.125 151.375Q24.8125 151.125 25.578125 150.92188Q24.84375 150.73438 24.15625 150.48438L20.53125 149.15625L20.53125 148.10938L26.859375 150.46875Q27.875 150.85938 28.265625 151.0625Q28.796875 151.34375 29.03125 151.71875Q29.28125 152.07812 29.28125 152.57812Q29.28125 152.875 29.140625 153.25ZM29.28125 142.1875Q28.171875 143.0625 26.703125 143.67188Q25.21875 144.26562 23.640625 144.26562Q22.25 144.26562 20.96875 143.82812Q19.484375 143.29688 18.015625 142.1875L18.015625 141.4375Q19.234375 142.14062 19.75 142.375Q20.5625 142.73438 21.4375 142.9375Q22.53125 143.1875 23.640625 143.1875Q26.46875 143.1875 29.28125 141.4375L29.28125 142.1875ZM26.75 140.20312L20.53125 140.20312L20.53125 139.26562L21.40625 139.26562Q20.9375 138.96875 20.671875 138.48438Q20.390625 138.0 20.390625 137.375Q20.390625 136.6875 20.671875 136.25Q20.953125 135.79688 21.46875 135.625Q20.390625 134.875 20.390625 133.70312Q20.390625 132.76562 20.90625 132.28125Q21.40625 131.78125 22.484375 131.78125L26.75 131.78125L26.75 132.82812L22.828125 132.82812Q22.203125 132.82812 21.921875 132.9375Q21.640625 133.03125 21.46875 133.29688Q21.296875 133.5625 21.296875 133.9375Q21.296875 134.59375 21.734375 135.03125Q22.171875 135.45312 23.140625 135.45312L26.75 135.45312L26.75 136.51562L22.703125 136.51562Q22.0 136.51562 21.65625 136.78125Q21.296875 137.03125 21.296875 137.60938Q21.296875 138.0625 21.53125 138.4375Q21.765625 138.8125 22.21875 138.98438Q22.671875 139.15625 23.515625 139.15625L26.75 139.15625L26.75 140.20312ZM24.890625 130.625L24.734375 129.59375Q25.359375 129.5 25.6875 129.10938Q26.015625 128.70312 26.015625 127.96875Q26.015625 127.25 25.734375 126.90625Q25.4375 126.546875 25.03125 126.546875Q24.671875 126.546875 24.46875 126.859375Q24.328125 127.078125 24.109375 127.9375Q23.8125 129.09375 23.609375 129.54688Q23.390625 129.98438 23.015625 130.21875Q22.640625 130.45312 22.171875 130.45312Q21.765625 130.45312 21.40625 130.26562Q21.046875 130.07812 20.8125 129.75Q20.640625 129.5 20.515625 129.07812Q20.390625 128.65625 20.390625 128.15625Q20.390625 127.4375 20.609375 126.890625Q20.8125 126.328125 21.171875 126.0625Q21.53125 125.796875 22.125 125.703125L22.265625 126.734375Q21.796875 126.796875 21.53125 127.140625Q21.25 127.46875 21.25 128.09375Q21.25 128.8125 21.5 129.125Q21.734375 129.4375 22.0625 129.4375Q22.265625 129.4375 22.421875 129.3125Q22.59375 129.17188 22.703125 128.90625Q22.765625 128.75 22.96875 127.96875Q23.28125 126.84375 23.46875 126.40625Q23.65625 125.96875 24.015625 125.71875Q24.375 125.46875 24.921875 125.46875Q25.453125 125.46875 25.921875 125.78125Q26.375 126.078125 26.640625 126.65625Q26.890625 127.234375 26.890625 127.96875Q26.890625 129.1875 26.390625 129.82812Q25.875 130.45312 24.890625 130.625ZM24.75 119.953125L24.875 118.859375Q25.828125 119.109375 26.359375 119.8125Q26.890625 120.515625 26.890625 121.59375Q26.890625 122.953125 26.046875 123.765625Q25.203125 124.5625 23.6875 124.5625Q22.125 124.5625 21.265625 123.75Q20.390625 122.9375 20.390625 121.65625Q20.390625 120.40625 21.234375 119.625Q22.078125 118.828125 23.625 118.828125Q23.71875 118.828125 23.90625 118.828125L23.90625 123.46875Q24.9375 123.40625 25.484375 122.890625Q26.015625 122.375 26.015625 121.59375Q26.015625 121.015625 25.71875 120.609375Q25.40625 120.1875 24.75 119.953125ZM23.046875 123.40625L23.046875 119.9375Q22.25 120.0 21.859375 120.328125Q21.25 120.84375 21.25 121.640625Q21.25 122.375 21.734375 122.875Q22.21875 123.359375 23.046875 123.40625ZM24.46875 113.140625L24.609375 112.109375Q25.671875 112.28125 26.28125 112.984375Q26.890625 113.6875 26.890625 114.703125Q26.890625 115.984375 26.0625 116.765625Q25.21875 117.53125 23.65625 117.53125Q22.65625 117.53125 21.90625 117.203125Q21.140625 116.859375 20.765625 116.1875Q20.390625 115.5 20.390625 114.6875Q20.390625 113.6875 20.90625 113.046875Q21.40625 112.390625 22.359375 112.203125L22.515625 113.234375Q21.890625 113.375 21.578125 113.75Q21.25 114.125 21.25 114.65625Q21.25 115.453125 21.828125 115.953125Q22.390625 116.453125 23.625 116.453125Q24.890625 116.453125 25.453125 115.96875Q26.015625 115.484375 26.015625 114.71875Q26.015625 114.09375 25.640625 113.6875Q25.265625 113.265625 24.46875 113.140625ZM29.28125 110.515625L29.28125 111.265625Q26.46875 109.515625 23.640625 109.515625Q22.546875 109.515625 21.453125 109.765625Q20.578125 109.96875 19.765625 110.328125Q19.25 110.5625 18.015625 111.265625L18.015625 110.515625Q19.484375 109.421875 20.96875 108.890625Q22.25 108.4375 23.640625 108.4375Q25.21875 108.4375 26.703125 109.046875Q28.171875 109.65625 29.28125 110.515625Z" fill-rule="nonzero"/><path fill="#000000" d="M52.25 267.80862Q52.25 266.27737 52.5625 265.3555Q52.875 264.418 53.484375 263.918Q54.109375 263.418 55.046875 263.418Q55.734375 263.418 56.25 263.69925Q56.78125 263.9805 57.125 264.51175Q57.46875 265.02737 57.65625 265.77737Q57.84375 266.52737 57.84375 267.80862Q57.84375 269.32425 57.53125 270.24612Q57.234375 271.168 56.609375 271.68362Q56.0 272.18362 55.046875 272.18362Q53.8125 272.18362 53.09375 271.293Q52.25 270.2305 52.25 267.80862ZM53.328125 267.80862Q53.328125 269.918 53.828125 270.62112Q54.328125 271.32425 55.046875 271.32425Q55.78125 271.32425 56.265625 270.62112Q56.765625 269.918 56.765625 267.80862Q56.765625 265.68362 56.265625 264.99612Q55.78125 264.293 55.03125 264.293Q54.3125 264.293 53.875 264.90237Q53.328125 265.68362 53.328125 267.80862ZM59.84375 272.043L59.84375 270.83987L61.046875 270.83987L61.046875 272.043L59.84375 272.043ZM62.25 269.793L63.359375 269.69925Q63.484375 270.51175 63.921875 270.918Q64.375 271.32425 65.015625 271.32425Q65.765625 271.32425 66.296875 270.74612Q66.828125 270.168 66.828125 269.2305Q66.828125 268.32425 66.3125 267.80862Q65.8125 267.27737 64.984375 267.27737Q64.484375 267.27737 64.0625 267.51175Q63.65625 267.74612 63.421875 268.1055L62.4375 267.9805L63.265625 263.57425L67.546875 263.57425L67.546875 264.57425L64.109375 264.57425L63.65625 266.88675Q64.421875 266.33987 65.265625 266.33987Q66.390625 266.33987 67.15625 267.12112Q67.9375 267.90237 67.9375 269.13675Q67.9375 270.293 67.265625 271.15237Q66.4375 272.18362 65.015625 272.18362Q63.84375 272.18362 63.09375 271.52737Q62.359375 270.87112 62.25 269.793Z" fill-rule="nonzero"/><path fill="#000000" d="M66.21875 228.6764L65.171875 228.6764L65.171875 221.95766Q64.78125 222.31703 64.15625 222.69203Q63.546875 223.0514 63.0625 223.22328L63.0625 222.20766Q63.9375 221.78578 64.59375 221.20766Q65.265625 220.6139 65.546875 220.0514L66.21875 220.0514L66.21875 228.6764Z" fill-rule="nonzero"/><path fill="#000000" d="M62.25 125.73232L63.359375 125.63857Q63.484375 126.45107 63.921875 126.85732Q64.375 127.26357 65.015625 127.26357Q65.765625 127.26357 66.296875 126.68545Q66.828125 126.10732 66.828125 125.16982Q66.828125 124.26357 66.3125 123.74795Q65.8125 123.2167 64.984375 123.2167Q64.484375 123.2167 64.0625 123.45107Q63.65625 123.68545 63.421875 124.04482L62.4375 123.91982L63.265625 119.51357L67.546875 119.51357L67.546875 120.51357L64.109375 120.51357L63.65625 122.82607Q64.421875 122.2792 65.265625 122.2792Q66.390625 122.2792 67.15625 123.06045Q67.9375 123.8417 67.9375 125.07607Q67.9375 126.23232 67.265625 127.0917Q66.4375 128.12296 65.015625 128.12296Q63.84375 128.12296 63.09375 127.4667Q62.359375 126.81045 62.25 125.73232Z" fill-rule="nonzero"/><path fill="#000000" d="M59.21875 84.61574L58.171875 84.61574L58.171875 77.89699Q57.78125 78.25636 57.15625 78.63136Q56.546875 78.99074 56.0625 79.16261L56.0625 78.14699Q56.9375 77.72511 57.59375 77.14699Q58.265625 76.55324 58.546875 75.99074L59.21875 75.99074L59.21875 84.61574ZM62.25 80.38136Q62.25 78.85011 62.5625 77.92824Q62.875 76.99074 63.484375 76.49074Q64.109375 75.99074 65.046875 75.99074Q65.734375 75.99074 66.25 76.27199Q66.78125 76.55324 67.125 77.08449Q67.46875 77.60011 67.65625 78.35011Q67.84375 79.10011 67.84375 80.38136Q67.84375 81.89699 67.53125 82.81886Q67.234375 83.74074 66.609375 84.25636Q66.0 84.75636 65.046875 84.75636Q63.8125 84.75636 63.09375 83.86574Q62.25 82.80324 62.25 80.38136ZM63.328125 80.38136Q63.328125 82.49074 63.828125 83.19386Q64.328125 83.89699 65.046875 83.89699Q65.78125 83.89699 66.265625 83.19386Q66.765625 82.49074 66.765625 80.38136Q66.765625 78.25636 66.265625 77.56886Q65.78125 76.86574 65.03125 76.86574Q64.3125 76.86574 63.875 77.47511Q63.328125 78.25636 63.328125 80.38136Z" fill-rule="nonzero"/><path fill="#000000" d="M72.99117 292.01562Q72.99117 290.48438 73.30367 289.5625Q73.61617 288.625 74.22555 288.125Q74.85055 287.625 75.78805 287.625Q76.47555 287.625 76.99117 287.90625Q77.52242 288.1875 77.86617 288.71875Q78.20992 289.23438 78.39742 289.98438Q78.58492 290.73438 78.58492 292.01562Q78.58492 293.53125 78.27242 294.45312Q77.97555 295.375 77.35055 295.89062Q76.74117 296.39062 75.78805 296.39062Q74.55367 296.39062 73.83492 295.5Q72.99117 294.4375 72.99117 292.01562ZM74.0693 292.01562Q74.0693 294.125 74.5693 294.82812Q75.0693 295.53125 75.78805 295.53125Q76.52242 295.53125 77.0068 294.82812Q77.5068 294.125 77.5068 292.01562Q77.5068 289.89062 77.0068 289.20312Q76.52242 288.5 75.77242 288.5Q75.05367 288.5 74.61617 289.10938Q74.0693 289.89062 74.0693 292.01562Z" fill-rule="nonzero"/><path fill="#000000" d="M179.42363 292.01562Q179.42363 290.48438 179.73613 289.5625Q180.04863 288.625 180.658 288.125Q181.283 287.625 182.2205 287.625Q182.908 287.625 183.42363 287.90625Q183.95488 288.1875 184.29863 288.71875Q184.64238 289.23438 184.82988 289.98438Q185.01738 290.73438 185.01738 292.01562Q185.01738 293.53125 184.70488 294.45312Q184.408 295.375 183.783 295.89062Q183.17363 296.39062 182.2205 296.39062Q180.98613 296.39062 180.26738 295.5Q179.42363 294.4375 179.42363 292.01562ZM180.50175 292.01562Q180.50175 294.125 181.00175 294.82812Q181.50175 295.53125 182.2205 295.53125Q182.95488 295.53125 183.43925 294.82812Q183.93925 294.125 183.93925 292.01562Q183.93925 289.89062 183.43925 289.20312Q182.95488 288.5 182.20488 288.5Q181.48613 288.5 181.04863 289.10938Q180.50175 289.89062 180.50175 292.01562ZM187.01738 296.25L187.01738 295.04688L188.2205 295.04688L188.2205 296.25L187.01738 296.25ZM194.9705 295.23438L194.9705 296.25L189.283 296.25Q189.283 295.875 189.408 295.51562Q189.62675 294.9375 190.0955 294.375Q190.57988 293.8125 191.48613 293.07812Q192.89238 291.92188 193.37675 291.25Q193.87675 290.57812 193.87675 289.98438Q193.87675 289.35938 193.42363 288.9375Q192.9705 288.5 192.25175 288.5Q191.48613 288.5 191.033 288.95312Q190.57988 289.40625 190.56425 290.21875L189.48613 290.10938Q189.5955 288.89062 190.31425 288.26562Q191.04863 287.625 192.283 287.625Q193.51738 287.625 194.23613 288.3125Q194.95488 289.0 194.95488 290.01562Q194.95488 290.53125 194.73613 291.03125Q194.533 291.51562 194.033 292.07812Q193.54863 292.625 192.42363 293.57812Q191.4705 294.375 191.18925 294.67188Q190.92363 294.95312 190.75175 295.23438L194.9705 295.23438Z" fill-rule="nonzero"/><path fill="#000000" d="M290.85608 292.01562Q290.85608 290.48438 291.16858 289.5625Q291.48108 288.625 292.09045 288.125Q292.71545 287.625 293.65295 287.625Q294.34045 287.625 294.85608 287.90625Q295.38733 288.1875 295.73108 288.71875Q296.07483 289.23438 296.26233 289.98438Q296.44983 290.73438 296.44983 292.01562Q296.44983 293.53125 296.13733 294.45312Q295.84045 295.375 295.21545 295.89062Q294.60608 296.39062 293.65295 296.39062Q292.41858 296.39062 291.69983 295.5Q290.85608 294.4375 290.85608 292.01562ZM291.9342 292.01562Q291.9342 294.125 292.4342 294.82812Q292.9342 295.53125 293.65295 295.53125Q294.38733 295.53125 294.8717 294.82812Q295.3717 294.125 295.3717 292.01562Q295.3717 289.89062 294.8717 289.20312Q294.38733 288.5 293.63733 288.5Q292.91858 288.5 292.48108 289.10938Q291.9342 289.89062 291.9342 292.01562ZM298.44983 296.25L298.44983 295.04688L299.65295 295.04688L299.65295 296.25L298.44983 296.25ZM304.23108 296.25L304.23108 294.1875L300.51233 294.1875L300.51233 293.21875L304.4342 287.65625L305.29358 287.65625L305.29358 293.21875L306.44983 293.21875L306.44983 294.1875L305.29358 294.1875L305.29358 296.25L304.23108 296.25ZM304.23108 293.21875L304.23108 289.35938L301.54358 293.21875L304.23108 293.21875Z" fill-rule="nonzero"/><path fill="#000000" d="M402.2885 292.01562Q402.2885 290.48438 402.601 289.5625Q402.9135 288.625 403.5229 288.125Q404.1479 287.625 405.0854 287.625Q405.7729 287.625 406.2885 287.90625Q406.81976 288.1875 407.1635 288.71875Q407.50726 289.23438 407.69476 289.98438Q407.88226 290.73438 407.88226 292.01562Q407.88226 293.53125 407.56976 294.45312Q407.2729 295.375 406.6479 295.89062Q406.0385 296.39062 405.0854 296.39062Q403.851 296.39062 403.13226 295.5Q402.2885 294.4375 402.2885 292.01562ZM403.36664 292.01562Q403.36664 294.125 403.86664 294.82812Q404.36664 295.53125 405.0854 295.53125Q405.81976 295.53125 406.30414 294.82812Q406.80414 294.125 406.80414 292.01562Q406.80414 289.89062 406.30414 289.20312Q405.81976 288.5 405.06976 288.5Q404.351 288.5 403.9135 289.10938Q403.36664 289.89062 403.36664 292.01562ZM409.88226 296.25L409.88226 295.04688L411.0854 295.04688L411.0854 296.25L409.88226 296.25ZM417.75726 289.76562L416.7104 289.84375Q416.56976 289.21875 416.31976 288.9375Q415.88226 288.48438 415.25726 288.48438Q414.75726 288.48438 414.36664 288.76562Q413.88226 289.14062 413.5854 289.84375Q413.30414 290.53125 413.2885 291.8125Q413.6635 291.23438 414.2104 290.95312Q414.7729 290.67188 415.38226 290.67188Q416.42914 290.67188 417.1635 291.45312Q417.9135 292.23438 417.9135 293.45312Q417.9135 294.26562 417.55414 294.96875Q417.2104 295.65625 416.601 296.03125Q415.99164 296.39062 415.226 296.39062Q413.8979 296.39062 413.06976 295.42188Q412.24164 294.45312 412.24164 292.23438Q412.24164 289.73438 413.1635 288.60938Q413.9604 287.625 415.31976 287.625Q416.3354 287.625 416.976 288.20312Q417.63226 288.76562 417.75726 289.76562ZM413.4604 293.46875Q413.4604 294.01562 413.67914 294.51562Q413.9135 295.0 414.31976 295.26562Q414.74164 295.53125 415.2104 295.53125Q415.86664 295.53125 416.351 295.0Q416.8354 294.45312 416.8354 293.53125Q416.8354 292.64062 416.351 292.125Q415.88226 291.60938 415.1635 291.60938Q414.44476 291.60938 413.94476 292.125Q413.4604 292.64062 413.4604 293.46875Z" fill-rule="nonzero"/><path fill="#000000" d="M513.72095 292.01562Q513.72095 290.48438 514.03345 289.5625Q514.34595 288.625 514.9553 288.125Q515.5803 287.625 516.5178 287.625Q517.2053 287.625 517.72095 287.90625Q518.2522 288.1875 518.59595 288.71875Q518.9397 289.23438 519.1272 289.98438Q519.3147 290.73438 519.3147 292.01562Q519.3147 293.53125 519.0022 294.45312Q518.7053 295.375 518.0803 295.89062Q517.47095 296.39062 516.5178 296.39062Q515.28345 296.39062 514.5647 295.5Q513.72095 294.4375 513.72095 292.01562ZM514.7991 292.01562Q514.7991 294.125 515.2991 294.82812Q515.7991 295.53125 516.5178 295.53125Q517.2522 295.53125 517.7366 294.82812Q518.2366 294.125 518.2366 292.01562Q518.2366 289.89062 517.7366 289.20312Q517.2522 288.5 516.5022 288.5Q515.78345 288.5 515.34595 289.10938Q514.7991 289.89062 514.7991 292.01562ZM521.3147 296.25L521.3147 295.04688L522.5178 295.04688L522.5178 296.25L521.3147 296.25ZM525.34595 291.59375Q524.6897 291.34375 524.3616 290.90625Q524.0491 290.45312 524.0491 289.84375Q524.0491 288.90625 524.72095 288.26562Q525.40845 287.625 526.5178 287.625Q527.6428 287.625 528.3303 288.28125Q529.0178 288.9375 529.0178 289.875Q529.0178 290.46875 528.7053 290.90625Q528.3928 291.34375 527.7522 291.59375Q528.5491 291.84375 528.9553 292.42188Q529.3616 293.0 529.3616 293.79688Q529.3616 294.89062 528.5803 295.64062Q527.8147 296.39062 526.53345 296.39062Q525.2678 296.39062 524.4866 295.64062Q523.7053 294.89062 523.7053 293.76562Q523.7053 292.92188 524.1272 292.35938Q524.5647 291.79688 525.34595 291.59375ZM525.1272 289.79688Q525.1272 290.40625 525.5178 290.79688Q525.9241 291.1875 526.5491 291.1875Q527.15845 291.1875 527.5491 290.8125Q527.9397 290.42188 527.9397 289.85938Q527.9397 289.28125 527.53345 288.89062Q527.1272 288.48438 526.53345 288.48438Q525.9241 288.48438 525.5178 288.875Q525.1272 289.26562 525.1272 289.79688ZM524.7991 293.76562Q524.7991 294.21875 525.0022 294.64062Q525.22095 295.0625 525.6428 295.29688Q526.0647 295.53125 526.5491 295.53125Q527.2991 295.53125 527.78345 295.04688Q528.28345 294.5625 528.28345 293.8125Q528.28345 293.04688 527.78345 292.54688Q527.28345 292.04688 526.5178 292.04688Q525.7678 292.04688 525.28345 292.54688Q524.7991 293.03125 524.7991 293.76562Z" fill-rule="nonzero"/></svg>